<svg width="375" height="833" viewBox="0 0 375 833" fill="none" xmlns="http://www.w3.org/2000/svg">
<rect width="375" height="833" fill="white"/>
<rect x="72.5373" y="376" width="227.015" height="65" fill="url(#paint0_linear_474_69)"/>
<path opacity="0.87" d="M153.917 59.1426C153.904 60.5234 155.032 61.6924 156.939 62.1367L156.337 63.1621C154.875 62.7861 153.808 62.0068 153.254 60.9404C152.708 62.123 151.6 63.0254 150.117 63.4355L149.474 62.4238C151.409 61.9248 152.571 60.6191 152.578 59.1426V58.4316H153.917V59.1426ZM149.201 64.4199C151.484 64.4268 154.587 64.3994 157.267 64.0234L157.363 64.9531C156.249 65.1582 155.086 65.2881 153.959 65.3701V69.7793H152.66V65.4453C151.477 65.5 150.356 65.5 149.378 65.5L149.201 64.4199ZM158.115 70.1621V57.9258H159.4V70.1621H158.115ZM171.274 57.9258V70.1621H169.962V67.2363H167.255V66.252H169.962V57.9258H171.274ZM160.979 64.2969C163.304 64.2832 166.387 64.2764 169.073 63.9004L169.141 64.8574C167.972 65.0625 166.762 65.1855 165.587 65.2607V69.7793H164.288V65.3223C163.167 65.3633 162.1 65.377 161.157 65.377L160.979 64.2969ZM161.882 60.9336C161.888 59.4844 163.174 58.4863 165.012 58.4863C166.824 58.4863 168.116 59.4844 168.116 60.9336C168.116 62.4102 166.824 63.3604 165.012 63.3672C163.174 63.3604 161.888 62.4102 161.882 60.9336ZM163.112 60.9336C163.105 61.8086 163.885 62.376 165.012 62.3691C166.099 62.376 166.879 61.8086 166.886 60.9336C166.879 60.0723 166.106 59.4912 165.012 59.4844C163.885 59.4912 163.105 60.0723 163.112 60.9336ZM177.393 60.4688C177.393 62.0547 178.562 63.5449 180.455 64.1465L179.785 65.1582C178.377 64.6934 177.317 63.7295 176.757 62.5059C176.21 63.8389 175.116 64.8916 173.66 65.4043L172.99 64.3789C174.898 63.7295 176.073 62.1436 176.08 60.4688V59.9355H173.332V58.8828H180.086V59.9355H177.393V60.4688ZM175 69.9023V66.0195H176.313V68.8496H183.381V69.9023H175ZM181.713 66.8672V57.9258H183.012V66.8672H181.713ZM198.981 64.0098V65.0488H187.811V64.0098H192.733V62.7383H188.891V61.6855H190.628V59.3477H188.837V58.2949H197.928V59.3477H196.151V61.6855H197.874V62.7383H194.032V64.0098H198.981ZM189.151 70.0117V66.1152H197.614V70.0117H189.151ZM190.436 68.959H196.356V67.127H190.436V68.959ZM191.913 61.6855H194.852V59.3477H191.913V61.6855ZM212.982 57.9258V66.9766H211.683V63.791H209.003V64.9395H203.357V58.7324H204.655V60.8105H207.718V58.7324H209.003V60.0996H211.683V57.9258H212.982ZM204.655 63.8867H207.718V61.8086H204.655V63.8867ZM204.984 69.9023V66.0879H206.296V68.8496H213.255V69.9023H204.984ZM209.003 62.7383H211.683V61.166H209.003V62.7383ZM224.227 57.9121V62.1094H225.977V63.1895H224.227V67.4824H222.928V57.9121H224.227ZM214.506 65.1035C215.45 65.1035 216.55 65.1035 217.706 65.0625V64.208C216.311 64.0439 215.422 63.374 215.436 62.3691C215.422 61.1797 216.591 60.4688 218.348 60.4824C220.105 60.4688 221.253 61.1797 221.26 62.3691C221.253 63.374 220.385 64.0439 219.004 64.2012V65.001C220.098 64.9395 221.206 64.8369 222.231 64.6797L222.34 65.5957C219.729 66.0879 216.783 66.1221 214.643 66.1426L214.506 65.1035ZM214.821 60.0039V59.0469H217.706V57.8711H219.004V59.0469H221.889V60.0039H214.821ZM216.311 69.9023V66.8398H217.61V68.8496H224.665V69.9023H216.311ZM216.666 62.3691C216.666 62.9639 217.302 63.3398 218.348 63.3398C219.38 63.3398 220.023 62.9639 220.016 62.3691C220.023 61.7334 219.38 61.3643 218.348 61.3711C217.302 61.3643 216.666 61.7334 216.666 62.3691Z" fill="black"/>
<path d="M113.718 92.0938H111.225V86.9502H107.182V84.9512H111.225V81.6943H113.718V92.0938ZM113.718 98.2256H102.825V99.7754H114.369V101.752H100.376V96.3613H111.247V94.9238H100.354V92.9697H113.718V98.2256ZM104.082 83.9854C104.082 84.8314 104.266 85.64 104.633 86.4111C104.999 87.1823 105.542 87.8674 106.261 88.4663C106.98 89.0578 107.848 89.5107 108.867 89.8252L107.541 91.7568C106.456 91.39 105.516 90.8659 104.722 90.1846C103.929 89.4958 103.307 88.6834 102.858 87.7476C102.401 88.8032 101.754 89.7166 100.915 90.4878C100.084 91.2515 99.081 91.8242 97.9056 92.2061L96.6028 90.207C97.666 89.8851 98.5682 89.4134 99.3094 88.792C100.058 88.1631 100.62 87.4368 100.994 86.6133C101.376 85.7897 101.567 84.9137 101.567 83.9854V82.3682H104.082V83.9854ZM134.433 93.8457H126.594V97.5742H124.124V93.8457H115.881V91.8467H134.433V93.8457ZM132.052 89.96H118.239V82.6152H132.052V89.96ZM120.665 88.0059H129.582V84.5693H120.665V88.0059ZM132.389 101.595H118.127V95.71H120.62V99.5732H132.389V101.595ZM155.761 89.3984H158.883V91.4424H155.761V102.021H153.268V81.6943H155.761V89.3984ZM150.191 85.6475H143.183V94.9688C144.823 94.9688 146.302 94.9201 147.619 94.8228C148.937 94.7254 150.273 94.557 151.629 94.3174L151.921 96.4287C150.453 96.6833 149.001 96.8517 147.563 96.9341C146.133 97.0164 144.404 97.0576 142.375 97.0576H140.69V83.626H150.191V85.6475ZM166.729 86.5684C166.721 87.8187 166.927 89.0353 167.346 90.2183C167.766 91.4012 168.372 92.4531 169.166 93.374C169.959 94.2949 170.891 94.9837 171.962 95.4404L170.48 97.4395C169.334 96.9079 168.335 96.133 167.481 95.1147C166.635 94.0965 165.972 92.9098 165.493 91.5547C165.014 93.0221 164.336 94.3099 163.461 95.418C162.592 96.5186 161.555 97.3496 160.35 97.9111L158.822 95.8223C159.923 95.3506 160.878 94.6393 161.686 93.6885C162.502 92.7301 163.124 91.6333 163.55 90.3979C163.977 89.1551 164.19 87.8786 164.19 86.5684V83.334H166.729V86.5684ZM175.938 102.021H173.422V81.6943H175.938V102.021ZM199.916 92.5879H197.4V81.6943H199.916V92.5879ZM188.955 95.6201H197.423V93.5312H199.916V101.752H186.484V93.5312H188.955V95.6201ZM197.423 99.7305V97.5742H188.955V99.7305H197.423ZM188.843 82.5928C189.876 82.5853 190.808 82.7837 191.639 83.188C192.47 83.5848 193.122 84.1463 193.593 84.8726C194.065 85.5988 194.301 86.4261 194.301 87.3545C194.301 88.2604 194.061 89.0728 193.582 89.7915C193.11 90.5103 192.459 91.0718 191.628 91.4761C190.804 91.8729 189.876 92.0713 188.843 92.0713C187.802 92.0713 186.866 91.8729 186.035 91.4761C185.204 91.0718 184.549 90.5103 184.07 89.7915C183.598 89.0728 183.362 88.2604 183.362 87.3545C183.362 86.4261 183.598 85.5988 184.07 84.8726C184.549 84.1463 185.204 83.5848 186.035 83.188C186.866 82.7837 187.802 82.5853 188.843 82.5928ZM188.843 84.6816C188.251 84.6816 187.723 84.7902 187.259 85.0073C186.803 85.2244 186.443 85.5352 186.181 85.9395C185.927 86.3438 185.803 86.8154 185.81 87.3545C185.803 87.8861 185.927 88.354 186.181 88.7583C186.443 89.1551 186.803 89.4658 187.259 89.6904C187.723 89.9076 188.251 90.0199 188.843 90.0273C189.427 90.0199 189.947 89.9076 190.404 89.6904C190.86 89.4658 191.216 89.1551 191.471 88.7583C191.725 88.354 191.852 87.8861 191.852 87.3545C191.852 86.8154 191.725 86.3438 191.471 85.9395C191.216 85.5352 190.86 85.2244 190.404 85.0073C189.947 84.7902 189.427 84.6816 188.843 84.6816ZM211.894 89.0166H205.493V91.5098H205.942C207.469 91.5098 208.738 91.4761 209.749 91.4087C210.76 91.3338 211.767 91.2028 212.77 91.0156L213.017 93.0371C211.864 93.2318 210.685 93.359 209.479 93.4189C208.281 93.4788 206.623 93.5088 204.504 93.5088H203.022V87.1523H209.401V84.8838H202.977V82.9072H211.894V89.0166ZM219.194 94.2051H216.701V90.8584H213.107V88.8594H216.701V86.5908H213.107V84.5918H216.701V81.7168H219.194V94.2051ZM219.194 101.999H216.701V97.1699H205.313V95.1709H219.194V101.999ZM237.281 89.7803H240.403V91.8467H237.281V101.999H234.81V81.6943H237.281V89.7803ZM233.238 86.8154H221.266V84.8164H226.073V81.9863H228.566V84.8164H233.238V86.8154ZM227.331 88.1406C228.297 88.1406 229.165 88.3465 229.936 88.7583C230.715 89.1626 231.325 89.7279 231.767 90.4541C232.209 91.1803 232.43 92.0039 232.43 92.9248C232.43 93.8457 232.209 94.6693 231.767 95.3955C231.325 96.1143 230.715 96.6758 229.936 97.0801C229.165 97.4844 228.297 97.6865 227.331 97.6865C226.35 97.6865 225.47 97.4844 224.692 97.0801C223.913 96.6758 223.303 96.1143 222.861 95.3955C222.419 94.6693 222.202 93.8457 222.21 92.9248C222.202 92.0039 222.419 91.1803 222.861 90.4541C223.303 89.7279 223.913 89.1626 224.692 88.7583C225.47 88.3465 226.35 88.1406 227.331 88.1406ZM227.331 90.1846C226.799 90.1846 226.324 90.2969 225.905 90.5215C225.493 90.7461 225.171 91.068 224.939 91.4873C224.707 91.8991 224.591 92.3783 224.591 92.9248C224.591 93.4714 224.707 93.9505 224.939 94.3623C225.171 94.7666 225.493 95.0811 225.905 95.3057C226.324 95.5228 226.799 95.6276 227.331 95.6201C227.847 95.6276 228.308 95.5228 228.712 95.3057C229.124 95.0811 229.446 94.7666 229.678 94.3623C229.918 93.9505 230.041 93.4714 230.049 92.9248C230.041 92.3783 229.918 91.8991 229.678 91.4873C229.446 91.0755 229.124 90.7573 228.712 90.5327C228.308 90.3006 227.847 90.1846 227.331 90.1846ZM257.075 92.79H242.7V83.4688H245.216V90.7461H257.075V92.79ZM259.119 99.4609H240.567V97.3496H259.119V99.4609ZM275.657 89.4883H278.779V91.5771H275.657V102.021H273.186V81.6943H275.657V89.4883ZM269.907 91.1279H263.079V95.1709C264.801 95.1559 266.321 95.1035 267.638 95.0137C268.956 94.9163 270.289 94.7516 271.636 94.5195L271.861 96.541C270.379 96.8105 268.9 96.994 267.425 97.0913C265.958 97.1886 264.239 97.2373 262.27 97.2373H260.608V89.1289H267.414V85.4902H260.563V83.4688H269.907V91.1279ZM123.585 115.568C123.577 116.819 123.783 118.035 124.202 119.218C124.622 120.401 125.228 121.453 126.022 122.374C126.815 123.295 127.747 123.984 128.818 124.44L127.336 126.439C126.19 125.908 125.191 125.133 124.337 124.115C123.491 123.097 122.829 121.91 122.349 120.555C121.87 122.022 121.193 123.31 120.317 124.418C119.448 125.519 118.411 126.35 117.206 126.911L115.678 124.822C116.779 124.351 117.734 123.639 118.542 122.688C119.358 121.73 119.98 120.633 120.406 119.398C120.833 118.155 121.047 116.879 121.047 115.568V112.334H123.585V115.568ZM132.794 131.021H130.278V110.694H132.794V131.021ZM151.106 116.534H153.936V118.623H151.106V125.339H148.568V110.694H151.106V116.534ZM145.58 112.244C145.58 114.026 145.206 115.639 144.457 117.084C143.709 118.522 142.623 119.761 141.2 120.802C139.785 121.835 138.071 122.644 136.057 123.228L135.024 121.251C136.558 120.809 137.884 120.244 138.999 119.555C140.122 118.859 141.009 118.065 141.661 117.174C142.312 116.283 142.709 115.321 142.851 114.288H135.877V112.244H145.58ZM151.869 130.595H138.056V123.834H140.594V128.573H151.869V130.595ZM165.493 114.647C165.493 115.696 165.725 116.729 166.19 117.747C166.661 118.758 167.365 119.593 168.301 120.251C169.229 119.6 169.926 118.769 170.39 117.758C170.854 116.748 171.086 115.711 171.086 114.647V112.222H173.602V114.647C173.602 115.493 173.744 116.313 174.028 117.107C174.313 117.893 174.751 118.608 175.342 119.252C175.934 119.888 176.671 120.39 177.555 120.757L176.207 122.621C175.279 122.224 174.489 121.67 173.837 120.959C173.194 120.24 172.692 119.405 172.333 118.455C171.958 119.458 171.434 120.345 170.76 121.116C170.094 121.88 169.267 122.471 168.278 122.891C167.29 122.471 166.455 121.876 165.774 121.105C165.1 120.326 164.58 119.432 164.213 118.421C163.846 119.364 163.337 120.199 162.686 120.925C162.042 121.652 161.263 122.217 160.35 122.621L159.047 120.757C159.908 120.375 160.634 119.858 161.226 119.207C161.817 118.548 162.259 117.826 162.551 117.04C162.843 116.246 162.993 115.449 163 114.647V112.222H165.493V114.647ZM177.555 128.394H159.047V126.35H177.555V128.394ZM185.894 116.467C185.894 117.582 186.104 118.687 186.523 119.78C186.95 120.865 187.556 121.842 188.342 122.711C189.136 123.572 190.064 124.223 191.127 124.665L189.757 126.642C188.582 126.14 187.56 125.388 186.691 124.384C185.823 123.381 185.149 122.217 184.67 120.892C184.191 122.314 183.513 123.576 182.637 124.676C181.769 125.769 180.75 126.589 179.583 127.136L178.145 125.182C179.186 124.702 180.099 123.999 180.885 123.07C181.679 122.142 182.289 121.101 182.716 119.948C183.143 118.788 183.356 117.627 183.356 116.467V114.76H178.886V112.693H190.341V114.76H185.894V116.467ZM195.125 130.999H192.61V110.694H195.125V130.999ZM212.523 125.968H202.91V112.671H212.523V125.968ZM205.358 123.969H210.03V114.625H205.358V123.969ZM218.093 118.488H221.215V120.6H218.093V130.999H215.6V110.694H218.093V118.488ZM227.713 116.018C227.713 117.156 227.847 118.26 228.117 119.331C228.394 120.401 228.825 121.382 229.409 122.273C229.992 123.164 230.722 123.886 231.598 124.44L230.228 126.35C229.345 125.818 228.596 125.107 227.982 124.216C227.368 123.317 226.885 122.288 226.534 121.127C226.152 122.393 225.631 123.516 224.972 124.497C224.314 125.477 223.52 126.252 222.592 126.821L221.042 124.957C221.993 124.381 222.786 123.624 223.423 122.688C224.059 121.753 224.531 120.723 224.838 119.6C225.152 118.477 225.309 117.32 225.309 116.13V112.491H227.713V116.018ZM238.898 130.999H236.495V110.694H238.898V130.999ZM234.676 130.011H232.317V119.746H229.42V117.68H232.317V111.054H234.676V130.011ZM259.119 128.528H240.567V126.484H244.857V121.352C244.033 120.873 243.393 120.278 242.936 119.566C242.487 118.855 242.266 118.054 242.274 117.163C242.266 116.107 242.584 115.172 243.228 114.355C243.872 113.539 244.767 112.91 245.912 112.469C247.058 112.02 248.353 111.795 249.798 111.795C251.251 111.795 252.55 112.02 253.695 112.469C254.848 112.91 255.747 113.539 256.39 114.355C257.042 115.164 257.367 116.1 257.367 117.163C257.367 118.032 257.147 118.821 256.705 119.533C256.271 120.236 255.653 120.824 254.852 121.296V126.484H259.119V128.528ZM249.798 113.771C248.787 113.771 247.896 113.91 247.125 114.187C246.362 114.457 245.766 114.846 245.34 115.355C244.92 115.864 244.714 116.467 244.722 117.163C244.714 117.852 244.92 118.451 245.34 118.96C245.766 119.469 246.365 119.862 247.136 120.139C247.908 120.416 248.795 120.555 249.798 120.555C250.801 120.555 251.689 120.416 252.46 120.139C253.238 119.862 253.841 119.469 254.268 118.96C254.702 118.451 254.919 117.852 254.919 117.163C254.919 116.474 254.702 115.875 254.268 115.366C253.841 114.85 253.242 114.457 252.471 114.187C251.7 113.91 250.809 113.771 249.798 113.771ZM252.314 126.484V122.25C251.52 122.423 250.682 122.509 249.798 122.509C248.952 122.509 248.129 122.426 247.327 122.262V126.484H252.314Z" fill="black"/>
<rect x="37" y="209" width="301" height="52" rx="14" fill="#F2F5F8" fill-opacity="0.7"/>
<path d="M67.7177 234.365V241H65.5183V226.085H67.6885V231.642H67.8269C68.3513 230.433 69.3927 229.668 71.1406 229.668C73.4419 229.668 74.9713 231.095 74.9713 233.885V241H72.7719V234.154C72.7719 232.516 71.8834 231.569 70.3904 231.569C68.8465 231.569 67.7177 232.581 67.7177 234.365ZM82.4363 229.814V231.569H80.1568V237.708C80.1568 238.968 80.7831 239.194 81.4968 239.201C81.81 239.201 82.2979 239.172 82.5892 239.157V241.051C82.2979 241.102 81.8245 241.146 81.2273 241.146C79.5013 241.146 77.9501 240.199 77.9574 238.16V231.569H76.3187V229.814H77.9574V227.134H80.1568V229.814H82.4363ZM89.388 229.814V231.569H87.1085V237.708C87.1085 238.968 87.7348 239.194 88.4486 239.201C88.7617 239.201 89.2497 239.172 89.541 239.157V241.051C89.2497 241.102 88.7763 241.146 88.1791 241.146C86.4531 241.146 84.9018 240.199 84.9091 238.16V231.569H83.2705V229.814H84.9091V227.134H87.1085V229.814H89.388ZM91.1108 245.195V229.814H93.2592V231.627H93.4412C93.8272 230.928 94.5846 229.668 96.653 229.668C99.3549 229.668 101.343 231.795 101.343 235.429C101.343 239.048 99.384 241.218 96.6748 241.218C94.6429 241.218 93.8345 239.98 93.4412 239.259H93.3102V245.195H91.1108ZM93.2665 235.407C93.2665 237.745 94.3079 239.347 96.1796 239.347C98.1168 239.347 99.1218 237.65 99.1218 235.407C99.1218 233.193 98.1386 231.54 96.1796 231.54C94.2788 231.54 93.2665 233.076 93.2665 235.407ZM109.386 232.865C109.183 231.977 108.483 231.401 107.267 231.401C106.015 231.401 105.111 232.057 105.119 232.902C105.111 233.564 105.643 234.038 106.867 234.322L108.658 234.73C110.705 235.203 111.71 236.186 111.71 237.759C111.71 239.784 109.998 241.226 107.136 241.226C104.456 241.226 102.868 240.031 102.592 237.941H104.842C105.031 238.961 105.796 239.463 107.114 239.463C108.542 239.463 109.459 238.873 109.459 237.934C109.459 237.213 108.928 236.747 107.733 236.477L105.985 236.091C103.975 235.654 102.919 234.577 102.919 233.025C102.919 231.037 104.653 229.668 107.253 229.668C109.736 229.668 111.295 230.942 111.498 232.865H109.386ZM114.901 241.138C114.092 241.138 113.422 240.483 113.437 239.682C113.422 238.881 114.092 238.225 114.901 238.225C115.687 238.225 116.357 238.881 116.357 239.682C116.357 240.483 115.687 241.138 114.901 241.138ZM113.452 231.54C113.437 230.739 114.107 230.083 114.915 230.083C115.702 230.083 116.372 230.739 116.372 231.54C116.372 232.341 115.702 232.996 114.915 232.996C114.107 232.996 113.437 232.341 113.452 231.54ZM124.293 225.386L119.487 243.243H117.528L122.334 225.386H124.293ZM131.183 225.386L126.377 243.243H124.418L129.224 225.386H131.183ZM136.566 241.218C133.856 241.218 131.883 239.048 131.883 235.429C131.883 231.795 133.886 229.668 136.588 229.668C138.663 229.668 139.413 230.928 139.807 231.627H139.923V226.085H142.122V241H139.974V239.259H139.807C139.399 239.98 138.605 241.218 136.566 241.218ZM134.119 235.407C134.119 237.65 135.124 239.347 137.061 239.347C138.925 239.347 139.974 237.745 139.974 235.407C139.974 233.076 138.947 231.54 137.061 231.54C135.102 231.54 134.119 233.193 134.119 235.407ZM149.288 241.226C146.127 241.226 144.059 238.917 144.059 235.458C144.059 231.977 146.127 229.668 149.288 229.668C152.441 229.668 154.502 231.977 154.502 235.458C154.502 238.917 152.441 241.226 149.288 241.226ZM146.273 235.451C146.273 237.592 147.249 239.391 149.295 239.391C151.32 239.391 152.288 237.592 152.288 235.451C152.288 233.317 151.32 231.496 149.295 231.496C147.249 231.496 146.273 233.317 146.273 235.451ZM160.977 241.226C157.721 241.226 155.748 238.83 155.748 235.458C155.748 232.042 157.794 229.668 160.955 229.668C163.497 229.668 165.347 231.168 165.572 233.433H163.438C163.205 232.384 162.375 231.511 160.984 231.511C159.171 231.511 157.962 233.018 157.962 235.407C157.962 237.847 159.149 239.361 160.984 239.361C162.23 239.361 163.162 238.662 163.438 237.453H165.572C165.339 239.631 163.621 241.226 160.977 241.226ZM173.517 232.865C173.313 231.977 172.614 231.401 171.398 231.401C170.145 231.401 169.242 232.057 169.249 232.902C169.242 233.564 169.773 234.038 170.997 234.322L172.789 234.73C174.835 235.203 175.84 236.186 175.84 237.759C175.84 239.784 174.129 241.226 171.266 241.226C168.586 241.226 166.999 240.031 166.722 237.941H168.972C169.162 238.961 169.926 239.463 171.245 239.463C172.672 239.463 173.59 238.873 173.59 237.934C173.59 237.213 173.058 236.747 171.864 236.477L170.116 236.091C168.106 235.654 167.05 234.577 167.05 233.025C167.05 231.037 168.783 229.668 171.383 229.668C173.866 229.668 175.425 230.942 175.629 232.865H173.517ZM179.031 241.138C178.223 241.138 177.553 240.483 177.567 239.682C177.553 238.881 178.223 238.225 179.031 238.225C179.818 238.225 180.488 238.881 180.488 239.682C180.488 240.483 179.818 241.138 179.031 241.138ZM187.433 245.428C184.6 245.428 182.743 244.183 182.546 242.085H184.79C185.001 243.148 185.991 243.665 187.455 243.665C189.196 243.665 190.303 242.908 190.303 241.16V238.961H190.157C189.771 239.682 188.963 240.832 186.916 240.832C184.272 240.832 182.233 238.866 182.233 235.29C182.233 231.722 184.236 229.668 186.938 229.668C189.014 229.668 189.778 230.928 190.179 231.627H190.324V229.814H192.473V241.24C192.473 244.117 190.31 245.428 187.433 245.428ZM184.469 235.334C184.469 237.526 185.474 239.019 187.411 239.019C189.276 239.019 190.324 237.643 190.324 235.334C190.324 233.076 189.298 231.54 187.411 231.54C185.452 231.54 184.469 233.193 184.469 235.334ZM199.453 241.226C196.292 241.226 194.224 238.917 194.224 235.458C194.224 231.977 196.292 229.668 199.453 229.668C202.606 229.668 204.667 231.977 204.667 235.458C204.667 238.917 202.606 241.226 199.453 241.226ZM196.438 235.451C196.438 237.592 197.414 239.391 199.46 239.391C201.485 239.391 202.453 237.592 202.453 235.451C202.453 233.317 201.485 231.496 199.46 231.496C197.414 231.496 196.438 233.317 196.438 235.451ZM211.142 241.226C207.981 241.226 205.913 238.917 205.913 235.458C205.913 231.977 207.981 229.668 211.142 229.668C214.295 229.668 216.356 231.977 216.356 235.458C216.356 238.917 214.295 241.226 211.142 241.226ZM208.127 235.451C208.127 237.592 209.103 239.391 211.149 239.391C213.174 239.391 214.142 237.592 214.142 235.451C214.142 233.317 213.174 231.496 211.149 231.496C209.103 231.496 208.127 233.317 208.127 235.451ZM222.809 245.428C219.976 245.428 218.119 244.183 217.922 242.085H220.165C220.377 243.148 221.367 243.665 222.831 243.665C224.572 243.665 225.678 242.908 225.678 241.16V238.961H225.533C225.147 239.682 224.338 240.832 222.292 240.832C219.648 240.832 217.609 238.866 217.609 235.29C217.609 231.722 219.612 229.668 222.314 229.668C224.389 229.668 225.154 230.928 225.555 231.627H225.7V229.814H227.849V241.24C227.849 244.117 225.686 245.428 222.809 245.428ZM219.845 235.334C219.845 237.526 220.85 239.019 222.787 239.019C224.652 239.019 225.7 237.643 225.7 235.334C225.7 233.076 224.673 231.54 222.787 231.54C220.828 231.54 219.845 233.193 219.845 235.334ZM232.302 226.085V241H230.102V226.085H232.302ZM239.39 241.226C236.091 241.226 234.059 238.954 234.059 235.48C234.059 232.042 236.12 229.668 239.23 229.668C241.779 229.668 244.204 231.248 244.204 235.29V236.07H236.244C236.302 238.203 237.555 239.42 239.405 239.42C240.65 239.42 241.459 238.881 241.83 238.189H244.059C243.563 240.017 241.845 241.226 239.39 241.226ZM236.251 234.424H242.041C242.034 232.727 240.934 231.474 239.259 231.474C237.497 231.474 236.353 232.851 236.251 234.424ZM247.405 241.138C246.596 241.138 245.926 240.483 245.941 239.682C245.926 238.881 246.596 238.225 247.405 238.225C248.191 238.225 248.861 238.881 248.861 239.682C248.861 240.483 248.191 241.138 247.405 241.138ZM255.828 241.226C252.573 241.226 250.599 238.83 250.599 235.458C250.599 232.042 252.646 229.668 255.806 229.668C258.348 229.668 260.198 231.168 260.424 233.433H258.29C258.057 232.384 257.227 231.511 255.836 231.511C254.022 231.511 252.813 233.018 252.813 235.407C252.813 237.847 254 239.361 255.836 239.361C257.081 239.361 258.013 238.662 258.29 237.453H260.424C260.191 239.631 258.472 241.226 255.828 241.226ZM266.817 241.226C263.656 241.226 261.588 238.917 261.588 235.458C261.588 231.977 263.656 229.668 266.817 229.668C269.97 229.668 272.031 231.977 272.031 235.458C272.031 238.917 269.97 241.226 266.817 241.226ZM263.802 235.451C263.802 237.592 264.778 239.391 266.824 239.391C268.849 239.391 269.818 237.592 269.818 235.451C269.818 233.317 268.849 231.496 266.824 231.496C264.778 231.496 263.802 233.317 263.802 235.451ZM273.779 241V229.814H275.891V231.642H276.03C276.496 230.404 277.596 229.668 279.074 229.668C280.56 229.668 281.601 230.404 282.082 231.642H282.198C282.73 230.44 283.939 229.668 285.556 229.668C287.58 229.668 289.015 230.942 289.015 233.499V241H286.816V233.717C286.816 232.202 285.876 231.569 284.725 231.569C283.305 231.569 282.482 232.53 282.482 233.87V241H280.305V233.579C280.305 232.363 279.475 231.569 278.266 231.569C277.035 231.569 275.979 232.603 275.979 234.11V241H273.779ZM296.951 225.386L292.145 243.243H290.186L294.992 225.386H296.951ZM298.764 241.138C297.956 241.138 297.286 240.483 297.3 239.682C297.286 238.881 297.956 238.225 298.764 238.225C299.551 238.225 300.221 238.881 300.221 239.682C300.221 240.483 299.551 241.138 298.764 241.138ZM303.903 241.138C303.095 241.138 302.425 240.483 302.44 239.682C302.425 238.881 303.095 238.225 303.903 238.225C304.69 238.225 305.36 238.881 305.36 239.682C305.36 240.483 304.69 241.138 303.903 241.138ZM309.043 241.138C308.234 241.138 307.564 240.483 307.579 239.682C307.564 238.881 308.234 238.225 309.043 238.225C309.829 238.225 310.499 238.881 310.499 239.682C310.499 240.483 309.829 241.138 309.043 241.138Z" fill="url(#paint1_linear_474_69)"/>
<g opacity="0.4">
<path d="M83.7383 279.744L82.0221 280.856L81.5 279.928L83.3225 279L81.5 278.072L82.0221 277.144L83.7383 278.255L83.6464 276.215H84.7099L84.6181 278.255L86.3343 277.144L86.8564 278.072L85.0338 279L86.8564 279.928L86.3343 280.856L84.6181 279.744L84.7099 281.784H83.6464L83.7383 279.744Z" fill="black"/>
<path d="M101.054 273.704V282.146H99.8476V279.011H98.0702V277.995H99.8476V276.802H98.0702V275.812H99.8476V273.704H101.054ZM97.9433 274.593V275.57H96.8515V279.379C97.3339 279.341 97.7973 279.303 98.2479 279.252L98.2987 280.141C96.1151 280.483 93.5634 280.521 91.7353 280.534L91.5829 279.519C92.0082 279.519 92.4779 279.519 92.9667 279.506V275.57H91.9003V274.593H97.9433ZM101.346 283.86V284.838H93.6395V281.461H94.8583V283.86H101.346ZM94.1347 279.493C94.6488 279.48 95.1693 279.468 95.6962 279.442V275.57H94.1347V279.493ZM106.76 275.52C106.76 276.929 107.865 278.249 109.617 278.757L109.007 279.696C107.681 279.296 106.678 278.427 106.164 277.31C105.65 278.503 104.634 279.449 103.269 279.899L102.66 278.947C104.424 278.401 105.529 277.018 105.542 275.52V275.393H102.99V274.415H109.261V275.393H106.76V275.52ZM111.978 273.704V279.861H110.772V273.704H111.978ZM105.719 280.395V281.664H110.785V280.395H111.978V284.939H104.539V280.395H105.719ZM105.719 283.962H110.785V282.616H105.719V283.962ZM125.296 273.704V278.236H127.061V279.239H125.296V285.066H124.09V273.704H125.296ZM122.325 274.897C122.313 278.186 120.865 281.118 117.12 282.972L116.447 282.032C119.298 280.61 120.846 278.554 121.094 275.9H117.019V274.897H122.325ZM136.602 276.776V277.754H128.794V273.907H129.987V276.776H136.602ZM137.795 278.96V279.95H127.41V278.96H137.795ZM132.59 280.877C135.04 280.877 136.513 281.626 136.513 282.946C136.513 284.279 135.04 285.028 132.59 285.028C130.127 285.028 128.642 284.279 128.642 282.946C128.642 281.626 130.127 280.877 132.59 280.877ZM132.59 281.816C130.851 281.829 129.86 282.21 129.86 282.946C129.86 283.67 130.851 284.102 132.59 284.102C134.304 284.102 135.307 283.67 135.307 282.946C135.307 282.21 134.304 281.829 132.59 281.816ZM147.323 273.717V277.373H148.973V278.376H147.323V282.223H146.117V273.717H147.323ZM145.177 275.037V276.015H138.398V275.037H141.191V273.704H142.397V275.037H145.177ZM141.788 276.561C143.425 276.561 144.543 277.411 144.543 278.706C144.543 280.001 143.425 280.839 141.788 280.839C140.137 280.839 139.02 280.001 139.02 278.706C139.02 277.411 140.137 276.561 141.788 276.561ZM141.788 277.487C140.823 277.487 140.175 277.957 140.188 278.706C140.175 279.442 140.823 279.899 141.788 279.899C142.753 279.899 143.4 279.442 143.413 278.706C143.4 277.957 142.753 277.487 141.788 277.487ZM147.805 283.86V284.838H140.112V281.55H141.318V283.86H147.805ZM161.326 274.415V275.418C161.326 276.497 161.326 277.665 161.009 279.29H162.647V280.28H158.038V285.092H156.82V280.28H152.275V279.29H159.79C160.133 277.671 160.133 276.478 160.133 275.418V275.405H153.544V274.415H161.326ZM172.34 274.187V274.936C172.34 275.691 172.34 276.643 172.099 277.881H173.66V278.846H163.25V277.881H170.893C171.121 276.726 171.146 275.856 171.146 275.151H164.558V274.187H172.34ZM172.353 279.861V282.845H165.687V284H172.645V284.965H164.481V281.918H171.159V280.826H164.469V279.861H172.353ZM187.511 279.366V280.331H177.139V279.366H181.709V278.186H178.142V277.208H179.754V275.037H178.091V274.06H186.534V275.037H184.883V277.208H186.483V278.186H182.916V279.366H187.511ZM186.242 281.321V284.939H178.383V281.321H186.242ZM179.577 282.261V283.962H185.074V282.261H179.577ZM180.948 277.208H183.677V275.037H180.948V277.208ZM200.461 273.717V280.687H199.255V273.717H200.461ZM196.83 274.415V277.64H192.806V279.062C194.792 279.042 196.259 278.985 197.985 278.719L198.138 279.696C196.284 280.001 194.723 280.052 192.577 280.052H191.625V276.713H195.637V275.405H191.6V274.415H196.83ZM196.665 280.902C199.064 280.902 200.537 281.651 200.537 282.984C200.537 284.292 199.064 285.066 196.665 285.054C194.253 285.066 192.793 284.292 192.793 282.984C192.793 281.651 194.253 280.902 196.665 280.902ZM196.665 281.854C194.977 281.854 193.986 282.261 193.986 282.984C193.986 283.708 194.977 284.102 196.665 284.102C198.354 284.102 199.331 283.708 199.331 282.984C199.331 282.261 198.354 281.854 196.665 281.854ZM211.157 274.809V276.192C211.157 277.855 211.157 279.417 210.662 281.778L209.469 281.664C209.71 280.623 209.837 279.709 209.9 278.858L203.07 279.227L202.918 278.236L209.964 277.97C209.983 277.36 209.983 276.776 209.989 276.192V275.799H203.235V274.809H211.157ZM212.376 282.565V283.556H202.004V282.565H212.376ZM223.377 278.922V279.849H212.966V278.922H223.377ZM222.094 280.648V283.149H215.417V284.089H222.45V284.939H214.21V282.35H220.901V281.512H214.198V280.648H222.094ZM222.069 273.996V276.459H215.493V277.322H222.259V278.173H214.299V275.659H220.863V274.847H214.274V273.996H222.069ZM236.301 273.704V279.811H235.095V273.704H236.301ZM230.042 280.356V281.639H235.107V280.356H236.301V284.939H228.861V280.356H230.042ZM230.042 283.949H235.107V282.591H230.042V283.949ZM230.131 274.225C231.87 274.225 233.152 275.304 233.152 276.865C233.152 278.427 231.87 279.506 230.131 279.493C228.392 279.506 227.097 278.427 227.097 276.865C227.097 275.304 228.392 274.225 230.131 274.225ZM230.131 275.24C229.052 275.228 228.277 275.9 228.277 276.865C228.277 277.843 229.052 278.503 230.131 278.503C231.197 278.503 231.972 277.843 231.972 276.865C231.972 275.9 231.197 275.228 230.131 275.24ZM243.264 274.39V277.703H239.507V279.277C241.487 279.284 242.566 279.239 243.848 278.998L243.963 279.976C242.579 280.217 241.411 280.255 239.138 280.255H238.313V276.789H242.058V275.354H238.301V274.39H243.264ZM247.327 273.717V280.712H246.121V278.706H243.988V277.741H246.121V276.332H243.988V275.367H246.121V273.717H247.327ZM247.327 281.283V285.092H246.121V282.261H239.608V281.283H247.327ZM254.443 275.583V276.561H248.794V275.583H251.028V274.034H252.221V275.583H254.443ZM251.625 277.246C253.072 277.246 254.087 278.325 254.1 279.861C254.087 281.41 253.072 282.502 251.625 282.502C250.203 282.502 249.149 281.41 249.162 279.861C249.149 278.325 250.203 277.246 251.625 277.246ZM251.625 278.249C250.799 278.249 250.228 278.922 250.228 279.861C250.228 280.826 250.799 281.474 251.625 281.474C252.437 281.474 253.034 280.826 253.034 279.861C253.034 278.922 252.437 278.249 251.625 278.249ZM258.556 273.704V285.079H257.414V279.43H256.106V284.546H254.963V273.958H256.106V278.439H257.414V273.704H258.556ZM270.166 280.115V281.093H265.545V285.066H264.365V281.093H259.794V280.115H270.166ZM269.189 274.377V275.342H265.672C265.691 276.751 267.443 278.008 269.595 278.3L269.151 279.252C267.285 278.96 265.672 278.04 264.987 276.738C264.282 278.04 262.676 278.96 260.835 279.252L260.378 278.3C262.505 278.008 264.257 276.751 264.301 275.342H260.759V274.377H269.189ZM274.235 276.814C274.235 278.63 274.997 280.572 276.521 281.499L275.848 282.426C274.781 281.785 274.058 280.648 273.677 279.328C273.252 280.775 272.471 282.007 271.366 282.68L270.617 281.778C272.23 280.813 273.067 278.808 273.067 276.865V274.745H274.235V276.814ZM280.558 273.704V285.079H279.402V273.704H280.558ZM278.196 273.92V284.521H277.054V278.706H275.289V277.703H277.054V273.92H278.196ZM292.155 282.654V283.657H281.745V282.654H284.233V279.684C283.3 279.169 282.735 278.351 282.735 277.335C282.735 275.545 284.487 274.364 286.925 274.364C289.375 274.364 291.127 275.545 291.127 277.335C291.127 278.338 290.581 279.144 289.667 279.658V282.654H292.155ZM286.925 275.329C285.135 275.329 283.903 276.104 283.903 277.335C283.903 278.554 285.135 279.354 286.925 279.354C288.702 279.354 289.959 278.554 289.959 277.335C289.959 276.104 288.702 275.329 286.925 275.329ZM285.427 282.654H288.448V280.115C287.985 280.236 287.471 280.293 286.925 280.293C286.391 280.293 285.884 280.236 285.427 280.128V282.654Z" fill="black"/>
</g>
<g opacity="0.4">
<path d="M89.2383 751.744L87.5221 752.856L87 751.928L88.8225 751L87 750.072L87.5221 749.144L89.2383 750.255L89.1464 748.215H90.2099L90.1181 750.255L91.8343 749.144L92.3564 750.072L90.5338 751L92.3564 751.928L91.8343 752.856L90.1181 751.744L90.2099 753.784H89.1464L89.2383 751.744Z" fill="black"/>
<path d="M103.71 749.805C103.488 748.618 102.504 747.958 101.336 747.964C99.7493 747.958 98.575 749.176 98.5686 751.404C98.575 753.645 99.7556 754.851 101.336 754.845C102.491 754.851 103.469 754.204 103.71 753.029L105.119 753.042C104.827 754.857 103.348 756.127 101.324 756.127C98.9304 756.127 97.1848 754.343 97.1848 751.404C97.1848 748.465 98.9431 746.682 101.324 746.682C103.266 746.682 104.808 747.831 105.119 749.805H103.71ZM111.372 749.233C111.283 748.376 110.534 747.888 109.481 747.888C108.357 747.888 107.646 748.465 107.64 749.246C107.64 750.116 108.585 750.458 109.315 750.63L110.204 750.871C111.378 751.157 112.851 751.798 112.857 753.461C112.851 755.016 111.613 756.152 109.442 756.152C107.386 756.152 106.091 755.124 106.002 753.448H107.398C107.481 754.451 108.37 754.927 109.442 754.934C110.617 754.927 111.467 754.337 111.474 753.436C111.467 752.636 110.706 752.312 109.734 752.052L108.643 751.76C107.164 751.354 106.25 750.604 106.243 749.322C106.25 747.735 107.659 746.682 109.519 746.682C111.385 746.682 112.686 747.748 112.731 749.233H111.372ZM114.908 746.809L117.46 754.286H117.561L120.113 746.809H121.624L118.31 756H116.698L113.397 746.809H114.908ZM131.438 746.872V747.862H130.27V753.163C130.835 753.118 131.387 753.067 131.92 753.004L131.984 753.88C129.603 754.28 126.918 754.318 124.925 754.324L124.785 753.321C125.236 753.321 125.725 753.315 126.233 753.309V747.862H125.065V746.872H131.438ZM127.401 753.29C127.959 753.277 128.531 753.258 129.102 753.232V747.862H127.401V753.29ZM132.58 757.079V745.704H133.786V750.186H135.615V751.176H133.786V757.079H132.58ZM139.125 746.085C140.839 746.098 142.102 747.145 142.108 748.637C142.102 750.135 140.839 751.176 139.125 751.176C137.392 751.176 136.135 750.135 136.129 748.637C136.135 747.145 137.392 746.098 139.125 746.085ZM137.31 748.637C137.303 749.576 138.078 750.198 139.125 750.198C140.166 750.198 140.941 749.576 140.941 748.637C140.941 747.71 140.166 747.088 139.125 747.101C138.078 747.088 137.303 747.71 137.31 748.637ZM137.856 752.979V752.014H145.333V754.883H139.062V755.975H145.714V756.939H137.894V753.981H144.14V752.979H137.856ZM144.127 751.493V745.704H145.333V751.493H144.127ZM158.651 745.704V750.109H160.479V751.1H158.651V757.104H157.445V745.704H158.651ZM150.272 754.273V746.796H155.591V747.773H151.478V753.271C153.389 753.264 154.817 753.182 156.442 752.89L156.594 753.905C154.811 754.223 153.3 754.28 151.186 754.273H150.272ZM171.162 751.404V752.382H166.656V754.591H165.437V752.382H160.752V751.404H171.162ZM161.895 748.281C161.889 746.859 163.501 745.977 165.945 745.971C168.389 745.977 169.988 746.859 169.982 748.281C169.988 749.697 168.389 750.579 165.945 750.579C163.501 750.579 161.889 749.697 161.895 748.281ZM162.06 756.838V753.499H163.266V755.848H170.007V756.838H162.06ZM163.19 748.281C163.177 749.1 164.282 749.602 165.945 749.602C167.614 749.602 168.706 749.1 168.712 748.281C168.706 747.437 167.614 746.942 165.945 746.936C164.282 746.942 163.177 747.437 163.19 748.281ZM180.678 745.704V748.396H182.328V749.398H180.678V752.344H179.472V745.704H180.678ZM172.185 751.684V746.352H173.365V748.002H176.349V746.352H177.542V751.684H172.185ZM173.365 750.731H176.349V748.954H173.365V750.731ZM173.429 756.914V752.94H180.767V753.905H174.635V755.962H180.97V756.914H173.429ZM185.763 746.555C187.464 746.561 188.676 748.11 188.682 750.541C188.676 752.998 187.464 754.546 185.763 754.54C184.061 754.546 182.849 752.998 182.855 750.541C182.849 748.11 184.061 746.561 185.763 746.555ZM184.011 750.541C184.004 752.35 184.728 753.461 185.763 753.461C186.816 753.461 187.527 752.35 187.527 750.541C187.527 748.757 186.816 747.64 185.763 747.634C184.728 747.64 184.004 748.757 184.011 750.541ZM190.371 757.079V745.704H191.577V750.16H193.405V751.176H191.577V757.079H190.371ZM206.088 745.704V751.493H204.882V750.401H202V749.462H204.882V748.23H202.14C201.435 749.995 199.715 751.163 197.202 751.747L196.783 750.757C199.512 750.154 200.985 748.884 201.182 747.215H197.379V746.225H202.508C202.508 746.593 202.476 746.942 202.413 747.278H204.882V745.704H206.088ZM198.649 752.928V751.976H206.088V754.857H199.868V756H206.431V756.965H198.674V753.943H204.882V752.928H198.649ZM213.915 746.923V747.621C213.909 748.58 213.909 750.046 213.585 752.077L212.392 751.988C212.684 750.173 212.715 748.846 212.722 747.9H208.101V746.923H213.915ZM207.466 753.651C208.177 753.645 208.97 753.639 209.802 753.62V750.173H210.995V753.582C212.201 753.531 213.439 753.455 214.575 753.309L214.639 754.21C212.271 754.591 209.624 754.642 207.606 754.629L207.466 753.651ZM215.223 757.079V745.704H216.442V750.401H218.181V751.43H216.442V757.079H215.223ZM230.42 745.717V749.094H232.045V750.084H230.42V753.372H229.214V745.717H230.42ZM221.393 752.103C222.276 752.103 223.298 752.103 224.364 752.077V751.309C223.069 751.163 222.244 750.554 222.257 749.64C222.244 748.599 223.329 747.951 224.961 747.964C226.592 747.951 227.658 748.599 227.665 749.64C227.658 750.547 226.852 751.157 225.57 751.309V752.033C226.586 751.982 227.614 751.899 228.566 751.76L228.668 752.623C226.224 753.048 223.526 753.067 221.52 753.067L221.393 752.103ZM221.685 747.583V746.682H224.364V745.615H225.57V746.682H228.249V747.583H221.685ZM222.815 754.845V753.905H230.42V757.079H229.214V754.845H222.815ZM223.399 749.64C223.399 750.173 223.989 750.522 224.961 750.516C225.919 750.522 226.516 750.173 226.509 749.64C226.516 749.094 225.919 748.776 224.961 748.789C223.989 748.776 223.399 749.094 223.399 749.64ZM241.877 745.717V753.981H240.671V745.717H241.877ZM232.673 749.297C232.68 747.653 233.987 746.485 235.707 746.479C237.421 746.485 238.729 747.653 238.729 749.297C238.729 750.966 237.421 752.128 235.707 752.128C233.987 752.128 232.68 750.966 232.673 749.297ZM233.854 749.297C233.848 750.37 234.647 751.074 235.707 751.074C236.748 751.074 237.548 750.37 237.548 749.297C237.548 748.25 236.748 747.532 235.707 747.532C234.647 747.532 233.848 748.25 233.854 749.297ZM234.438 756.838V753.144H235.657V755.86H242.22V756.838H234.438ZM249.044 747.583V748.561H243.395V747.583H245.629V746.034H246.822V747.583H249.044ZM243.763 751.861C243.757 750.332 244.798 749.246 246.226 749.246C247.667 749.246 248.695 750.332 248.701 751.861C248.695 753.417 247.667 754.508 246.226 754.502C244.798 754.508 243.757 753.417 243.763 751.861ZM244.829 751.861C244.823 752.826 245.407 753.474 246.226 753.474C247.045 753.474 247.635 752.826 247.635 751.861C247.635 750.916 247.045 750.255 246.226 750.249C245.407 750.255 244.823 750.916 244.829 751.861ZM249.565 756.546V745.958H250.707V750.439H252.015V745.704H253.157V757.079H252.015V751.43H250.707V756.546H249.565ZM264.806 754.667V755.67H254.395V754.667H258.978V752.331H255.589V746.479H256.795V748.434H262.381V746.479H263.574V752.331H260.172V754.667H264.806ZM256.795 751.354H262.381V749.411H256.795V751.354ZM268.837 748.814C268.837 750.63 269.598 752.566 271.122 753.499L270.449 754.426C269.383 753.785 268.665 752.648 268.272 751.334C267.859 752.775 267.072 754.007 265.967 754.68L265.218 753.778C266.824 752.813 267.675 750.801 267.669 748.865V746.745H268.837V748.814ZM269.89 750.706V749.703H271.655V745.92H272.798V756.521H271.655V750.706H269.89ZM274.004 757.079V745.704H275.159V757.079H274.004ZM286.756 754.654V755.657H276.346V754.654H278.834V751.684C277.901 751.169 277.33 750.357 277.336 749.335C277.33 747.545 279.088 746.371 281.526 746.364C283.97 746.371 285.728 747.545 285.728 749.335C285.728 750.338 285.182 751.144 284.268 751.658V754.654H286.756ZM278.504 749.335C278.504 750.554 279.742 751.347 281.526 751.354C283.297 751.347 284.554 750.554 284.56 749.335C284.554 748.11 283.297 747.329 281.526 747.329C279.742 747.329 278.504 748.11 278.504 749.335ZM280.028 754.654H283.049V752.128C282.586 752.236 282.072 752.293 281.526 752.293C280.993 752.293 280.485 752.236 280.028 752.128V754.654Z" fill="black"/>
</g>
<rect x="96" y="174.5" width="16" height="16" rx="8" fill="#35383A"/>
<path d="M105.331 178.201V187H103.982V179.538H103.933L101.831 180.911V179.635L104.018 178.201H105.331Z" fill="white"/>
<path d="M128.775 182.534V183.677H116.807V182.534H122.095V181.267C119.634 181.121 118.089 180.161 118.096 178.623C118.089 176.99 119.927 175.994 122.784 175.986C125.625 175.994 127.464 176.99 127.471 178.623C127.464 180.161 125.918 181.121 123.472 181.267V182.534H128.775ZM118.316 188.467V184.658H119.722V187.339H127.427V188.467H118.316ZM119.532 178.623C119.524 179.612 120.769 180.154 122.784 180.161C124.79 180.154 126.043 179.612 126.036 178.623C126.043 177.686 124.79 177.107 122.784 177.114C120.769 177.107 119.524 177.686 119.532 178.623ZM134.202 178.96C134.202 181.362 135.55 183.757 137.557 184.658L136.707 185.771C135.22 185.024 134.092 183.545 133.514 181.75C132.935 183.64 131.793 185.237 130.277 186.021L129.398 184.893C131.434 183.918 132.789 181.392 132.796 178.96V176.719H134.202V178.96ZM136.107 181.113V179.985H139.036V175.62H140.413V188.774H139.036V181.113H136.107ZM143.893 176.88V180.029H146.412V176.88H147.687V180.542H149.43V175.884H150.763V188.115H149.43V181.699H147.687V185.508H142.574V176.88H143.893ZM143.893 184.351H146.412V181.157H143.893V184.351ZM152.096 188.745V175.62H153.429V188.745H152.096ZM165.668 175.62V188.774H164.276V175.62H165.668ZM155.253 181.201C155.253 178.396 156.666 176.609 158.651 176.602C160.599 176.609 162.035 178.396 162.035 181.201C162.035 184.036 160.599 185.823 158.651 185.815C156.666 185.823 155.253 184.036 155.253 181.201ZM156.6 181.201C156.593 183.289 157.428 184.57 158.651 184.57C159.852 184.57 160.687 183.289 160.687 181.201C160.687 179.143 159.852 177.854 158.651 177.847C157.428 177.854 156.593 179.143 156.6 181.201ZM178.756 175.62V188.745H177.423V175.62H178.756ZM167.609 181.289C167.609 178.447 168.722 176.667 170.436 176.675C172.033 176.667 173.109 178.184 173.271 180.645H174.757V175.869H176.09V188.101H174.757V181.772H173.278C173.153 184.336 172.062 185.925 170.436 185.918C168.722 185.925 167.609 184.138 167.609 181.289ZM168.898 181.289C168.898 183.376 169.491 184.607 170.436 184.6C171.403 184.607 172.004 183.376 172.004 181.289C172.004 179.194 171.403 177.971 170.436 177.979C169.491 177.971 168.898 179.194 168.898 181.289ZM193.933 176.44V177.598C193.933 178.843 193.933 180.198 193.567 182.065H195.456V183.208H190.139V188.76H188.733V183.208H183.488V182.065H192.16C192.549 180.19 192.549 178.821 192.556 177.598V177.583H184.953V176.44H193.933ZM206.641 176.177V177.041C206.648 177.905 206.648 179.011 206.362 180.439H208.164V181.553H196.152V180.439H204.963C205.234 179.114 205.264 178.11 205.264 177.29H197.661V176.177H206.641ZM197.559 183.838V182.725H206.655V186.167H198.965V187.5H206.992V188.613H197.573V185.098H205.278V183.838H197.559ZM224.146 182.153V183.267H212.178V182.153H217.452V180.791H213.336V179.663H215.196V177.158H213.277V176.03H223.018V177.158H221.114V179.663H222.96V180.791H218.843V182.153H224.146ZM213.614 188.584V184.409H222.681V188.584H213.614ZM214.991 187.456H221.334V185.493H214.991V187.456ZM216.573 179.663H219.722V177.158H216.573V179.663ZM240.187 181.787V182.93H228.204V181.787H240.187ZM229.625 186.343C229.625 184.819 231.332 183.955 234.181 183.955C237.008 183.955 238.7 184.819 238.707 186.343C238.7 187.866 237.008 188.723 234.181 188.716C231.332 188.723 229.625 187.866 229.625 186.343ZM229.698 180.645V176.089H238.707V177.231H231.075V179.517H238.795V180.645H229.698ZM231.031 186.343C231.024 187.185 232.174 187.639 234.181 187.646C236.158 187.639 237.316 187.185 237.316 186.343C237.316 185.508 236.158 185.039 234.181 185.024C232.174 185.039 231.024 185.508 231.031 186.343ZM252.865 182.783V183.911H240.854V182.783H246.171V181.538H242.392V178.198H249.965V177.026H242.362V175.928H251.356V179.224H243.769V180.454H251.62V181.538H247.548V182.783H252.865ZM242.201 185.947V184.834H251.43V188.643H250.023V185.947H242.201ZM260.021 177.788V178.916H253.503V177.788H256.081V176.001H257.458V177.788H260.021ZM253.928 182.725C253.92 180.959 255.121 179.707 256.769 179.707C258.432 179.707 259.618 180.959 259.626 182.725C259.618 184.519 258.432 185.779 256.769 185.771C255.121 185.779 253.92 184.519 253.928 182.725ZM255.158 182.725C255.151 183.838 255.825 184.585 256.769 184.585C257.714 184.585 258.395 183.838 258.395 182.725C258.395 181.633 257.714 180.872 256.769 180.864C255.825 180.872 255.151 181.633 255.158 182.725ZM260.622 188.13V175.913H261.94V181.084H263.449V175.62H264.767V188.745H263.449V182.227H261.94V188.13H260.622ZM278.208 185.947V187.104H266.196V185.947H269.067V182.52C267.99 181.926 267.331 180.989 267.338 179.81C267.331 177.744 269.36 176.389 272.172 176.382C274.992 176.389 277.021 177.744 277.021 179.81C277.021 180.967 276.391 181.897 275.337 182.49V185.947H278.208ZM268.686 179.81C268.686 181.216 270.114 182.131 272.172 182.139C274.216 182.131 275.666 181.216 275.673 179.81C275.666 178.396 274.216 177.495 272.172 177.495C270.114 177.495 268.686 178.396 268.686 179.81ZM270.444 185.947H273.93V183.032C273.396 183.157 272.802 183.223 272.172 183.223C271.557 183.223 270.971 183.157 270.444 183.032V185.947Z" fill="#232625"/>
<rect x="103" y="341" width="16" height="16" rx="8" fill="#35383A"/>
<path d="M108.077 353.5V352.528L111.128 349.453C112.094 348.451 112.574 347.891 112.574 347.12C112.574 346.251 111.869 345.698 110.945 345.698C109.967 345.698 109.347 346.318 109.341 347.253H108.077C108.065 345.643 109.293 344.58 110.97 344.58C112.665 344.58 113.838 345.655 113.85 347.083C113.838 348.068 113.376 348.852 111.723 350.474L109.937 352.285V352.358H113.996V353.5H108.077Z" fill="white"/>
<path d="M135.46 349.034V350.177H123.492V349.034H128.781V347.767C126.32 347.621 124.774 346.661 124.782 345.123C124.774 343.49 126.613 342.494 129.469 342.486C132.311 342.494 134.149 343.49 134.157 345.123C134.149 346.661 132.604 347.621 130.158 347.767V349.034H135.46ZM125.001 354.967V351.158H126.408V353.839H134.113V354.967H125.001ZM126.217 345.123C126.21 346.112 127.455 346.654 129.469 346.661C131.476 346.654 132.728 346.112 132.721 345.123C132.728 344.186 131.476 343.607 129.469 343.614C127.455 343.607 126.21 344.186 126.217 345.123ZM140.888 345.46C140.888 347.862 142.235 350.257 144.242 351.158L143.393 352.271C141.906 351.524 140.778 350.045 140.199 348.25C139.621 350.14 138.478 351.737 136.962 352.521L136.083 351.393C138.119 350.418 139.474 347.892 139.482 345.46V343.219H140.888V345.46ZM142.792 347.613V346.485H145.722V342.12H147.099V355.274H145.722V347.613H142.792ZM150.578 343.38V346.529H153.098V343.38H154.372V347.042H156.115V342.384H157.448V354.615H156.115V348.199H154.372V352.008H149.26V343.38H150.578ZM150.578 350.851H153.098V347.657H150.578V350.851ZM158.781 355.245V342.12H160.114V355.245H158.781ZM172.353 342.12V355.274H170.962V342.12H172.353ZM161.938 347.701C161.938 344.896 163.352 343.109 165.337 343.102C167.285 343.109 168.72 344.896 168.72 347.701C168.72 350.536 167.285 352.323 165.337 352.315C163.352 352.323 161.938 350.536 161.938 347.701ZM163.286 347.701C163.279 349.789 164.113 351.07 165.337 351.07C166.538 351.07 167.373 349.789 167.373 347.701C167.373 345.643 166.538 344.354 165.337 344.347C164.113 344.354 163.279 345.643 163.286 347.701ZM184.373 342.12V347.35H186.409V348.507H184.373V355.23H182.981V342.12H184.373ZM174.163 351.729C177.451 350.089 179.238 347.716 179.524 344.654H174.822V343.497H180.945C180.93 347.291 179.26 350.682 174.939 352.813L174.163 351.729ZM201.116 342.12V348.873H199.725V345.504H196.956V344.376H199.725V342.12H201.116ZM190.13 347.818C192.181 347.167 193.404 345.533 193.411 343.688V342.545H194.788V343.688C194.788 345.357 195.989 346.91 197.967 347.54L197.234 348.624C195.792 348.126 194.7 347.137 194.122 345.885C193.55 347.298 192.43 348.397 190.877 348.932L190.13 347.818ZM192.532 350.587V349.488H201.116V352.755H193.924V353.971H201.57V355.084H192.562V351.7H199.739V350.587H192.532ZM214.835 348.756V349.884H209.62V352.433H208.243V349.884H202.823V348.756H214.835ZM204.317 354.967V351.188H205.709V353.839H213.502V354.967H204.317ZM204.361 347.394V342.735H213.282V347.394H204.361ZM205.724 346.295H211.905V343.834H205.724V346.295ZM229.806 342.135V351.832H228.415V348.419H225.543V349.649H219.494V342.999H220.885V345.226H224.167V342.999H225.543V344.464H228.415V342.135H229.806ZM220.885 348.521H224.167V346.295H220.885V348.521ZM221.237 354.967V350.88H222.643V353.839H230.099V354.967H221.237ZM225.543 347.291H228.415V345.606H225.543V347.291ZM241.855 342.12V346.617H243.73V347.774H241.855V352.374H240.463V342.12H241.855ZM231.44 349.825C232.45 349.825 233.63 349.825 234.867 349.781V348.866C233.373 348.69 232.421 347.972 232.436 346.896C232.421 345.621 233.674 344.859 235.556 344.874C237.438 344.859 238.669 345.621 238.676 346.896C238.669 347.972 237.739 348.69 236.259 348.858V349.715C237.431 349.649 238.617 349.54 239.716 349.371L239.833 350.353C237.035 350.88 233.879 350.917 231.586 350.938L231.44 349.825ZM231.777 344.361V343.336H234.867V342.076H236.259V343.336H239.35V344.361H231.777ZM233.373 354.967V351.686H234.765V353.839H242.324V354.967H233.373ZM233.754 346.896C233.754 347.533 234.435 347.936 235.556 347.936C236.662 347.936 237.35 347.533 237.343 346.896C237.35 346.214 236.662 345.819 235.556 345.826C234.435 345.819 233.754 346.214 233.754 346.896ZM250.681 344.288V345.416H244.162V344.288H246.74V342.501H248.117V344.288H250.681ZM244.587 349.225C244.58 347.459 245.781 346.207 247.429 346.207C249.091 346.207 250.278 347.459 250.285 349.225C250.278 351.019 249.091 352.279 247.429 352.271C245.781 352.279 244.58 351.019 244.587 349.225ZM245.817 349.225C245.81 350.338 246.484 351.085 247.429 351.085C248.374 351.085 249.055 350.338 249.055 349.225C249.055 348.133 248.374 347.372 247.429 347.364C246.484 347.372 245.81 348.133 245.817 349.225ZM251.281 354.63V342.413H252.6V347.584H254.108V342.12H255.427V355.245H254.108V348.727H252.6V354.63H251.281ZM268.867 352.447V353.604H256.855V352.447H259.726V349.02C258.65 348.426 257.991 347.489 257.998 346.31C257.991 344.244 260.019 342.889 262.832 342.882C265.652 342.889 267.681 344.244 267.681 346.31C267.681 347.467 267.051 348.397 265.996 348.99V352.447H268.867ZM259.346 346.31C259.346 347.716 260.774 348.631 262.832 348.639C264.875 348.631 266.326 347.716 266.333 346.31C266.326 344.896 264.875 343.995 262.832 343.995C260.774 343.995 259.346 344.896 259.346 346.31ZM261.103 352.447H264.59V349.532C264.055 349.657 263.462 349.723 262.832 349.723C262.217 349.723 261.631 349.657 261.103 349.532V352.447ZM271.013 354.103C270.442 354.095 269.966 353.634 269.973 353.062C269.966 352.491 270.442 352.022 271.013 352.022C271.577 352.022 272.046 352.491 272.053 353.062C272.046 353.634 271.577 354.095 271.013 354.103Z" fill="#232625"/>
<rect x="87.5" y="531" width="16" height="16" rx="8" fill="#35383A"/>
<path d="M95.5182 543.622C93.6953 543.622 92.395 542.637 92.3464 541.203H93.7075C93.7561 541.981 94.5217 542.467 95.5061 542.467C96.5634 542.467 97.3411 541.884 97.3411 541.033C97.3411 540.17 96.612 539.538 95.3602 539.538H94.6068V538.444H95.3602C96.3568 538.444 97.0616 537.885 97.0616 537.047C97.0616 536.245 96.4661 535.698 95.5304 535.698C94.6432 535.698 93.8655 536.184 93.829 536.986H92.5408C92.5773 535.552 93.9019 534.58 95.5425 534.58C97.2682 534.58 98.362 535.674 98.3498 536.974C98.362 537.97 97.7422 538.7 96.7943 538.931V538.991C97.9974 539.161 98.6901 539.964 98.6901 541.082C98.6901 542.552 97.3411 543.622 95.5182 543.622Z" fill="white"/>
<path d="M112.582 533.392V544H110.966V535.008H110.904L108.371 536.661V535.122L111.008 533.392H112.582ZM114.981 544L114.976 542.829L118.654 539.116C119.819 537.909 120.399 537.241 120.404 536.308C120.399 535.262 119.55 534.599 118.436 534.599C117.26 534.599 116.509 535.34 116.509 536.474H114.976C114.971 534.532 116.447 533.247 118.467 533.247C120.513 533.247 121.927 534.542 121.938 536.262C121.927 537.448 121.368 538.396 119.379 540.348L117.224 542.539V542.617H122.109V544H114.981ZM127.969 535.459C127.958 537.857 129.403 540.271 131.439 541.167L130.6 542.275C129.093 541.555 127.901 540.079 127.285 538.282C126.679 540.203 125.472 541.794 123.903 542.555L123.043 541.395C125.11 540.473 126.56 537.966 126.57 535.459V533.211H127.969V535.459ZM132.625 545.269V532.118H134.024V545.269H132.625ZM146.128 532.118V535.998H148.029V537.163H146.128V541.659H144.719V532.118H146.128ZM135.8 539.105C138.877 538.183 140.783 536.433 141.052 534.273H136.349V533.118H142.565C142.565 536.562 140.223 539.059 136.391 540.214L135.8 539.105ZM137.794 544.974V540.68H139.193V543.834H146.672V544.974H137.794ZM162.154 532.113V536.034H164.055V537.194H162.154V541.757H160.761V532.113H162.154ZM152.038 536.282C152.028 534.366 153.551 533.019 155.535 533.019C157.513 533.019 159.015 534.366 159.026 536.282C159.015 538.194 157.513 539.551 155.535 539.551C153.551 539.551 152.028 538.194 152.038 536.282ZM153.401 536.282C153.39 537.5 154.333 538.334 155.535 538.334C156.747 538.334 157.663 537.5 157.674 536.282C157.663 535.055 156.747 534.231 155.535 534.231C154.333 534.231 153.39 535.055 153.401 536.282ZM153.836 544.974V540.752H155.219V543.834H162.713V544.974H153.836ZM175.792 532.118V545.243H174.455V532.118H175.792ZM164.65 537.785C164.65 534.946 165.764 533.17 167.473 533.17C169.069 533.17 170.151 534.682 170.317 537.147H171.798V532.372H173.124V544.596H171.798V538.277H170.322C170.193 540.84 169.1 542.425 167.473 542.42C165.764 542.425 164.65 540.638 164.65 537.785ZM165.945 537.785C165.935 539.877 166.531 541.105 167.473 541.094C168.442 541.105 169.043 539.877 169.043 537.785C169.043 535.697 168.442 534.475 167.473 534.475C166.531 534.475 165.935 535.697 165.945 537.785ZM191.471 532.118V538.872H190.083V535.506H187.317V534.376H190.083V532.118H191.471ZM180.485 537.816C182.531 537.163 183.758 535.531 183.763 533.682V532.543H185.152V533.682C185.141 535.355 186.348 536.914 188.327 537.536L187.586 538.618C186.146 538.121 185.058 537.137 184.473 535.878C183.908 537.292 182.779 538.391 181.225 538.924L180.485 537.816ZM182.888 540.592V539.494H191.471V542.752H184.281V543.964H191.921V545.077H182.914V541.705H190.093V540.592H182.888ZM205.186 538.753V539.887H199.981V542.431H198.603V539.887H193.175V538.753H205.186ZM194.671 544.974V541.188H196.06V543.834H203.855V544.974H194.671ZM194.718 537.396V532.734H203.632V537.396H194.718ZM196.08 536.298H202.26V533.833H196.08V536.298ZM220.16 532.118V538.8H218.772V537.541H215.437V536.459H218.772V535.029H215.613C214.794 537.065 212.816 538.416 209.905 539.09L209.418 537.95C212.572 537.251 214.271 535.796 214.494 533.864H210.112V532.729H216.032C216.032 533.154 215.996 533.558 215.924 533.941H218.772V532.118H220.16ZM211.578 540.462V539.349H220.16V542.679H212.987V543.995H220.554V545.119H211.604V541.633H218.767V540.462H211.578ZM229.193 533.522V534.335C229.183 535.438 229.183 537.132 228.815 539.478L227.438 539.369C227.774 537.272 227.8 535.739 227.805 534.646H222.476V533.522H229.193ZM221.756 541.286C222.574 541.281 223.491 541.27 224.444 541.25V537.277H225.816V541.208C227.21 541.151 228.639 541.058 229.95 540.897L230.027 541.939C227.293 542.379 224.242 542.436 221.911 542.425L221.756 541.286ZM230.706 545.243V532.118H232.099V537.536H234.114V538.722H232.099V545.243H230.706ZM248.54 538.178V539.292H244.572V542.488H249.922V543.637H237.911V542.488H243.194V539.292H239.403V533.138H248.426V534.262H240.791V538.178H248.54ZM255.174 534.967C255.174 536.505 256.361 537.971 258.37 538.541L257.707 539.649C256.205 539.193 255.086 538.235 254.501 537.018C253.926 538.354 252.781 539.39 251.238 539.877L250.549 538.795C252.564 538.194 253.791 536.64 253.791 534.967V534.775H250.938V533.662H253.791V532.071H255.195V533.662H258.023V534.775H255.174V534.967ZM252.212 541.902V540.778H260.887V545.264H259.494V541.902H252.212ZM259.494 540.141V532.118H260.887V535.537H262.788V536.712H260.887V540.141H259.494ZM269.718 534.294V535.417H263.208V534.294H265.787V532.507H267.165V534.294H269.718ZM263.632 539.224C263.622 537.458 264.824 536.205 266.476 536.205C268.134 536.205 269.32 537.458 269.33 539.224C269.32 541.017 268.134 542.275 266.476 542.275C264.824 542.275 263.622 541.017 263.632 539.224ZM264.855 539.224C264.855 540.338 265.528 541.089 266.476 541.079C267.419 541.089 268.097 540.338 268.097 539.224C268.097 538.132 267.419 537.37 266.476 537.365C265.528 537.37 264.855 538.132 264.855 539.224ZM270.33 544.627V532.413H271.64V537.588H273.153V532.118H274.478V545.243H273.153V538.722H271.64V544.627H270.33ZM287.914 542.456V543.606H275.903V542.456H278.777V539.022C277.695 538.432 277.037 537.489 277.037 536.314C277.037 534.247 279.062 532.89 281.875 532.879C284.698 532.89 286.728 534.247 286.728 536.314C286.728 537.474 286.091 538.401 285.034 538.997V542.456H287.914ZM278.389 536.314C278.389 537.717 279.818 538.634 281.875 538.634C283.921 538.634 285.371 537.717 285.371 536.314C285.371 534.894 283.921 533.993 281.875 534.003C279.818 533.993 278.389 534.894 278.389 536.314ZM280.145 542.456H283.631V539.53C283.092 539.654 282.501 539.722 281.875 539.722C281.253 539.722 280.673 539.654 280.145 539.535V542.456Z" fill="#232625"/>
<rect x="58.9552" y="376" width="65" height="65" rx="11.6418" fill="#F2F5F8"/>
<rect x="251.045" y="376" width="65" height="65" rx="11.6418" fill="#2BD39C"/>
<path d="M100.788 405.641L103.869 408.936L99.1885 413.083L96.1083 409.788L100.788 405.641ZM101.158 399.043C99.3867 397.148 96.3499 397.03 94.3749 398.78L89.6947 402.927C87.7197 404.676 87.5544 407.631 89.3255 409.525C91.0965 411.42 94.1333 411.537 96.1083 409.788L99.1885 413.083L99.0056 413.241C95.1926 416.454 89.4928 416.233 86.055 412.74L85.8906 412.569C82.4726 408.912 82.7333 403.242 86.4357 399.794L86.6145 399.631L91.2947 395.485L91.4776 395.327C95.352 392.063 101.175 392.343 104.593 395.999L104.753 396.175C108.001 399.835 107.691 405.38 104.047 408.774L103.869 408.936L100.788 405.641C102.763 403.892 102.929 400.937 101.158 399.043Z" fill="#C0CAD0"/>
<path d="M92.4715 413.103L95.5517 416.398L90.8715 420.545L87.7913 417.25L92.4715 413.103ZM92.8408 406.504C91.0697 404.61 88.0329 404.492 86.0579 406.242L81.3778 410.388C79.4028 412.138 79.2375 415.093 81.0085 416.987C82.7796 418.882 85.8163 418.999 87.7913 417.25L90.8715 420.545L90.6886 420.703C86.8757 423.915 81.1758 423.695 77.7381 420.202L77.5736 420.03C74.1557 416.374 74.4163 410.704 78.1187 407.256L78.2976 407.093L82.9778 402.947L83.1606 402.789C87.0351 399.524 92.8577 399.805 96.2756 403.461L96.4356 403.637C99.6845 407.297 99.3742 412.842 95.7305 416.236L95.5517 416.398L92.4715 413.103C94.4464 411.353 94.6118 408.399 92.8408 406.504Z" fill="#727A7E"/>
<path d="M89.8499 402.787C89.1271 403.427 88.6471 404.229 88.4153 405.081C87.5915 405.223 86.7961 405.587 86.118 406.188L83.8366 408.208C83.3559 405.952 83.7664 403.551 85.0402 401.527C87.236 400.403 89.7641 400.175 92.0674 400.821L89.8499 402.787ZM94.5712 415.23C93.1509 415.473 91.6927 415.4 90.3142 415.013L92.5317 413.049L94.5712 415.23ZM98.3991 411.932C98.1654 412.759 97.8113 413.559 97.3393 414.309C96.458 414.76 95.5237 415.066 94.5712 415.23L92.5317 413.049C93.2557 412.407 93.726 411.623 93.9458 410.794C94.7808 410.63 95.5849 410.249 96.2636 409.648L98.3991 411.932ZM98.5443 407.627C98.8472 409.048 98.7965 410.526 98.3991 411.932L96.2636 409.648L98.5443 407.627Z" fill="url(#paint2_linear_474_69)"/>
<path d="M150.149 406.334C151.443 407.081 151.443 408.948 150.149 409.695L145.784 412.216C144.49 412.962 142.873 412.029 142.873 410.535V405.494C142.873 404.001 144.49 403.067 145.784 403.814L150.149 406.334Z" fill="white"/>
<path d="M179.254 406.334C180.547 407.081 180.547 408.948 179.254 409.695L174.888 412.216C173.595 412.962 171.978 412.029 171.978 410.535V405.494C171.978 404.001 173.595 403.067 174.888 403.814L179.254 406.334Z" fill="white"/>
<path d="M208.358 406.334C209.652 407.081 209.652 408.948 208.358 409.695L203.993 412.216C202.699 412.962 201.082 412.029 201.082 410.535V405.494C201.082 404.001 202.699 403.067 203.993 403.814L208.358 406.334Z" fill="white"/>
<path d="M237.463 406.334C238.756 407.081 238.756 408.948 237.463 409.695L233.097 412.216C231.803 412.962 230.187 412.029 230.187 410.535V405.494C230.187 404.001 231.803 403.067 233.097 403.814L237.463 406.334Z" fill="white"/>
<g filter="url(#filter0_ii_474_69)">
<path fill-rule="evenodd" clip-rule="evenodd" d="M287.457 405.261L297.472 400.254V415.515L293.819 412.253L286.775 415.776V410.317L276.761 415.325V411.14L267.611 415.776V405.602L278.166 400.254V404.448L287.457 399.802V405.261Z" fill="url(#paint3_linear_474_69)"/>
</g>
<g filter="url(#filter1_i_474_69)">
<circle cx="190" cy="646.003" r="82" fill="url(#paint4_linear_474_69)"/>
</g>
<circle cx="190.001" cy="646.002" r="76.0407" fill="white"/>
<path d="M190.473 576.341C190.477 574.715 191.799 573.394 193.424 573.463C202.123 573.832 210.696 575.737 218.745 579.095C227.701 582.832 235.834 588.297 242.678 595.176C249.522 602.056 254.944 610.217 258.635 619.192C262.325 628.167 264.212 637.782 264.186 647.486C264.161 657.19 262.225 666.795 258.488 675.751C254.751 684.707 249.287 692.839 242.407 699.683C235.527 706.527 227.367 711.95 218.391 715.64C210.324 718.957 201.741 720.817 193.041 721.141C191.416 721.201 190.101 719.874 190.105 718.248L190.289 647.294L190.473 576.341Z" fill="#D5F5EB"/>
<path d="M212.856 629.919V648H209.584V633.091H209.484L205.264 635.788V632.816L209.734 629.919H212.856ZM216.484 648V645.652L222.877 639.484C224.7 637.661 225.649 636.587 225.649 635.064C225.649 633.39 224.326 632.316 222.553 632.316C220.68 632.316 219.481 633.49 219.506 635.313H216.409C216.384 631.892 218.956 629.669 222.578 629.669C226.274 629.669 228.771 631.867 228.771 634.914C228.771 636.962 227.772 638.61 224.226 641.956L221.004 645.153V645.278H229.046V648H216.484ZM234.347 640.058V648H231.151V629.919H234.272V636.737H234.447C235.072 635.213 236.37 634.264 238.468 634.264C241.29 634.264 243.138 636.087 243.138 639.359V648H239.966V639.859C239.966 638.01 238.968 636.962 237.294 636.962C235.571 636.962 234.347 638.085 234.347 640.058Z" fill="#2F333D"/>
<defs>
<filter id="filter0_ii_474_69" x="267.611" y="398.6" width="29.8604" height="17.1756" filterUnits="userSpaceOnUse" color-interpolation-filters="sRGB">
<feFlood flood-opacity="0" result="BackgroundImageFix"/>
<feBlend mode="normal" in="SourceGraphic" in2="BackgroundImageFix" result="shape"/>
<feColorMatrix in="SourceAlpha" type="matrix" values="0 0 0 0 0 0 0 0 0 0 0 0 0 0 0 0 0 0 127 0" result="hardAlpha"/>
<feOffset/>
<feGaussianBlur stdDeviation="6.00988"/>
<feComposite in2="hardAlpha" operator="arithmetic" k2="-1" k3="1"/>
<feColorMatrix type="matrix" values="0 0 0 0 1 0 0 0 0 1 0 0 0 0 1 0 0 0 1 0"/>
<feBlend mode="normal" in2="shape" result="effect1_innerShadow_474_69"/>
<feColorMatrix in="SourceAlpha" type="matrix" values="0 0 0 0 0 0 0 0 0 0 0 0 0 0 0 0 0 0 127 0" result="hardAlpha"/>
<feOffset dy="-1.20198"/>
<feGaussianBlur stdDeviation="2.40395"/>
<feComposite in2="hardAlpha" operator="arithmetic" k2="-1" k3="1"/>
<feColorMatrix type="matrix" values="0 0 0 0 1 0 0 0 0 1 0 0 0 0 1 0 0 0 0.6 0"/>
<feBlend mode="normal" in2="effect1_innerShadow_474_69" result="effect2_innerShadow_474_69"/>
</filter>
<filter id="filter1_i_474_69" x="108" y="564.003" width="164" height="164.934" filterUnits="userSpaceOnUse" color-interpolation-filters="sRGB">
<feFlood flood-opacity="0" result="BackgroundImageFix"/>
<feBlend mode="normal" in="SourceGraphic" in2="BackgroundImageFix" result="shape"/>
<feColorMatrix in="SourceAlpha" type="matrix" values="0 0 0 0 0 0 0 0 0 0 0 0 0 0 0 0 0 0 127 0" result="hardAlpha"/>
<feMorphology radius="0.233617" operator="erode" in="SourceAlpha" result="effect1_innerShadow_474_69"/>
<feOffset dy="0.934466"/>
<feGaussianBlur stdDeviation="1.16808"/>
<feComposite in2="hardAlpha" operator="arithmetic" k2="-1" k3="1"/>
<feColorMatrix type="matrix" values="0 0 0 0 1 0 0 0 0 1 0 0 0 0 1 0 0 0 0.25 0"/>
<feBlend mode="normal" in2="shape" result="effect1_innerShadow_474_69"/>
</filter>
<linearGradient id="paint0_linear_474_69" x1="72.5373" y1="408.5" x2="299.552" y2="408.5" gradientUnits="userSpaceOnUse">
<stop offset="0.20955" stop-color="#D9D9D9" stop-opacity="0"/>
<stop offset="0.546794" stop-color="#87D6BC" stop-opacity="0.375983"/>
<stop offset="0.875225" stop-color="#4DD4A8" stop-opacity="0.642868"/>
<stop offset="1" stop-color="#2BD39C" stop-opacity="0.8"/>
</linearGradient>
<linearGradient id="paint1_linear_474_69" x1="64" y1="233.5" x2="312" y2="233.5" gradientUnits="userSpaceOnUse">
<stop stop-color="#182027"/>
<stop offset="0.301807" stop-color="#9BA9B7"/>
<stop offset="0.851965" stop-color="#182027"/>
<stop offset="1" stop-color="#9BA9B7"/>
</linearGradient>
<linearGradient id="paint2_linear_474_69" x1="85.0936" y1="401.479" x2="96.9322" y2="414.675" gradientUnits="userSpaceOnUse">
<stop offset="0.299841" stop-color="#727A7E"/>
<stop offset="0.693287" stop-color="#C0CAD0"/>
</linearGradient>
<linearGradient id="paint3_linear_474_69" x1="282.542" y1="400.254" x2="282.636" y2="418.283" gradientUnits="userSpaceOnUse">
<stop offset="0.27185" stop-color="white"/>
<stop offset="0.597866" stop-color="#8DE7CA"/>
<stop offset="1" stop-color="white"/>
</linearGradient>
<linearGradient id="paint4_linear_474_69" x1="190" y1="564.003" x2="190" y2="728.003" gradientUnits="userSpaceOnUse">
<stop stop-color="#CEDCEA"/>
<stop offset="0.197115" stop-color="#B8C4CF"/>
<stop offset="0.519231" stop-color="#A3ADB7"/>
</linearGradient>
</defs>
</svg>
