<svg width="375" height="810" viewBox="0 0 375 810" fill="none" xmlns="http://www.w3.org/2000/svg">
<g clip-path="url(#clip0_474_2)">
<rect width="375" height="810" fill="url(#paint0_linear_474_2)"/>
<path opacity="0.2" d="M36.9636 74.2144C27 39.9999 -9.64616 46.0846 -23.8269 47.9157L-34 188L382.5 185.186V54.1865C346 49.4999 326.721 90.6426 333.503 105.597C305.389 103.4 290.345 122.383 286.337 132.149C184.236 110.175 129.807 119.435 94.3553 129.811C83.2574 100.513 46 96.4999 33.4897 103.766C40.1485 92.779 37.5801 78.487 36.9636 74.2144Z" fill="#D3FBEB"/>
<ellipse opacity="0.6" cx="12" cy="183.5" rx="89" ry="65.5" fill="#D3FBEB"/>
<ellipse opacity="0.6" cx="355.5" cy="186" rx="85.5" ry="63" fill="#D3FBEB"/>
<g filter="url(#filter0_f_474_2)">
<circle cx="189" cy="124" r="47" fill="url(#paint1_linear_474_2)"/>
</g>
<g filter="url(#filter1_f_474_2)">
<circle cx="187.5" cy="124.5" r="53.5" fill="white"/>
</g>
<g filter="url(#filter2_ddi_474_2)">
<circle cx="188.5" cy="123.5" r="54.5" fill="url(#paint2_linear_474_2)"/>
</g>
<g filter="url(#filter3_ii_474_2)">
<circle cx="189" cy="124" r="47" fill="url(#paint3_linear_474_2)"/>
</g>
<path d="M189 77C207.811 77 224.038 88.0525 231.549 104.017C223.66 89.137 208.015 79 190 79C164.043 79 143 100.043 143 126C143 133.146 144.597 139.918 147.45 145.982C143.972 139.423 142 131.942 142 124C142 98.0426 163.043 77 189 77Z" fill="url(#paint4_linear_474_2)"/>
<g filter="url(#filter4_f_474_2)">
<path d="M235 134C235 146.979 216.979 169.5 204 169.5C191.021 169.5 219.5 138.5 146.584 111C146.584 98.0213 160.021 81.5 173 81.5C185.979 81.5 181 111.5 235 134Z" fill="#40CC94"/>
</g>
<g filter="url(#filter5_ii_474_2)">
<path d="M214.001 106L214 124.399V133.599L207.396 127.701L194.657 134.071V125.343L177.2 134.071V125.356L160 134.071V115.672L179.088 106V114.728L196.544 106V114.729L214.001 106Z" fill="url(#paint5_linear_474_2)"/>
</g>
<path d="M215 107.5L214 106V133.5L215 132.5V107.5Z" fill="#002C1B"/>
<g filter="url(#filter6_f_474_2)">
<path d="M143.005 132.576C147.477 153.877 166.369 169.872 189 169.872C198.428 169.872 207.206 167.094 214.564 162.314L221.964 165.39C212.728 172.585 201.115 176.872 188.5 176.872C160.644 176.872 137.67 155.974 134.399 129L143.005 132.576Z" fill="url(#paint6_linear_474_2)"/>
</g>
<g filter="url(#filter7_i_474_2)">
<path d="M184 137C66.8 137 -10.1667 169 -34 185V840H398.5V185C375.833 169 301.2 137 184 137Z" fill="url(#paint7_linear_474_2)"/>
</g>
<g filter="url(#filter8_f_474_2)">
<path d="M280.52 -38.0966L217.96 73.0728L163.954 58.9879L212.88 84.6523L191.874 150.33L224.837 89.8975L292.462 115.36L229.917 78.318L280.52 -38.0966Z" fill="white"/>
</g>
<g filter="url(#filter9_f_474_2)">
<path d="M247.58 35.9907L221.648 79.4019L201.816 70.0375L220.379 81.7767L208.477 105.35L222.699 83.5426L247.539 96.4355L223.69 80.6339L247.58 35.9907Z" fill="white"/>
</g>
<g opacity="0.7" filter="url(#filter10_f_474_2)">
<path d="M161 116L164 114.5L164.5 130.5L161 132.5V116Z" fill="url(#paint8_linear_474_2)"/>
</g>
<g opacity="0.7" filter="url(#filter11_f_474_2)">
<path d="M178 125.5L181 124L181.5 130.5L178 132.5V125.5Z" fill="url(#paint9_linear_474_2)"/>
</g>
<g opacity="0.7" filter="url(#filter12_f_474_2)">
<path d="M195 125.5L198 124L198.5 130.5L195 132.5V125.5Z" fill="url(#paint10_linear_474_2)"/>
</g>
<path opacity="0.87" d="M151.948 164.912V171.215H150.65V168.07H148.066V167.018H150.65V164.912H151.948ZM141.695 170.23C143.609 169.622 144.75 168.098 144.757 166.375V165.309H146.042V166.375C146.042 167.934 147.163 169.383 149.009 169.971L148.325 170.982C146.979 170.518 145.96 169.595 145.42 168.426C144.887 169.745 143.841 170.771 142.392 171.27L141.695 170.23ZM143.937 172.814V171.789H151.948V174.838H145.236V175.973H152.372V177.012H143.964V173.854H150.663V172.814H143.937ZM164.752 171.105V172.158H159.885V174.537H158.6V172.158H153.542V171.105H164.752ZM154.936 176.902V173.375H156.235V175.85H163.508V176.902H154.936ZM154.977 169.834V165.486H163.303V169.834H154.977ZM156.249 168.809H162.018V166.512H156.249V168.809ZM179.683 171.01V172.049H168.513V171.01H173.435V169.738H169.593V168.686H171.329V166.348H169.538V165.295H178.63V166.348H176.853V168.686H178.575V169.738H174.733V171.01H179.683ZM169.853 177.012V173.115H178.316V177.012H169.853ZM171.138 175.959H177.058V174.127H171.138V175.959ZM172.614 168.686H175.554V166.348H172.614V168.686ZM193.683 164.926V173.977H192.384V170.791H189.705V171.939H184.058V165.732H185.357V167.811H188.42V165.732H189.705V167.1H192.384V164.926H193.683ZM185.357 170.887H188.42V168.809H185.357V170.887ZM185.685 176.902V173.088H186.998V175.85H193.957V176.902H185.685ZM189.705 169.738H192.384V168.166H189.705V169.738ZM204.929 164.912V169.109H206.679V170.189H204.929V174.482H203.63V164.912H204.929ZM195.208 172.104C196.151 172.104 197.252 172.104 198.407 172.062V171.208C197.013 171.044 196.124 170.374 196.138 169.369C196.124 168.18 197.293 167.469 199.05 167.482C200.807 167.469 201.955 168.18 201.962 169.369C201.955 170.374 201.087 171.044 199.706 171.201V172.001C200.8 171.939 201.907 171.837 202.933 171.68L203.042 172.596C200.431 173.088 197.484 173.122 195.345 173.143L195.208 172.104ZM195.522 167.004V166.047H198.407V164.871H199.706V166.047H202.591V167.004H195.522ZM197.013 176.902V173.84H198.311V175.85H205.366V176.902H197.013ZM197.368 169.369C197.368 169.964 198.004 170.34 199.05 170.34C200.082 170.34 200.725 169.964 200.718 169.369C200.725 168.733 200.082 168.364 199.05 168.371C198.004 168.364 197.368 168.733 197.368 169.369ZM219.79 164.912V169.793H221.691V170.873H219.79V177.148H218.492V164.912H219.79ZM210.261 173.881C213.331 172.35 214.999 170.135 215.265 167.277H210.876V166.197H216.591C216.578 169.738 215.019 172.903 210.986 174.893L210.261 173.881ZM228.561 165.719C228.561 166.184 228.513 166.621 228.425 167.045H230.981V164.926H232.28V172.213H230.981V170.682H227.891V169.629H230.981V168.084H228.096C227.269 170.005 225.383 171.379 222.737 172.09L222.245 171.064C225.157 170.278 226.927 168.72 227.167 166.771H222.887V165.719H228.561ZM223.981 173.771V172.746H232.28V177.135H230.981V173.771H223.981Z" fill="black"/>
<path d="M102.882 188.694V209.021H100.388V197.926H96.4802V195.882H100.388V188.694H102.882ZM85.5866 203.182C88.8322 201.643 90.7527 197.802 90.7751 194.085V192.737H86.4177V190.693H97.6706V192.737H93.3132V194.085C93.3132 197.6 95.2112 201.306 98.4792 202.732L96.9968 204.731C94.6384 203.608 92.9538 201.351 92.0666 198.667C91.1794 201.531 89.4499 203.945 87.0915 205.136L85.5866 203.182ZM122.277 201.587V208.729H108.688V201.587H122.277ZM106.06 191.682V189.683H114.977V195.68H108.576V198.016C111.979 197.993 113.764 197.926 115.898 197.589L116.1 199.565C113.708 199.992 111.698 200.026 107.588 200.015H106.105V193.793H112.484V191.682H106.06ZM111.181 206.753H119.806V203.541H111.181V206.753ZM116.19 197.544V195.522H119.784V193.389H116.19V191.367H119.784V188.717H122.277V200.644H119.784V197.544H116.19ZM140.594 188.694V196.78H143.716V198.847H140.594V208.999H138.124V188.694H140.594ZM124.58 193.815V191.816H129.386V188.986H131.88V191.816H136.551V193.815H124.58ZM125.523 199.925C125.501 197.117 127.679 195.129 130.644 195.141C133.564 195.129 135.732 197.117 135.743 199.925C135.732 202.721 133.564 204.687 130.644 204.687C127.679 204.687 125.501 202.721 125.523 199.925ZM127.904 199.925C127.893 201.576 129.049 202.631 130.644 202.62C132.205 202.631 133.339 201.576 133.362 199.925C133.339 198.274 132.205 197.185 130.644 197.185C129.049 197.185 127.893 198.274 127.904 199.925ZM160.686 190.559V192.513C160.664 195.04 160.664 197.858 159.878 202.104L157.362 201.834C158.159 197.881 158.159 194.995 158.171 192.558H146.042V190.559H160.686ZM144.11 206.371V204.327H150.938V197.274H153.409V204.327H162.618V206.371H144.11ZM184.541 188.694V193.703H187.371V195.77H184.541V200.554H182.047V188.694H184.541ZM168.548 192.58V190.581H173.333V188.537H175.826V190.581H180.587V192.58H168.548ZM169.582 196.848C169.582 194.691 171.603 193.276 174.568 193.276C177.499 193.276 179.521 194.691 179.532 196.848C179.521 199.004 177.499 200.43 174.568 200.419C171.603 200.43 169.582 199.004 169.582 196.848ZM171.423 208.752V201.362H173.894V203.114H182.047V201.362H184.541V208.752H171.423ZM172.007 196.848C171.996 197.948 173.029 198.577 174.568 198.577C176.106 198.577 177.151 197.948 177.151 196.848C177.151 195.781 176.106 195.118 174.568 195.118C173.029 195.118 171.996 195.781 172.007 196.848ZM173.894 206.775H182.047V205.046H173.894V206.775ZM204.857 188.694V209.021H202.386V188.694H204.857ZM189.044 192.49V190.469H198.613V198.083H191.627V202.171C194.828 202.148 197.58 201.98 200.747 201.452L200.971 203.496C197.523 204.091 194.491 204.226 190.841 204.215H189.067V196.106H196.075V192.49H189.044ZM214.819 192.176C214.819 194.658 216.458 197.14 219.603 198.195L218.345 200.127C216.077 199.386 214.471 197.847 213.583 195.938C212.696 198.061 211.012 199.768 208.597 200.576L207.317 198.6C210.551 197.533 212.281 194.837 212.281 192.198V191.929H208.058V189.93H219.019V191.929H214.819V192.176ZM210.529 203.766V201.767H224.365V208.999H221.872V203.766H210.529ZM218.413 195.77V193.726H221.872V188.694H224.365V200.801H221.872V195.77H218.413ZM243.693 188.717V203.384H241.177V188.717H243.693ZM227.139 195.118C227.139 192.165 229.531 190.053 232.62 190.042C235.708 190.053 238.089 192.165 238.078 195.118C238.089 198.117 235.708 200.217 232.62 200.217C229.531 200.217 227.139 198.117 227.139 195.118ZM229.587 195.118C229.576 196.915 230.879 198.038 232.62 198.038C234.315 198.038 235.629 196.915 235.629 195.118C235.629 193.366 234.315 192.221 232.62 192.221C230.879 192.221 229.576 193.366 229.587 195.118ZM230.261 208.595V201.901H232.777V206.573H244.254V208.595H230.261ZM267.098 188.694V196.623H270.108V198.712H267.098V208.954H264.605V188.694H267.098ZM251.083 203.406C256.025 200.936 258.698 197.499 259.192 192.872H252.184V190.806H261.73C261.719 196.769 259.248 202.014 252.498 205.338L251.083 203.406ZM281.417 189.997C281.417 190.738 281.35 191.435 281.215 192.108H285.123V188.717H287.616V200.778H285.123V198.42H280.249V196.398H285.123V194.107H280.597C279.227 197.263 276.184 199.498 271.826 200.666L270.883 198.667C275.566 197.443 278.318 195.017 278.733 192.041H271.984V189.997H281.417ZM273.781 203.608V201.632H287.616V208.932H285.123V203.608H273.781Z" fill="black"/>
<g filter="url(#filter13_d_474_2)">
<rect x="16" y="261" width="343" height="115" rx="12" fill="white" shape-rendering="crispEdges"/>
<rect x="17" y="262" width="341" height="113" rx="11" stroke="#15C67F" stroke-width="2" shape-rendering="crispEdges"/>
<rect x="17" y="262" width="341" height="113" rx="11" stroke="white" stroke-opacity="0.7" stroke-width="2" shape-rendering="crispEdges"/>
<path d="M44.9717 280.68V286.783H47.4206V288.405H44.9717V296.591H43.0387V280.68H44.9717ZM33.1623 283.644V282.059H40.4655V288.051H35.1326V291.215C37.6436 291.202 39.6015 291.097 41.8204 290.711L42.0007 292.284C39.5518 292.731 37.3826 292.837 34.4986 292.843H33.1934V286.491H38.5138V283.644H33.1623ZM60.9453 280.68V296.591H58.975V280.68H60.9453ZM48.2346 287.442C48.2284 284.011 49.975 281.836 52.3866 281.829C54.7671 281.836 56.5198 284.011 56.5198 287.442C56.5198 290.898 54.7671 293.073 52.3866 293.067C49.975 293.073 48.2284 290.898 48.2346 287.442ZM50.1179 287.442C50.1179 289.885 51.0316 291.302 52.3866 291.302C53.7167 291.302 54.6303 289.885 54.6303 287.442C54.6303 285.018 53.7167 283.595 52.3866 283.595C51.0316 283.595 50.1179 285.018 50.1179 287.442ZM75.8373 289.008V290.556H64.693V281.923H75.6944V283.508H66.6757V285.41H75.3339V286.957H66.6757V289.008H75.8373ZM62.9216 294.633V293.036H77.4471V294.633H62.9216Z" fill="black"/>
<path d="M37.2928 322H35.5691V312.409H35.5028L32.8011 314.171V312.53L35.6133 310.685H37.2928V322ZM43.7027 322.155C42.9955 322.155 42.3546 322.022 41.7801 321.757C41.2055 321.488 40.7487 321.118 40.4099 320.646C40.0747 320.171 39.8961 319.637 39.874 319.044H41.548C41.5738 319.361 41.6843 319.646 41.8795 319.901C42.0784 320.155 42.3362 320.354 42.653 320.497C42.9734 320.641 43.3233 320.713 43.7027 320.713C44.1521 320.713 44.5554 320.613 44.9126 320.414C45.2736 320.212 45.5535 319.934 45.7524 319.58C45.955 319.223 46.0563 318.821 46.0563 318.376C46.0563 317.919 45.9495 317.51 45.7359 317.149C45.5259 316.785 45.2349 316.501 44.8629 316.298C44.4909 316.092 44.071 315.989 43.6033 315.989C42.6567 315.989 41.9974 316.32 41.6254 316.983H40.0066L40.7469 310.685H47.1557V312.16H42.1723L41.7856 315.32H41.8961C42.1392 315.092 42.4486 314.91 42.8243 314.773C43.2036 314.637 43.6033 314.569 44.0231 314.569C44.7266 314.569 45.3602 314.731 45.9237 315.055C46.4872 315.376 46.9274 315.823 47.2441 316.398C47.5646 316.969 47.7248 317.615 47.7248 318.337C47.7248 319.07 47.5535 319.726 47.211 320.304C46.8684 320.882 46.3915 321.335 45.7801 321.663C45.1686 321.991 44.4762 322.155 43.7027 322.155ZM61.5444 317.613H55.9919V320.326H54.5223V317.613H48.7322V316.403H61.5444V317.613ZM50.3289 319H51.8096V321.823H60.1245V323.039H50.3289V319ZM50.3786 309.983H59.8869V314.956H50.3786V309.983ZM58.4228 313.785V311.155H51.8317V313.785H58.4228ZM73.2625 313.116H75.2901V314.37H73.2625V318.309H71.7763V309.326H73.2625V313.116ZM62.279 310.834H65.7155V309.227H67.1906V310.834H70.6105V312.006H62.279V310.834ZM63.0415 315.133C63.0415 314.639 63.1814 314.204 63.4614 313.829C63.745 313.453 64.1446 313.162 64.6603 312.956C65.1796 312.75 65.7763 312.646 66.4503 312.646C67.117 312.646 67.7063 312.75 68.2183 312.956C68.7302 313.162 69.128 313.453 69.4116 313.829C69.6989 314.204 69.8426 314.639 69.8426 315.133C69.8426 315.63 69.6989 316.066 69.4116 316.442C69.128 316.818 68.7302 317.107 68.2183 317.309C67.7063 317.512 67.117 317.613 66.4503 317.613C65.7726 317.613 65.1759 317.512 64.6603 317.309C64.1446 317.107 63.745 316.818 63.4614 316.442C63.1814 316.066 63.0415 315.63 63.0415 315.133ZM64.1464 320.873C64.1428 320.361 64.3269 319.921 64.6989 319.552C65.0709 319.184 65.605 318.904 66.3011 318.713C67.001 318.517 67.8297 318.42 68.7873 318.42C69.7376 318.42 70.559 318.517 71.2514 318.713C71.9475 318.904 72.4816 319.184 72.8536 319.552C73.2293 319.921 73.4172 320.361 73.4172 320.873C73.4172 321.378 73.2293 321.812 72.8536 322.177C72.4816 322.541 71.9475 322.82 71.2514 323.011C70.5553 323.206 69.7339 323.304 68.7873 323.304C67.8297 323.304 67.001 323.206 66.3011 323.011C65.605 322.82 65.0709 322.541 64.6989 322.177C64.3269 321.812 64.1428 321.378 64.1464 320.873ZM64.4724 315.133C64.4687 315.409 64.5479 315.65 64.71 315.856C64.8757 316.059 65.1078 316.215 65.4061 316.326C65.7045 316.433 66.0525 316.486 66.4503 316.486C66.8444 316.486 67.1906 316.433 67.489 316.326C67.7873 316.215 68.0194 316.059 68.1851 315.856C68.3509 315.65 68.4356 315.409 68.4393 315.133C68.4356 314.853 68.3509 314.61 68.1851 314.403C68.0194 314.193 67.7855 314.031 67.4835 313.917C67.1851 313.803 66.8407 313.744 66.4503 313.74C66.0562 313.744 65.7081 313.803 65.4061 313.917C65.1078 314.031 64.8757 314.193 64.71 314.403C64.5479 314.613 64.4687 314.856 64.4724 315.133ZM65.6161 320.873C65.6124 321.145 65.7339 321.379 65.9807 321.575C66.2312 321.77 66.594 321.917 67.0691 322.017C67.5479 322.12 68.1207 322.169 68.7873 322.166C69.4429 322.169 70.0065 322.12 70.4779 322.017C70.9531 321.917 71.314 321.77 71.5608 321.575C71.8113 321.379 71.9365 321.145 71.9365 320.873C71.9365 320.449 71.6621 320.127 71.1133 319.906C70.5645 319.681 69.7892 319.569 68.7873 319.569C67.7744 319.569 66.9917 319.681 66.4393 319.906C65.8868 320.127 65.6124 320.449 65.6161 320.873ZM90.9535 323.354H89.4618V309.326H90.9535V323.354ZM79.8375 315.287C79.8375 314.304 79.9904 313.442 80.2961 312.702C80.6055 311.958 81.0346 311.385 81.5834 310.983C82.1322 310.578 82.7565 310.376 83.4563 310.376C84.1524 310.376 84.773 310.578 85.3182 310.983C85.867 311.389 86.2961 311.963 86.6055 312.707C86.9148 313.448 87.0695 314.308 87.0695 315.287C87.0695 316.274 86.9148 317.14 86.6055 317.884C86.2961 318.628 85.867 319.203 85.3182 319.608C84.773 320.009 84.1524 320.21 83.4563 320.21C82.7565 320.21 82.1322 320.009 81.5834 319.608C81.0346 319.203 80.6055 318.628 80.2961 317.884C79.9904 317.14 79.8375 316.274 79.8375 315.287ZM81.2684 315.287C81.2684 316.017 81.3605 316.652 81.5447 317.193C81.7288 317.735 81.9848 318.151 82.3126 318.442C82.6441 318.733 83.0253 318.878 83.4563 318.878C83.8872 318.878 84.2666 318.733 84.5944 318.442C84.9222 318.151 85.1764 317.735 85.3568 317.193C85.541 316.652 85.6331 316.017 85.6331 315.287C85.6331 314.562 85.541 313.93 85.3568 313.392C85.1764 312.851 84.9222 312.435 84.5944 312.144C84.2666 311.853 83.8872 311.705 83.4563 311.702C83.0253 311.705 82.6441 311.855 82.3126 312.149C81.9848 312.44 81.7288 312.856 81.5447 313.398C81.3605 313.936 81.2684 314.565 81.2684 315.287ZM104.854 323.326H103.417V316.16H101.633V322.608H100.241V309.613H101.633V314.928H103.417V309.326H104.854V323.326ZM93.5169 310.978H95.0031V318.464C95.7176 318.453 96.4248 318.414 97.1246 318.348C97.8281 318.282 98.55 318.177 99.2904 318.033L99.4561 319.326C98.5537 319.488 97.6955 319.602 96.8815 319.669C96.0712 319.735 95.2517 319.768 94.423 319.768H93.5169V310.978Z" fill="black"/>
<path d="M38.6211 354H36.4531V342.018H36.375L33.0059 344.225V342.164L36.5117 339.859H38.6211V354ZM46.6293 354.195C45.7439 354.195 44.9431 354.029 44.227 353.697C43.5108 353.359 42.9411 352.896 42.518 352.311C42.0948 351.718 41.8702 351.048 41.8441 350.299H43.9242C43.9633 350.696 44.1065 351.054 44.3539 351.373C44.6013 351.686 44.9236 351.936 45.3207 352.125C45.7243 352.307 46.1605 352.398 46.6293 352.398C47.1957 352.398 47.7003 352.271 48.143 352.018C48.5857 351.764 48.934 351.415 49.1879 350.973C49.4418 350.523 49.5688 350.025 49.5688 349.479C49.5688 348.906 49.4385 348.395 49.1781 347.945C48.9242 347.496 48.5629 347.141 48.0941 346.881C47.6319 346.62 47.1111 346.49 46.5316 346.49C45.9457 346.477 45.4411 346.575 45.018 346.783C44.6013 346.985 44.2758 347.301 44.0414 347.73H42.0199L42.9379 339.859H50.9457V341.705H44.725L44.2367 345.65H44.3637C44.6697 345.37 45.057 345.143 45.5258 344.967C46.001 344.791 46.5023 344.703 47.0297 344.703C47.9086 344.703 48.6996 344.905 49.4027 345.309C50.1124 345.706 50.6658 346.266 51.0629 346.988C51.46 347.711 51.6586 348.521 51.6586 349.42C51.6586 350.338 51.4438 351.158 51.0141 351.881C50.5844 352.604 49.9887 353.17 49.227 353.58C48.4652 353.99 47.5993 354.195 46.6293 354.195ZM54.0027 358.043H52.3523L53.3875 352.652H55.5848L54.0027 358.043ZM62.382 354.195C61.2948 354.195 60.3638 353.912 59.5891 353.346C58.8143 352.779 58.2219 351.952 57.8117 350.865C57.4016 349.778 57.1965 348.466 57.1965 346.93C57.1965 345.413 57.4016 344.111 57.8117 343.023C58.2219 341.93 58.8143 341.096 59.5891 340.523C60.3703 339.951 61.3013 339.664 62.382 339.664C63.4562 339.664 64.384 339.951 65.1652 340.523C65.9465 341.096 66.5422 341.93 66.9523 343.023C67.3625 344.111 67.5676 345.413 67.5676 346.93C67.5676 348.466 67.3625 349.778 66.9523 350.865C66.5487 351.952 65.9562 352.779 65.175 353.346C64.4003 353.912 63.4693 354.195 62.382 354.195ZM62.382 352.35C63.0201 352.35 63.5669 352.141 64.0227 351.725C64.4849 351.308 64.8332 350.696 65.0676 349.889C65.3085 349.081 65.4257 348.095 65.4191 346.93C65.4191 345.771 65.2987 344.785 65.0578 343.971C64.8169 343.157 64.4686 342.538 64.0129 342.115C63.5572 341.692 63.0135 341.48 62.382 341.48C61.744 341.48 61.1971 341.692 60.7414 342.115C60.2922 342.538 59.9439 343.157 59.6965 343.971C59.4491 344.785 59.3254 345.771 59.3254 346.93C59.3254 348.095 59.4491 349.081 59.6965 349.889C59.9439 350.696 60.2922 351.308 60.7414 351.725C61.1906 352.141 61.7375 352.35 62.382 352.35ZM74.3258 354.195C73.2385 354.195 72.3076 353.912 71.5328 353.346C70.7581 352.779 70.1656 351.952 69.7555 350.865C69.3453 349.778 69.1402 348.466 69.1402 346.93C69.1402 345.413 69.3453 344.111 69.7555 343.023C70.1656 341.93 70.7581 341.096 71.5328 340.523C72.3141 339.951 73.2451 339.664 74.3258 339.664C75.4 339.664 76.3277 339.951 77.109 340.523C77.8902 341.096 78.4859 341.93 78.8961 343.023C79.3063 344.111 79.5113 345.413 79.5113 346.93C79.5113 348.466 79.3063 349.778 78.8961 350.865C78.4924 351.952 77.9 352.779 77.1188 353.346C76.344 353.912 75.413 354.195 74.3258 354.195ZM74.3258 352.35C74.9638 352.35 75.5107 352.141 75.9664 351.725C76.4286 351.308 76.777 350.696 77.0113 349.889C77.2522 349.081 77.3694 348.095 77.3629 346.93C77.3629 345.771 77.2424 344.785 77.0016 343.971C76.7607 343.157 76.4124 342.538 75.9566 342.115C75.5009 341.692 74.9573 341.48 74.3258 341.48C73.6878 341.48 73.1409 341.692 72.6852 342.115C72.2359 342.538 71.8876 343.157 71.6402 343.971C71.3928 344.785 71.2691 345.771 71.2691 346.93C71.2691 348.095 71.3928 349.081 71.6402 349.889C71.8876 350.696 72.2359 351.308 72.6852 351.725C73.1344 352.141 73.6813 352.35 74.3258 352.35ZM86.2695 354.195C85.1823 354.195 84.2513 353.912 83.4766 353.346C82.7018 352.779 82.1094 351.952 81.6992 350.865C81.2891 349.778 81.084 348.466 81.084 346.93C81.084 345.413 81.2891 344.111 81.6992 343.023C82.1094 341.93 82.7018 341.096 83.4766 340.523C84.2578 339.951 85.1888 339.664 86.2695 339.664C87.3438 339.664 88.2715 339.951 89.0527 340.523C89.834 341.096 90.4297 341.93 90.8398 343.023C91.25 344.111 91.4551 345.413 91.4551 346.93C91.4551 348.466 91.25 349.778 90.8398 350.865C90.4362 351.952 89.8438 352.779 89.0625 353.346C88.2878 353.912 87.3568 354.195 86.2695 354.195ZM86.2695 352.35C86.9076 352.35 87.4544 352.141 87.9102 351.725C88.3724 351.308 88.7207 350.696 88.9551 349.889C89.196 349.081 89.3132 348.095 89.3066 346.93C89.3066 345.771 89.1862 344.785 88.9453 343.971C88.7044 343.157 88.3561 342.538 87.9004 342.115C87.4447 341.692 86.901 341.48 86.2695 341.48C85.6315 341.48 85.0846 341.692 84.6289 342.115C84.1797 342.538 83.8314 343.157 83.584 343.971C83.3366 344.785 83.2129 345.771 83.2129 346.93C83.2129 348.095 83.3366 349.081 83.584 349.889C83.8314 350.696 84.1797 351.308 84.6289 351.725C85.0781 352.141 85.625 352.35 86.2695 352.35ZM99.4437 350.895H97.5785V347.008H99.4437V350.895ZM107.246 351.441H105.391V338.17H107.246V351.441ZM107.666 355.309H95.0199V353.775H107.666V355.309ZM96.8852 354.205H95.0199V350.152H96.8852V354.205ZM92.598 346.168C94.9353 346.148 96.9991 346.109 98.7895 346.051C100.586 345.986 102.305 345.849 103.946 345.641L104.053 346.979C102.354 347.252 100.573 347.434 98.7113 347.525C96.8559 347.617 94.8995 347.659 92.8422 347.652L92.598 346.168ZM105.85 349.771H101.856V348.463H105.85V349.771ZM98.3305 338.844C99.1703 338.844 99.9223 338.971 100.586 339.225C101.25 339.479 101.765 339.84 102.129 340.309C102.494 340.777 102.676 341.314 102.676 341.92C102.676 342.538 102.494 343.076 102.129 343.531C101.765 343.987 101.25 344.342 100.586 344.596C99.9288 344.85 99.1768 344.977 98.3305 344.977C97.4711 344.977 96.7126 344.85 96.0551 344.596C95.3975 344.342 94.8865 343.987 94.5219 343.531C94.1573 343.076 93.975 342.538 93.975 341.92C93.975 341.314 94.1573 340.777 94.5219 340.309C94.8865 339.833 95.3975 339.472 96.0551 339.225C96.7191 338.971 97.4776 338.844 98.3305 338.844ZM98.3305 340.23C97.8161 340.224 97.3637 340.289 96.973 340.426C96.5824 340.562 96.2764 340.761 96.0551 341.021C95.8402 341.282 95.7361 341.581 95.7426 341.92C95.7361 342.265 95.8402 342.564 96.0551 342.818C96.2764 343.072 96.5824 343.271 96.973 343.414C97.3637 343.551 97.8161 343.619 98.3305 343.619C98.8318 343.619 99.2745 343.551 99.6586 343.414C100.049 343.271 100.355 343.072 100.577 342.818C100.798 342.564 100.909 342.265 100.909 341.92C100.909 341.581 100.798 341.282 100.577 341.021C100.355 340.761 100.049 340.562 99.6586 340.426C99.2745 340.289 98.8318 340.224 98.3305 340.23Z" fill="#A6A6A6"/>
<path d="M32 347.633H109.327V348.99H32V347.633Z" fill="#A6A6A6"/>
<path d="M124.811 339.23C127.851 339.252 130.88 341.067 130.891 346.75C130.891 352.11 128.463 355.215 124.639 355.215C121.642 355.215 119.568 353.346 119.225 350.768H121.996C122.275 352.003 123.231 352.787 124.639 352.787C126.895 352.787 128.162 350.8 128.184 347.459H128.012C127.228 348.812 125.724 349.618 124.016 349.607C121.233 349.618 119.085 347.502 119.074 344.559C119.074 341.519 121.362 339.209 124.811 339.23ZM121.803 344.494C121.803 346.17 123.049 347.48 124.789 347.48C126.519 347.48 127.851 346.084 127.84 344.473C127.84 342.894 126.572 341.497 124.832 341.486C123.081 341.497 121.781 342.829 121.803 344.494ZM135.285 353.475L133.48 359.49H131.439L132.556 353.475H135.285ZM143.073 339.23C146.113 339.252 149.142 341.067 149.153 346.75C149.153 352.11 146.725 355.215 142.901 355.215C139.904 355.215 137.831 353.346 137.487 350.768H140.259C140.538 352.003 141.494 352.787 142.901 352.787C145.157 352.787 146.425 350.8 146.446 347.459H146.274C145.49 348.812 143.986 349.618 142.278 349.607C139.496 349.618 137.348 347.502 137.337 344.559C137.337 341.519 139.625 339.209 143.073 339.23ZM140.065 344.494C140.065 346.17 141.311 347.48 143.052 347.48C144.781 347.48 146.113 346.084 146.102 344.473C146.102 342.894 144.835 341.497 143.095 341.486C141.344 341.497 140.044 342.829 140.065 344.494ZM156.77 355.215C153.021 355.215 150.786 352.314 150.797 347.223C150.786 342.152 153.042 339.23 156.77 339.23C160.497 339.23 162.743 342.152 162.743 347.223C162.743 352.325 160.508 355.215 156.77 355.215ZM153.612 347.223C153.612 350.961 154.815 352.862 156.77 352.873C158.714 352.862 159.928 350.961 159.928 347.223C159.917 343.517 158.714 341.562 156.77 341.551C154.826 341.562 153.622 343.517 153.612 347.223ZM170.381 355.215C166.632 355.215 164.397 352.314 164.408 347.223C164.397 342.152 166.653 339.23 170.381 339.23C174.108 339.23 176.353 342.152 176.353 347.223C176.353 352.325 174.119 355.215 170.381 355.215ZM167.222 347.223C167.222 350.961 168.426 352.862 170.381 352.873C172.325 352.862 173.539 350.961 173.539 347.223C173.528 343.517 172.325 341.562 170.381 341.551C168.436 341.562 167.233 343.517 167.222 347.223ZM193.896 337.512V352.207H191.489V350.51H187.687V348.834H191.489V337.512H193.896ZM177.525 346.234C181.102 346.213 185.925 346.181 190.05 345.654L190.179 347.373C188.578 347.642 186.924 347.813 185.28 347.932V351.67H182.896V348.061C181.08 348.136 179.351 348.146 177.825 348.146L177.525 346.234ZM179.007 341.658C179.007 339.606 180.984 338.21 183.862 338.221C186.688 338.21 188.675 339.606 188.696 341.658C188.675 343.742 186.688 345.063 183.862 345.074C180.984 345.063 179.007 343.742 179.007 341.658ZM180.103 356.525V350.789H182.487V354.592H194.347V356.525H180.103ZM181.263 341.658C181.263 342.711 182.305 343.323 183.862 343.334C185.345 343.323 186.408 342.711 186.419 341.658C186.408 340.605 185.345 339.972 183.862 339.982C182.305 339.972 181.263 340.605 181.263 341.658Z" fill="#169A65"/>
<rect x="212" y="242" width="134" height="41" rx="20.5" fill="white"/>
<rect x="212" y="242" width="134" height="41" rx="20.5" stroke="#B8EED8" stroke-width="2"/>
<path d="M239.359 256.25V257.656H238.109V261.664C238.625 261.625 239.141 261.578 239.625 261.516V260.25H241.562V259.031H239.625V257.641H241.562V255.266H243.297V263.922H241.562V261.641H239.664L239.734 262.797C237.039 263.242 233.922 263.289 231.672 263.297L231.484 261.859C231.977 261.859 232.516 261.859 233.078 261.852V257.656H231.844V256.25H239.359ZM233.719 266.781C233.703 265.117 235.523 264.172 238.516 264.172C241.531 264.172 243.336 265.117 243.344 266.781C243.336 268.406 241.531 269.375 238.516 269.375C235.523 269.375 233.703 268.406 233.719 266.781ZM234.766 261.828C235.312 261.812 235.875 261.789 236.438 261.766V257.656H234.766V261.828ZM235.438 266.781C235.43 267.602 236.539 268.031 238.516 268.031C240.5 268.031 241.609 267.602 241.609 266.781C241.609 265.945 240.5 265.5 238.516 265.5C236.539 265.5 235.43 265.945 235.438 266.781ZM256.305 255.984V257.141C256.313 258.266 256.313 259.547 256.016 261.203H257.883V262.609H254.524V265.797H252.836V262.609H250.961V265.797H249.258V262.609H244.977V261.203H254.258C254.555 259.625 254.571 258.43 254.571 257.344H246.555V255.984H256.305ZM246.43 269.109V264.578H248.164V267.703H256.68V269.109H246.43ZM267.024 256.688V268H264.978V258.672H264.915L262.274 260.359V258.5L265.071 256.688H267.024ZM274.329 258.656C274.314 261.25 275.681 263.844 277.97 264.828L276.939 266.219C275.314 265.469 274.126 263.977 273.47 262.133C272.822 264.117 271.603 265.742 269.892 266.547L268.829 265.094C271.181 264.078 272.556 261.383 272.564 258.656V256.406H274.329V258.656ZM278.986 269.406V255.266H280.736V269.406H278.986ZM293.634 255.266V259.328H295.603V260.781H293.634V265.453H291.869V255.266H293.634ZM282.447 262.609C285.681 261.672 287.595 259.914 287.892 257.766H283.041V256.344H289.791C289.798 260.094 287.345 262.773 283.166 263.984L282.447 262.609ZM284.556 269.109V264.406H286.322V267.703H294.166V269.109H284.556ZM306.666 256.641V265.891H299.979V256.641H306.666ZM301.682 264.5H304.932V258H301.682V264.5ZM308.807 269.391V255.266H310.541V260.688H312.713V262.156H310.541V269.391H308.807ZM324.128 255.266V258.484H326.096V259.906H324.128V263.203H322.393V255.266H324.128ZM312.878 262.078C316.151 261.242 318.01 259.57 318.315 257.531H313.549V256.125H320.206C320.198 259.797 317.792 262.336 313.565 263.469L312.878 262.078ZM314.987 269.203V263.766H324.128V269.203H314.987ZM316.721 267.828H322.409V265.188H316.721V267.828Z" fill="#0A5839"/>
</g>
<rect x="16" y="416" width="343" height="118" rx="12" fill="white" fill-opacity="0.07"/>
<rect x="17" y="417" width="341" height="116" rx="11" stroke="#EEEEEE" stroke-opacity="0.33" stroke-width="2"/>
<path d="M40.739 437.849C40.7327 440.31 43.1381 442.771 46.4634 443.356L45.587 444.984C42.9206 444.431 40.739 442.821 39.7072 440.683C38.663 442.802 36.4814 444.419 33.8273 444.984L32.9696 443.356C36.2452 442.759 38.6506 440.298 38.663 437.849V436.68H40.739V437.849ZM32.5283 449.54V447.924H47.0539V449.54H32.5283ZM54.5682 436.991V438.545H50.2111V440.217H54.4066V441.74H50.2111V443.492C52.1442 443.48 53.4929 443.405 55.0468 443.126L55.2395 444.686C53.381 445.021 51.8458 445.071 49.3845 445.077H48.3279V436.991H54.5682ZM50.6711 451.256V446.177H52.6227V449.671H61.7408V451.256H50.6711ZM55.9729 447.178V435.984H57.794V440.173H59.4535V435.692H61.312V447.551H59.4535V441.752H57.794V447.178H55.9729ZM75.365 435.68V441.702H77.8139V443.306H75.365V451.591H73.4071V435.68H75.365ZM63.5742 447.694V437.177H71.0079V438.762H65.5197V446.072C67.9996 446.053 69.9513 445.941 72.1391 445.55L72.3629 447.197C69.8954 447.626 67.7572 447.7 64.8795 447.694H63.5742ZM91.0153 443.119V444.698H79.8772V437.059H90.891V438.644H81.8102V443.119H91.0153ZM78.1182 449.546V447.93H92.6438V449.546H78.1182Z" fill="white"/>
<path d="M32.9945 475.751L36.9171 471.79C37.3923 471.297 37.7551 470.899 38.0055 470.597C38.256 470.295 38.4475 470 38.5801 469.713C38.7164 469.422 38.7845 469.116 38.7845 468.796C38.7845 468.431 38.6924 468.11 38.5083 467.834C38.3241 467.558 38.0718 467.346 37.7514 467.199C37.4346 467.048 37.0792 466.972 36.6851 466.972C36.2726 466.972 35.9098 467.055 35.5967 467.221C35.2873 467.383 35.0479 467.615 34.8785 467.917C34.7127 468.219 34.6298 468.571 34.6298 468.972H32.9945C32.9945 468.295 33.1529 467.696 33.4696 467.177C33.7901 466.654 34.232 466.249 34.7956 465.961C35.3628 465.674 36.0037 465.53 36.7182 465.53C37.4328 465.53 38.07 465.67 38.6298 465.95C39.1897 466.23 39.6262 466.615 39.9392 467.105C40.256 467.591 40.4162 468.138 40.4199 468.746C40.4162 469.18 40.3333 469.597 40.1713 469.994C40.0092 470.392 39.733 470.836 39.3425 471.326C38.9558 471.812 38.4052 472.405 37.6906 473.105L35.3923 475.442V475.525H40.6022V477H33L32.9945 475.751ZM46.0465 477.155C45.3393 477.155 44.6984 477.022 44.1238 476.757C43.5492 476.488 43.0925 476.118 42.7536 475.646C42.4185 475.171 42.2398 474.637 42.2177 474.044H43.8918C43.9175 474.361 44.028 474.646 44.2232 474.901C44.4221 475.155 44.68 475.354 44.9967 475.497C45.3172 475.641 45.6671 475.713 46.0465 475.713C46.4958 475.713 46.8991 475.613 47.2564 475.414C47.6174 475.212 47.8973 474.934 48.0962 474.58C48.2988 474.223 48.4 473.821 48.4 473.376C48.4 472.919 48.2932 472.51 48.0796 472.149C47.8697 471.785 47.5787 471.501 47.2067 471.298C46.8347 471.092 46.4148 470.989 45.947 470.989C45.0004 470.989 44.3411 471.32 43.9691 471.983H42.3503L43.0907 465.685H49.4995V467.16H44.5161L44.1293 470.32H44.2398C44.4829 470.092 44.7923 469.91 45.168 469.773C45.5474 469.637 45.947 469.569 46.3669 469.569C47.0704 469.569 47.7039 469.731 48.2674 470.055C48.831 470.376 49.2711 470.823 49.5879 471.398C49.9083 471.969 50.0686 472.615 50.0686 473.337C50.0686 474.07 49.8973 474.726 49.5547 475.304C49.2122 475.882 48.7352 476.335 48.1238 476.663C47.5124 476.991 46.8199 477.155 46.0465 477.155ZM63.8881 472.613H58.3357V475.326H56.866V472.613H51.076V471.403H63.8881V472.613ZM52.6727 474H54.1533V476.823H62.4683V478.039H52.6727V474ZM52.7224 464.983H62.2307V469.956H52.7224V464.983ZM60.7666 468.785V466.155H54.1754V468.785H60.7666ZM75.6062 468.116H77.6338V469.37H75.6062V473.309H74.12V464.326H75.6062V468.116ZM64.6228 465.834H68.0593V464.227H69.5344V465.834H72.9543V467.006H64.6228V465.834ZM65.3852 470.133C65.3852 469.639 65.5252 469.204 65.8051 468.829C66.0887 468.453 66.4883 468.162 67.004 467.956C67.5233 467.75 68.12 467.646 68.7941 467.646C69.4607 467.646 70.05 467.75 70.562 467.956C71.074 468.162 71.4718 468.453 71.7554 468.829C72.0427 469.204 72.1863 469.639 72.1863 470.133C72.1863 470.63 72.0427 471.066 71.7554 471.442C71.4718 471.818 71.074 472.107 70.562 472.309C70.05 472.512 69.4607 472.613 68.7941 472.613C68.1163 472.613 67.5197 472.512 67.004 472.309C66.4883 472.107 66.0887 471.818 65.8051 471.442C65.5252 471.066 65.3852 470.63 65.3852 470.133ZM66.4902 475.873C66.4865 475.361 66.6707 474.921 67.0427 474.552C67.4147 474.184 67.9488 473.904 68.6449 473.713C69.3447 473.517 70.1734 473.42 71.1311 473.42C72.0814 473.42 72.9027 473.517 73.5952 473.713C74.2913 473.904 74.8254 474.184 75.1974 474.552C75.5731 474.921 75.7609 475.361 75.7609 475.873C75.7609 476.378 75.5731 476.812 75.1974 477.177C74.8254 477.541 74.2913 477.82 73.5952 478.011C72.899 478.206 72.0777 478.304 71.1311 478.304C70.1734 478.304 69.3447 478.206 68.6449 478.011C67.9488 477.82 67.4147 477.541 67.0427 477.177C66.6707 476.812 66.4865 476.378 66.4902 475.873ZM66.8162 470.133C66.8125 470.409 66.8917 470.65 67.0537 470.856C67.2195 471.059 67.4515 471.215 67.7499 471.326C68.0482 471.433 68.3963 471.486 68.7941 471.486C69.1882 471.486 69.5344 471.433 69.8327 471.326C70.1311 471.215 70.3631 471.059 70.5289 470.856C70.6946 470.65 70.7793 470.409 70.783 470.133C70.7793 469.853 70.6946 469.61 70.5289 469.403C70.3631 469.193 70.1292 469.031 69.8272 468.917C69.5289 468.803 69.1845 468.744 68.7941 468.74C68.4 468.744 68.0519 468.803 67.7499 468.917C67.4515 469.031 67.2195 469.193 67.0537 469.403C66.8917 469.613 66.8125 469.856 66.8162 470.133ZM67.9598 475.873C67.9561 476.145 68.0777 476.379 68.3244 476.575C68.5749 476.77 68.9377 476.917 69.4128 477.017C69.8917 477.12 70.4644 477.169 71.1311 477.166C71.7867 477.169 72.3502 477.12 72.8217 477.017C73.2968 476.917 73.6578 476.77 73.9046 476.575C74.155 476.379 74.2802 476.145 74.2802 475.873C74.2802 475.449 74.0058 475.127 73.457 474.906C72.9082 474.681 72.1329 474.569 71.1311 474.569C70.1182 474.569 69.3355 474.681 68.783 474.906C68.2305 475.127 67.9561 475.449 67.9598 475.873ZM93.2973 478.354H91.8056V464.326H93.2973V478.354ZM82.1813 470.287C82.1813 469.304 82.3341 468.442 82.6398 467.702C82.9492 466.958 83.3783 466.385 83.9271 465.983C84.4759 465.578 85.1002 465.376 85.8 465.376C86.4962 465.376 87.1168 465.578 87.6619 465.983C88.2107 466.389 88.6398 466.963 88.9492 467.707C89.2586 468.448 89.4133 469.308 89.4133 470.287C89.4133 471.274 89.2586 472.14 88.9492 472.884C88.6398 473.628 88.2107 474.203 87.6619 474.608C87.1168 475.009 86.4962 475.21 85.8 475.21C85.1002 475.21 84.4759 475.009 83.9271 474.608C83.3783 474.203 82.9492 473.628 82.6398 472.884C82.3341 472.14 82.1813 471.274 82.1813 470.287ZM83.6122 470.287C83.6122 471.017 83.7043 471.652 83.8884 472.193C84.0726 472.735 84.3286 473.151 84.6564 473.442C84.9879 473.733 85.3691 473.878 85.8 473.878C86.231 473.878 86.6103 473.733 86.9382 473.442C87.266 473.151 87.5201 472.735 87.7006 472.193C87.8848 471.652 87.9768 471.017 87.9768 470.287C87.9768 469.562 87.8848 468.93 87.7006 468.392C87.5201 467.851 87.266 467.435 86.9382 467.144C86.6103 466.853 86.231 466.705 85.8 466.702C85.3691 466.705 84.9879 466.855 84.6564 467.149C84.3286 467.44 84.0726 467.856 83.8884 468.398C83.7043 468.936 83.6122 469.565 83.6122 470.287ZM107.198 478.326H105.761V471.16H103.977V477.608H102.584V464.613H103.977V469.928H105.761V464.326H107.198V478.326ZM95.8606 465.978H97.3468V473.464C98.0614 473.453 98.7686 473.414 99.4684 473.348C100.172 473.282 100.894 473.177 101.634 473.033L101.8 474.326C100.897 474.488 100.039 474.602 99.2253 474.669C98.415 474.735 97.5955 474.768 96.7667 474.768H95.8606V465.978Z" fill="white"/>
<g opacity="0.4">
<path d="M33.25 510.5L33.2431 508.939L38.1464 503.988C38.7357 503.38 39.1869 502.885 39.5 502.503C39.8177 502.121 40.0594 501.75 40.2251 501.391C40.3955 501.027 40.4807 500.645 40.4807 500.244C40.4807 499.789 40.3656 499.388 40.1354 499.043C39.9052 498.698 39.5921 498.433 39.1961 498.249C38.8002 498.06 38.3536 497.965 37.8564 497.965C37.3407 497.965 36.8895 498.069 36.5028 498.276C36.116 498.479 35.8168 498.771 35.605 499.153C35.3932 499.531 35.2873 499.968 35.2873 500.465H33.2431C33.2431 499.614 33.4411 498.863 33.837 498.214C34.2376 497.56 34.7901 497.056 35.4945 496.702C36.2035 496.343 37.0046 496.163 37.8978 496.163C38.791 496.163 39.5875 496.338 40.2873 496.688C40.9871 497.033 41.5327 497.512 41.924 498.124C42.32 498.737 42.5203 499.423 42.5249 500.182C42.5203 500.726 42.4167 501.246 42.2141 501.743C42.0115 502.24 41.6662 502.793 41.1782 503.401C40.6948 504.008 40.0064 504.752 39.1133 505.631L36.2403 508.552V508.656H42.7528V510.5H33.25ZM49.5581 510.693C48.6741 510.693 47.873 510.528 47.1548 510.196C46.4411 509.86 45.8725 509.397 45.449 508.808C45.0254 508.219 44.7998 507.551 44.7722 506.805H46.8647C46.8969 507.201 47.0373 507.56 47.286 507.883C47.5346 508.2 47.8569 508.449 48.2528 508.628C48.6534 508.803 49.0885 508.891 49.5581 508.891C50.1198 508.891 50.6239 508.764 51.0705 508.511C51.5217 508.258 51.8716 507.91 52.1202 507.468C52.3734 507.026 52.5001 506.527 52.5001 505.97C52.5001 505.408 52.3688 504.901 52.1064 504.45C51.8486 503.994 51.4872 503.638 51.0222 503.38C50.5618 503.122 50.0415 502.991 49.4614 502.986C48.8767 502.982 48.3725 503.081 47.949 503.283C47.53 503.486 47.2008 503.801 46.9614 504.229H44.9379L45.8633 496.356H53.8744V498.2H47.6451L47.1617 502.151H47.2998C47.4978 501.966 47.7349 501.805 48.0111 501.667C48.292 501.524 48.5981 501.414 48.9296 501.336C49.2611 501.253 49.6041 501.211 49.9586 501.211C50.838 501.211 51.6299 501.414 52.3343 501.819C53.0387 502.22 53.5889 502.779 53.9849 503.497C54.3854 504.215 54.5857 505.023 54.5857 505.921C54.5857 506.833 54.3716 507.652 53.9434 508.38C53.5153 509.103 52.919 509.669 52.1548 510.079C51.3905 510.488 50.5249 510.693 49.5581 510.693ZM58.5071 509.126L56.9394 514.526H55.2819L56.3247 509.126H58.5071ZM65.3265 510.728C64.2445 510.728 63.3122 510.442 62.5295 509.872C61.7515 509.301 61.1575 508.47 60.7478 507.378C60.3426 506.283 60.14 504.968 60.14 503.435C60.14 501.911 60.3449 500.606 60.7547 499.519C61.169 498.428 61.7653 497.597 62.5434 497.026C63.3214 496.451 64.2492 496.163 65.3265 496.163C66.4085 496.163 67.3385 496.451 68.1166 497.026C68.8946 497.602 69.4886 498.433 69.8983 499.519C70.3127 500.606 70.5199 501.911 70.5199 503.435C70.5199 504.968 70.315 506.283 69.9052 507.378C69.4955 508.47 68.9015 509.301 68.1235 509.872C67.3454 510.442 66.4131 510.728 65.3265 510.728ZM65.3265 508.877C65.9665 508.877 66.5143 508.668 66.9701 508.249C67.4259 507.83 67.7736 507.215 68.013 506.405C68.257 505.59 68.379 504.6 68.379 503.435C68.379 502.275 68.257 501.287 68.013 500.472C67.769 499.657 67.419 499.041 66.9632 498.622C66.5074 498.203 65.9619 497.993 65.3265 497.993C64.6957 497.993 64.1525 498.203 63.6967 498.622C63.2409 499.041 62.891 499.657 62.6469 500.472C62.4029 501.287 62.2809 502.275 62.2809 503.435C62.2809 504.6 62.4006 505.59 62.64 506.405C62.8794 507.215 63.2271 507.83 63.6829 508.249C64.1433 508.668 64.6911 508.877 65.3265 508.877ZM77.2703 510.728C76.1883 510.728 75.256 510.442 74.4733 509.872C73.6952 509.301 73.1013 508.47 72.6915 507.378C72.2864 506.283 72.0838 504.968 72.0838 503.435C72.0838 501.911 72.2887 500.606 72.6984 499.519C73.1128 498.428 73.709 497.597 74.4871 497.026C75.2652 496.451 76.1929 496.163 77.2703 496.163C78.3522 496.163 79.2822 496.451 80.0603 497.026C80.8384 497.602 81.4323 498.433 81.8421 499.519C82.2564 500.606 82.4636 501.911 82.4636 503.435C82.4636 504.968 82.2587 506.283 81.849 507.378C81.4392 508.47 80.8453 509.301 80.0672 509.872C79.2891 510.442 78.3568 510.728 77.2703 510.728ZM77.2703 508.877C77.9102 508.877 78.4581 508.668 78.9139 508.249C79.3697 507.83 79.7173 507.215 79.9567 506.405C80.2007 505.59 80.3227 504.6 80.3227 503.435C80.3227 502.275 80.2007 501.287 79.9567 500.472C79.7127 499.657 79.3628 499.041 78.907 498.622C78.4512 498.203 77.9056 497.993 77.2703 497.993C76.6395 497.993 76.0962 498.203 75.6404 498.622C75.1846 499.041 74.8347 499.657 74.5907 500.472C74.3467 501.287 74.2247 502.275 74.2247 503.435C74.2247 504.6 74.3444 505.59 74.5838 506.405C74.8232 507.215 75.1708 507.83 75.6266 508.249C76.087 508.668 76.6349 508.877 77.2703 508.877ZM89.214 510.728C88.1321 510.728 87.1997 510.442 86.417 509.872C85.639 509.301 85.045 508.47 84.6353 507.378C84.2301 506.283 84.0275 504.968 84.0275 503.435C84.0275 501.911 84.2324 500.606 84.6422 499.519C85.0565 498.428 85.6528 497.597 86.4309 497.026C87.2089 496.451 88.1367 496.163 89.214 496.163C90.296 496.163 91.226 496.451 92.0041 497.026C92.7821 497.602 93.3761 498.433 93.7858 499.519C94.2002 500.606 94.4074 501.911 94.4074 503.435C94.4074 504.968 94.2025 506.283 93.7927 507.378C93.383 508.47 92.789 509.301 92.011 509.872C91.2329 510.442 90.3006 510.728 89.214 510.728ZM89.214 508.877C89.854 508.877 90.4018 508.668 90.8576 508.249C91.3134 507.83 91.6611 507.215 91.9005 506.405C92.1445 505.59 92.2665 504.6 92.2665 503.435C92.2665 502.275 92.1445 501.287 91.9005 500.472C91.6565 499.657 91.3065 499.041 90.8507 498.622C90.3949 498.203 89.8494 497.993 89.214 497.993C88.5832 497.993 88.04 498.203 87.5842 498.622C87.1284 499.041 86.7785 499.657 86.5344 500.472C86.2904 501.287 86.1684 502.275 86.1684 503.435C86.1684 504.6 86.2881 505.59 86.5275 506.405C86.7669 507.215 87.1146 507.83 87.5704 508.249C88.0308 508.668 88.5786 508.877 89.214 508.877ZM102.387 503.511V507.399H100.536V503.511H102.387ZM110.198 494.671V507.945H108.333V494.671H110.198ZM110.612 510.279V511.798H97.974V510.279H110.612ZM99.8249 506.646V510.7H97.974V506.646H99.8249ZM95.55 502.662H95.7158C97.9671 502.648 99.986 502.609 101.772 502.544C103.563 502.475 105.267 502.339 106.883 502.137L107.007 503.477C105.829 503.67 104.59 503.817 103.292 503.919C101.993 504.02 100.739 504.087 99.5279 504.119C98.3217 504.146 97.074 504.158 95.7848 504.153L95.55 502.662ZM108.796 504.954V506.267H104.811V504.954H108.796ZM101.282 495.341C102.125 495.341 102.873 495.47 103.527 495.728C104.185 495.981 104.698 496.343 105.067 496.812C105.435 497.282 105.621 497.818 105.626 498.421C105.621 499.038 105.435 499.577 105.067 500.037C104.703 500.498 104.192 500.852 103.533 501.101C102.88 501.349 102.129 501.474 101.282 501.474C100.421 501.474 99.6614 501.349 99.0031 501.101C98.3447 500.852 97.8313 500.498 97.463 500.037C97.0993 499.577 96.9174 499.038 96.9174 498.421C96.9174 497.818 97.0993 497.282 97.463 496.812C97.8313 496.343 98.3447 495.981 99.0031 495.728C99.666 495.47 100.426 495.341 101.282 495.341ZM101.282 496.722C100.766 496.722 100.311 496.791 99.9147 496.93C99.5187 497.068 99.2125 497.266 98.9961 497.523C98.7844 497.781 98.6785 498.081 98.6785 498.421C98.6785 498.767 98.7844 499.068 98.9961 499.326C99.2125 499.579 99.5187 499.775 99.9147 499.913C100.311 500.047 100.766 500.113 101.282 500.113C101.779 500.113 102.221 500.047 102.608 499.913C102.995 499.775 103.299 499.579 103.52 499.326C103.741 499.068 103.853 498.767 103.858 498.421C103.853 498.081 103.741 497.781 103.52 497.523C103.303 497.266 102.999 497.068 102.608 496.93C102.221 496.791 101.779 496.722 101.282 496.722Z" fill="white"/>
<path d="M32 504.14H112.283V505.493H32V504.14Z" fill="white"/>
</g>
<path d="M129.296 495.028V512H126.229V498.003H126.13L122.16 500.539V497.746L126.37 495.028H129.296ZM138.969 494.796C142.284 494.812 145.583 496.801 145.591 502.992C145.591 508.851 142.947 512.232 138.787 512.232C135.505 512.232 133.243 510.193 132.87 507.392H135.886C136.201 508.727 137.237 509.588 138.787 509.588C141.24 509.588 142.616 507.417 142.632 503.779H142.45C141.596 505.246 139.964 506.124 138.107 506.124C135.066 506.124 132.721 503.82 132.712 500.613C132.704 497.29 135.207 494.779 138.969 494.796ZM135.679 500.539C135.688 502.362 137.038 503.796 138.944 503.796C140.826 503.796 142.284 502.271 142.276 500.522C142.268 498.79 140.884 497.265 138.986 497.265C137.08 497.265 135.663 498.724 135.679 500.539ZM150.427 510.309L148.471 516.881H146.242L147.443 510.309H150.427ZM158.939 494.796C162.254 494.812 165.552 496.801 165.561 502.992C165.561 508.851 162.917 512.232 158.757 512.232C155.475 512.232 153.212 510.193 152.84 507.392H155.856C156.171 508.727 157.207 509.588 158.757 509.588C161.21 509.588 162.585 507.417 162.602 503.779H162.42C161.566 505.246 159.933 506.124 158.077 506.124C155.036 506.124 152.69 503.82 152.682 500.613C152.674 497.29 155.177 494.779 158.939 494.796ZM155.649 500.539C155.657 502.362 157.008 503.796 158.914 503.796C160.795 503.796 162.254 502.271 162.246 500.522C162.237 498.79 160.853 497.265 158.956 497.265C157.05 497.265 155.632 498.724 155.649 500.539ZM173.879 512.323C169.785 512.315 167.348 509.091 167.356 503.53C167.356 497.986 169.809 494.796 173.879 494.796C177.939 494.796 180.401 497.994 180.401 503.53C180.392 509.108 177.964 512.323 173.879 512.323ZM170.431 503.53C170.431 507.608 171.749 509.738 173.879 509.738C176 509.738 177.318 507.608 177.318 503.53C177.309 499.478 175.992 497.34 173.879 497.34C171.757 497.34 170.439 499.478 170.431 503.53ZM188.727 512.323C184.633 512.315 182.196 509.091 182.205 503.53C182.205 497.986 184.658 494.796 188.727 494.796C192.787 494.796 195.249 497.994 195.249 503.53C195.24 509.108 192.812 512.323 188.727 512.323ZM185.279 503.53C185.279 507.608 186.597 509.738 188.727 509.738C190.848 509.738 192.166 507.608 192.166 503.53C192.158 499.478 190.84 497.34 188.727 497.34C186.605 497.34 185.287 499.478 185.279 503.53ZM214.381 492.923V508.95H211.763V507.094H207.611V505.287H211.763V492.923H214.381ZM196.522 502.445C200.426 502.42 205.68 502.378 210.171 501.807L210.329 503.68C208.589 503.97 206.774 504.16 204.984 504.293V508.362H202.365V504.434C200.392 504.517 198.503 504.525 196.837 504.525L196.522 502.445ZM198.13 497.448C198.13 495.21 200.285 493.685 203.426 493.693C206.517 493.685 208.688 495.21 208.705 497.448C208.688 499.718 206.517 501.16 203.426 501.16C200.293 501.16 198.13 499.718 198.13 497.448ZM199.332 513.674V507.401H201.942V511.561H214.87V513.674H199.332ZM200.608 497.448C200.591 498.599 201.735 499.262 203.426 499.262C205.05 499.262 206.202 498.599 206.218 497.448C206.202 496.296 205.05 495.608 203.426 495.616C201.735 495.608 200.591 496.296 200.608 497.448Z" fill="white"/>
<rect x="209" y="397" width="137" height="41" rx="20.5" fill="#1CB97A"/>
<rect x="209" y="397" width="137" height="41" rx="20.5" stroke="#7CDBB6" stroke-width="2"/>
<path d="M236.354 411.249V412.652H235.105V416.663C235.624 416.624 236.133 416.575 236.619 416.519V415.249H238.564V414.028H236.619V412.646H238.564V410.271H240.298V418.928H238.564V416.641H236.663L236.729 417.801C234.044 418.238 230.923 418.293 228.674 418.293L228.481 416.867C228.978 416.867 229.519 416.862 230.083 416.856V412.652H228.851V411.249H236.354ZM230.713 421.785C230.707 420.116 232.519 419.171 235.519 419.166C238.53 419.171 240.337 420.116 240.337 421.785C240.337 423.409 238.53 424.376 235.519 424.37C232.519 424.376 230.707 423.409 230.713 421.785ZM231.768 416.829C232.32 416.812 232.878 416.796 233.442 416.768V412.652H231.768V416.829ZM232.442 421.785C232.431 422.602 233.541 423.033 235.519 423.033C237.503 423.033 238.608 422.602 238.613 421.785C238.608 420.939 237.503 420.503 235.519 420.503C233.541 420.503 232.431 420.939 232.442 421.785ZM253.309 410.978V412.133C253.309 413.265 253.309 414.547 253.011 416.204H254.889V417.608H251.53V420.801H249.84V417.608H247.956V420.801H246.254V417.608H241.978V416.204H251.265C251.552 414.624 251.574 413.431 251.574 412.348H243.552V410.978H253.309ZM243.425 424.116V419.575H245.16V422.707H253.679V424.116H243.425ZM263.543 423.155C261.128 423.155 259.405 421.84 259.349 419.928H261.405C261.454 420.845 262.361 421.442 263.537 421.442C264.786 421.442 265.686 420.757 265.681 419.757C265.686 418.735 264.808 418.006 263.333 418.006H262.327V416.436H263.333C264.537 416.436 265.377 415.768 265.377 414.779C265.377 413.829 264.659 413.188 263.565 413.188C262.493 413.188 261.576 413.785 261.537 414.729H259.587C259.631 412.834 261.355 411.53 263.576 411.53C265.863 411.53 267.349 412.934 267.338 414.663C267.349 415.939 266.51 416.851 265.267 417.11V417.199C266.869 417.414 267.775 418.436 267.764 419.862C267.775 421.768 265.99 423.155 263.543 423.155ZM274.089 413.663C274.078 416.249 275.443 418.845 277.736 419.829L276.702 421.221C275.084 420.47 273.89 418.972 273.233 417.127C272.592 419.116 271.376 420.746 269.664 421.547L268.603 420.099C270.945 419.083 272.321 416.381 272.332 413.663V411.403H274.089V413.663ZM278.752 424.414V410.271H280.503V424.414H278.752ZM293.404 410.271V414.331H295.376V415.773H293.404V420.453H291.641V410.271H293.404ZM282.205 417.613C285.443 416.674 287.36 414.917 287.658 412.762H282.807V411.337H289.564C289.559 415.094 287.111 417.768 282.934 418.994L282.205 417.613ZM284.332 424.116V419.414H286.083V422.707H293.934V424.116H284.332ZM306.433 411.641V420.89H299.737V411.641H306.433ZM301.444 419.497H304.698V413.006H301.444V419.497ZM308.566 424.381V410.271H310.306V415.696H312.483V417.155H310.306V424.381H308.566ZM323.897 410.271V413.481H325.869V414.912H323.897V418.199H322.151V410.271H323.897ZM312.643 417.072C315.914 416.243 317.781 414.569 318.079 412.525H313.317V411.127H319.969C319.963 414.801 317.554 417.337 313.339 418.464L312.643 417.072ZM314.759 424.199V418.768H323.897V424.199H314.759ZM316.488 422.829H322.179V420.182H316.488V422.829Z" fill="white"/>
<rect x="16" y="574" width="343" height="118" rx="12" fill="white" fill-opacity="0.07"/>
<rect x="17" y="575" width="341" height="116" rx="11" stroke="#EEEEEE" stroke-opacity="0.33" stroke-width="2"/>
<path d="M45.674 594.133V595.606H43.4862V598.024H45.587V599.503H33.9144V598.024H36.0152V595.606H33.8273V594.133H45.674ZM32.5283 602.046V600.498H47.0041V602.046H32.5283ZM34.2314 604.538V603.121H45.2017V606.887H36.1644V607.969H45.6367V609.423H34.25V605.539H43.2749V604.538H34.2314ZM37.9606 598.024H41.5283V595.606H37.9606V598.024ZM61.0261 593.68V609.591H59.0806V601.132H56.3458V599.528H59.0806V593.68H61.0261ZM48.2533 596.644V595.059H55.4384V600.877H50.2422V604.221C52.6041 604.209 54.4998 604.128 56.6379 603.749L56.7995 605.352C54.4314 605.762 52.3058 605.849 49.571 605.856H48.303V599.305H53.524V596.644H48.2533ZM71.1322 595.849C71.126 598.31 73.5314 600.771 76.8567 601.356L75.9803 602.984C73.3139 602.431 71.1322 600.821 70.1005 598.683C69.0563 600.802 66.8746 602.419 64.2206 602.984L63.3629 601.356C66.6384 600.759 69.0438 598.298 69.0563 595.849V594.68H71.1322V595.849ZM62.9216 607.54V605.924H77.4471V607.54H62.9216Z" fill="white"/>
<path d="M37.011 635.155C36.2413 635.155 35.5506 635.024 34.9392 634.762C34.3315 634.501 33.8508 634.134 33.4972 633.663C33.1473 633.192 32.9632 632.652 32.9448 632.044H34.6851C34.7035 632.368 34.8158 632.654 35.0221 632.901C35.232 633.147 35.5083 633.339 35.8508 633.475C36.1934 633.608 36.5746 633.674 36.9945 633.674C37.4475 633.674 37.8527 633.597 38.2099 633.442C38.5709 633.287 38.8508 633.07 39.0497 632.79C39.2523 632.51 39.3536 632.192 39.3536 631.834C39.3573 631.459 39.2578 631.125 39.0552 630.834C38.8564 630.543 38.5635 630.317 38.1768 630.155C37.7937 629.993 37.337 629.912 36.8066 629.912H35.8453V628.508H36.8066C37.2339 628.508 37.6133 628.435 37.9448 628.287C38.2762 628.136 38.5341 627.924 38.7182 627.652C38.9061 627.379 39 627.064 39 626.707C39 626.365 38.919 626.063 38.7569 625.801C38.5948 625.536 38.3646 625.331 38.0663 625.188C37.7716 625.044 37.4273 624.972 37.0331 624.972C36.6501 624.972 36.2928 625.041 35.9613 625.177C35.6335 625.309 35.3683 625.501 35.1657 625.751C34.9632 626.002 34.8545 626.293 34.8398 626.624H33.1823C33.2007 626.024 33.3831 625.49 33.7293 625.022C34.0755 624.551 34.5396 624.184 35.1215 623.923C35.7035 623.661 36.3462 623.53 37.0497 623.53C37.768 623.53 38.4015 623.67 38.9503 623.95C39.5028 624.227 39.9263 624.6 40.221 625.072C40.5193 625.54 40.6667 626.055 40.663 626.619C40.6667 627.039 40.5856 627.42 40.4199 627.762C40.2578 628.105 40.0258 628.392 39.7238 628.624C39.4217 628.853 39.0681 629.017 38.663 629.116V629.204C39.1676 629.274 39.6022 629.431 39.9669 629.674C40.3352 629.917 40.6151 630.228 40.8066 630.608C40.9982 630.987 41.0921 631.416 41.0884 631.895C41.0921 632.514 40.9171 633.072 40.5635 633.569C40.2136 634.063 39.7274 634.451 39.105 634.735C38.4825 635.015 37.7845 635.155 37.011 635.155ZM46.5981 635.182C45.7288 635.182 44.983 634.954 44.3605 634.497C43.7417 634.041 43.2684 633.376 42.9406 632.503C42.6128 631.626 42.4489 630.575 42.4489 629.348C42.4489 628.129 42.6128 627.085 42.9406 626.215C43.2721 625.343 43.7491 624.678 44.3716 624.221C44.994 623.761 45.7362 623.53 46.5981 623.53C47.46 623.53 48.2021 623.761 48.8246 624.221C49.4507 624.678 49.9277 625.343 50.2555 626.215C50.587 627.085 50.7528 628.129 50.7528 629.348C50.7528 630.575 50.5889 631.626 50.2611 632.503C49.9333 633.376 49.4581 634.041 48.8356 634.497C48.2132 634.954 47.4673 635.182 46.5981 635.182ZM44.1616 629.348C44.1616 630.28 44.2574 631.072 44.4489 631.724C44.6404 632.372 44.9185 632.864 45.2832 633.199C45.6515 633.534 46.0898 633.702 46.5981 633.702C47.11 633.702 47.5484 633.534 47.913 633.199C48.2776 632.864 48.5557 632.372 48.7472 631.724C48.9425 631.072 49.0401 630.28 49.0401 629.348C49.0401 628.42 48.9425 627.63 48.7472 626.978C48.552 626.326 48.2721 625.832 47.9075 625.497C47.5428 625.162 47.1064 624.994 46.5981 624.994C46.0935 624.994 45.6589 625.162 45.2942 625.497C44.9296 625.832 44.6496 626.326 44.4544 626.978C44.2592 627.63 44.1616 628.42 44.1616 629.348ZM64.5288 630.613H58.9763V633.326H57.5067V630.613H51.7166V629.403H64.5288V630.613ZM53.3133 632H54.794V634.823H63.1089V636.039H53.3133V632ZM53.363 622.983H62.8713V627.956H53.363V622.983ZM61.4072 626.785V624.155H54.8161V626.785H61.4072ZM76.2468 626.116H78.2745V627.37H76.2468V631.309H74.7607V622.326H76.2468V626.116ZM65.2634 623.834H68.6999V622.227H70.175V623.834H73.5949V625.006H65.2634V623.834ZM66.0258 628.133C66.0258 627.639 66.1658 627.204 66.4457 626.829C66.7293 626.453 67.129 626.162 67.6446 625.956C68.164 625.75 68.7607 625.646 69.4347 625.646C70.1013 625.646 70.6907 625.75 71.2026 625.956C71.7146 626.162 72.1124 626.453 72.396 626.829C72.6833 627.204 72.8269 627.639 72.8269 628.133C72.8269 628.63 72.6833 629.066 72.396 629.442C72.1124 629.818 71.7146 630.107 71.2026 630.309C70.6907 630.512 70.1013 630.613 69.4347 630.613C68.757 630.613 68.1603 630.512 67.6446 630.309C67.129 630.107 66.7293 629.818 66.4457 629.442C66.1658 629.066 66.0258 628.63 66.0258 628.133ZM67.1308 633.873C67.1271 633.361 67.3113 632.921 67.6833 632.552C68.0553 632.184 68.5894 631.904 69.2855 631.713C69.9853 631.517 70.8141 631.42 71.7717 631.42C72.722 631.42 73.5433 631.517 74.2358 631.713C74.9319 631.904 75.466 632.184 75.838 632.552C76.2137 632.921 76.4015 633.361 76.4015 633.873C76.4015 634.378 76.2137 634.812 75.838 635.177C75.466 635.541 74.9319 635.82 74.2358 636.011C73.5397 636.206 72.7183 636.304 71.7717 636.304C70.8141 636.304 69.9853 636.206 69.2855 636.011C68.5894 635.82 68.0553 635.541 67.6833 635.177C67.3113 634.812 67.1271 634.378 67.1308 633.873ZM67.4568 628.133C67.4531 628.409 67.5323 628.65 67.6944 628.856C67.8601 629.059 68.0921 629.215 68.3905 629.326C68.6888 629.433 69.0369 629.486 69.4347 629.486C69.8288 629.486 70.175 629.433 70.4734 629.326C70.7717 629.215 71.0037 629.059 71.1695 628.856C71.3352 628.65 71.42 628.409 71.4236 628.133C71.42 627.853 71.3352 627.61 71.1695 627.403C71.0037 627.193 70.7699 627.031 70.4678 626.917C70.1695 626.803 69.8251 626.744 69.4347 626.74C69.0406 626.744 68.6925 626.803 68.3905 626.917C68.0921 627.031 67.8601 627.193 67.6944 627.403C67.5323 627.613 67.4531 627.856 67.4568 628.133ZM68.6004 633.873C68.5967 634.145 68.7183 634.379 68.9651 634.575C69.2155 634.77 69.5783 634.917 70.0535 635.017C70.5323 635.12 71.105 635.169 71.7717 635.166C72.4273 635.169 72.9909 635.12 73.4623 635.017C73.9374 634.917 74.2984 634.77 74.5452 634.575C74.7956 634.379 74.9209 634.145 74.9209 633.873C74.9209 633.449 74.6465 633.127 74.0977 632.906C73.5489 632.681 72.7735 632.569 71.7717 632.569C70.7588 632.569 69.9761 632.681 69.4236 632.906C68.8711 633.127 68.5967 633.449 68.6004 633.873ZM93.9379 636.354H92.4462V622.326H93.9379V636.354ZM82.8219 628.287C82.8219 627.304 82.9747 626.442 83.2804 625.702C83.5898 624.958 84.0189 624.385 84.5677 623.983C85.1165 623.578 85.7408 623.376 86.4407 623.376C87.1368 623.376 87.7574 623.578 88.3025 623.983C88.8513 624.389 89.2804 624.963 89.5898 625.707C89.8992 626.448 90.0539 627.308 90.0539 628.287C90.0539 629.274 89.8992 630.14 89.5898 630.884C89.2804 631.628 88.8513 632.203 88.3025 632.608C87.7574 633.009 87.1368 633.21 86.4407 633.21C85.7408 633.21 85.1165 633.009 84.5677 632.608C84.0189 632.203 83.5898 631.628 83.2804 630.884C82.9747 630.14 82.8219 629.274 82.8219 628.287ZM84.2528 628.287C84.2528 629.017 84.3449 629.652 84.5291 630.193C84.7132 630.735 84.9692 631.151 85.297 631.442C85.6285 631.733 86.0097 631.878 86.4407 631.878C86.8716 631.878 87.251 631.733 87.5788 631.442C87.9066 631.151 88.1607 630.735 88.3412 630.193C88.5254 629.652 88.6175 629.017 88.6175 628.287C88.6175 627.562 88.5254 626.93 88.3412 626.392C88.1607 625.851 87.9066 625.435 87.5788 625.144C87.251 624.853 86.8716 624.705 86.4407 624.702C86.0097 624.705 85.6285 624.855 85.297 625.149C84.9692 625.44 84.7132 625.856 84.5291 626.398C84.3449 626.936 84.2528 627.565 84.2528 628.287ZM107.838 636.326H106.402V629.16H104.617V635.608H103.225V622.613H104.617V627.928H106.402V622.326H107.838V636.326ZM96.5013 623.978H97.9875V631.464C98.702 631.453 99.4092 631.414 100.109 631.348C100.813 631.282 101.534 631.177 102.275 631.033L102.44 632.326C101.538 632.488 100.68 632.602 99.8659 632.669C99.0556 632.735 98.2361 632.768 97.4074 632.768H96.5013V623.978Z" fill="white"/>
<g opacity="0.4">
<path d="M38.2638 668.693C37.3016 668.693 36.4383 668.53 35.674 668.203C34.9144 667.876 34.3135 667.42 33.8715 666.836C33.4342 666.246 33.204 665.57 33.1809 664.805H35.3564C35.3794 665.21 35.5198 665.567 35.7776 665.876C36.0355 666.184 36.3785 666.424 36.8066 666.594C37.2394 666.76 37.7182 666.843 38.2431 666.843C38.8094 666.843 39.3158 666.748 39.7624 666.559C40.2136 666.366 40.5658 666.094 40.8191 665.744C41.0723 665.39 41.1966 664.989 41.192 664.543C41.1966 664.073 41.0723 663.657 40.8191 663.293C40.5704 662.929 40.2044 662.646 39.721 662.443C39.2422 662.241 38.6713 662.14 38.0083 662.14H36.8066V660.385H38.0083C38.5424 660.385 39.0166 660.291 39.4309 660.102C39.8453 659.913 40.1676 659.651 40.3978 659.315C40.6326 658.974 40.75 658.581 40.75 658.134C40.75 657.706 40.6487 657.328 40.4461 657.001C40.2482 656.67 39.9627 656.414 39.5898 656.235C39.2169 656.055 38.7841 655.965 38.2914 655.965C37.8126 655.965 37.3683 656.051 36.9586 656.221C36.5488 656.387 36.215 656.626 35.9572 656.939C35.704 657.252 35.5681 657.616 35.5497 658.03H33.4779C33.5009 657.28 33.7265 656.61 34.1547 656.021C34.5875 655.431 35.1676 654.976 35.895 654.653C36.6271 654.326 37.4328 654.163 38.3122 654.163C39.2145 654.163 40.0064 654.338 40.6878 654.688C41.3738 655.033 41.9033 655.5 42.2762 656.09C42.6492 656.674 42.8333 657.319 42.8287 658.023C42.8333 658.544 42.732 659.018 42.5249 659.446C42.3177 659.874 42.0253 660.233 41.6478 660.523C41.2749 660.814 40.8352 661.021 40.3287 661.145V661.256C40.9641 661.348 41.5097 661.546 41.9655 661.849C42.4213 662.153 42.7689 662.542 43.0083 663.017C43.2477 663.491 43.3651 664.025 43.3605 664.619C43.3651 665.388 43.1464 666.083 42.7044 666.704C42.267 667.326 41.6593 667.814 40.8812 668.169C40.1031 668.518 39.2307 668.693 38.2638 668.693ZM50.2476 668.728C49.1656 668.728 48.2333 668.442 47.4506 667.872C46.6726 667.301 46.0786 666.47 45.6689 665.378C45.2637 664.283 45.0611 662.968 45.0611 661.435C45.0611 659.911 45.266 658.606 45.6758 657.519C46.0901 656.428 46.6864 655.597 47.4644 655.026C48.2425 654.451 49.1702 654.163 50.2476 654.163C51.3295 654.163 52.2596 654.451 53.0377 655.026C53.8157 655.602 54.4097 656.433 54.8194 657.519C55.2338 658.606 55.441 659.911 55.441 661.435C55.441 662.968 55.2361 664.283 54.8263 665.378C54.4166 666.47 53.8226 667.301 53.0446 667.872C52.2665 668.442 51.3342 668.728 50.2476 668.728ZM50.2476 666.877C50.8876 666.877 51.4354 666.668 51.8912 666.249C52.347 665.83 52.6947 665.215 52.9341 664.405C53.1781 663.59 53.3001 662.6 53.3001 661.435C53.3001 660.275 53.1781 659.287 52.9341 658.472C52.69 657.657 52.3401 657.041 51.8843 656.622C51.4285 656.203 50.883 655.993 50.2476 655.993C49.6168 655.993 49.0736 656.203 48.6178 656.622C48.162 657.041 47.8121 657.657 47.568 658.472C47.324 659.287 47.202 660.275 47.202 661.435C47.202 662.6 47.3217 663.59 47.5611 664.405C47.8005 665.215 48.1481 665.83 48.6039 666.249C49.0644 666.668 49.6122 666.877 50.2476 666.877ZM59.3078 667.126L57.7402 672.526H56.0827L57.1255 667.126H59.3078ZM66.1273 668.728C65.0453 668.728 64.113 668.442 63.3303 667.872C62.5522 667.301 61.9583 666.47 61.5486 665.378C61.1434 664.283 60.9408 662.968 60.9408 661.435C60.9408 659.911 61.1457 658.606 61.5555 657.519C61.9698 656.428 62.566 655.597 63.3441 655.026C64.1222 654.451 65.0499 654.163 66.1273 654.163C67.2092 654.163 68.1393 654.451 68.9173 655.026C69.6954 655.602 70.2893 656.433 70.6991 657.519C71.1135 658.606 71.3207 659.911 71.3207 661.435C71.3207 662.968 71.1158 664.283 70.706 665.378C70.2963 666.47 69.7023 667.301 68.9242 667.872C68.1462 668.442 67.2138 668.728 66.1273 668.728ZM66.1273 666.877C66.7672 666.877 67.3151 666.668 67.7709 666.249C68.2267 665.83 68.5743 665.215 68.8137 664.405C69.0578 663.59 69.1798 662.6 69.1798 661.435C69.1798 660.275 69.0578 659.287 68.8137 658.472C68.5697 657.657 68.2198 657.041 67.764 656.622C67.3082 656.203 66.7626 655.993 66.1273 655.993C65.4965 655.993 64.9532 656.203 64.4974 656.622C64.0416 657.041 63.6917 657.657 63.4477 658.472C63.2037 659.287 63.0817 660.275 63.0817 661.435C63.0817 662.6 63.2014 663.59 63.4408 664.405C63.6802 665.215 64.0278 665.83 64.4836 666.249C64.944 666.668 65.4919 666.877 66.1273 666.877ZM78.071 668.728C76.9891 668.728 76.0568 668.442 75.2741 667.872C74.496 667.301 73.9021 666.47 73.4923 665.378C73.0871 664.283 72.8846 662.968 72.8846 661.435C72.8846 659.911 73.0895 658.606 73.4992 657.519C73.9136 656.428 74.5098 655.597 75.2879 655.026C76.066 654.451 76.9937 654.163 78.071 654.163C79.153 654.163 80.083 654.451 80.8611 655.026C81.6392 655.602 82.2331 656.433 82.6429 657.519C83.0572 658.606 83.2644 659.911 83.2644 661.435C83.2644 662.968 83.0595 664.283 82.6498 665.378C82.24 666.47 81.6461 667.301 80.868 667.872C80.0899 668.442 79.1576 668.728 78.071 668.728ZM78.071 666.877C78.711 666.877 79.2589 666.668 79.7147 666.249C80.1705 665.83 80.5181 665.215 80.7575 664.405C81.0015 663.59 81.1235 662.6 81.1235 661.435C81.1235 660.275 81.0015 659.287 80.7575 658.472C80.5135 657.657 80.1636 657.041 79.7078 656.622C79.252 656.203 78.7064 655.993 78.071 655.993C77.4403 655.993 76.897 656.203 76.4412 656.622C75.9854 657.041 75.6355 657.657 75.3915 658.472C75.1475 659.287 75.0255 660.275 75.0255 661.435C75.0255 662.6 75.1452 663.59 75.3846 664.405C75.624 665.215 75.9716 665.83 76.4274 666.249C76.8878 666.668 77.4357 666.877 78.071 666.877ZM90.0148 668.728C88.9328 668.728 88.0005 668.442 87.2178 667.872C86.4397 667.301 85.8458 666.47 85.4361 665.378C85.0309 664.283 84.8283 662.968 84.8283 661.435C84.8283 659.911 85.0332 658.606 85.443 657.519C85.8573 656.428 86.4535 655.597 87.2316 655.026C88.0097 654.451 88.9374 654.163 90.0148 654.163C91.0967 654.163 92.0268 654.451 92.8048 655.026C93.5829 655.602 94.1768 656.433 94.5866 657.519C95.001 658.606 95.2082 659.911 95.2082 661.435C95.2082 662.968 95.0033 664.283 94.5935 665.378C94.1838 666.47 93.5898 667.301 92.8117 667.872C92.0337 668.442 91.1013 668.728 90.0148 668.728ZM90.0148 666.877C90.6547 666.877 91.2026 666.668 91.6584 666.249C92.1142 665.83 92.4618 665.215 92.7012 664.405C92.9453 663.59 93.0673 662.6 93.0673 661.435C93.0673 660.275 92.9453 659.287 92.7012 658.472C92.4572 657.657 92.1073 657.041 91.6515 656.622C91.1957 656.203 90.6501 655.993 90.0148 655.993C89.384 655.993 88.8408 656.203 88.3849 656.622C87.9291 657.041 87.5792 657.657 87.3352 658.472C87.0912 659.287 86.9692 660.275 86.9692 661.435C86.9692 662.6 87.0889 663.59 87.3283 664.405C87.5677 665.215 87.9153 665.83 88.3711 666.249C88.8315 666.668 89.3794 666.877 90.0148 666.877ZM103.188 661.511V665.399H101.337V661.511H103.188ZM110.999 652.671V665.945H109.134V652.671H110.999ZM111.413 668.279V669.798H98.7748V668.279H111.413ZM100.626 664.646V668.7H98.7748V664.646H100.626ZM96.3508 660.662H96.5165C98.7679 660.648 100.787 660.609 102.573 660.544C104.364 660.475 106.068 660.339 107.684 660.137L107.808 661.477C106.629 661.67 105.391 661.817 104.093 661.919C102.794 662.02 101.54 662.087 100.329 662.119C99.1224 662.146 97.8747 662.158 96.5856 662.153L96.3508 660.662ZM109.597 662.954V664.267H105.612V662.954H109.597ZM102.083 653.341C102.925 653.341 103.674 653.47 104.327 653.728C104.986 653.981 105.499 654.343 105.867 654.812C106.236 655.282 106.422 655.818 106.427 656.421C106.422 657.038 106.236 657.577 105.867 658.037C105.504 658.498 104.993 658.852 104.334 659.101C103.68 659.349 102.93 659.474 102.083 659.474C101.222 659.474 100.462 659.349 99.8038 659.101C99.1455 658.852 98.6321 658.498 98.2638 658.037C97.9001 657.577 97.7182 657.038 97.7182 656.421C97.7182 655.818 97.9001 655.282 98.2638 654.812C98.6321 654.343 99.1455 653.981 99.8038 653.728C100.467 653.47 101.226 653.341 102.083 653.341ZM102.083 654.722C101.567 654.722 101.111 654.791 100.715 654.93C100.319 655.068 100.013 655.266 99.7969 655.523C99.5851 655.781 99.4793 656.081 99.4793 656.421C99.4793 656.767 99.5851 657.068 99.7969 657.326C100.013 657.579 100.319 657.775 100.715 657.913C101.111 658.047 101.567 658.113 102.083 658.113C102.58 658.113 103.022 658.047 103.409 657.913C103.796 657.775 104.099 657.579 104.32 657.326C104.541 657.068 104.654 656.767 104.659 656.421C104.654 656.081 104.541 655.781 104.32 655.523C104.104 655.266 103.8 655.068 103.409 654.93C103.022 654.791 102.58 654.722 102.083 654.722Z" fill="white"/>
<path d="M32 662.14H113.084V663.493H32V662.14Z" fill="white"/>
</g>
<path d="M123.417 670L123.409 667.787L129.401 662.011C131.116 660.296 132.011 659.285 132.019 657.867C132.011 656.276 130.76 655.282 129.094 655.282C127.354 655.282 126.227 656.376 126.235 658.099H123.334C123.318 654.884 125.729 652.796 129.135 652.796C132.591 652.796 134.928 654.867 134.936 657.71C134.928 659.633 134.008 661.182 130.669 664.331L127.66 667.323V667.448H135.193V670H123.417ZM136.7 666.843V664.406L144.034 653.028H147.846V664.331H150.076V666.843H147.846V670H144.937V666.843H136.7ZM139.832 664.331H144.971V656.492H144.797L139.832 664.199V664.331ZM154.966 668.309L153.01 674.881H150.781L151.982 668.309H154.966ZM163.478 652.796C166.793 652.812 170.091 654.801 170.1 660.992C170.1 666.851 167.456 670.232 163.296 670.232C160.014 670.232 157.752 668.193 157.379 665.392H160.395C160.71 666.727 161.746 667.588 163.296 667.588C165.749 667.588 167.124 665.417 167.141 661.779H166.959C166.105 663.246 164.473 664.124 162.616 664.124C159.575 664.124 157.229 661.82 157.221 658.613C157.213 655.29 159.716 652.779 163.478 652.796ZM160.188 658.539C160.196 660.362 161.547 661.796 163.453 661.796C165.334 661.796 166.793 660.271 166.785 658.522C166.776 656.79 165.392 655.265 163.495 655.265C161.589 655.265 160.171 656.724 160.188 658.539ZM178.418 670.323C174.324 670.315 171.887 667.091 171.896 661.53C171.896 655.986 174.349 652.796 178.418 652.796C182.478 652.796 184.94 655.994 184.94 661.53C184.931 667.108 182.503 670.323 178.418 670.323ZM174.97 661.53C174.97 665.608 176.288 667.738 178.418 667.738C180.539 667.738 181.857 665.608 181.857 661.53C181.849 657.478 180.531 655.34 178.418 655.34C176.296 655.34 174.978 657.478 174.97 661.53ZM193.266 670.323C189.172 670.315 186.735 667.091 186.744 661.53C186.744 655.986 189.197 652.796 193.266 652.796C197.327 652.796 199.788 655.994 199.788 661.53C199.78 667.108 197.351 670.323 193.266 670.323ZM189.818 661.53C189.818 665.608 191.136 667.738 193.266 667.738C195.387 667.738 196.705 665.608 196.705 661.53C196.697 657.478 195.379 655.34 193.266 655.34C191.144 655.34 189.827 657.478 189.818 661.53ZM218.921 650.923V666.95H216.302V665.094H212.15V663.287H216.302V650.923H218.921ZM201.061 660.445C204.965 660.42 210.219 660.378 214.711 659.807L214.868 661.68C213.128 661.97 211.313 662.16 209.523 662.293V666.362H206.904V662.434C204.932 662.517 203.042 662.525 201.376 662.525L201.061 660.445ZM202.669 655.448C202.669 653.21 204.824 651.685 207.965 651.693C211.056 651.685 213.227 653.21 213.244 655.448C213.227 657.718 211.056 659.16 207.965 659.16C204.832 659.16 202.669 657.718 202.669 655.448ZM203.871 671.674V665.401H206.481V669.561H219.409V671.674H203.871ZM205.147 655.448C205.13 656.599 206.274 657.262 207.965 657.262C209.589 657.262 210.741 656.599 210.758 655.448C210.741 654.296 209.589 653.608 207.965 653.616C206.274 653.608 205.13 654.296 205.147 655.448Z" fill="white"/>
<rect x="209" y="552.674" width="137" height="41" rx="20.5" fill="#1CB97A"/>
<rect x="209" y="552.674" width="137" height="41" rx="20.5" stroke="#68D6AA" stroke-width="2"/>
<path d="M236.354 566.922V568.326H235.105V572.337C235.624 572.298 236.133 572.248 236.619 572.193V570.922H238.564V569.701H236.619V568.32H238.564V565.945H240.298V574.602H238.564V572.315H236.663L236.729 573.475C234.044 573.911 230.923 573.967 228.674 573.967L228.481 572.541C228.978 572.541 229.519 572.536 230.083 572.53V568.326H228.851V566.922H236.354ZM230.713 577.458C230.707 575.79 232.519 574.845 235.519 574.84C238.53 574.845 240.337 575.79 240.337 577.458C240.337 579.083 238.53 580.05 235.519 580.044C232.519 580.05 230.707 579.083 230.713 577.458ZM231.768 572.503C232.32 572.486 232.878 572.469 233.442 572.442V568.326H231.768V572.503ZM232.442 577.458C232.431 578.276 233.541 578.707 235.519 578.707C237.503 578.707 238.608 578.276 238.613 577.458C238.608 576.613 237.503 576.177 235.519 576.177C233.541 576.177 232.431 576.613 232.442 577.458ZM253.309 566.652V567.806C253.309 568.939 253.309 570.221 253.011 571.878H254.889V573.282H251.53V576.475H249.84V573.282H247.956V576.475H246.254V573.282H241.978V571.878H251.265C251.552 570.298 251.574 569.105 251.574 568.022H243.552V566.652H253.309ZM243.425 579.79V575.248H245.16V578.381H253.679V579.79H243.425ZM263.67 578.829C261.454 578.817 259.25 577.503 259.256 573.337C259.256 569.458 261.018 567.204 263.791 567.204C265.968 567.204 267.471 568.574 267.725 570.403H265.714C265.504 569.541 264.819 568.967 263.791 568.967C262.145 568.967 261.233 570.42 261.228 572.806H261.344C261.913 571.823 263.001 571.243 264.245 571.243C266.272 571.243 267.841 572.784 267.836 574.928C267.841 577.177 266.167 578.84 263.67 578.829ZM261.454 574.989C261.46 576.171 262.383 577.182 263.664 577.182C264.924 577.182 265.863 576.21 265.863 574.978C265.863 573.768 264.952 572.801 263.692 572.801C262.421 572.801 261.466 573.806 261.454 574.989ZM274.105 569.337C274.094 571.922 275.458 574.519 277.751 575.503L276.718 576.895C275.099 576.143 273.906 574.646 273.248 572.801C272.608 574.79 271.392 576.42 269.679 577.221L268.619 575.773C270.961 574.757 272.337 572.055 272.348 569.337V567.077H274.105V569.337ZM278.768 580.088V565.945H280.519V580.088H278.768ZM293.42 565.945V570.005H295.392V571.447H293.42V576.127H291.657V565.945H293.42ZM282.221 573.287C285.458 572.348 287.375 570.591 287.674 568.436H282.823V567.011H289.58C289.574 570.768 287.127 573.442 282.95 574.668L282.221 573.287ZM284.348 579.79V575.088H286.099V578.381H293.95V579.79H284.348ZM306.449 567.315V576.563H299.753V567.315H306.449ZM301.46 575.171H304.714V568.679H301.46V575.171ZM308.581 580.055V565.945H310.322V571.37H312.498V572.829H310.322V580.055H308.581ZM323.913 565.945V569.154H325.885V570.585H323.913V573.873H322.167V565.945H323.913ZM312.658 572.746C315.929 571.917 317.797 570.243 318.095 568.199H313.333V566.801H319.984C319.979 570.475 317.57 573.011 313.355 574.138L312.658 572.746ZM314.775 579.873V574.442H323.913V579.873H314.775ZM316.504 578.503H322.194V575.856H316.504V578.503Z" fill="white"/>
<g opacity="0.6">
<path d="M143.56 734.244L141.844 735.356L141.322 734.428L143.144 733.5L141.322 732.572L141.844 731.644L143.56 732.755L143.468 730.715H144.532L144.44 732.755L146.156 731.644L146.678 732.572L144.856 733.5L146.678 734.428L146.156 735.356L144.44 734.244L144.532 736.284H143.468L143.56 734.244Z" fill="white"/>
<path d="M155.31 739.135C153.43 739.135 152.023 737.994 151.96 736.414H153.425C153.497 737.26 154.305 737.874 155.31 737.874C156.509 737.874 157.37 737.008 157.37 735.829C157.37 734.625 156.48 733.75 155.242 733.74C154.44 733.735 153.836 734.001 153.492 734.61H152.076L152.724 729.099H158.332V730.39H153.971L153.633 733.155H153.729C154.145 732.769 154.836 732.498 155.591 732.498C157.457 732.498 158.834 733.876 158.829 735.795C158.834 737.738 157.365 739.135 155.31 739.135ZM163.593 739.16C161.306 739.16 159.958 737.298 159.962 734.055C159.962 730.83 161.321 728.964 163.593 728.964C165.87 728.964 167.228 730.835 167.228 734.055C167.228 737.298 165.884 739.16 163.593 739.16ZM161.461 734.055C161.456 736.525 162.259 737.864 163.593 737.864C164.932 737.864 165.73 736.525 165.73 734.055C165.73 731.589 164.922 730.245 163.593 730.245C162.268 730.245 161.461 731.589 161.461 734.055ZM178.301 727.91V735.142H177.005V733.329H174.332V734.33H168.642V728.834H174.332V729.839H177.005V727.91H178.301ZM169.928 733.281H173.061V729.873H169.928V733.281ZM170.058 737.825C170.049 736.341 171.625 735.481 174.197 735.481C176.764 735.481 178.335 736.341 178.34 737.825C178.335 739.305 176.764 740.141 174.197 740.141C171.625 740.141 170.049 739.305 170.058 737.825ZM171.344 737.825C171.335 738.647 172.403 739.131 174.197 739.131C175.985 739.131 177.049 738.647 177.054 737.825C177.049 736.965 175.985 736.496 174.197 736.486C172.403 736.496 171.335 736.965 171.344 737.825ZM174.332 732.266H177.005V730.883H174.332V732.266ZM193.258 727.91V734.214H191.963V731.072H189.381V730.018H191.963V727.91H193.258ZM183.005 733.228C184.915 732.619 186.06 731.096 186.065 729.37V728.307H187.361V729.37C187.351 730.932 188.477 732.387 190.324 732.967L189.633 733.977C188.289 733.513 187.274 732.595 186.727 731.42C186.2 732.74 185.147 733.765 183.696 734.262L183.005 733.228ZM185.248 735.819V734.794H193.258V737.835H186.549V738.966H193.679V740.006H185.272V736.858H191.973V735.819H185.248ZM206.059 734.103V735.162H201.201V737.535H199.915V735.162H194.849V734.103H206.059ZM196.246 739.909V736.375H197.541V738.845H204.817V739.909H196.246ZM196.289 732.836V728.485H204.609V732.836H196.289ZM197.561 731.811H203.328V729.51H197.561V731.811ZM220.007 727.91V740.16H218.701V727.91H220.007ZM209.942 736.878C213.2 735.331 214.786 733.122 215.042 730.265H210.536V729.23H216.366C216.357 732.812 214.834 735.921 210.628 737.927L209.942 736.878ZM231.807 728.495V729.539H228.089C228.147 730.869 229.912 732.044 232.199 732.334L231.705 733.358C229.607 733.078 227.882 732.102 227.219 730.724C226.557 732.102 224.841 733.078 222.743 733.358L222.264 732.334C224.551 732.044 226.296 730.869 226.364 729.539H222.665V728.495H231.807ZM221.626 735.205V734.146H232.837V735.205H227.978V737.574H226.692V735.205H221.626ZM223.023 739.909V736.404H224.319V738.845H231.594V739.909H223.023Z" fill="white"/>
</g>
</g>
<defs>
<filter id="filter0_f_474_2" x="102" y="37" width="174" height="174" filterUnits="userSpaceOnUse" color-interpolation-filters="sRGB">
<feFlood flood-opacity="0" result="BackgroundImageFix"/>
<feBlend mode="normal" in="SourceGraphic" in2="BackgroundImageFix" result="shape"/>
<feGaussianBlur stdDeviation="20" result="effect1_foregroundBlur_474_2"/>
</filter>
<filter id="filter1_f_474_2" x="84" y="21" width="207" height="207" filterUnits="userSpaceOnUse" color-interpolation-filters="sRGB">
<feFlood flood-opacity="0" result="BackgroundImageFix"/>
<feBlend mode="normal" in="SourceGraphic" in2="BackgroundImageFix" result="shape"/>
<feGaussianBlur stdDeviation="25" result="effect1_foregroundBlur_474_2"/>
</filter>
<filter id="filter2_ddi_474_2" x="34" y="-31" width="309" height="309" filterUnits="userSpaceOnUse" color-interpolation-filters="sRGB">
<feFlood flood-opacity="0" result="BackgroundImageFix"/>
<feColorMatrix in="SourceAlpha" type="matrix" values="0 0 0 0 0 0 0 0 0 0 0 0 0 0 0 0 0 0 127 0" result="hardAlpha"/>
<feOffset/>
<feGaussianBlur stdDeviation="50"/>
<feComposite in2="hardAlpha" operator="out"/>
<feColorMatrix type="matrix" values="0 0 0 0 0.797063 0 0 0 0 1 0 0 0 0 0.918506 0 0 0 1 0"/>
<feBlend mode="normal" in2="BackgroundImageFix" result="effect1_dropShadow_474_2"/>
<feColorMatrix in="SourceAlpha" type="matrix" values="0 0 0 0 0 0 0 0 0 0 0 0 0 0 0 0 0 0 127 0" result="hardAlpha"/>
<feOffset dy="4"/>
<feGaussianBlur stdDeviation="20"/>
<feComposite in2="hardAlpha" operator="out"/>
<feColorMatrix type="matrix" values="0 0 0 0 1 0 0 0 0 1 0 0 0 0 1 0 0 0 1 0"/>
<feBlend mode="normal" in2="effect1_dropShadow_474_2" result="effect2_dropShadow_474_2"/>
<feBlend mode="normal" in="SourceGraphic" in2="effect2_dropShadow_474_2" result="shape"/>
<feColorMatrix in="SourceAlpha" type="matrix" values="0 0 0 0 0 0 0 0 0 0 0 0 0 0 0 0 0 0 127 0" result="hardAlpha"/>
<feOffset dy="4"/>
<feGaussianBlur stdDeviation="2"/>
<feComposite in2="hardAlpha" operator="arithmetic" k2="-1" k3="1"/>
<feColorMatrix type="matrix" values="0 0 0 0 1 0 0 0 0 1 0 0 0 0 1 0 0 0 0.5 0"/>
<feBlend mode="normal" in2="shape" result="effect3_innerShadow_474_2"/>
</filter>
<filter id="filter3_ii_474_2" x="142" y="77" width="96" height="98" filterUnits="userSpaceOnUse" color-interpolation-filters="sRGB">
<feFlood flood-opacity="0" result="BackgroundImageFix"/>
<feBlend mode="normal" in="SourceGraphic" in2="BackgroundImageFix" result="shape"/>
<feColorMatrix in="SourceAlpha" type="matrix" values="0 0 0 0 0 0 0 0 0 0 0 0 0 0 0 0 0 0 127 0" result="hardAlpha"/>
<feOffset dx="2" dy="4"/>
<feGaussianBlur stdDeviation="2"/>
<feComposite in2="hardAlpha" operator="arithmetic" k2="-1" k3="1"/>
<feColorMatrix type="matrix" values="0 0 0 0 0 0 0 0 0 0.687857 0 0 0 0 0.411937 0 0 0 1 0"/>
<feBlend mode="normal" in2="shape" result="effect1_innerShadow_474_2"/>
<feColorMatrix in="SourceAlpha" type="matrix" values="0 0 0 0 0 0 0 0 0 0 0 0 0 0 0 0 0 0 127 0" result="hardAlpha"/>
<feOffset dy="4"/>
<feGaussianBlur stdDeviation="2"/>
<feComposite in2="hardAlpha" operator="arithmetic" k2="-1" k3="1"/>
<feColorMatrix type="matrix" values="0 0 0 0 0.0279974 0 0 0 0 0.527719 0 0 0 0 0.327266 0 0 0 1 0"/>
<feBlend mode="normal" in2="effect1_innerShadow_474_2" result="effect2_innerShadow_474_2"/>
</filter>
<filter id="filter4_f_474_2" x="106.584" y="41.5" width="168.416" height="168" filterUnits="userSpaceOnUse" color-interpolation-filters="sRGB">
<feFlood flood-opacity="0" result="BackgroundImageFix"/>
<feBlend mode="normal" in="SourceGraphic" in2="BackgroundImageFix" result="shape"/>
<feGaussianBlur stdDeviation="20" result="effect1_foregroundBlur_474_2"/>
</filter>
<filter id="filter5_ii_474_2" x="160" y="102" width="54.001" height="33.0713" filterUnits="userSpaceOnUse" color-interpolation-filters="sRGB">
<feFlood flood-opacity="0" result="BackgroundImageFix"/>
<feBlend mode="normal" in="SourceGraphic" in2="BackgroundImageFix" result="shape"/>
<feColorMatrix in="SourceAlpha" type="matrix" values="0 0 0 0 0 0 0 0 0 0 0 0 0 0 0 0 0 0 127 0" result="hardAlpha"/>
<feOffset dy="1"/>
<feGaussianBlur stdDeviation="2"/>
<feComposite in2="hardAlpha" operator="arithmetic" k2="-1" k3="1"/>
<feColorMatrix type="matrix" values="0 0 0 0 0.0823529 0 0 0 0 0.776471 0 0 0 0 0.498039 0 0 0 1 0"/>
<feBlend mode="normal" in2="shape" result="effect1_innerShadow_474_2"/>
<feColorMatrix in="SourceAlpha" type="matrix" values="0 0 0 0 0 0 0 0 0 0 0 0 0 0 0 0 0 0 127 0" result="hardAlpha"/>
<feOffset dy="-4"/>
<feGaussianBlur stdDeviation="2"/>
<feComposite in2="hardAlpha" operator="arithmetic" k2="-1" k3="1"/>
<feColorMatrix type="matrix" values="0 0 0 0 0 0 0 0 0 0.67565 0 0 0 0 0.40539 0 0 0 1 0"/>
<feBlend mode="normal" in2="effect1_innerShadow_474_2" result="effect2_innerShadow_474_2"/>
</filter>
<filter id="filter6_f_474_2" x="124.399" y="119" width="107.564" height="67.8721" filterUnits="userSpaceOnUse" color-interpolation-filters="sRGB">
<feFlood flood-opacity="0" result="BackgroundImageFix"/>
<feBlend mode="normal" in="SourceGraphic" in2="BackgroundImageFix" result="shape"/>
<feGaussianBlur stdDeviation="5" result="effect1_foregroundBlur_474_2"/>
</filter>
<filter id="filter7_i_474_2" x="-34" y="137" width="432.5" height="707" filterUnits="userSpaceOnUse" color-interpolation-filters="sRGB">
<feFlood flood-opacity="0" result="BackgroundImageFix"/>
<feBlend mode="normal" in="SourceGraphic" in2="BackgroundImageFix" result="shape"/>
<feColorMatrix in="SourceAlpha" type="matrix" values="0 0 0 0 0 0 0 0 0 0 0 0 0 0 0 0 0 0 127 0" result="hardAlpha"/>
<feOffset dy="4"/>
<feGaussianBlur stdDeviation="20"/>
<feComposite in2="hardAlpha" operator="arithmetic" k2="-1" k3="1"/>
<feColorMatrix type="matrix" values="0 0 0 0 1 0 0 0 0 1 0 0 0 0 1 0 0 0 0.6 0"/>
<feBlend mode="normal" in2="shape" result="effect1_innerShadow_474_2"/>
</filter>
<filter id="filter8_f_474_2" x="118.954" y="-83.0967" width="218.508" height="278.426" filterUnits="userSpaceOnUse" color-interpolation-filters="sRGB">
<feFlood flood-opacity="0" result="BackgroundImageFix"/>
<feBlend mode="normal" in="SourceGraphic" in2="BackgroundImageFix" result="shape"/>
<feGaussianBlur stdDeviation="22.5" result="effect1_foregroundBlur_474_2"/>
</filter>
<filter id="filter9_f_474_2" x="196.816" y="30.9907" width="55.7639" height="79.3594" filterUnits="userSpaceOnUse" color-interpolation-filters="sRGB">
<feFlood flood-opacity="0" result="BackgroundImageFix"/>
<feBlend mode="normal" in="SourceGraphic" in2="BackgroundImageFix" result="shape"/>
<feGaussianBlur stdDeviation="0.5" result="effect1_foregroundBlur_474_2"/>
</filter>
<filter id="filter10_f_474_2" x="157" y="110.5" width="11.5" height="26" filterUnits="userSpaceOnUse" color-interpolation-filters="sRGB">
<feFlood flood-opacity="0" result="BackgroundImageFix"/>
<feBlend mode="normal" in="SourceGraphic" in2="BackgroundImageFix" result="shape"/>
<feGaussianBlur stdDeviation="2" result="effect1_foregroundBlur_474_2"/>
</filter>
<filter id="filter11_f_474_2" x="174" y="120" width="11.5" height="16.5" filterUnits="userSpaceOnUse" color-interpolation-filters="sRGB">
<feFlood flood-opacity="0" result="BackgroundImageFix"/>
<feBlend mode="normal" in="SourceGraphic" in2="BackgroundImageFix" result="shape"/>
<feGaussianBlur stdDeviation="2" result="effect1_foregroundBlur_474_2"/>
</filter>
<filter id="filter12_f_474_2" x="191" y="120" width="11.5" height="16.5" filterUnits="userSpaceOnUse" color-interpolation-filters="sRGB">
<feFlood flood-opacity="0" result="BackgroundImageFix"/>
<feBlend mode="normal" in="SourceGraphic" in2="BackgroundImageFix" result="shape"/>
<feGaussianBlur stdDeviation="2" result="effect1_foregroundBlur_474_2"/>
</filter>
<filter id="filter13_d_474_2" x="-8" y="221" width="391" height="183" filterUnits="userSpaceOnUse" color-interpolation-filters="sRGB">
<feFlood flood-opacity="0" result="BackgroundImageFix"/>
<feColorMatrix in="SourceAlpha" type="matrix" values="0 0 0 0 0 0 0 0 0 0 0 0 0 0 0 0 0 0 127 0" result="hardAlpha"/>
<feOffset dy="4"/>
<feGaussianBlur stdDeviation="12"/>
<feComposite in2="hardAlpha" operator="out"/>
<feColorMatrix type="matrix" values="0 0 0 0 0 0 0 0 0 0 0 0 0 0 0 0 0 0 0.2 0"/>
<feBlend mode="normal" in2="BackgroundImageFix" result="effect1_dropShadow_474_2"/>
<feBlend mode="normal" in="SourceGraphic" in2="effect1_dropShadow_474_2" result="shape"/>
</filter>
<linearGradient id="paint0_linear_474_2" x1="187.5" y1="810" x2="187.5" y2="2.55804e-06" gradientUnits="userSpaceOnUse">
<stop stop-color="#15C67F"/>
<stop offset="0.928281" stop-color="#63DEAD"/>
<stop offset="1" stop-color="white"/>
</linearGradient>
<linearGradient id="paint1_linear_474_2" x1="170" y1="77" x2="210" y2="168.5" gradientUnits="userSpaceOnUse">
<stop stop-color="#15C67F"/>
<stop offset="1" stop-color="#FBFFFD"/>
</linearGradient>
<linearGradient id="paint2_linear_474_2" x1="155" y1="56.5" x2="185.5" y2="229" gradientUnits="userSpaceOnUse">
<stop stop-color="#15C67F"/>
<stop offset="0.686291" stop-color="#8CF4CA"/>
<stop offset="1" stop-color="#FBFFFD"/>
</linearGradient>
<linearGradient id="paint3_linear_474_2" x1="228.239" y1="-13.5505" x2="189" y2="171" gradientUnits="userSpaceOnUse">
<stop stop-color="#15C67F"/>
<stop offset="1" stop-color="#FBFFFD"/>
</linearGradient>
<linearGradient id="paint4_linear_474_2" x1="217" y1="73" x2="138.5" y2="127" gradientUnits="userSpaceOnUse">
<stop stop-color="#004429"/>
<stop offset="0.490385"/>
<stop offset="1" stop-color="#004429"/>
</linearGradient>
<linearGradient id="paint5_linear_474_2" x1="187" y1="106" x2="187.171" y2="138.605" gradientUnits="userSpaceOnUse">
<stop offset="0.211119" stop-color="#09C97B"/>
<stop offset="0.597866" stop-color="#8DE7CA"/>
<stop offset="1" stop-color="white"/>
</linearGradient>
<linearGradient id="paint6_linear_474_2" x1="140.5" y1="131" x2="185.5" y2="227.872" gradientUnits="userSpaceOnUse">
<stop stop-color="white"/>
<stop offset="0.686291" stop-color="#8CF4CA"/>
<stop offset="1" stop-color="#FBFFFD"/>
</linearGradient>
<linearGradient id="paint7_linear_474_2" x1="171.25" y1="137" x2="171.25" y2="835" gradientUnits="userSpaceOnUse">
<stop stop-color="white"/>
<stop offset="0.0560208" stop-color="#A1E8CB"/>
<stop offset="0.205054" stop-color="#64D9AA"/>
<stop offset="0.533671" stop-color="#15C67F"/>
</linearGradient>
<linearGradient id="paint8_linear_474_2" x1="164.5" y1="122.5" x2="161" y2="122.5" gradientUnits="userSpaceOnUse">
<stop stop-color="white" stop-opacity="0"/>
<stop offset="1" stop-color="#CFFFEC"/>
</linearGradient>
<linearGradient id="paint9_linear_474_2" x1="181.5" y1="122.5" x2="178" y2="122.5" gradientUnits="userSpaceOnUse">
<stop stop-color="white" stop-opacity="0"/>
<stop offset="1" stop-color="#CFFFEC"/>
</linearGradient>
<linearGradient id="paint10_linear_474_2" x1="198.5" y1="122.5" x2="195" y2="122.5" gradientUnits="userSpaceOnUse">
<stop stop-color="white" stop-opacity="0"/>
<stop offset="1" stop-color="#CFFFEC"/>
</linearGradient>
<clipPath id="clip0_474_2">
<rect width="375" height="810" fill="white"/>
</clipPath>
</defs>
</svg>
