<svg width="375" height="508" viewBox="0 0 375 508" fill="none" xmlns="http://www.w3.org/2000/svg">
<rect width="375" height="508" fill="white"/>
<path opacity="0.87" d="M153.49 61.1621H152.178V48.9121H153.49V61.1621ZM149.84 50.2246C149.84 52.1204 149.386 53.8066 148.479 55.2832C147.577 56.7552 146.121 57.972 144.111 58.9336L143.428 57.8809C145.036 57.1152 146.255 56.1833 147.085 55.085C147.919 53.9867 148.4 52.7129 148.527 51.2637H144.016V50.2246H149.84ZM164.667 53.6562H166.636V54.7227H164.667V61.1895H163.368V48.9121H164.667V53.6562ZM161.372 51.1406H156.943V57.0605C158.027 57.056 158.98 57.0241 159.8 56.9648C160.625 56.9056 161.454 56.8008 162.288 56.6504L162.452 57.7441C161.609 57.8945 160.78 57.9993 159.964 58.0586C159.153 58.1133 158.214 58.1406 157.148 58.1406H156.628H155.644V50.0879H161.372V51.1406ZM177.102 56.1855H175.803V48.9258H177.102V56.1855ZM173.192 53.0957H168.858V54.5723H169.118C170.17 54.5723 171.105 54.5449 171.92 54.4902C172.736 54.4355 173.575 54.3398 174.436 54.2031L174.6 55.2695C173.711 55.4062 172.845 55.502 172.002 55.5566C171.164 55.6113 170.207 55.6387 169.131 55.6387H168.612H167.586V52.084H171.907V50.6895H167.559V49.6504H173.192V53.0957ZM177.102 61.0117H169.049V56.8008H177.102V61.0117ZM170.334 59.959H175.831V57.8398H170.334V59.959ZM184.513 57.5117H186.427V56.0898H187.63V61.0117H183.296V56.0898H184.513V57.5117ZM186.427 60V58.4961H184.513V60H186.427ZM191.185 57.0059C191.185 57.4479 191.267 57.874 191.431 58.2842C191.595 58.6943 191.843 59.0612 192.176 59.3848C192.513 59.7038 192.925 59.9499 193.413 60.123L192.743 61.1074C192.205 60.9023 191.752 60.6107 191.383 60.2324C191.018 59.8587 190.736 59.4189 190.535 58.9131C190.326 59.4053 190.036 59.8405 189.667 60.2188C189.302 60.597 188.865 60.8932 188.354 61.1074L187.698 60.123C188.172 59.9271 188.573 59.665 188.901 59.3369C189.234 59.0042 189.482 58.6374 189.646 58.2363C189.815 57.8307 189.899 57.4206 189.899 57.0059V56.0078H191.185V57.0059ZM185.292 49.4316C185.825 49.4316 186.313 49.5273 186.755 49.7188C187.197 49.9056 187.562 50.1722 187.849 50.5186C188.14 50.8649 188.332 51.2637 188.423 51.7148H190.815V48.9121H192.114V55.4062H190.815V52.7812H188.43C188.343 53.2461 188.154 53.654 187.862 54.0049C187.575 54.3558 187.208 54.627 186.762 54.8184C186.32 55.0098 185.83 55.1055 185.292 55.1055C184.672 55.1055 184.118 54.987 183.631 54.75C183.143 54.5085 182.763 54.1735 182.489 53.7451C182.216 53.3122 182.079 52.8177 182.079 52.2617C182.079 51.7148 182.216 51.2272 182.489 50.7988C182.763 50.3659 183.143 50.0309 183.631 49.7939C184.118 49.5524 184.672 49.4316 185.292 49.4316ZM185.292 50.5117C184.909 50.5117 184.567 50.5869 184.267 50.7373C183.97 50.8831 183.738 51.0882 183.569 51.3525C183.405 51.6169 183.323 51.9199 183.323 52.2617C183.323 52.6081 183.405 52.9157 183.569 53.1846C183.738 53.4535 183.97 53.6654 184.267 53.8203C184.567 53.9707 184.909 54.0482 185.292 54.0527C185.666 54.0482 185.998 53.9707 186.29 53.8203C186.586 53.6654 186.816 53.4535 186.98 53.1846C187.149 52.9157 187.233 52.6081 187.233 52.2617C187.233 51.9199 187.149 51.6169 186.98 51.3525C186.816 51.0882 186.586 50.8831 186.29 50.7373C185.998 50.5869 185.666 50.5117 185.292 50.5117ZM203.633 53.5332H195.198V49.3496H196.483V52.4941H203.633V53.5332ZM204.918 56.1172H193.707V55.0781H204.918V56.1172ZM203.715 60.875H195.102V57.2793H196.401V59.8086H203.715V60.875ZM218.891 55.2148H217.593V52.0703H215.009V51.0176H217.593V48.9121H218.891V55.2148ZM218.891 58.8379H212.179V59.9727H219.315V61.0117H210.907V57.8535H217.606V56.8145H210.88V55.7891H218.891V58.8379ZM212.985 50.375C212.985 50.8945 213.104 51.3936 213.341 51.8721C213.582 52.346 213.926 52.7676 214.373 53.1367C214.82 53.5013 215.346 53.7793 215.952 53.9707L215.268 54.9824C214.603 54.75 214.02 54.4128 213.518 53.9707C213.022 53.5286 212.637 53.0137 212.363 52.4258C212.094 53.0911 211.7 53.6699 211.181 54.1621C210.661 54.6543 210.046 55.0234 209.335 55.2695L208.638 54.2305C209.266 54.0299 209.809 53.736 210.264 53.3486C210.725 52.9613 211.078 52.5124 211.324 52.002C211.57 51.4915 211.695 50.9492 211.7 50.375V49.3086H212.985V50.375ZM231.695 56.1582H226.828V58.5371H225.543V56.1582H220.484V55.1055H231.695V56.1582ZM230.246 53.834H221.92V49.4863H230.246V53.834ZM223.192 52.8086H228.961V50.5117H223.192V52.8086ZM230.451 60.9023H221.879V57.375H223.178V59.8496H230.451V60.9023Z" fill="black"/>
<path d="M120.594 78.4668C120.594 79.5299 120.796 80.6006 121.201 81.6787C121.612 82.7568 122.2 83.7376 122.964 84.6211C123.735 85.5046 124.637 86.1859 125.67 86.665L124.278 88.6416C123.162 88.1175 122.185 87.3501 121.347 86.3394C120.508 85.3211 119.853 84.1569 119.381 82.8467C118.91 84.2767 118.24 85.5457 117.371 86.6538C116.503 87.7619 115.496 88.5892 114.35 89.1357L112.89 87.1816C113.931 86.6875 114.844 85.9725 115.63 85.0366C116.424 84.1007 117.03 83.0563 117.45 81.9033C117.876 80.7503 118.094 79.6048 118.101 78.4668V76.7598H113.676V74.6934H124.839V76.7598H120.594V78.4668ZM129.219 80.6006H132.341V82.6895H129.219V92.999H126.726V72.6943H129.219V80.6006ZM149.463 92.999H146.947V72.6943H149.463V92.999ZM143.398 74.8506C143.398 78.0775 142.668 80.9113 141.208 83.3521C139.748 85.7853 137.326 87.8031 133.942 89.4053L132.64 87.4062C135.253 86.1634 137.218 84.6772 138.536 82.9478C139.861 81.2108 140.636 79.1706 140.86 76.8271H133.673V74.8506H143.398ZM168.696 87.541H166.203V80.1064H162.609V78.085H166.203V72.7168H168.696V87.541ZM169.212 92.5947H155.376V86.2383H157.87V90.5732H169.212V92.5947ZM159.15 76.7598C159.15 77.5908 159.333 78.4032 159.7 79.1968C160.067 79.9829 160.61 80.6904 161.329 81.3193C162.047 81.9408 162.916 82.4199 163.934 82.7568L162.676 84.7559C161.568 84.374 160.61 83.82 159.801 83.0938C159 82.36 158.371 81.5028 157.914 80.522C157.458 81.6151 156.806 82.5659 155.96 83.3745C155.114 84.1756 154.104 84.7783 152.928 85.1826L151.648 83.1611C152.696 82.8167 153.591 82.3151 154.332 81.6562C155.081 80.9899 155.646 80.2337 156.028 79.3877C156.417 78.5342 156.612 77.6507 156.612 76.7373V76.1982H152.389V74.1768H163.35V76.1982H159.15V76.7598ZM188.4 92.999H185.997V72.6943H188.4V92.999ZM184.223 92.0107H181.842V82.3525H179.91C179.835 83.6628 179.603 84.8008 179.214 85.7666C178.832 86.7249 178.319 87.4624 177.675 87.979C177.031 88.4881 176.294 88.7389 175.463 88.7314C174.587 88.7389 173.816 88.4507 173.149 87.8667C172.49 87.2752 171.981 86.4329 171.622 85.3398C171.263 84.2393 171.083 82.9515 171.083 81.4766C171.083 80.0016 171.263 78.7214 171.622 77.6357C171.981 76.5426 172.49 75.7041 173.149 75.1201C173.816 74.5361 174.587 74.2441 175.463 74.2441C176.279 74.2441 177.001 74.4875 177.63 74.9741C178.267 75.4608 178.776 76.1608 179.158 77.0742C179.547 77.9876 179.79 79.0732 179.888 80.3311H181.842V73.0537H184.223V92.0107ZM175.463 76.6025C175.036 76.5951 174.665 76.7785 174.351 77.1528C174.036 77.5272 173.797 78.0812 173.632 78.8149C173.467 79.5487 173.389 80.4359 173.396 81.4766C173.389 82.5173 173.467 83.4045 173.632 84.1382C173.797 84.8719 174.036 85.4259 174.351 85.8003C174.665 86.1746 175.036 86.3581 175.463 86.3506C176.144 86.3656 176.672 85.95 177.046 85.104C177.428 84.258 177.619 83.0488 177.619 81.4766C177.619 79.9043 177.428 78.6951 177.046 77.8491C176.672 77.0031 176.144 76.5876 175.463 76.6025ZM204.068 72.8965C205.61 72.8965 206.924 73.0312 208.01 73.3008C209.103 73.5703 209.938 73.9671 210.514 74.4912C211.091 75.0078 211.383 75.6367 211.39 76.3779C211.383 77.4036 210.851 78.2122 209.796 78.8037C208.74 79.3952 207.235 79.7433 205.281 79.8481V81.1396H213.344V83.1387H194.837V81.1396H202.81V79.8481C200.864 79.7358 199.366 79.384 198.318 78.7925C197.27 78.201 196.746 77.3962 196.746 76.3779C196.746 75.6367 197.034 75.0078 197.611 74.4912C198.187 73.9671 199.022 73.5703 200.115 73.3008C201.208 73.0312 202.526 72.8965 204.068 72.8965ZM204.068 74.7607C202.518 74.7607 201.343 74.8993 200.542 75.1763C199.748 75.4458 199.359 75.8464 199.374 76.3779C199.366 76.932 199.752 77.3438 200.53 77.6133C201.317 77.8828 202.496 78.0251 204.068 78.04C205.655 78.0251 206.842 77.8828 207.628 77.6133C208.414 77.3438 208.807 76.932 208.807 76.3779C208.807 75.8464 208.407 75.4458 207.606 75.1763C206.812 74.8993 205.633 74.7607 204.068 74.7607ZM211.031 89.4053H199.486V90.9102H211.592V92.8193H197.038V87.6309H208.583V86.3281H197.015V84.4414H211.031V89.4053ZM230.938 93.0215H228.467V72.6943H230.938V93.0215ZM224.694 82.083H217.708V86.1709C219.423 86.1559 220.995 86.096 222.425 85.9912C223.862 85.8864 225.33 85.7067 226.827 85.4521L227.052 87.4961C225.442 87.7806 223.859 87.9715 222.301 88.0688C220.744 88.1662 218.951 88.2148 216.922 88.2148H215.148V80.1064H222.155V76.4902H215.125V74.4688H224.694V82.083ZM249.789 76.5127V76.7598C249.781 77.8828 249.759 78.8599 249.721 79.6909C249.691 80.5145 249.62 81.4728 249.508 82.5659C249.396 83.6515 249.22 84.8307 248.98 86.1035L246.464 85.834C246.704 84.651 246.88 83.5355 246.992 82.4873C247.105 81.4316 247.176 80.4958 247.206 79.6797C247.243 78.8636 247.266 77.9053 247.273 76.8047V76.5576H235.144V74.5586H249.789V76.5127ZM251.72 90.3711H233.212V88.3271H240.041V81.2744H242.511V88.3271H251.72V90.3711ZM254.467 95.6943H252.333L253.501 89.4053H256.354L254.467 95.6943ZM71.8576 109.398H74.9797V111.442H71.8576V122.021H69.3645V101.694H71.8576V109.398ZM66.2873 105.647H59.2795V114.969C60.9191 114.969 62.3978 114.92 63.7155 114.823C65.0332 114.725 66.3697 114.557 67.7248 114.317L68.0168 116.429C66.5494 116.683 65.0969 116.852 63.6594 116.934C62.2294 117.016 60.4999 117.058 58.4709 117.058H56.7863V103.626H66.2873V105.647ZM84.3746 102.099C85.8646 102.099 87.1561 102.256 88.2492 102.57C89.3497 102.885 90.1958 103.341 90.7872 103.94C91.3862 104.532 91.6894 105.236 91.6969 106.052C91.6894 106.853 91.3862 107.545 90.7872 108.129C90.1958 108.713 89.3497 109.159 88.2492 109.466C87.1561 109.773 85.8646 109.923 84.3746 109.915C82.8997 109.923 81.6082 109.773 80.5001 109.466C79.3996 109.159 78.5498 108.713 77.9508 108.129C77.3519 107.545 77.0524 106.853 77.0524 106.052C77.0524 105.236 77.3519 104.532 77.9508 103.94C78.5498 103.341 79.3996 102.885 80.5001 102.57C81.6082 102.256 82.8997 102.099 84.3746 102.099ZM84.3746 104.053C82.8773 104.053 81.713 104.225 80.882 104.569C80.0584 104.914 79.6504 105.408 79.6579 106.052C79.6504 106.666 80.0584 107.137 80.882 107.467C81.713 107.796 82.8773 107.968 84.3746 107.983C85.872 107.968 87.0363 107.796 87.8673 107.467C88.6984 107.137 89.1139 106.666 89.1139 106.052C89.1139 105.408 88.6984 104.914 87.8673 104.569C87.0363 104.225 85.872 104.053 84.3746 104.053ZM91.4049 121.752H77.3219V114.924H91.4049V121.752ZM79.7926 119.73H88.9791V116.9H79.7926V119.73ZM93.651 113.307H75.1432V111.285H93.651V113.307ZM110.346 105.647H113.176V107.714H110.346V111.802H107.853V101.694H110.346V105.647ZM97.7227 109.005C100.628 108.968 103.39 108.695 106.011 108.186L106.303 110.229C104.79 110.536 103.301 110.757 101.833 110.892C100.366 111.019 98.8757 111.083 97.3634 111.083H96.8917H95.2071V102.593H97.7227V109.005ZM110.346 118.068H99.587V119.73H110.975V121.752H97.0938V116.159H107.83V114.654H97.0714V112.678H110.346V118.068ZM123.745 103.177C124.763 103.177 125.669 103.472 126.463 104.064C127.256 104.648 127.878 105.483 128.327 106.568C128.784 107.646 129.016 108.904 129.023 110.342C129.016 111.794 128.784 113.063 128.327 114.149C127.878 115.235 127.256 116.069 126.463 116.653C125.669 117.237 124.763 117.529 123.745 117.529C122.719 117.529 121.806 117.237 121.005 116.653C120.204 116.062 119.579 115.223 119.129 114.138C118.68 113.052 118.459 111.787 118.467 110.342C118.459 108.912 118.68 107.654 119.129 106.568C119.579 105.483 120.204 104.648 121.005 104.064C121.806 103.472 122.719 103.177 123.745 103.177ZM123.745 105.423C123.176 105.423 122.674 105.621 122.24 106.018C121.806 106.407 121.469 106.973 121.229 107.714C120.99 108.448 120.87 109.324 120.87 110.342C120.87 111.368 120.99 112.251 121.229 112.992C121.469 113.733 121.806 114.302 122.24 114.699C122.674 115.089 123.176 115.283 123.745 115.283C124.322 115.283 124.827 115.089 125.261 114.699C125.695 114.302 126.029 113.733 126.261 112.992C126.5 112.251 126.62 111.368 126.62 110.342C126.62 109.324 126.5 108.444 126.261 107.703C126.029 106.961 125.695 106.396 125.261 106.007C124.827 105.618 124.322 105.423 123.745 105.423ZM134.189 109.488H137.311V111.6H134.189V121.999H131.696V101.694H134.189V109.488ZM149.514 105.827H145.179C145.187 106.591 145.385 107.328 145.774 108.04C146.164 108.743 146.736 109.368 147.493 109.915C148.249 110.462 149.155 110.873 150.21 111.15L149.042 113.104C147.874 112.783 146.86 112.292 145.999 111.633C145.145 110.974 144.475 110.188 143.989 109.275C143.517 110.271 142.851 111.135 141.99 111.869C141.129 112.595 140.103 113.134 138.913 113.486L137.745 111.577C138.785 111.263 139.676 110.81 140.417 110.218C141.159 109.627 141.72 108.953 142.102 108.197C142.484 107.433 142.678 106.643 142.686 105.827H138.351V103.851H142.686V101.627H145.202V103.851H149.514V105.827ZM154.388 113.644H151.872V101.717H154.388V113.644ZM154.388 121.752H140.912V114.564H154.388V121.752ZM143.382 119.73H151.94V116.563H143.382V119.73ZM174.182 121.999H171.779V101.694H174.182V121.999ZM170.005 121.011H167.624V111.353H165.692C165.617 112.663 165.385 113.801 164.996 114.767C164.614 115.725 164.101 116.462 163.457 116.979C162.813 117.488 162.076 117.739 161.245 117.731C160.369 117.739 159.598 117.451 158.931 116.867C158.273 116.275 157.764 115.433 157.404 114.34C157.045 113.239 156.865 111.951 156.865 110.477C156.865 109.002 157.045 107.721 157.404 106.636C157.764 105.543 158.273 104.704 158.931 104.12C159.598 103.536 160.369 103.244 161.245 103.244C162.061 103.244 162.784 103.487 163.412 103.974C164.049 104.461 164.558 105.161 164.94 106.074C165.329 106.988 165.572 108.073 165.67 109.331H167.624V102.054H170.005V121.011ZM161.245 105.603C160.818 105.595 160.448 105.778 160.133 106.153C159.819 106.527 159.579 107.081 159.414 107.815C159.25 108.549 159.171 109.436 159.179 110.477C159.171 111.517 159.25 112.404 159.414 113.138C159.579 113.872 159.819 114.426 160.133 114.8C160.448 115.175 160.818 115.358 161.245 115.351C161.926 115.366 162.454 114.95 162.828 114.104C163.21 113.258 163.401 112.049 163.401 110.477C163.401 108.904 163.21 107.695 162.828 106.849C162.454 106.003 161.926 105.588 161.245 105.603ZM197.622 111.981H195.129V110.207H190.232V108.298H195.129V106.299H190.49C189.24 109.361 186.331 111.405 181.764 112.431L180.888 110.387C183.217 109.908 185.002 109.17 186.245 108.174C187.496 107.179 188.211 105.984 188.39 104.592H182.011V102.57H191.176C191.176 103.162 191.127 103.768 191.03 104.39H195.129V101.694H197.622V111.981ZM197.622 118.113H186.773V119.798H198.161V121.797H184.28V116.249H195.129V114.744H184.258V112.768H197.622V118.113ZM211.15 105.243C211.15 106.576 211.116 107.837 211.048 109.028C210.989 110.211 210.835 111.57 210.588 113.104L208.117 112.902C208.334 111.525 208.477 110.282 208.544 109.174C208.619 108.066 208.66 106.943 208.668 105.805H200.705V103.806H211.15V105.243ZM206.028 115.598C208.334 115.508 210.378 115.351 212.16 115.126L212.295 116.99C209.166 117.484 205.332 117.731 200.795 117.731H199.874L199.627 115.732C201.379 115.717 202.689 115.699 203.558 115.676V109.601H206.028V115.598ZM215.732 109.96H218.674V112.071H215.732V121.999H213.216V101.694H215.732V109.96ZM239.777 106.411H242.607V108.478H239.777V113.531H237.284V101.694H239.777V106.411ZM226.93 105.647H231.669V102.885H234.14V112.453H224.459V102.885H226.93V105.647ZM231.669 110.477V107.579H226.93V110.477H231.669ZM239.912 116.519H229.176V119.73H240.294V121.707H226.683V114.52H239.912V116.519ZM248.409 103.177C249.427 103.177 250.333 103.472 251.126 104.064C251.92 104.648 252.541 105.483 252.991 106.568C253.447 107.646 253.68 108.904 253.687 110.342C253.68 111.794 253.447 113.063 252.991 114.149C252.541 115.235 251.92 116.069 251.126 116.653C250.333 117.237 249.427 117.529 248.409 117.529C247.383 117.529 246.47 117.237 245.668 116.653C244.867 116.062 244.242 115.223 243.793 114.138C243.344 113.052 243.123 111.787 243.13 110.342C243.123 108.912 243.344 107.654 243.793 106.568C244.242 105.483 244.867 104.648 245.668 104.064C246.47 103.472 247.383 103.177 248.409 103.177ZM248.409 105.423C247.84 105.423 247.338 105.621 246.904 106.018C246.47 106.407 246.133 106.973 245.893 107.714C245.653 108.448 245.534 109.324 245.534 110.342C245.534 111.368 245.653 112.251 245.893 112.992C246.133 113.733 246.47 114.302 246.904 114.699C247.338 115.089 247.84 115.283 248.409 115.283C248.985 115.283 249.491 115.089 249.925 114.699C250.359 114.302 250.692 113.733 250.924 112.992C251.164 112.251 251.284 111.368 251.284 110.342C251.284 109.324 251.164 108.444 250.924 107.703C250.692 106.961 250.359 106.396 249.925 106.007C249.491 105.618 248.985 105.423 248.409 105.423ZM258.853 109.488H261.975V111.6H258.853V121.999H256.36V101.694H258.853V109.488ZM280.691 119.551H262.139V117.507H270.135V113.554H264.183V103.042H266.676V106.366H276.087V103.042H278.58V113.554H272.605V117.507H280.691V119.551ZM276.087 111.532V108.365H266.676V111.532H276.087ZM287.661 107.018C287.661 108.156 287.795 109.26 288.065 110.331C288.342 111.401 288.772 112.382 289.356 113.273C289.94 114.164 290.67 114.886 291.546 115.44L290.176 117.35C289.293 116.818 288.544 116.107 287.93 115.216C287.316 114.317 286.833 113.288 286.481 112.127C286.099 113.393 285.579 114.516 284.92 115.497C284.261 116.477 283.468 117.252 282.539 117.821L280.99 115.957C281.94 115.381 282.734 114.624 283.37 113.688C284.007 112.753 284.479 111.723 284.786 110.6C285.1 109.477 285.257 108.32 285.257 107.13V103.491H287.661V107.018ZM298.846 121.999H296.443V101.694H298.846V121.999ZM294.623 121.011H292.265V110.746H289.368V108.68H292.265V102.054H294.623V121.011ZM319.067 119.528H300.514V117.484H304.805V112.352C303.981 111.873 303.341 111.278 302.884 110.566C302.435 109.855 302.214 109.054 302.221 108.163C302.214 107.107 302.532 106.172 303.176 105.355C303.82 104.539 304.715 103.91 305.86 103.469C307.006 103.02 308.301 102.795 309.746 102.795C311.198 102.795 312.497 103.02 313.643 103.469C314.796 103.91 315.694 104.539 316.338 105.355C316.99 106.164 317.315 107.1 317.315 108.163C317.315 109.032 317.094 109.821 316.653 110.533C316.218 111.236 315.601 111.824 314.8 112.296V117.484H319.067V119.528ZM309.746 104.771C308.735 104.771 307.844 104.91 307.073 105.187C306.309 105.457 305.714 105.846 305.287 106.355C304.868 106.864 304.662 107.467 304.67 108.163C304.662 108.852 304.868 109.451 305.287 109.96C305.714 110.469 306.313 110.862 307.084 111.139C307.855 111.416 308.743 111.555 309.746 111.555C310.749 111.555 311.636 111.416 312.408 111.139C313.186 110.862 313.789 110.469 314.216 109.96C314.65 109.451 314.867 108.852 314.867 108.163C314.867 107.474 314.65 106.875 314.216 106.366C313.789 105.85 313.19 105.457 312.419 105.187C311.648 104.91 310.757 104.771 309.746 104.771ZM312.262 117.484V113.25C311.468 113.423 310.629 113.509 309.746 113.509C308.9 113.509 308.076 113.426 307.275 113.262V117.484H312.262Z" fill="black"/>
<path d="M88.3034 173.137C87.629 173.137 87.0092 172.989 86.4441 172.692C85.8835 172.392 85.4232 171.888 85.0632 171.182C84.7077 170.475 84.53 169.541 84.53 168.379C84.53 167.244 84.6849 166.271 84.9948 165.46C85.3093 164.644 85.7559 164.024 86.3347 163.601C86.918 163.177 87.6062 162.965 88.3991 162.965C88.9916 162.965 89.5248 163.081 89.9988 163.313C90.4773 163.541 90.8646 163.86 91.1609 164.271C91.4571 164.681 91.6439 165.148 91.7214 165.672H90.2312C90.1309 165.253 89.9213 164.915 89.6023 164.66C89.2833 164.405 88.8822 164.277 88.3991 164.277C87.8933 164.277 87.4581 164.421 87.0935 164.708C86.7335 164.991 86.4577 165.401 86.2663 165.938C86.0749 166.472 85.9792 167.107 85.9792 167.846H86.0886C86.3575 167.426 86.7129 167.098 87.155 166.861C87.6016 166.624 88.0938 166.506 88.6316 166.506C89.2149 166.506 89.7504 166.647 90.238 166.93C90.7256 167.208 91.1107 167.595 91.3933 168.092C91.6758 168.584 91.8171 169.14 91.8171 169.76C91.8171 170.393 91.6713 170.967 91.3796 171.482C91.0879 171.993 90.6755 172.396 90.1423 172.692C89.6091 172.989 88.9961 173.137 88.3034 173.137ZM88.2624 171.879C88.6543 171.879 89.0098 171.785 89.3288 171.599C89.6478 171.412 89.8985 171.159 90.0808 170.84C90.2631 170.521 90.3542 170.17 90.3542 169.787C90.3542 169.413 90.2654 169.069 90.0876 168.755C89.9099 168.44 89.6638 168.192 89.3493 168.01C89.0394 167.827 88.6908 167.736 88.3034 167.736C87.907 167.736 87.5446 167.832 87.2165 168.023C86.893 168.21 86.6355 168.463 86.4441 168.782C86.2572 169.097 86.1615 169.436 86.157 169.801C86.1615 170.165 86.2549 170.507 86.4372 170.826C86.6195 171.145 86.8702 171.4 87.1892 171.592C87.5127 171.783 87.8705 171.879 88.2624 171.879ZM97.2109 165.029C97.2064 165.768 97.3408 166.494 97.6143 167.21C97.8923 167.921 98.2773 168.554 98.7695 169.11C99.2663 169.666 99.8268 170.083 100.451 170.361L99.6719 171.387C98.9746 171.054 98.3571 170.564 97.8193 169.917C97.2816 169.265 96.8669 168.518 96.5752 167.675C96.2881 168.582 95.8688 169.384 95.3174 170.081C94.7705 170.778 94.1348 171.305 93.4102 171.66L92.6172 170.566C93.2507 170.284 93.8158 169.855 94.3125 169.281C94.8138 168.707 95.2035 168.049 95.4814 167.306C95.7594 166.558 95.8984 165.799 95.8984 165.029V162.938H97.2109V165.029ZM102.857 174.189H101.559V161.912H102.857V174.189ZM114.158 165.535H115.935V166.615H114.158V170.812H112.845V161.912H114.158V165.535ZM110.835 162.842C110.835 163.899 110.605 164.863 110.145 165.733C109.685 166.604 109.021 167.356 108.156 167.989C107.294 168.618 106.264 169.113 105.066 169.473L104.519 168.434C105.471 168.146 106.298 167.78 107 167.333C107.707 166.886 108.265 166.374 108.675 165.795C109.09 165.216 109.338 164.592 109.42 163.922H105.038V162.842H110.835ZM114.663 173.902H106.378V169.896H107.691V172.85H114.663V173.902Z" fill="black" fill-opacity="0.6"/>
<rect x="72" y="185" width="56" height="195" rx="12" fill="#F2F2F2" stroke="#B3B3B3" stroke-linecap="round" stroke-linejoin="round" stroke-dasharray="5 5"/>
<path d="M89.6638 402L93.2218 392.099H94.967L98.525 402H96.9248L96.0208 399.385H92.1631L91.2591 402H89.6638ZM95.5858 398.123L94.1306 393.907H94.0533L92.5982 398.123H95.5858ZM103.192 394.028C103.188 394.744 103.316 395.451 103.574 396.151C103.835 396.85 104.199 397.477 104.666 398.031C105.137 398.585 105.67 399.009 106.266 399.302L105.469 400.342C104.808 400 104.226 399.506 103.723 398.858C103.221 398.21 102.832 397.472 102.558 396.644C102.281 397.527 101.882 398.313 101.36 399.003C100.837 399.692 100.233 400.216 99.5467 400.574L98.7394 399.53C99.3549 399.233 99.9012 398.797 100.378 398.22C100.858 397.64 101.231 396.982 101.495 396.247C101.762 395.512 101.898 394.773 101.901 394.028V391.93H103.192V394.028ZM107.19 390.91H108.49V395.798H110.453V396.905H108.49V403.16H107.19V390.91Z" fill="black"/>
<mask id="mask0_498_33" style="mask-type:alpha" maskUnits="userSpaceOnUse" x="167" y="253" width="41" height="41">
<rect width="40" height="40" transform="matrix(1 0 0 -1 167.5 293.5)" fill="#D9D9D9"/>
</mask>
<g mask="url(#mask0_498_33)">
<path d="M197.654 276.847L174.584 265.439C174.291 265.294 173.978 265.275 173.646 265.382C173.313 265.489 173.071 265.696 172.92 266.002C172.769 266.308 172.748 266.623 172.858 266.949C172.969 267.275 173.177 267.514 173.483 267.665L196.553 279.073L186.771 282.382C186.435 282.496 186.192 282.704 186.042 283.008C185.892 283.312 185.874 283.632 185.987 283.967C186.101 284.303 186.309 284.546 186.613 284.696C186.916 284.846 187.236 284.864 187.572 284.75L199.959 280.56C200.363 280.424 200.656 280.172 200.837 279.806C201.018 279.44 201.04 279.055 200.903 278.65L196.713 266.263C196.6 265.928 196.391 265.685 196.087 265.535C195.783 265.385 195.464 265.366 195.128 265.48C194.793 265.593 194.55 265.802 194.4 266.105C194.25 266.409 194.232 266.729 194.345 267.064L197.654 276.847Z" fill="url(#paint0_linear_498_33)"/>
</g>
<rect x="138" y="313.5" width="91" height="30" rx="15" fill="#E1FBF0"/>
<path d="M154.75 332.5H153.341V324.705H153.29L151.094 326.14V324.807L153.379 323.309H154.75V332.5ZM157.207 332.589C157.046 332.589 156.894 332.549 156.75 332.468C156.611 332.388 156.501 332.278 156.42 332.138C156.34 331.999 156.302 331.848 156.306 331.688C156.302 331.527 156.34 331.376 156.42 331.237C156.501 331.097 156.611 330.987 156.75 330.907C156.894 330.826 157.046 330.786 157.207 330.786C157.364 330.786 157.512 330.826 157.652 330.907C157.791 330.987 157.901 331.097 157.982 331.237C158.066 331.376 158.109 331.527 158.109 331.688C158.109 331.848 158.066 331.999 157.982 332.138C157.901 332.278 157.791 332.388 157.652 332.468C157.512 332.549 157.364 332.589 157.207 332.589ZM162.406 332.627C161.78 332.627 161.217 332.521 160.718 332.31C160.223 332.098 159.831 331.802 159.543 331.421C159.26 331.036 159.11 330.596 159.093 330.101H160.515C160.532 330.367 160.623 330.6 160.788 330.799C160.957 330.998 161.181 331.152 161.46 331.262C161.74 331.368 162.051 331.421 162.394 331.421C162.757 331.421 163.085 331.357 163.377 331.23C163.669 331.104 163.898 330.928 164.063 330.704C164.228 330.475 164.311 330.215 164.311 329.923C164.311 329.622 164.228 329.354 164.063 329.117C163.898 328.88 163.659 328.696 163.346 328.564C163.037 328.429 162.669 328.361 162.241 328.361H161.454V327.219H162.241C162.584 327.219 162.891 327.157 163.162 327.035C163.432 326.912 163.642 326.741 163.79 326.521C163.942 326.3 164.019 326.047 164.019 325.759C164.019 325.479 163.953 325.234 163.822 325.022C163.691 324.811 163.504 324.646 163.263 324.527C163.022 324.409 162.741 324.35 162.419 324.35C162.106 324.35 161.816 324.405 161.549 324.515C161.283 324.625 161.067 324.781 160.902 324.984C160.741 325.188 160.654 325.424 160.642 325.695H159.296C159.309 325.209 159.455 324.775 159.734 324.394C160.017 324.009 160.396 323.711 160.87 323.499C161.344 323.287 161.865 323.182 162.432 323.182C163.016 323.182 163.53 323.294 163.974 323.518C164.423 323.742 164.768 324.047 165.009 324.432C165.25 324.813 165.368 325.23 165.364 325.683C165.368 326.199 165.222 326.639 164.926 327.003C164.634 327.363 164.239 327.604 163.739 327.727V327.79C164.361 327.879 164.846 328.118 165.193 328.507C165.544 328.897 165.72 329.385 165.72 329.974C165.72 330.477 165.576 330.932 165.288 331.338C165 331.74 164.605 332.056 164.101 332.284C163.597 332.513 163.033 332.627 162.406 332.627ZM168.126 325.975H170.297V323.258H171.414V330.773H166.983V323.258H168.126V325.975ZM170.297 329.796V326.927H168.126V329.796H170.297ZM176.39 333.579H175.235V327.65H173.826V333.021H172.683V322.42H173.826V326.66H175.235V322.204H176.39V333.579ZM189.759 324.616H191.105V325.606H189.759V328.171H188.591V322.204H189.759V324.616ZM181.748 324.235H182.891V322.737H183.881V327.625H180.758V322.737H181.748V324.235ZM182.891 326.686V325.162H181.748V326.686H182.891ZM185.532 324.235H186.661V322.737H187.664V327.625H184.529V322.737H185.532V324.235ZM186.661 326.686V325.162H185.532V326.686H186.661ZM189.759 331.421H183.399V332.5H190.165V333.465H182.205V330.532H188.578V329.58H182.193V328.628H189.759V331.421ZM200.328 326.647H202.156V327.663H200.328V333.604H199.135V322.204H200.328V326.647ZM197.116 327.409H193.13V329.872C194.184 329.868 195.093 329.84 195.859 329.79C196.63 329.735 197.408 329.635 198.195 329.491L198.31 330.469C197.467 330.625 196.636 330.733 195.815 330.792C194.998 330.847 194.014 330.879 192.863 330.888H191.937V326.432H195.923V324.21H191.911V323.232H197.116V327.409ZM212.852 332.157H202.442V331.154H204.93V328.184C204.456 327.921 204.088 327.589 203.826 327.187C203.564 326.785 203.432 326.334 203.432 325.835C203.432 325.247 203.61 324.728 203.966 324.28C204.325 323.831 204.823 323.484 205.457 323.239C206.092 322.989 206.814 322.864 207.622 322.864C208.434 322.864 209.158 322.989 209.793 323.239C210.432 323.484 210.929 323.831 211.284 324.28C211.644 324.728 211.824 325.247 211.824 325.835C211.824 326.33 211.697 326.777 211.443 327.174C211.189 327.568 210.83 327.896 210.364 328.158V331.154H212.852V332.157ZM207.622 323.829C207.029 323.829 206.505 323.912 206.048 324.077C205.591 324.237 205.235 324.47 204.981 324.775C204.727 325.075 204.6 325.429 204.6 325.835C204.6 326.237 204.727 326.59 204.981 326.895C205.235 327.2 205.591 327.437 206.048 327.606C206.505 327.771 207.029 327.854 207.622 327.854C208.21 327.854 208.733 327.771 209.19 327.606C209.651 327.437 210.011 327.2 210.269 326.895C210.527 326.59 210.656 326.237 210.656 325.835C210.656 325.433 210.527 325.08 210.269 324.775C210.015 324.47 209.657 324.237 209.196 324.077C208.739 323.912 208.214 323.829 207.622 323.829ZM209.145 331.154V328.622C208.684 328.736 208.176 328.793 207.622 328.793C207.089 328.793 206.589 328.738 206.124 328.628V331.154H209.145ZM215.398 329.847H214.141L214.027 323.309H215.512L215.398 329.847ZM214.776 332.589C214.615 332.589 214.463 332.549 214.319 332.468C214.179 332.388 214.069 332.278 213.989 332.138C213.908 331.999 213.87 331.848 213.875 331.688C213.87 331.527 213.908 331.376 213.989 331.237C214.069 331.097 214.179 330.987 214.319 330.907C214.463 330.826 214.615 330.786 214.776 330.786C214.932 330.786 215.081 330.826 215.22 330.907C215.36 330.987 215.47 331.097 215.55 331.237C215.635 331.376 215.677 331.527 215.677 331.688C215.677 331.848 215.635 331.999 215.55 332.138C215.47 332.278 215.36 332.388 215.22 332.468C215.081 332.549 214.932 332.589 214.776 332.589Z" fill="#0F6643"/>
<path d="M235.543 327.639C236.198 328.026 236.198 328.974 235.543 329.361L226 335L226 322L235.543 327.639Z" fill="#E1FBF0"/>
<path d="M244.682 257.072V255.855L249.057 249.102H250.916V255.801H252.27V257.072H250.916V259H249.494V257.072H244.682ZM246.268 255.801H249.494V250.893H249.385L246.268 255.719V255.801ZM257.581 251.029C257.568 253.271 258.921 255.514 260.822 256.361L260.042 257.387C258.634 256.717 257.52 255.343 256.953 253.668C256.378 255.459 255.25 256.942 253.781 257.66L252.988 256.566C254.915 255.705 256.269 253.367 256.269 251.029V248.938H257.581V251.029ZM263.228 247.912V260.189H261.929V247.912H263.228ZM274.528 247.912V251.535H276.305V252.615H274.528V256.812H273.216V247.912H274.528ZM271.206 248.842C271.206 252.055 269.018 254.393 265.436 255.473L264.889 254.434C267.754 253.572 269.538 251.945 269.798 249.922H265.409V248.842H271.206ZM275.034 258.85V259.902H266.749V255.896H268.061V258.85H275.034ZM280.066 257.072V255.855L284.441 249.102H286.3V255.801H287.654V257.072H286.3V259H284.878V257.072H280.066ZM281.652 255.801H284.878V250.893H284.769L281.652 255.719V255.801ZM292.514 249.102V259H290.997V250.605H290.942L288.577 252.15V250.715L291.038 249.102H292.514ZM305.523 254.324V255.363H300.656V257.619H299.371V255.363H294.312V254.324H305.523ZM304.279 258.85V259.902H295.707V256.553H296.992V258.85H304.279ZM297.074 248.295V249.785H302.748V248.295H304.047V253.244H295.789V248.295H297.074ZM297.074 252.205H302.748V250.756H297.074V252.205Z" fill="black"/>
<g filter="url(#filter0_i_498_33)">
<rect x="247" y="271" width="56" height="109" rx="12" fill="url(#paint1_linear_498_33)"/>
</g>
<g filter="url(#filter1_ii_498_33)">
<path d="M288.887 332.221L285.593 329.28L279.24 332.457V328.104L270.534 332.457V328.11L261.956 332.457V323.28L271.475 318.457V322.81L280.181 318.457V322.81L288.887 318.457V332.221Z" fill="url(#paint2_linear_498_33)"/>
</g>
<path d="M262.842 398.427H251.675V397.369H256.606V396.184C255.842 396.136 255.18 396.009 254.619 395.802C254.058 395.593 253.627 395.311 253.324 394.956C253.021 394.602 252.869 394.188 252.869 393.714C252.869 393.215 253.048 392.781 253.406 392.414C253.767 392.043 254.276 391.758 254.933 391.558C255.594 391.358 256.366 391.258 257.249 391.258C258.129 391.258 258.898 391.358 259.555 391.558C260.216 391.758 260.725 392.043 261.083 392.414C261.44 392.781 261.619 393.215 261.619 393.714C261.619 394.188 261.468 394.602 261.165 394.956C260.865 395.311 260.435 395.593 259.874 395.802C259.317 396.009 258.657 396.136 257.897 396.184V397.369H262.842V398.427ZM253.082 399.341H254.387V401.845H261.585V402.909H253.082V399.341ZM254.218 393.714C254.215 394.017 254.334 394.276 254.576 394.492C254.821 394.705 255.17 394.868 255.625 394.981C256.082 395.09 256.624 395.147 257.249 395.15C257.874 395.147 258.414 395.09 258.869 394.981C259.326 394.868 259.678 394.705 259.922 394.492C260.167 394.276 260.29 394.017 260.29 393.714C260.29 393.424 260.167 393.174 259.922 392.965C259.678 392.752 259.326 392.589 258.869 392.477C258.411 392.36 257.871 392.302 257.249 392.302C256.627 392.302 256.087 392.36 255.63 392.477C255.175 392.589 254.826 392.752 254.581 392.965C254.336 393.174 254.215 393.424 254.218 393.714ZM267.913 394.028C267.913 394.773 268.044 395.501 268.305 396.213C268.566 396.922 268.933 397.554 269.407 398.108C269.881 398.66 270.424 399.072 271.036 399.346L270.253 400.39C269.563 400.045 268.961 399.546 268.445 398.892C267.929 398.234 267.536 397.48 267.266 396.629C266.988 397.528 266.589 398.328 266.067 399.027C265.548 399.726 264.942 400.255 264.249 400.613L263.427 399.568C264.046 399.272 264.595 398.832 265.076 398.249C265.556 397.665 265.928 397.005 266.192 396.267C266.46 395.529 266.595 394.782 266.598 394.028V391.93H267.913V394.028ZM269.692 394.981H272.424V390.91H273.71V403.184H272.424V396.035H269.692V394.981ZM276.958 395.034H279.303V392.085H280.492V395.498H282.121V391.162H283.359V402.57H282.121V396.581H280.492V400.139H275.725V392.085H276.958V395.034ZM279.303 399.066V396.078H276.958V399.066H279.303ZM284.601 390.91H285.848V403.16H284.601V390.91ZM297.281 403.184H295.976V390.91H297.281V403.184ZM287.555 396.126C287.555 395.266 287.688 394.512 287.956 393.864C288.227 393.213 288.602 392.712 289.082 392.36C289.562 392.006 290.109 391.829 290.721 391.829C291.33 391.829 291.873 392.006 292.35 392.36C292.83 392.715 293.206 393.218 293.477 393.869C293.747 394.517 293.883 395.269 293.883 396.126C293.883 396.99 293.747 397.747 293.477 398.398C293.206 399.049 292.83 399.552 292.35 399.907C291.873 400.258 291.33 400.434 290.721 400.434C290.109 400.434 289.562 400.258 289.082 399.907C288.602 399.552 288.227 399.049 287.956 398.398C287.688 397.747 287.555 396.99 287.555 396.126ZM288.807 396.126C288.807 396.765 288.887 397.32 289.048 397.794C289.21 398.268 289.434 398.632 289.72 398.887C290.01 399.141 290.344 399.269 290.721 399.269C291.098 399.269 291.43 399.141 291.717 398.887C292.004 398.632 292.226 398.268 292.384 397.794C292.545 397.32 292.626 396.765 292.626 396.126C292.626 395.491 292.545 394.939 292.384 394.468C292.226 393.994 292.004 393.63 291.717 393.376C291.43 393.121 291.098 392.992 290.721 392.989C290.344 392.992 290.01 393.123 289.72 393.381C289.434 393.635 289.21 393.999 289.048 394.473C288.887 394.944 288.807 395.495 288.807 396.126Z" fill="black"/>
<g opacity="0.4">
<path d="M140.56 426.244L138.844 427.356L138.322 426.428L140.144 425.5L138.322 424.572L138.844 423.644L140.56 424.755L140.468 422.715H141.532L141.44 424.755L143.156 423.644L143.678 424.572L141.856 425.5L143.678 426.428L143.156 427.356L141.44 426.244L141.532 428.284H140.468L140.56 426.244Z" fill="black"/>
<path d="M152.624 431H151.116V422.608H151.058L148.694 424.15V422.714L151.155 421.099H152.624V431ZM158.305 431.16C157.545 431.16 156.892 430.96 156.347 430.56C155.806 430.16 155.392 429.579 155.105 428.815C154.818 428.048 154.675 427.128 154.675 426.055C154.675 424.988 154.818 424.074 155.105 423.314C155.395 422.55 155.812 421.968 156.357 421.568C156.902 421.166 157.551 420.964 158.305 420.964C159.059 420.964 159.709 421.166 160.253 421.568C160.801 421.968 161.219 422.55 161.506 423.314C161.796 424.074 161.941 424.988 161.941 426.055C161.941 427.128 161.797 428.048 161.51 428.815C161.224 429.579 160.808 430.16 160.263 430.56C159.719 430.96 159.066 431.16 158.305 431.16ZM156.173 426.055C156.173 426.87 156.257 427.563 156.425 428.133C156.592 428.701 156.836 429.131 157.155 429.424C157.477 429.717 157.861 429.864 158.305 429.864C158.753 429.864 159.137 429.717 159.456 429.424C159.775 429.131 160.018 428.701 160.186 428.133C160.357 427.563 160.442 426.87 160.442 426.055C160.442 425.242 160.357 424.551 160.186 423.981C160.015 423.41 159.77 422.978 159.451 422.685C159.132 422.392 158.75 422.245 158.305 422.245C157.864 422.245 157.483 422.392 157.164 422.685C156.845 422.978 156.6 423.41 156.43 423.981C156.259 424.551 156.173 425.242 156.173 426.055ZM166.666 431.16C165.905 431.16 165.253 430.96 164.708 430.56C164.167 430.16 163.752 429.579 163.466 428.815C163.179 428.048 163.035 427.128 163.035 426.055C163.035 424.988 163.179 424.074 163.466 423.314C163.756 422.55 164.173 421.968 164.718 421.568C165.262 421.166 165.912 420.964 166.666 420.964C167.42 420.964 168.069 421.166 168.614 421.568C169.162 421.968 169.579 422.55 169.866 423.314C170.156 424.074 170.301 424.988 170.301 426.055C170.301 427.128 170.158 428.048 169.871 428.815C169.584 429.579 169.168 430.16 168.624 430.56C168.079 430.96 167.427 431.16 166.666 431.16ZM164.534 426.055C164.534 426.87 164.618 427.563 164.785 428.133C164.953 428.701 165.196 429.131 165.515 429.424C165.838 429.717 166.221 429.864 166.666 429.864C167.114 429.864 167.497 429.717 167.816 429.424C168.136 429.131 168.379 428.701 168.546 428.133C168.717 427.563 168.803 426.87 168.803 426.055C168.803 425.242 168.717 424.551 168.546 423.981C168.376 423.41 168.131 422.978 167.812 422.685C167.493 422.392 167.111 422.245 166.666 422.245C166.224 422.245 165.844 422.392 165.525 422.685C165.206 422.978 164.961 423.41 164.79 423.981C164.619 424.551 164.534 425.242 164.534 426.055ZM181.374 427.142H180.078V425.329H177.405V426.33H171.715V420.834H177.405V421.839H180.078V419.91H181.374V427.142ZM176.134 425.281V421.873H173.001V425.281H176.134ZM173.132 429.825C173.128 429.335 173.293 428.915 173.625 428.564C173.957 428.212 174.434 427.945 175.056 427.761C175.678 427.574 176.416 427.481 177.27 427.481C178.124 427.481 178.86 427.574 179.479 427.761C180.101 427.945 180.578 428.212 180.91 428.564C181.245 428.915 181.413 429.335 181.413 429.825C181.413 430.312 181.245 430.729 180.91 431.077C180.578 431.425 180.101 431.69 179.479 431.87C178.86 432.051 178.124 432.141 177.27 432.141C176.412 432.141 175.673 432.051 175.051 431.87C174.429 431.69 173.952 431.425 173.62 431.077C173.291 430.729 173.128 430.312 173.132 429.825ZM174.417 429.825C174.414 430.096 174.525 430.33 174.751 430.526C174.977 430.723 175.304 430.873 175.732 430.976C176.161 431.079 176.673 431.131 177.27 431.131C177.863 431.131 178.372 431.079 178.797 430.976C179.226 430.873 179.555 430.723 179.783 430.526C180.012 430.33 180.127 430.096 180.127 429.825C180.127 429.542 180.012 429.3 179.783 429.1C179.558 428.9 179.231 428.749 178.802 428.646C178.377 428.543 177.866 428.489 177.27 428.486C176.67 428.489 176.156 428.543 175.728 428.646C175.302 428.749 174.977 428.9 174.751 429.1C174.525 429.3 174.414 429.542 174.417 429.825ZM180.078 424.266V422.883H177.405V424.266H180.078ZM196.331 426.214H195.036V423.072H192.454V422.018H195.036V419.91H196.331V426.214ZM186.078 425.228C186.706 425.028 187.25 424.735 187.707 424.348C188.168 423.961 188.521 423.512 188.766 422.999C189.014 422.487 189.138 421.944 189.138 421.37V420.307H190.434V421.37C190.43 421.889 190.548 422.389 190.787 422.869C191.025 423.346 191.368 423.768 191.816 424.135C192.264 424.5 192.791 424.777 193.397 424.967L192.706 425.977C192.039 425.748 191.457 425.413 190.961 424.972C190.464 424.53 190.078 424.013 189.8 423.42C189.533 424.087 189.14 424.667 188.621 425.16C188.105 425.65 187.488 426.017 186.769 426.262L186.078 425.228ZM188.321 426.794H196.331V429.835H189.622V430.966H196.752V432.006H188.345V428.858H195.046V427.819H188.321V426.794ZM209.132 427.162H204.274V429.535H202.988V427.162H197.922V426.103H209.132V427.162ZM199.319 428.375H200.614V430.845H207.89V431.909H199.319V428.375ZM199.362 420.485H207.682V424.836H199.362V420.485ZM206.401 423.811V421.51H200.634V423.811H206.401ZM223.08 432.16H221.774V419.91H223.08V432.16ZM213.015 428.878C214.62 428.114 215.838 427.184 216.669 426.088C217.504 424.989 217.986 423.715 218.115 422.265H213.609V421.23H219.439C219.433 423.128 218.977 424.812 218.071 426.282C217.169 427.751 215.712 428.966 213.701 429.927L213.015 428.878ZM234.88 421.539H231.162C231.182 421.974 231.374 422.389 231.738 422.782C232.102 423.175 232.593 423.509 233.212 423.782C233.831 424.053 234.517 424.237 235.272 424.334L234.778 425.358C234.079 425.265 233.43 425.099 232.83 424.86C232.231 424.619 231.712 424.316 231.274 423.952C230.839 423.587 230.511 423.178 230.292 422.724C230.073 423.178 229.746 423.587 229.311 423.952C228.876 424.316 228.359 424.619 227.759 424.86C227.163 425.099 226.515 425.265 225.816 425.358L225.337 424.334C226.091 424.237 226.776 424.053 227.392 423.782C228.007 423.509 228.496 423.175 228.856 422.782C229.221 422.389 229.414 421.974 229.437 421.539H225.738V420.495H234.88V421.539ZM224.699 426.146H235.91V427.205H231.051V429.574H229.765V427.205H224.699V426.146ZM226.096 428.404H227.392V430.845H234.667V431.909H226.096V428.404Z" fill="black"/>
</g>
<defs>
<filter id="filter0_i_498_33" x="247" y="271" width="56" height="113" filterUnits="userSpaceOnUse" color-interpolation-filters="sRGB">
<feFlood flood-opacity="0" result="BackgroundImageFix"/>
<feBlend mode="normal" in="SourceGraphic" in2="BackgroundImageFix" result="shape"/>
<feColorMatrix in="SourceAlpha" type="matrix" values="0 0 0 0 0 0 0 0 0 0 0 0 0 0 0 0 0 0 127 0" result="hardAlpha"/>
<feOffset dy="4"/>
<feGaussianBlur stdDeviation="10"/>
<feComposite in2="hardAlpha" operator="arithmetic" k2="-1" k3="1"/>
<feColorMatrix type="matrix" values="0 0 0 0 0.604699 0 0 0 0 1 0 0 0 0 0.96047 0 0 0 0.4 0"/>
<feBlend mode="normal" in2="shape" result="effect1_innerShadow_498_33"/>
</filter>
<filter id="filter1_ii_498_33" x="261.956" y="317.373" width="26.9316" height="15.0841" filterUnits="userSpaceOnUse" color-interpolation-filters="sRGB">
<feFlood flood-opacity="0" result="BackgroundImageFix"/>
<feBlend mode="normal" in="SourceGraphic" in2="BackgroundImageFix" result="shape"/>
<feColorMatrix in="SourceAlpha" type="matrix" values="0 0 0 0 0 0 0 0 0 0 0 0 0 0 0 0 0 0 127 0" result="hardAlpha"/>
<feOffset/>
<feGaussianBlur stdDeviation="5.42045"/>
<feComposite in2="hardAlpha" operator="arithmetic" k2="-1" k3="1"/>
<feColorMatrix type="matrix" values="0 0 0 0 1 0 0 0 0 1 0 0 0 0 1 0 0 0 1 0"/>
<feBlend mode="normal" in2="shape" result="effect1_innerShadow_498_33"/>
<feColorMatrix in="SourceAlpha" type="matrix" values="0 0 0 0 0 0 0 0 0 0 0 0 0 0 0 0 0 0 127 0" result="hardAlpha"/>
<feOffset dy="-1.08409"/>
<feGaussianBlur stdDeviation="2.16818"/>
<feComposite in2="hardAlpha" operator="arithmetic" k2="-1" k3="1"/>
<feColorMatrix type="matrix" values="0 0 0 0 1 0 0 0 0 1 0 0 0 0 1 0 0 0 0.6 0"/>
<feBlend mode="normal" in2="effect1_innerShadow_498_33" result="effect2_innerShadow_498_33"/>
</filter>
<linearGradient id="paint0_linear_498_33" x1="202.194" y1="280.386" x2="173.673" y2="266.277" gradientUnits="userSpaceOnUse">
<stop stop-color="#15C67F"/>
<stop offset="1" stop-color="#F2F2F2"/>
</linearGradient>
<linearGradient id="paint1_linear_498_33" x1="281.5" y1="380" x2="324.996" y2="141.282" gradientUnits="userSpaceOnUse">
<stop stop-color="#15C67F"/>
<stop offset="1" stop-color="#56ECD6"/>
</linearGradient>
<linearGradient id="paint2_linear_498_33" x1="275.421" y1="318.457" x2="275.507" y2="334.718" gradientUnits="userSpaceOnUse">
<stop offset="0.27185" stop-color="white"/>
<stop offset="0.597866" stop-color="#8DE7CA"/>
<stop offset="1" stop-color="white"/>
</linearGradient>
</defs>
</svg>
