<svg width="375" height="508" viewBox="0 0 375 508" fill="none" xmlns="http://www.w3.org/2000/svg">
<rect width="375" height="508" fill="white"/>
<path opacity="0.87" d="M153.49 61.1621H152.178V48.9121H153.49V61.1621ZM149.84 50.2246C149.84 52.1204 149.386 53.8066 148.479 55.2832C147.577 56.7552 146.121 57.972 144.111 58.9336L143.428 57.8809C145.036 57.1152 146.255 56.1833 147.085 55.085C147.919 53.9867 148.4 52.7129 148.527 51.2637H144.016V50.2246H149.84ZM164.667 53.6562H166.636V54.7227H164.667V61.1895H163.368V48.9121H164.667V53.6562ZM161.372 51.1406H156.943V57.0605C158.027 57.056 158.98 57.0241 159.8 56.9648C160.625 56.9056 161.454 56.8008 162.288 56.6504L162.452 57.7441C161.609 57.8945 160.78 57.9993 159.964 58.0586C159.153 58.1133 158.214 58.1406 157.148 58.1406H156.628H155.644V50.0879H161.372V51.1406ZM177.102 56.1855H175.803V48.9258H177.102V56.1855ZM173.192 53.0957H168.858V54.5723H169.118C170.17 54.5723 171.105 54.5449 171.92 54.4902C172.736 54.4355 173.575 54.3398 174.436 54.2031L174.6 55.2695C173.711 55.4062 172.845 55.502 172.002 55.5566C171.164 55.6113 170.207 55.6387 169.131 55.6387H168.612H167.586V52.084H171.907V50.6895H167.559V49.6504H173.192V53.0957ZM177.102 61.0117H169.049V56.8008H177.102V61.0117ZM170.334 59.959H175.831V57.8398H170.334V59.959ZM184.513 57.5117H186.427V56.0898H187.63V61.0117H183.296V56.0898H184.513V57.5117ZM186.427 60V58.4961H184.513V60H186.427ZM191.185 57.0059C191.185 57.4479 191.267 57.874 191.431 58.2842C191.595 58.6943 191.843 59.0612 192.176 59.3848C192.513 59.7038 192.925 59.9499 193.413 60.123L192.743 61.1074C192.205 60.9023 191.752 60.6107 191.383 60.2324C191.018 59.8587 190.736 59.4189 190.535 58.9131C190.326 59.4053 190.036 59.8405 189.667 60.2188C189.302 60.597 188.865 60.8932 188.354 61.1074L187.698 60.123C188.172 59.9271 188.573 59.665 188.901 59.3369C189.234 59.0042 189.482 58.6374 189.646 58.2363C189.815 57.8307 189.899 57.4206 189.899 57.0059V56.0078H191.185V57.0059ZM185.292 49.4316C185.825 49.4316 186.313 49.5273 186.755 49.7188C187.197 49.9056 187.562 50.1722 187.849 50.5186C188.14 50.8649 188.332 51.2637 188.423 51.7148H190.815V48.9121H192.114V55.4062H190.815V52.7812H188.43C188.343 53.2461 188.154 53.654 187.862 54.0049C187.575 54.3558 187.208 54.627 186.762 54.8184C186.32 55.0098 185.83 55.1055 185.292 55.1055C184.672 55.1055 184.118 54.987 183.631 54.75C183.143 54.5085 182.763 54.1735 182.489 53.7451C182.216 53.3122 182.079 52.8177 182.079 52.2617C182.079 51.7148 182.216 51.2272 182.489 50.7988C182.763 50.3659 183.143 50.0309 183.631 49.7939C184.118 49.5524 184.672 49.4316 185.292 49.4316ZM185.292 50.5117C184.909 50.5117 184.567 50.5869 184.267 50.7373C183.97 50.8831 183.738 51.0882 183.569 51.3525C183.405 51.6169 183.323 51.9199 183.323 52.2617C183.323 52.6081 183.405 52.9157 183.569 53.1846C183.738 53.4535 183.97 53.6654 184.267 53.8203C184.567 53.9707 184.909 54.0482 185.292 54.0527C185.666 54.0482 185.998 53.9707 186.29 53.8203C186.586 53.6654 186.816 53.4535 186.98 53.1846C187.149 52.9157 187.233 52.6081 187.233 52.2617C187.233 51.9199 187.149 51.6169 186.98 51.3525C186.816 51.0882 186.586 50.8831 186.29 50.7373C185.998 50.5869 185.666 50.5117 185.292 50.5117ZM203.633 53.5332H195.198V49.3496H196.483V52.4941H203.633V53.5332ZM204.918 56.1172H193.707V55.0781H204.918V56.1172ZM203.715 60.875H195.102V57.2793H196.401V59.8086H203.715V60.875ZM218.891 55.2148H217.593V52.0703H215.009V51.0176H217.593V48.9121H218.891V55.2148ZM218.891 58.8379H212.179V59.9727H219.315V61.0117H210.907V57.8535H217.606V56.8145H210.88V55.7891H218.891V58.8379ZM212.985 50.375C212.985 50.8945 213.104 51.3936 213.341 51.8721C213.582 52.346 213.926 52.7676 214.373 53.1367C214.82 53.5013 215.346 53.7793 215.952 53.9707L215.268 54.9824C214.603 54.75 214.02 54.4128 213.518 53.9707C213.022 53.5286 212.637 53.0137 212.363 52.4258C212.094 53.0911 211.7 53.6699 211.181 54.1621C210.661 54.6543 210.046 55.0234 209.335 55.2695L208.638 54.2305C209.266 54.0299 209.809 53.736 210.264 53.3486C210.725 52.9613 211.078 52.5124 211.324 52.002C211.57 51.4915 211.695 50.9492 211.7 50.375V49.3086H212.985V50.375ZM231.695 56.1582H226.828V58.5371H225.543V56.1582H220.484V55.1055H231.695V56.1582ZM230.246 53.834H221.92V49.4863H230.246V53.834ZM223.192 52.8086H228.961V50.5117H223.192V52.8086ZM230.451 60.9023H221.879V57.375H223.178V59.8496H230.451V60.9023Z" fill="black"/>
<path d="M120.594 78.4668C120.594 79.5299 120.796 80.6006 121.201 81.6787C121.612 82.7568 122.2 83.7376 122.964 84.6211C123.735 85.5046 124.637 86.1859 125.67 86.665L124.278 88.6416C123.162 88.1175 122.185 87.3501 121.347 86.3394C120.508 85.3211 119.853 84.1569 119.381 82.8467C118.91 84.2767 118.24 85.5457 117.371 86.6538C116.503 87.7619 115.496 88.5892 114.35 89.1357L112.89 87.1816C113.931 86.6875 114.844 85.9725 115.63 85.0366C116.424 84.1007 117.03 83.0563 117.45 81.9033C117.876 80.7503 118.094 79.6048 118.101 78.4668V76.7598H113.676V74.6934H124.839V76.7598H120.594V78.4668ZM129.219 80.6006H132.341V82.6895H129.219V92.999H126.726V72.6943H129.219V80.6006ZM149.463 92.999H146.947V72.6943H149.463V92.999ZM143.398 74.8506C143.398 78.0775 142.668 80.9113 141.208 83.3521C139.748 85.7853 137.326 87.8031 133.942 89.4053L132.64 87.4062C135.253 86.1634 137.218 84.6772 138.536 82.9478C139.861 81.2108 140.636 79.1706 140.86 76.8271H133.673V74.8506H143.398ZM168.696 87.541H166.203V80.1064H162.609V78.085H166.203V72.7168H168.696V87.541ZM169.212 92.5947H155.376V86.2383H157.87V90.5732H169.212V92.5947ZM159.15 76.7598C159.15 77.5908 159.333 78.4032 159.7 79.1968C160.067 79.9829 160.61 80.6904 161.329 81.3193C162.047 81.9408 162.916 82.4199 163.934 82.7568L162.676 84.7559C161.568 84.374 160.61 83.82 159.801 83.0938C159 82.36 158.371 81.5028 157.914 80.522C157.458 81.6151 156.806 82.5659 155.96 83.3745C155.114 84.1756 154.104 84.7783 152.928 85.1826L151.648 83.1611C152.696 82.8167 153.591 82.3151 154.332 81.6562C155.081 80.9899 155.646 80.2337 156.028 79.3877C156.417 78.5342 156.612 77.6507 156.612 76.7373V76.1982H152.389V74.1768H163.35V76.1982H159.15V76.7598ZM188.4 92.999H185.997V72.6943H188.4V92.999ZM184.223 92.0107H181.842V82.3525H179.91C179.835 83.6628 179.603 84.8008 179.214 85.7666C178.832 86.7249 178.319 87.4624 177.675 87.979C177.031 88.4881 176.294 88.7389 175.463 88.7314C174.587 88.7389 173.816 88.4507 173.149 87.8667C172.49 87.2752 171.981 86.4329 171.622 85.3398C171.263 84.2393 171.083 82.9515 171.083 81.4766C171.083 80.0016 171.263 78.7214 171.622 77.6357C171.981 76.5426 172.49 75.7041 173.149 75.1201C173.816 74.5361 174.587 74.2441 175.463 74.2441C176.279 74.2441 177.001 74.4875 177.63 74.9741C178.267 75.4608 178.776 76.1608 179.158 77.0742C179.547 77.9876 179.79 79.0732 179.888 80.3311H181.842V73.0537H184.223V92.0107ZM175.463 76.6025C175.036 76.5951 174.665 76.7785 174.351 77.1528C174.036 77.5272 173.797 78.0812 173.632 78.8149C173.467 79.5487 173.389 80.4359 173.396 81.4766C173.389 82.5173 173.467 83.4045 173.632 84.1382C173.797 84.8719 174.036 85.4259 174.351 85.8003C174.665 86.1746 175.036 86.3581 175.463 86.3506C176.144 86.3656 176.672 85.95 177.046 85.104C177.428 84.258 177.619 83.0488 177.619 81.4766C177.619 79.9043 177.428 78.6951 177.046 77.8491C176.672 77.0031 176.144 76.5876 175.463 76.6025ZM204.068 72.8965C205.61 72.8965 206.924 73.0312 208.01 73.3008C209.103 73.5703 209.938 73.9671 210.514 74.4912C211.091 75.0078 211.383 75.6367 211.39 76.3779C211.383 77.4036 210.851 78.2122 209.796 78.8037C208.74 79.3952 207.235 79.7433 205.281 79.8481V81.1396H213.344V83.1387H194.837V81.1396H202.81V79.8481C200.864 79.7358 199.366 79.384 198.318 78.7925C197.27 78.201 196.746 77.3962 196.746 76.3779C196.746 75.6367 197.034 75.0078 197.611 74.4912C198.187 73.9671 199.022 73.5703 200.115 73.3008C201.208 73.0312 202.526 72.8965 204.068 72.8965ZM204.068 74.7607C202.518 74.7607 201.343 74.8993 200.542 75.1763C199.748 75.4458 199.359 75.8464 199.374 76.3779C199.366 76.932 199.752 77.3438 200.53 77.6133C201.317 77.8828 202.496 78.0251 204.068 78.04C205.655 78.0251 206.842 77.8828 207.628 77.6133C208.414 77.3438 208.807 76.932 208.807 76.3779C208.807 75.8464 208.407 75.4458 207.606 75.1763C206.812 74.8993 205.633 74.7607 204.068 74.7607ZM211.031 89.4053H199.486V90.9102H211.592V92.8193H197.038V87.6309H208.583V86.3281H197.015V84.4414H211.031V89.4053ZM230.938 93.0215H228.467V72.6943H230.938V93.0215ZM224.694 82.083H217.708V86.1709C219.423 86.1559 220.995 86.096 222.425 85.9912C223.862 85.8864 225.33 85.7067 226.827 85.4521L227.052 87.4961C225.442 87.7806 223.859 87.9715 222.301 88.0688C220.744 88.1662 218.951 88.2148 216.922 88.2148H215.148V80.1064H222.155V76.4902H215.125V74.4688H224.694V82.083ZM249.789 76.5127V76.7598C249.781 77.8828 249.759 78.8599 249.721 79.6909C249.691 80.5145 249.62 81.4728 249.508 82.5659C249.396 83.6515 249.22 84.8307 248.98 86.1035L246.464 85.834C246.704 84.651 246.88 83.5355 246.992 82.4873C247.105 81.4316 247.176 80.4958 247.206 79.6797C247.243 78.8636 247.266 77.9053 247.273 76.8047V76.5576H235.144V74.5586H249.789V76.5127ZM251.72 90.3711H233.212V88.3271H240.041V81.2744H242.511V88.3271H251.72V90.3711ZM254.467 95.6943H252.333L253.501 89.4053H256.354L254.467 95.6943ZM71.8576 109.398H74.9797V111.442H71.8576V122.021H69.3645V101.694H71.8576V109.398ZM66.2873 105.647H59.2795V114.969C60.9191 114.969 62.3978 114.92 63.7155 114.823C65.0332 114.725 66.3697 114.557 67.7248 114.317L68.0168 116.429C66.5494 116.683 65.0969 116.852 63.6594 116.934C62.2294 117.016 60.4999 117.058 58.4709 117.058H56.7863V103.626H66.2873V105.647ZM84.3746 102.099C85.8646 102.099 87.1561 102.256 88.2492 102.57C89.3497 102.885 90.1958 103.341 90.7872 103.94C91.3862 104.532 91.6894 105.236 91.6969 106.052C91.6894 106.853 91.3862 107.545 90.7872 108.129C90.1958 108.713 89.3497 109.159 88.2492 109.466C87.1561 109.773 85.8646 109.923 84.3746 109.915C82.8997 109.923 81.6082 109.773 80.5001 109.466C79.3996 109.159 78.5498 108.713 77.9508 108.129C77.3519 107.545 77.0524 106.853 77.0524 106.052C77.0524 105.236 77.3519 104.532 77.9508 103.94C78.5498 103.341 79.3996 102.885 80.5001 102.57C81.6082 102.256 82.8997 102.099 84.3746 102.099ZM84.3746 104.053C82.8773 104.053 81.713 104.225 80.882 104.569C80.0584 104.914 79.6504 105.408 79.6579 106.052C79.6504 106.666 80.0584 107.137 80.882 107.467C81.713 107.796 82.8773 107.968 84.3746 107.983C85.872 107.968 87.0363 107.796 87.8673 107.467C88.6984 107.137 89.1139 106.666 89.1139 106.052C89.1139 105.408 88.6984 104.914 87.8673 104.569C87.0363 104.225 85.872 104.053 84.3746 104.053ZM91.4049 121.752H77.3219V114.924H91.4049V121.752ZM79.7926 119.73H88.9791V116.9H79.7926V119.73ZM93.651 113.307H75.1432V111.285H93.651V113.307ZM110.346 105.647H113.176V107.714H110.346V111.802H107.853V101.694H110.346V105.647ZM97.7227 109.005C100.628 108.968 103.39 108.695 106.011 108.186L106.303 110.229C104.79 110.536 103.301 110.757 101.833 110.892C100.366 111.019 98.8757 111.083 97.3634 111.083H96.8917H95.2071V102.593H97.7227V109.005ZM110.346 118.068H99.587V119.73H110.975V121.752H97.0938V116.159H107.83V114.654H97.0714V112.678H110.346V118.068ZM123.745 103.177C124.763 103.177 125.669 103.472 126.463 104.064C127.256 104.648 127.878 105.483 128.327 106.568C128.784 107.646 129.016 108.904 129.023 110.342C129.016 111.794 128.784 113.063 128.327 114.149C127.878 115.235 127.256 116.069 126.463 116.653C125.669 117.237 124.763 117.529 123.745 117.529C122.719 117.529 121.806 117.237 121.005 116.653C120.204 116.062 119.579 115.223 119.129 114.138C118.68 113.052 118.459 111.787 118.467 110.342C118.459 108.912 118.68 107.654 119.129 106.568C119.579 105.483 120.204 104.648 121.005 104.064C121.806 103.472 122.719 103.177 123.745 103.177ZM123.745 105.423C123.176 105.423 122.674 105.621 122.24 106.018C121.806 106.407 121.469 106.973 121.229 107.714C120.99 108.448 120.87 109.324 120.87 110.342C120.87 111.368 120.99 112.251 121.229 112.992C121.469 113.733 121.806 114.302 122.24 114.699C122.674 115.089 123.176 115.283 123.745 115.283C124.322 115.283 124.827 115.089 125.261 114.699C125.695 114.302 126.029 113.733 126.261 112.992C126.5 112.251 126.62 111.368 126.62 110.342C126.62 109.324 126.5 108.444 126.261 107.703C126.029 106.961 125.695 106.396 125.261 106.007C124.827 105.618 124.322 105.423 123.745 105.423ZM134.189 109.488H137.311V111.6H134.189V121.999H131.696V101.694H134.189V109.488ZM149.514 105.827H145.179C145.187 106.591 145.385 107.328 145.774 108.04C146.164 108.743 146.736 109.368 147.493 109.915C148.249 110.462 149.155 110.873 150.21 111.15L149.042 113.104C147.874 112.783 146.86 112.292 145.999 111.633C145.145 110.974 144.475 110.188 143.989 109.275C143.517 110.271 142.851 111.135 141.99 111.869C141.129 112.595 140.103 113.134 138.913 113.486L137.745 111.577C138.785 111.263 139.676 110.81 140.417 110.218C141.159 109.627 141.72 108.953 142.102 108.197C142.484 107.433 142.678 106.643 142.686 105.827H138.351V103.851H142.686V101.627H145.202V103.851H149.514V105.827ZM154.388 113.644H151.872V101.717H154.388V113.644ZM154.388 121.752H140.912V114.564H154.388V121.752ZM143.382 119.73H151.94V116.563H143.382V119.73ZM174.182 121.999H171.779V101.694H174.182V121.999ZM170.005 121.011H167.624V111.353H165.692C165.617 112.663 165.385 113.801 164.996 114.767C164.614 115.725 164.101 116.462 163.457 116.979C162.813 117.488 162.076 117.739 161.245 117.731C160.369 117.739 159.598 117.451 158.931 116.867C158.273 116.275 157.764 115.433 157.404 114.34C157.045 113.239 156.865 111.951 156.865 110.477C156.865 109.002 157.045 107.721 157.404 106.636C157.764 105.543 158.273 104.704 158.931 104.12C159.598 103.536 160.369 103.244 161.245 103.244C162.061 103.244 162.784 103.487 163.412 103.974C164.049 104.461 164.558 105.161 164.94 106.074C165.329 106.988 165.572 108.073 165.67 109.331H167.624V102.054H170.005V121.011ZM161.245 105.603C160.818 105.595 160.448 105.778 160.133 106.153C159.819 106.527 159.579 107.081 159.414 107.815C159.25 108.549 159.171 109.436 159.179 110.477C159.171 111.517 159.25 112.404 159.414 113.138C159.579 113.872 159.819 114.426 160.133 114.8C160.448 115.175 160.818 115.358 161.245 115.351C161.926 115.366 162.454 114.95 162.828 114.104C163.21 113.258 163.401 112.049 163.401 110.477C163.401 108.904 163.21 107.695 162.828 106.849C162.454 106.003 161.926 105.588 161.245 105.603ZM197.622 111.981H195.129V110.207H190.232V108.298H195.129V106.299H190.49C189.24 109.361 186.331 111.405 181.764 112.431L180.888 110.387C183.217 109.908 185.002 109.17 186.245 108.174C187.496 107.179 188.211 105.984 188.39 104.592H182.011V102.57H191.176C191.176 103.162 191.127 103.768 191.03 104.39H195.129V101.694H197.622V111.981ZM197.622 118.113H186.773V119.798H198.161V121.797H184.28V116.249H195.129V114.744H184.258V112.768H197.622V118.113ZM211.15 105.243C211.15 106.576 211.116 107.837 211.048 109.028C210.989 110.211 210.835 111.57 210.588 113.104L208.117 112.902C208.334 111.525 208.477 110.282 208.544 109.174C208.619 108.066 208.66 106.943 208.668 105.805H200.705V103.806H211.15V105.243ZM206.028 115.598C208.334 115.508 210.378 115.351 212.16 115.126L212.295 116.99C209.166 117.484 205.332 117.731 200.795 117.731H199.874L199.627 115.732C201.379 115.717 202.689 115.699 203.558 115.676V109.601H206.028V115.598ZM215.732 109.96H218.674V112.071H215.732V121.999H213.216V101.694H215.732V109.96ZM239.777 106.411H242.607V108.478H239.777V113.531H237.284V101.694H239.777V106.411ZM226.93 105.647H231.669V102.885H234.14V112.453H224.459V102.885H226.93V105.647ZM231.669 110.477V107.579H226.93V110.477H231.669ZM239.912 116.519H229.176V119.73H240.294V121.707H226.683V114.52H239.912V116.519ZM248.409 103.177C249.427 103.177 250.333 103.472 251.126 104.064C251.92 104.648 252.541 105.483 252.991 106.568C253.447 107.646 253.68 108.904 253.687 110.342C253.68 111.794 253.447 113.063 252.991 114.149C252.541 115.235 251.92 116.069 251.126 116.653C250.333 117.237 249.427 117.529 248.409 117.529C247.383 117.529 246.47 117.237 245.668 116.653C244.867 116.062 244.242 115.223 243.793 114.138C243.344 113.052 243.123 111.787 243.13 110.342C243.123 108.912 243.344 107.654 243.793 106.568C244.242 105.483 244.867 104.648 245.668 104.064C246.47 103.472 247.383 103.177 248.409 103.177ZM248.409 105.423C247.84 105.423 247.338 105.621 246.904 106.018C246.47 106.407 246.133 106.973 245.893 107.714C245.653 108.448 245.534 109.324 245.534 110.342C245.534 111.368 245.653 112.251 245.893 112.992C246.133 113.733 246.47 114.302 246.904 114.699C247.338 115.089 247.84 115.283 248.409 115.283C248.985 115.283 249.491 115.089 249.925 114.699C250.359 114.302 250.692 113.733 250.924 112.992C251.164 112.251 251.284 111.368 251.284 110.342C251.284 109.324 251.164 108.444 250.924 107.703C250.692 106.961 250.359 106.396 249.925 106.007C249.491 105.618 248.985 105.423 248.409 105.423ZM258.853 109.488H261.975V111.6H258.853V121.999H256.36V101.694H258.853V109.488ZM280.691 119.551H262.139V117.507H270.135V113.554H264.183V103.042H266.676V106.366H276.087V103.042H278.58V113.554H272.605V117.507H280.691V119.551ZM276.087 111.532V108.365H266.676V111.532H276.087ZM287.661 107.018C287.661 108.156 287.795 109.26 288.065 110.331C288.342 111.401 288.772 112.382 289.356 113.273C289.94 114.164 290.67 114.886 291.546 115.44L290.176 117.35C289.293 116.818 288.544 116.107 287.93 115.216C287.316 114.317 286.833 113.288 286.481 112.127C286.099 113.393 285.579 114.516 284.92 115.497C284.261 116.477 283.468 117.252 282.539 117.821L280.99 115.957C281.94 115.381 282.734 114.624 283.37 113.688C284.007 112.753 284.479 111.723 284.786 110.6C285.1 109.477 285.257 108.32 285.257 107.13V103.491H287.661V107.018ZM298.846 121.999H296.443V101.694H298.846V121.999ZM294.623 121.011H292.265V110.746H289.368V108.68H292.265V102.054H294.623V121.011ZM319.067 119.528H300.514V117.484H304.805V112.352C303.981 111.873 303.341 111.278 302.884 110.566C302.435 109.855 302.214 109.054 302.221 108.163C302.214 107.107 302.532 106.172 303.176 105.355C303.82 104.539 304.715 103.91 305.86 103.469C307.006 103.02 308.301 102.795 309.746 102.795C311.198 102.795 312.497 103.02 313.643 103.469C314.796 103.91 315.694 104.539 316.338 105.355C316.99 106.164 317.315 107.1 317.315 108.163C317.315 109.032 317.094 109.821 316.653 110.533C316.218 111.236 315.601 111.824 314.8 112.296V117.484H319.067V119.528ZM309.746 104.771C308.735 104.771 307.844 104.91 307.073 105.187C306.309 105.457 305.714 105.846 305.287 106.355C304.868 106.864 304.662 107.467 304.67 108.163C304.662 108.852 304.868 109.451 305.287 109.96C305.714 110.469 306.313 110.862 307.084 111.139C307.855 111.416 308.743 111.555 309.746 111.555C310.749 111.555 311.636 111.416 312.408 111.139C313.186 110.862 313.789 110.469 314.216 109.96C314.65 109.451 314.867 108.852 314.867 108.163C314.867 107.474 314.65 106.875 314.216 106.366C313.789 105.85 313.19 105.457 312.419 105.187C311.648 104.91 310.757 104.771 309.746 104.771ZM312.262 117.484V113.25C311.468 113.423 310.629 113.509 309.746 113.509C308.9 113.509 308.076 113.426 307.275 113.262V117.484H312.262Z" fill="black"/>
<path d="M80.8829 173L80.8692 172.098L84.2462 168.543C85.422 167.299 85.9825 166.629 85.9825 165.713C85.9825 164.701 85.1212 164.031 84.0138 164.031C82.838 164.031 82.086 164.783 82.086 165.891H80.9239C80.9102 164.141 82.2638 162.965 84.0548 162.965C85.8458 162.965 87.1309 164.168 87.1309 165.713C87.1309 166.82 86.6114 167.682 84.8614 169.486L82.5919 171.824V171.906H87.3087V173H80.8829ZM88.3548 170.977V169.965L92.8119 163.102H94.3295V169.896H95.7103V170.977H94.3295V173H93.1537V170.977H88.3548ZM89.681 169.896H93.1537V164.66H93.0306L89.681 169.814V169.896ZM100.94 165.221C100.926 167.436 102.444 169.678 104.235 170.484L103.579 171.332C102.198 170.655 101.002 169.227 100.421 167.49C99.8532 169.329 98.6569 170.86 97.235 171.578L96.5514 170.676C98.3561 169.842 99.86 167.531 99.8737 165.221V163.006H100.94V165.221ZM106.641 161.953V174.135H105.561V161.953H106.641ZM117.941 161.953V165.658H119.773V166.561H117.941V170.854H116.861V161.953H117.941ZM114.66 162.896C114.66 166.027 112.418 168.352 108.918 169.445L108.453 168.584C111.365 167.675 113.266 165.938 113.498 163.799H108.959V162.896H114.66ZM118.502 172.945V173.848H110.326V169.951H111.392V172.945H118.502Z" fill="black" fill-opacity="0.6"/>
<rect x="72" y="185" width="56" height="195" rx="12" fill="#F2F2F2" stroke="#B3B3B3" stroke-linecap="round" stroke-linejoin="round" stroke-dasharray="5 5"/>
<path d="M89.6638 402L93.2218 392.099H94.967L98.525 402H96.9248L96.0208 399.385H92.1631L91.2591 402H89.6638ZM95.5858 398.123L94.1306 393.907H94.0533L92.5982 398.123H95.5858ZM103.192 394.028C103.188 394.744 103.316 395.451 103.574 396.151C103.835 396.85 104.199 397.477 104.666 398.031C105.137 398.585 105.67 399.009 106.266 399.302L105.469 400.342C104.808 400 104.226 399.506 103.723 398.858C103.221 398.21 102.832 397.472 102.558 396.644C102.281 397.527 101.882 398.313 101.36 399.003C100.837 399.692 100.233 400.216 99.5467 400.574L98.7394 399.53C99.3549 399.233 99.9012 398.797 100.378 398.22C100.858 397.64 101.231 396.982 101.495 396.247C101.762 395.512 101.898 394.773 101.901 394.028V391.93H103.192V394.028ZM107.19 390.91H108.49V395.798H110.453V396.905H108.49V403.16H107.19V390.91Z" fill="black"/>
<mask id="mask0_498_33" style="mask-type:alpha" maskUnits="userSpaceOnUse" x="167" y="253" width="41" height="41">
<rect width="40" height="40" transform="matrix(1 0 0 -1 167.5 293.5)" fill="#D9D9D9"/>
</mask>
<g mask="url(#mask0_498_33)">
<path d="M197.654 276.847L174.584 265.439C174.291 265.294 173.978 265.275 173.646 265.382C173.313 265.489 173.071 265.696 172.92 266.002C172.769 266.308 172.748 266.623 172.858 266.949C172.969 267.275 173.177 267.514 173.483 267.665L196.553 279.073L186.771 282.382C186.435 282.496 186.192 282.704 186.042 283.008C185.892 283.312 185.874 283.632 185.987 283.967C186.101 284.303 186.309 284.546 186.613 284.696C186.916 284.846 187.236 284.864 187.572 284.75L199.959 280.56C200.363 280.424 200.656 280.172 200.837 279.806C201.018 279.44 201.04 279.055 200.903 278.65L196.713 266.263C196.6 265.928 196.391 265.685 196.087 265.535C195.783 265.385 195.464 265.366 195.128 265.48C194.793 265.593 194.55 265.802 194.4 266.105C194.25 266.409 194.232 266.729 194.345 267.064L197.654 276.847Z" fill="url(#paint0_linear_498_33)"/>
</g>
<rect x="142.5" y="313.5" width="82" height="30" rx="15" fill="#E1FBF0"/>
<path d="M155.392 332.5L155.387 331.485L158.574 328.267C159.584 327.221 160.087 326.642 160.092 325.834C160.087 324.927 159.351 324.353 158.386 324.353C157.367 324.353 156.716 324.994 156.716 325.978H155.387C155.383 324.294 156.662 323.181 158.413 323.181C160.186 323.181 161.411 324.303 161.42 325.794C161.411 326.821 160.927 327.643 159.203 329.335L157.336 331.234V331.301H161.569V332.5H155.392ZM163.999 323.262V325.969H166.163V323.262H167.28V330.781H162.854V323.262H163.999ZM163.999 329.798H166.163V326.934H163.999V329.798ZM168.551 333.016V322.422H169.695V326.655H171.096V322.202H172.254V333.577H171.096V327.652H169.695V333.016H168.551ZM185.627 322.202V324.608H186.969V325.605H185.627V328.173H184.451V322.202H185.627ZM176.618 327.629V322.732H177.619V324.231H178.755V322.732H179.756V327.629H176.618ZM177.619 326.682H178.755V325.165H177.619V326.682ZM178.054 329.578V328.626H185.627V331.427H179.262V332.5H186.031V333.47H178.077V330.534H184.451V329.578H178.054ZM180.402 327.629V322.732H181.403V324.231H182.53V322.732H183.531V327.629H180.402ZM181.403 326.682H182.53V325.165H181.403V326.682ZM196.198 322.202V326.651H198.021V327.661H196.198V333.6H195.004V322.202H196.198ZM187.786 324.213V323.226H192.989V327.41H189.003V329.874C190.955 329.869 192.396 329.793 194.057 329.492L194.169 330.475C192.396 330.799 190.861 330.875 188.729 330.884H187.809V326.435H191.786V324.213H187.786ZM208.722 331.162V332.159H198.313V331.162H200.804V328.186C199.866 327.674 199.296 326.857 199.296 325.838C199.296 324.047 201.051 322.871 203.488 322.862C205.935 322.871 207.695 324.047 207.695 325.838C207.695 326.844 207.142 327.647 206.227 328.164V331.162H208.722ZM200.467 325.838C200.467 327.055 201.706 327.849 203.488 327.849C205.262 327.849 206.518 327.055 206.518 325.838C206.518 324.608 205.262 323.827 203.488 323.836C201.706 323.827 200.467 324.608 200.467 325.838ZM201.989 331.162H205.01V328.626C204.543 328.734 204.032 328.792 203.488 328.792C202.95 328.792 202.447 328.734 201.989 328.631V331.162ZM211.384 323.307L211.268 329.852H210.015L209.898 323.307H211.384ZM209.746 331.688C209.737 331.194 210.15 330.79 210.648 330.79C211.133 330.79 211.546 331.194 211.546 331.688C211.546 332.181 211.133 332.585 210.648 332.585C210.15 332.585 209.737 332.181 209.746 331.688Z" fill="#0F6643"/>
<path d="M231.043 327.639C231.698 328.026 231.698 328.974 231.043 329.361L221.5 335L221.5 322L231.043 327.639Z" fill="#E1FBF0"/>
<path d="M260.651 261.599V271.5H259.143V263.108H259.085L256.721 264.65V263.214L259.181 261.599H260.651ZM262.89 271.5L262.885 270.407L266.317 266.941C267.405 265.815 267.947 265.191 267.951 264.321C267.947 263.345 267.154 262.726 266.114 262.726C265.017 262.726 264.316 263.417 264.316 264.476H262.885C262.88 262.663 264.258 261.464 266.143 261.464C268.053 261.464 269.373 262.673 269.382 264.278C269.373 265.385 268.851 266.269 266.994 268.092L264.983 270.137V270.209H269.542V271.5H262.89ZM275.011 263.528C275.002 265.767 276.351 268.019 278.25 268.856L277.467 269.89C276.06 269.218 274.949 267.84 274.373 266.163C273.808 267.956 272.681 269.441 271.217 270.151L270.414 269.068C272.343 268.208 273.697 265.868 273.706 263.528V261.43H275.011V263.528ZM279.357 272.684V260.41H280.663V272.684H279.357ZM291.96 260.41V264.031H293.734V265.119H291.96V269.315H290.645V260.41H291.96ZM282.321 266.932C285.192 266.071 286.971 264.437 287.223 262.421H282.833V261.343H288.634C288.634 264.558 286.449 266.888 282.872 267.966L282.321 266.932ZM284.182 272.409V268.401H285.487V271.345H292.468V272.409H284.182Z" fill="black"/>
<g filter="url(#filter0_i_498_33)">
<rect x="247" y="282.5" width="56" height="97.5" rx="12" fill="url(#paint1_linear_498_33)"/>
</g>
<g filter="url(#filter1_ii_498_33)">
<path d="M288.887 337.764L285.593 334.823L279.24 338V333.646L270.534 338V333.653L261.956 338V328.823L271.475 324V328.353L280.181 324V328.353L288.887 324V337.764Z" fill="url(#paint2_linear_498_33)"/>
</g>
<path d="M262.842 398.427H251.675V397.369H256.606V396.184C255.842 396.136 255.18 396.009 254.619 395.802C254.058 395.593 253.627 395.311 253.324 394.956C253.021 394.602 252.869 394.188 252.869 393.714C252.869 393.215 253.048 392.781 253.406 392.414C253.767 392.043 254.276 391.758 254.933 391.558C255.594 391.358 256.366 391.258 257.249 391.258C258.129 391.258 258.898 391.358 259.555 391.558C260.216 391.758 260.725 392.043 261.083 392.414C261.44 392.781 261.619 393.215 261.619 393.714C261.619 394.188 261.468 394.602 261.165 394.956C260.865 395.311 260.435 395.593 259.874 395.802C259.317 396.009 258.657 396.136 257.897 396.184V397.369H262.842V398.427ZM253.082 399.341H254.387V401.845H261.585V402.909H253.082V399.341ZM254.218 393.714C254.215 394.017 254.334 394.276 254.576 394.492C254.821 394.705 255.17 394.868 255.625 394.981C256.082 395.09 256.624 395.147 257.249 395.15C257.874 395.147 258.414 395.09 258.869 394.981C259.326 394.868 259.678 394.705 259.922 394.492C260.167 394.276 260.29 394.017 260.29 393.714C260.29 393.424 260.167 393.174 259.922 392.965C259.678 392.752 259.326 392.589 258.869 392.477C258.411 392.36 257.871 392.302 257.249 392.302C256.627 392.302 256.087 392.36 255.63 392.477C255.175 392.589 254.826 392.752 254.581 392.965C254.336 393.174 254.215 393.424 254.218 393.714ZM267.913 394.028C267.913 394.773 268.044 395.501 268.305 396.213C268.566 396.922 268.933 397.554 269.407 398.108C269.881 398.66 270.424 399.072 271.036 399.346L270.253 400.39C269.563 400.045 268.961 399.546 268.445 398.892C267.929 398.234 267.536 397.48 267.266 396.629C266.988 397.528 266.589 398.328 266.067 399.027C265.548 399.726 264.942 400.255 264.249 400.613L263.427 399.568C264.046 399.272 264.595 398.832 265.076 398.249C265.556 397.665 265.928 397.005 266.192 396.267C266.46 395.529 266.595 394.782 266.598 394.028V391.93H267.913V394.028ZM269.692 394.981H272.424V390.91H273.71V403.184H272.424V396.035H269.692V394.981ZM276.958 395.034H279.303V392.085H280.492V395.498H282.121V391.162H283.359V402.57H282.121V396.581H280.492V400.139H275.725V392.085H276.958V395.034ZM279.303 399.066V396.078H276.958V399.066H279.303ZM284.601 390.91H285.848V403.16H284.601V390.91ZM297.281 403.184H295.976V390.91H297.281V403.184ZM287.555 396.126C287.555 395.266 287.688 394.512 287.956 393.864C288.227 393.213 288.602 392.712 289.082 392.36C289.562 392.006 290.109 391.829 290.721 391.829C291.33 391.829 291.873 392.006 292.35 392.36C292.83 392.715 293.206 393.218 293.477 393.869C293.747 394.517 293.883 395.269 293.883 396.126C293.883 396.99 293.747 397.747 293.477 398.398C293.206 399.049 292.83 399.552 292.35 399.907C291.873 400.258 291.33 400.434 290.721 400.434C290.109 400.434 289.562 400.258 289.082 399.907C288.602 399.552 288.227 399.049 287.956 398.398C287.688 397.747 287.555 396.99 287.555 396.126ZM288.807 396.126C288.807 396.765 288.887 397.32 289.048 397.794C289.21 398.268 289.434 398.632 289.72 398.887C290.01 399.141 290.344 399.269 290.721 399.269C291.098 399.269 291.43 399.141 291.717 398.887C292.004 398.632 292.226 398.268 292.384 397.794C292.545 397.32 292.626 396.765 292.626 396.126C292.626 395.491 292.545 394.939 292.384 394.468C292.226 393.994 292.004 393.63 291.717 393.376C291.43 393.121 291.098 392.992 290.721 392.989C290.344 392.992 290.01 393.123 289.72 393.381C289.434 393.635 289.21 393.999 289.048 394.473C288.887 394.944 288.807 395.495 288.807 396.126Z" fill="black"/>
<g opacity="0.4">
<path d="M121.56 426.244L119.844 427.356L119.322 426.428L121.144 425.5L119.322 424.572L119.844 423.644L121.56 424.755L121.468 422.715H122.532L122.44 424.755L124.156 423.644L124.678 424.572L122.856 425.5L124.678 426.428L124.156 427.356L122.44 426.244L122.532 428.284H121.468L121.56 426.244Z" fill="black"/>
<path d="M139.33 419.91V432.16H138.025V419.91H139.33ZM129.265 428.878C132.523 427.331 134.109 425.122 134.365 422.265H129.86V421.23H135.69C135.68 424.812 134.157 427.921 129.951 429.927L129.265 428.878ZM143.719 420.384V421.829H149.395V420.384H150.685V425.32H147.19V426.533H152.136V427.597H140.969V426.533H145.899V425.32H142.428V420.384H143.719ZM142.375 431.909V428.477H143.681V430.845H150.879V431.909H142.375ZM143.719 424.28H149.395V422.84H143.719V424.28ZM160.103 421.099V431H158.595V422.608H158.537L156.173 424.15V422.714L158.633 421.099H160.103ZM165.784 431.16C163.497 431.16 162.149 429.298 162.154 426.055C162.154 422.83 163.512 420.964 165.784 420.964C168.061 420.964 169.419 422.835 169.419 426.055C169.419 429.298 168.076 431.16 165.784 431.16ZM163.652 426.055C163.647 428.525 164.45 429.864 165.784 429.864C167.123 429.864 167.921 428.525 167.921 426.055C167.921 423.589 167.113 422.245 165.784 422.245C164.459 422.245 163.652 423.589 163.652 426.055ZM174.145 431.16C171.858 431.16 170.509 429.298 170.514 426.055C170.514 422.83 171.873 420.964 174.145 420.964C176.422 420.964 177.78 422.835 177.78 426.055C177.78 429.298 176.436 431.16 174.145 431.16ZM172.013 426.055C172.008 428.525 172.81 429.864 174.145 429.864C175.484 429.864 176.281 428.525 176.281 426.055C176.281 423.589 175.474 422.245 174.145 422.245C172.82 422.245 172.013 423.589 172.013 426.055ZM188.853 419.91V427.142H187.557V425.329H184.884V426.33H179.194V420.834H184.884V421.839H187.557V419.91H188.853ZM180.48 425.281H183.612V421.873H180.48V425.281ZM180.61 429.825C180.601 428.341 182.177 427.481 184.748 427.481C187.315 427.481 188.887 428.341 188.891 429.825C188.887 431.305 187.315 432.141 184.748 432.141C182.177 432.141 180.601 431.305 180.61 429.825ZM181.896 429.825C181.887 430.647 182.955 431.131 184.748 431.131C186.537 431.131 187.601 430.647 187.605 429.825C187.601 428.965 186.537 428.496 184.748 428.486C182.955 428.496 181.887 428.965 181.896 429.825ZM184.884 424.266H187.557V422.883H184.884V424.266ZM204.767 425.798V426.833H193.6V425.798H204.767ZM194.794 422.559C194.794 421.099 196.496 420.205 199.174 420.205C201.848 420.205 203.544 421.099 203.544 422.559C203.544 424.034 201.848 424.904 199.174 424.904C196.496 424.904 194.794 424.034 194.794 422.559ZM194.92 429.956C194.92 428.535 196.511 427.747 199.169 427.756C201.809 427.747 203.395 428.535 203.404 429.956C203.395 431.377 201.809 432.165 199.169 432.165C196.511 432.165 194.92 431.377 194.92 429.956ZM196.143 422.559C196.133 423.405 197.289 423.889 199.174 423.889C201.05 423.889 202.215 423.405 202.215 422.559C202.215 421.709 201.05 421.235 199.174 421.24C197.289 421.235 196.133 421.709 196.143 422.559ZM196.24 429.956C196.23 430.729 197.299 431.155 199.169 431.145C201.021 431.155 202.099 430.729 202.109 429.956C202.099 429.168 201.021 428.742 199.169 428.742C197.299 428.742 196.23 429.168 196.24 429.956ZM215.045 419.91V422.709H216.819V423.792H215.045V426.451H213.745V419.91H215.045ZM205.966 426.074V420.693H211.4V421.752H207.252V425.006C209.635 425.001 210.975 424.928 212.517 424.599L212.666 425.658C211.004 426.001 209.558 426.074 206.938 426.074H205.966ZM207.189 431.977V427.084H208.48V428.477H213.745V427.084H215.045V431.977H207.189ZM208.48 430.918H213.745V429.516H208.48V430.918ZM221.508 423.526C221.499 425.455 222.775 427.616 224.631 428.491L223.896 429.516C222.519 428.854 221.431 427.471 220.875 425.871C220.314 427.616 219.168 429.129 217.776 429.82L217.008 428.796C218.864 427.906 220.213 425.595 220.222 423.526V422.216H217.462V421.143H224.167V422.216H221.508V423.526ZM225.482 432.16V419.91H226.782V424.769H228.745V425.866H226.782V432.16H225.482ZM242.378 419.91V432.16H241.073V419.91H242.378ZM232.313 428.878C235.571 427.331 237.157 425.122 237.413 422.265H232.908V421.23H238.738C238.728 424.812 237.205 427.921 233 429.927L232.313 428.878ZM254.178 420.495V421.539H250.461C250.519 422.869 252.283 424.044 254.57 424.334L254.077 425.358C251.979 425.078 250.253 424.102 249.591 422.724C248.928 424.102 247.212 425.078 245.114 425.358L244.636 424.334C246.922 424.044 248.667 422.869 248.735 421.539H245.037V420.495H254.178ZM243.997 427.205V426.146H255.208V427.205H250.35V429.574H249.064V427.205H243.997ZM245.395 431.909V428.404H246.69V430.845H253.966V431.909H245.395Z" fill="black"/>
</g>
<defs>
<filter id="filter0_i_498_33" x="247" y="282.5" width="56" height="101.5" filterUnits="userSpaceOnUse" color-interpolation-filters="sRGB">
<feFlood flood-opacity="0" result="BackgroundImageFix"/>
<feBlend mode="normal" in="SourceGraphic" in2="BackgroundImageFix" result="shape"/>
<feColorMatrix in="SourceAlpha" type="matrix" values="0 0 0 0 0 0 0 0 0 0 0 0 0 0 0 0 0 0 127 0" result="hardAlpha"/>
<feOffset dy="4"/>
<feGaussianBlur stdDeviation="10"/>
<feComposite in2="hardAlpha" operator="arithmetic" k2="-1" k3="1"/>
<feColorMatrix type="matrix" values="0 0 0 0 0.604699 0 0 0 0 1 0 0 0 0 0.96047 0 0 0 0.4 0"/>
<feBlend mode="normal" in2="shape" result="effect1_innerShadow_498_33"/>
</filter>
<filter id="filter1_ii_498_33" x="261.956" y="322.916" width="26.9316" height="15.0841" filterUnits="userSpaceOnUse" color-interpolation-filters="sRGB">
<feFlood flood-opacity="0" result="BackgroundImageFix"/>
<feBlend mode="normal" in="SourceGraphic" in2="BackgroundImageFix" result="shape"/>
<feColorMatrix in="SourceAlpha" type="matrix" values="0 0 0 0 0 0 0 0 0 0 0 0 0 0 0 0 0 0 127 0" result="hardAlpha"/>
<feOffset/>
<feGaussianBlur stdDeviation="5.42045"/>
<feComposite in2="hardAlpha" operator="arithmetic" k2="-1" k3="1"/>
<feColorMatrix type="matrix" values="0 0 0 0 1 0 0 0 0 1 0 0 0 0 1 0 0 0 1 0"/>
<feBlend mode="normal" in2="shape" result="effect1_innerShadow_498_33"/>
<feColorMatrix in="SourceAlpha" type="matrix" values="0 0 0 0 0 0 0 0 0 0 0 0 0 0 0 0 0 0 127 0" result="hardAlpha"/>
<feOffset dy="-1.08409"/>
<feGaussianBlur stdDeviation="2.16818"/>
<feComposite in2="hardAlpha" operator="arithmetic" k2="-1" k3="1"/>
<feColorMatrix type="matrix" values="0 0 0 0 1 0 0 0 0 1 0 0 0 0 1 0 0 0 0.6 0"/>
<feBlend mode="normal" in2="effect1_innerShadow_498_33" result="effect2_innerShadow_498_33"/>
</filter>
<linearGradient id="paint0_linear_498_33" x1="202.194" y1="280.386" x2="173.673" y2="266.277" gradientUnits="userSpaceOnUse">
<stop stop-color="#15C67F"/>
<stop offset="1" stop-color="#F2F2F2"/>
</linearGradient>
<linearGradient id="paint1_linear_498_33" x1="281.5" y1="380" x2="316.527" y2="165.087" gradientUnits="userSpaceOnUse">
<stop stop-color="#15C67F"/>
<stop offset="1" stop-color="#56ECD6"/>
</linearGradient>
<linearGradient id="paint2_linear_498_33" x1="275.421" y1="324" x2="275.507" y2="340.261" gradientUnits="userSpaceOnUse">
<stop offset="0.27185" stop-color="white"/>
<stop offset="0.597866" stop-color="#8DE7CA"/>
<stop offset="1" stop-color="white"/>
</linearGradient>
</defs>
</svg>
