<svg width="375" height="481" viewBox="0 0 375 481" fill="none" xmlns="http://www.w3.org/2000/svg">
<rect width="375" height="481" fill="white"/>
<path opacity="0.87" d="M153.49 78.1621H152.178V65.9121H153.49V78.1621ZM149.84 67.2246C149.84 69.1204 149.386 70.8066 148.479 72.2832C147.577 73.7552 146.121 74.972 144.111 75.9336L143.428 74.8809C145.036 74.1152 146.255 73.1833 147.085 72.085C147.919 70.9867 148.4 69.7129 148.527 68.2637H144.016V67.2246H149.84ZM164.667 70.6562H166.636V71.7227H164.667V78.1895H163.368V65.9121H164.667V70.6562ZM161.372 68.1406H156.943V74.0605C158.027 74.056 158.98 74.0241 159.8 73.9648C160.625 73.9056 161.454 73.8008 162.288 73.6504L162.452 74.7441C161.609 74.8945 160.78 74.9993 159.964 75.0586C159.153 75.1133 158.214 75.1406 157.148 75.1406H156.628H155.644V67.0879H161.372V68.1406ZM177.102 73.1855H175.803V65.9258H177.102V73.1855ZM173.192 70.0957H168.858V71.5723H169.118C170.17 71.5723 171.105 71.5449 171.92 71.4902C172.736 71.4355 173.575 71.3398 174.436 71.2031L174.6 72.2695C173.711 72.4062 172.845 72.502 172.002 72.5566C171.164 72.6113 170.207 72.6387 169.131 72.6387H168.612H167.586V69.084H171.907V67.6895H167.559V66.6504H173.192V70.0957ZM177.102 78.0117H169.049V73.8008H177.102V78.0117ZM170.334 76.959H175.831V74.8398H170.334V76.959ZM184.513 74.5117H186.427V73.0898H187.63V78.0117H183.296V73.0898H184.513V74.5117ZM186.427 77V75.4961H184.513V77H186.427ZM191.185 74.0059C191.185 74.4479 191.267 74.874 191.431 75.2842C191.595 75.6943 191.843 76.0612 192.176 76.3848C192.513 76.7038 192.925 76.9499 193.413 77.123L192.743 78.1074C192.205 77.9023 191.752 77.6107 191.383 77.2324C191.018 76.8587 190.736 76.4189 190.535 75.9131C190.326 76.4053 190.036 76.8405 189.667 77.2188C189.302 77.597 188.865 77.8932 188.354 78.1074L187.698 77.123C188.172 76.9271 188.573 76.665 188.901 76.3369C189.234 76.0042 189.482 75.6374 189.646 75.2363C189.815 74.8307 189.899 74.4206 189.899 74.0059V73.0078H191.185V74.0059ZM185.292 66.4316C185.825 66.4316 186.313 66.5273 186.755 66.7188C187.197 66.9056 187.562 67.1722 187.849 67.5186C188.14 67.8649 188.332 68.2637 188.423 68.7148H190.815V65.9121H192.114V72.4062H190.815V69.7812H188.43C188.343 70.2461 188.154 70.654 187.862 71.0049C187.575 71.3558 187.208 71.627 186.762 71.8184C186.32 72.0098 185.83 72.1055 185.292 72.1055C184.672 72.1055 184.118 71.987 183.631 71.75C183.143 71.5085 182.763 71.1735 182.489 70.7451C182.216 70.3122 182.079 69.8177 182.079 69.2617C182.079 68.7148 182.216 68.2272 182.489 67.7988C182.763 67.3659 183.143 67.0309 183.631 66.7939C184.118 66.5524 184.672 66.4316 185.292 66.4316ZM185.292 67.5117C184.909 67.5117 184.567 67.5869 184.267 67.7373C183.97 67.8831 183.738 68.0882 183.569 68.3525C183.405 68.6169 183.323 68.9199 183.323 69.2617C183.323 69.6081 183.405 69.9157 183.569 70.1846C183.738 70.4535 183.97 70.6654 184.267 70.8203C184.567 70.9707 184.909 71.0482 185.292 71.0527C185.666 71.0482 185.998 70.9707 186.29 70.8203C186.586 70.6654 186.816 70.4535 186.98 70.1846C187.149 69.9157 187.233 69.6081 187.233 69.2617C187.233 68.9199 187.149 68.6169 186.98 68.3525C186.816 68.0882 186.586 67.8831 186.29 67.7373C185.998 67.5869 185.666 67.5117 185.292 67.5117ZM203.633 70.5332H195.198V66.3496H196.483V69.4941H203.633V70.5332ZM204.918 73.1172H193.707V72.0781H204.918V73.1172ZM203.715 77.875H195.102V74.2793H196.401V76.8086H203.715V77.875ZM218.891 72.2148H217.593V69.0703H215.009V68.0176H217.593V65.9121H218.891V72.2148ZM218.891 75.8379H212.179V76.9727H219.315V78.0117H210.907V74.8535H217.606V73.8145H210.88V72.7891H218.891V75.8379ZM212.985 67.375C212.985 67.8945 213.104 68.3936 213.341 68.8721C213.582 69.346 213.926 69.7676 214.373 70.1367C214.82 70.5013 215.346 70.7793 215.952 70.9707L215.268 71.9824C214.603 71.75 214.02 71.4128 213.518 70.9707C213.022 70.5286 212.637 70.0137 212.363 69.4258C212.094 70.0911 211.7 70.6699 211.181 71.1621C210.661 71.6543 210.046 72.0234 209.335 72.2695L208.638 71.2305C209.266 71.0299 209.809 70.736 210.264 70.3486C210.725 69.9613 211.078 69.5124 211.324 69.002C211.57 68.4915 211.695 67.9492 211.7 67.375V66.3086H212.985V67.375ZM231.695 73.1582H226.828V75.5371H225.543V73.1582H220.484V72.1055H231.695V73.1582ZM230.246 70.834H221.92V66.4863H230.246V70.834ZM223.192 69.8086H228.961V67.5117H223.192V69.8086ZM230.451 77.9023H221.879V74.375H223.178V76.8496H230.451V77.9023Z" fill="black"/>
<path d="M120.594 95.4668C120.594 96.5299 120.796 97.6006 121.201 98.6787C121.612 99.7568 122.2 100.738 122.964 101.621C123.735 102.505 124.637 103.186 125.67 103.665L124.278 105.642C123.162 105.118 122.185 104.35 121.347 103.339C120.508 102.321 119.853 101.157 119.381 99.8467C118.91 101.277 118.24 102.546 117.371 103.654C116.503 104.762 115.496 105.589 114.35 106.136L112.89 104.182C113.931 103.688 114.844 102.972 115.63 102.037C116.424 101.101 117.03 100.056 117.45 98.9033C117.876 97.7503 118.094 96.6048 118.101 95.4668V93.7598H113.676V91.6934H124.839V93.7598H120.594V95.4668ZM129.219 97.6006H132.341V99.6895H129.219V109.999H126.726V89.6943H129.219V97.6006ZM149.463 109.999H146.947V89.6943H149.463V109.999ZM143.398 91.8506C143.398 95.0775 142.668 97.9113 141.208 100.352C139.748 102.785 137.326 104.803 133.942 106.405L132.64 104.406C135.253 103.163 137.218 101.677 138.536 99.9478C139.861 98.2108 140.636 96.1706 140.86 93.8271H133.673V91.8506H143.398ZM168.696 104.541H166.203V97.1064H162.609V95.085H166.203V89.7168H168.696V104.541ZM169.212 109.595H155.376V103.238H157.87V107.573H169.212V109.595ZM159.15 93.7598C159.15 94.5908 159.333 95.4032 159.7 96.1968C160.067 96.9829 160.61 97.6904 161.329 98.3193C162.047 98.9408 162.916 99.4199 163.934 99.7568L162.676 101.756C161.568 101.374 160.61 100.82 159.801 100.094C159 99.36 158.371 98.5028 157.914 97.522C157.458 98.6151 156.806 99.5659 155.96 100.375C155.114 101.176 154.104 101.778 152.928 102.183L151.648 100.161C152.696 99.8167 153.591 99.3151 154.332 98.6562C155.081 97.9899 155.646 97.2337 156.028 96.3877C156.417 95.5342 156.612 94.6507 156.612 93.7373V93.1982H152.389V91.1768H163.35V93.1982H159.15V93.7598ZM188.4 109.999H185.997V89.6943H188.4V109.999ZM184.223 109.011H181.842V99.3525H179.91C179.835 100.663 179.603 101.801 179.214 102.767C178.832 103.725 178.319 104.462 177.675 104.979C177.031 105.488 176.294 105.739 175.463 105.731C174.587 105.739 173.816 105.451 173.149 104.867C172.49 104.275 171.981 103.433 171.622 102.34C171.263 101.239 171.083 99.9515 171.083 98.4766C171.083 97.0016 171.263 95.7214 171.622 94.6357C171.981 93.5426 172.49 92.7041 173.149 92.1201C173.816 91.5361 174.587 91.2441 175.463 91.2441C176.279 91.2441 177.001 91.4875 177.63 91.9741C178.267 92.4608 178.776 93.1608 179.158 94.0742C179.547 94.9876 179.79 96.0732 179.888 97.3311H181.842V90.0537H184.223V109.011ZM175.463 93.6025C175.036 93.5951 174.665 93.7785 174.351 94.1528C174.036 94.5272 173.797 95.0812 173.632 95.8149C173.467 96.5487 173.389 97.4359 173.396 98.4766C173.389 99.5173 173.467 100.404 173.632 101.138C173.797 101.872 174.036 102.426 174.351 102.8C174.665 103.175 175.036 103.358 175.463 103.351C176.144 103.366 176.672 102.95 177.046 102.104C177.428 101.258 177.619 100.049 177.619 98.4766C177.619 96.9043 177.428 95.6951 177.046 94.8491C176.672 94.0031 176.144 93.5876 175.463 93.6025ZM204.068 89.8965C205.61 89.8965 206.924 90.0312 208.01 90.3008C209.103 90.5703 209.938 90.9671 210.514 91.4912C211.091 92.0078 211.383 92.6367 211.39 93.3779C211.383 94.4036 210.851 95.2122 209.796 95.8037C208.74 96.3952 207.235 96.7433 205.281 96.8481V98.1396H213.344V100.139H194.837V98.1396H202.81V96.8481C200.864 96.7358 199.366 96.384 198.318 95.7925C197.27 95.201 196.746 94.3962 196.746 93.3779C196.746 92.6367 197.034 92.0078 197.611 91.4912C198.187 90.9671 199.022 90.5703 200.115 90.3008C201.208 90.0312 202.526 89.8965 204.068 89.8965ZM204.068 91.7607C202.518 91.7607 201.343 91.8993 200.542 92.1763C199.748 92.4458 199.359 92.8464 199.374 93.3779C199.366 93.932 199.752 94.3438 200.53 94.6133C201.317 94.8828 202.496 95.0251 204.068 95.04C205.655 95.0251 206.842 94.8828 207.628 94.6133C208.414 94.3438 208.807 93.932 208.807 93.3779C208.807 92.8464 208.407 92.4458 207.606 92.1763C206.812 91.8993 205.633 91.7607 204.068 91.7607ZM211.031 106.405H199.486V107.91H211.592V109.819H197.038V104.631H208.583V103.328H197.015V101.441H211.031V106.405ZM230.938 110.021H228.467V89.6943H230.938V110.021ZM224.694 99.083H217.708V103.171C219.423 103.156 220.995 103.096 222.425 102.991C223.862 102.886 225.33 102.707 226.827 102.452L227.052 104.496C225.442 104.781 223.859 104.972 222.301 105.069C220.744 105.166 218.951 105.215 216.922 105.215H215.148V97.1064H222.155V93.4902H215.125V91.4688H224.694V99.083ZM249.789 93.5127V93.7598C249.781 94.8828 249.759 95.8599 249.721 96.6909C249.691 97.5145 249.62 98.4728 249.508 99.5659C249.396 100.652 249.22 101.831 248.98 103.104L246.464 102.834C246.704 101.651 246.88 100.535 246.992 99.4873C247.105 98.4316 247.176 97.4958 247.206 96.6797C247.243 95.8636 247.266 94.9053 247.273 93.8047V93.5576H235.144V91.5586H249.789V93.5127ZM251.72 107.371H233.212V105.327H240.041V98.2744H242.511V105.327H251.72V107.371ZM254.467 112.694H252.333L253.501 106.405H256.354L254.467 112.694ZM71.8576 126.398H74.9797V128.442H71.8576V139.021H69.3645V118.694H71.8576V126.398ZM66.2873 122.647H59.2795V131.969C60.9191 131.969 62.3978 131.92 63.7155 131.823C65.0332 131.725 66.3697 131.557 67.7248 131.317L68.0168 133.429C66.5494 133.683 65.0969 133.852 63.6594 133.934C62.2294 134.016 60.4999 134.058 58.4709 134.058H56.7863V120.626H66.2873V122.647ZM84.3746 119.099C85.8646 119.099 87.1561 119.256 88.2492 119.57C89.3497 119.885 90.1958 120.341 90.7872 120.94C91.3862 121.532 91.6894 122.236 91.6969 123.052C91.6894 123.853 91.3862 124.545 90.7872 125.129C90.1958 125.713 89.3497 126.159 88.2492 126.466C87.1561 126.773 85.8646 126.923 84.3746 126.915C82.8997 126.923 81.6082 126.773 80.5001 126.466C79.3996 126.159 78.5498 125.713 77.9508 125.129C77.3519 124.545 77.0524 123.853 77.0524 123.052C77.0524 122.236 77.3519 121.532 77.9508 120.94C78.5498 120.341 79.3996 119.885 80.5001 119.57C81.6082 119.256 82.8997 119.099 84.3746 119.099ZM84.3746 121.053C82.8773 121.053 81.713 121.225 80.882 121.569C80.0584 121.914 79.6504 122.408 79.6579 123.052C79.6504 123.666 80.0584 124.137 80.882 124.467C81.713 124.796 82.8773 124.968 84.3746 124.983C85.872 124.968 87.0363 124.796 87.8673 124.467C88.6984 124.137 89.1139 123.666 89.1139 123.052C89.1139 122.408 88.6984 121.914 87.8673 121.569C87.0363 121.225 85.872 121.053 84.3746 121.053ZM91.4049 138.752H77.3219V131.924H91.4049V138.752ZM79.7926 136.73H88.9791V133.9H79.7926V136.73ZM93.651 130.307H75.1432V128.285H93.651V130.307ZM110.346 122.647H113.176V124.714H110.346V128.802H107.853V118.694H110.346V122.647ZM97.7227 126.005C100.628 125.968 103.39 125.695 106.011 125.186L106.303 127.229C104.79 127.536 103.301 127.757 101.833 127.892C100.366 128.019 98.8757 128.083 97.3634 128.083H96.8917H95.2071V119.593H97.7227V126.005ZM110.346 135.068H99.587V136.73H110.975V138.752H97.0938V133.159H107.83V131.654H97.0714V129.678H110.346V135.068ZM123.745 120.177C124.763 120.177 125.669 120.472 126.463 121.064C127.256 121.648 127.878 122.483 128.327 123.568C128.784 124.646 129.016 125.904 129.023 127.342C129.016 128.794 128.784 130.063 128.327 131.149C127.878 132.235 127.256 133.069 126.463 133.653C125.669 134.237 124.763 134.529 123.745 134.529C122.719 134.529 121.806 134.237 121.005 133.653C120.204 133.062 119.579 132.223 119.129 131.138C118.68 130.052 118.459 128.787 118.467 127.342C118.459 125.912 118.68 124.654 119.129 123.568C119.579 122.483 120.204 121.648 121.005 121.064C121.806 120.472 122.719 120.177 123.745 120.177ZM123.745 122.423C123.176 122.423 122.674 122.621 122.24 123.018C121.806 123.407 121.469 123.973 121.229 124.714C120.99 125.448 120.87 126.324 120.87 127.342C120.87 128.368 120.99 129.251 121.229 129.992C121.469 130.733 121.806 131.302 122.24 131.699C122.674 132.089 123.176 132.283 123.745 132.283C124.322 132.283 124.827 132.089 125.261 131.699C125.695 131.302 126.029 130.733 126.261 129.992C126.5 129.251 126.62 128.368 126.62 127.342C126.62 126.324 126.5 125.444 126.261 124.703C126.029 123.961 125.695 123.396 125.261 123.007C124.827 122.618 124.322 122.423 123.745 122.423ZM134.189 126.488H137.311V128.6H134.189V138.999H131.696V118.694H134.189V126.488ZM149.514 122.827H145.179C145.187 123.591 145.385 124.328 145.774 125.04C146.164 125.743 146.736 126.368 147.493 126.915C148.249 127.462 149.155 127.873 150.21 128.15L149.042 130.104C147.874 129.783 146.86 129.292 145.999 128.633C145.145 127.974 144.475 127.188 143.989 126.275C143.517 127.271 142.851 128.135 141.99 128.869C141.129 129.595 140.103 130.134 138.913 130.486L137.745 128.577C138.785 128.263 139.676 127.81 140.417 127.218C141.159 126.627 141.72 125.953 142.102 125.197C142.484 124.433 142.678 123.643 142.686 122.827H138.351V120.851H142.686V118.627H145.202V120.851H149.514V122.827ZM154.388 130.644H151.872V118.717H154.388V130.644ZM154.388 138.752H140.912V131.564H154.388V138.752ZM143.382 136.73H151.94V133.563H143.382V136.73ZM174.182 138.999H171.779V118.694H174.182V138.999ZM170.005 138.011H167.624V128.353H165.692C165.617 129.663 165.385 130.801 164.996 131.767C164.614 132.725 164.101 133.462 163.457 133.979C162.813 134.488 162.076 134.739 161.245 134.731C160.369 134.739 159.598 134.451 158.931 133.867C158.273 133.275 157.764 132.433 157.404 131.34C157.045 130.239 156.865 128.951 156.865 127.477C156.865 126.002 157.045 124.721 157.404 123.636C157.764 122.543 158.273 121.704 158.931 121.12C159.598 120.536 160.369 120.244 161.245 120.244C162.061 120.244 162.784 120.487 163.412 120.974C164.049 121.461 164.558 122.161 164.94 123.074C165.329 123.988 165.572 125.073 165.67 126.331H167.624V119.054H170.005V138.011ZM161.245 122.603C160.818 122.595 160.448 122.778 160.133 123.153C159.819 123.527 159.579 124.081 159.414 124.815C159.25 125.549 159.171 126.436 159.179 127.477C159.171 128.517 159.25 129.404 159.414 130.138C159.579 130.872 159.819 131.426 160.133 131.8C160.448 132.175 160.818 132.358 161.245 132.351C161.926 132.366 162.454 131.95 162.828 131.104C163.21 130.258 163.401 129.049 163.401 127.477C163.401 125.904 163.21 124.695 162.828 123.849C162.454 123.003 161.926 122.588 161.245 122.603ZM197.622 128.981H195.129V127.207H190.232V125.298H195.129V123.299H190.49C189.24 126.361 186.331 128.405 181.764 129.431L180.888 127.387C183.217 126.908 185.002 126.17 186.245 125.174C187.496 124.179 188.211 122.984 188.39 121.592H182.011V119.57H191.176C191.176 120.162 191.127 120.768 191.03 121.39H195.129V118.694H197.622V128.981ZM197.622 135.113H186.773V136.798H198.161V138.797H184.28V133.249H195.129V131.744H184.258V129.768H197.622V135.113ZM211.15 122.243C211.15 123.576 211.116 124.837 211.048 126.028C210.989 127.211 210.835 128.57 210.588 130.104L208.117 129.902C208.334 128.525 208.477 127.282 208.544 126.174C208.619 125.066 208.66 123.943 208.668 122.805H200.705V120.806H211.15V122.243ZM206.028 132.598C208.334 132.508 210.378 132.351 212.16 132.126L212.295 133.99C209.166 134.484 205.332 134.731 200.795 134.731H199.874L199.627 132.732C201.379 132.717 202.689 132.699 203.558 132.676V126.601H206.028V132.598ZM215.732 126.96H218.674V129.071H215.732V138.999H213.216V118.694H215.732V126.96ZM239.777 123.411H242.607V125.478H239.777V130.531H237.284V118.694H239.777V123.411ZM226.93 122.647H231.669V119.885H234.14V129.453H224.459V119.885H226.93V122.647ZM231.669 127.477V124.579H226.93V127.477H231.669ZM239.912 133.519H229.176V136.73H240.294V138.707H226.683V131.52H239.912V133.519ZM248.409 120.177C249.427 120.177 250.333 120.472 251.126 121.064C251.92 121.648 252.541 122.483 252.991 123.568C253.447 124.646 253.68 125.904 253.687 127.342C253.68 128.794 253.447 130.063 252.991 131.149C252.541 132.235 251.92 133.069 251.126 133.653C250.333 134.237 249.427 134.529 248.409 134.529C247.383 134.529 246.47 134.237 245.668 133.653C244.867 133.062 244.242 132.223 243.793 131.138C243.344 130.052 243.123 128.787 243.13 127.342C243.123 125.912 243.344 124.654 243.793 123.568C244.242 122.483 244.867 121.648 245.668 121.064C246.47 120.472 247.383 120.177 248.409 120.177ZM248.409 122.423C247.84 122.423 247.338 122.621 246.904 123.018C246.47 123.407 246.133 123.973 245.893 124.714C245.653 125.448 245.534 126.324 245.534 127.342C245.534 128.368 245.653 129.251 245.893 129.992C246.133 130.733 246.47 131.302 246.904 131.699C247.338 132.089 247.84 132.283 248.409 132.283C248.985 132.283 249.491 132.089 249.925 131.699C250.359 131.302 250.692 130.733 250.924 129.992C251.164 129.251 251.284 128.368 251.284 127.342C251.284 126.324 251.164 125.444 250.924 124.703C250.692 123.961 250.359 123.396 249.925 123.007C249.491 122.618 248.985 122.423 248.409 122.423ZM258.853 126.488H261.975V128.6H258.853V138.999H256.36V118.694H258.853V126.488ZM280.691 136.551H262.139V134.507H270.135V130.554H264.183V120.042H266.676V123.366H276.087V120.042H278.58V130.554H272.605V134.507H280.691V136.551ZM276.087 128.532V125.365H266.676V128.532H276.087ZM287.661 124.018C287.661 125.156 287.795 126.26 288.065 127.331C288.342 128.401 288.772 129.382 289.356 130.273C289.94 131.164 290.67 131.886 291.546 132.44L290.176 134.35C289.293 133.818 288.544 133.107 287.93 132.216C287.316 131.317 286.833 130.288 286.481 129.127C286.099 130.393 285.579 131.516 284.92 132.497C284.261 133.477 283.468 134.252 282.539 134.821L280.99 132.957C281.94 132.381 282.734 131.624 283.37 130.688C284.007 129.753 284.479 128.723 284.786 127.6C285.1 126.477 285.257 125.32 285.257 124.13V120.491H287.661V124.018ZM298.846 138.999H296.443V118.694H298.846V138.999ZM294.623 138.011H292.265V127.746H289.368V125.68H292.265V119.054H294.623V138.011ZM319.067 136.528H300.514V134.484H304.805V129.352C303.981 128.873 303.341 128.278 302.884 127.566C302.435 126.855 302.214 126.054 302.221 125.163C302.214 124.107 302.532 123.172 303.176 122.355C303.82 121.539 304.715 120.91 305.86 120.469C307.006 120.02 308.301 119.795 309.746 119.795C311.198 119.795 312.497 120.02 313.643 120.469C314.796 120.91 315.694 121.539 316.338 122.355C316.99 123.164 317.315 124.1 317.315 125.163C317.315 126.032 317.094 126.821 316.653 127.533C316.218 128.236 315.601 128.824 314.8 129.296V134.484H319.067V136.528ZM309.746 121.771C308.735 121.771 307.844 121.91 307.073 122.187C306.309 122.457 305.714 122.846 305.287 123.355C304.868 123.864 304.662 124.467 304.67 125.163C304.662 125.852 304.868 126.451 305.287 126.96C305.714 127.469 306.313 127.862 307.084 128.139C307.855 128.416 308.743 128.555 309.746 128.555C310.749 128.555 311.636 128.416 312.408 128.139C313.186 127.862 313.789 127.469 314.216 126.96C314.65 126.451 314.867 125.852 314.867 125.163C314.867 124.474 314.65 123.875 314.216 123.366C313.789 122.85 313.19 122.457 312.419 122.187C311.648 121.91 310.757 121.771 309.746 121.771ZM312.262 134.484V130.25C311.468 130.423 310.629 130.509 309.746 130.509C308.9 130.509 308.076 130.426 307.275 130.262V134.484H312.262Z" fill="black"/>
<path d="M88.3034 190.137C87.629 190.137 87.0092 189.989 86.4441 189.692C85.8835 189.392 85.4232 188.888 85.0632 188.182C84.7077 187.475 84.53 186.541 84.53 185.379C84.53 184.244 84.6849 183.271 84.9948 182.46C85.3093 181.644 85.7559 181.024 86.3347 180.601C86.918 180.177 87.6062 179.965 88.3991 179.965C88.9916 179.965 89.5248 180.081 89.9988 180.313C90.4773 180.541 90.8646 180.86 91.1609 181.271C91.4571 181.681 91.6439 182.148 91.7214 182.672H90.2312C90.1309 182.253 89.9213 181.915 89.6023 181.66C89.2833 181.405 88.8822 181.277 88.3991 181.277C87.8933 181.277 87.4581 181.421 87.0935 181.708C86.7335 181.991 86.4577 182.401 86.2663 182.938C86.0749 183.472 85.9792 184.107 85.9792 184.846H86.0886C86.3575 184.426 86.7129 184.098 87.155 183.861C87.6016 183.624 88.0938 183.506 88.6316 183.506C89.2149 183.506 89.7504 183.647 90.238 183.93C90.7256 184.208 91.1107 184.595 91.3933 185.092C91.6758 185.584 91.8171 186.14 91.8171 186.76C91.8171 187.393 91.6713 187.967 91.3796 188.482C91.0879 188.993 90.6755 189.396 90.1423 189.692C89.6091 189.989 88.9961 190.137 88.3034 190.137ZM88.2624 188.879C88.6543 188.879 89.0098 188.785 89.3288 188.599C89.6478 188.412 89.8985 188.159 90.0808 187.84C90.2631 187.521 90.3542 187.17 90.3542 186.787C90.3542 186.413 90.2654 186.069 90.0876 185.755C89.9099 185.44 89.6638 185.192 89.3493 185.01C89.0394 184.827 88.6908 184.736 88.3034 184.736C87.907 184.736 87.5446 184.832 87.2165 185.023C86.893 185.21 86.6355 185.463 86.4441 185.782C86.2572 186.097 86.1615 186.436 86.157 186.801C86.1615 187.165 86.2549 187.507 86.4372 187.826C86.6195 188.145 86.8702 188.4 87.1892 188.592C87.5127 188.783 87.8705 188.879 88.2624 188.879ZM97.2109 182.029C97.2064 182.768 97.3408 183.494 97.6143 184.21C97.8923 184.921 98.2773 185.554 98.7695 186.11C99.2663 186.666 99.8268 187.083 100.451 187.361L99.6719 188.387C98.9746 188.054 98.3571 187.564 97.8193 186.917C97.2816 186.265 96.8669 185.518 96.5752 184.675C96.2881 185.582 95.8688 186.384 95.3174 187.081C94.7705 187.778 94.1348 188.305 93.4102 188.66L92.6172 187.566C93.2507 187.284 93.8158 186.855 94.3125 186.281C94.8138 185.707 95.2035 185.049 95.4814 184.306C95.7594 183.558 95.8984 182.799 95.8984 182.029V179.938H97.2109V182.029ZM102.857 191.189H101.559V178.912H102.857V191.189ZM114.158 182.535H115.935V183.615H114.158V187.812H112.845V178.912H114.158V182.535ZM110.835 179.842C110.835 180.899 110.605 181.863 110.145 182.733C109.685 183.604 109.021 184.356 108.156 184.989C107.294 185.618 106.264 186.113 105.066 186.473L104.519 185.434C105.471 185.146 106.298 184.78 107 184.333C107.707 183.886 108.265 183.374 108.675 182.795C109.09 182.216 109.338 181.592 109.42 180.922H105.038V179.842H110.835ZM114.663 190.902H106.378V186.896H107.691V189.85H114.663V190.902Z" fill="black" fill-opacity="0.6"/>
<rect x="72" y="202" width="56" height="195" rx="12" fill="#F2F2F2" stroke="#B3B3B3" stroke-linecap="round" stroke-linejoin="round" stroke-dasharray="5 5"/>
<path d="M89.6638 419L93.2218 409.099H94.967L98.525 419H96.9248L96.0208 416.385H92.1631L91.2591 419H89.6638ZM95.5858 415.123L94.1306 410.907H94.0533L92.5982 415.123H95.5858ZM103.192 411.028C103.188 411.744 103.316 412.451 103.574 413.151C103.835 413.85 104.199 414.477 104.666 415.031C105.137 415.585 105.67 416.009 106.266 416.302L105.469 417.342C104.808 417 104.226 416.506 103.723 415.858C103.221 415.21 102.832 414.472 102.558 413.644C102.281 414.527 101.882 415.313 101.36 416.003C100.837 416.692 100.233 417.216 99.5467 417.574L98.7394 416.53C99.3549 416.233 99.9012 415.797 100.378 415.22C100.858 414.64 101.231 413.982 101.495 413.247C101.762 412.512 101.898 411.773 101.901 411.028V408.93H103.192V411.028ZM107.19 407.91H108.49V412.798H110.453V413.905H108.49V420.16H107.19V407.91Z" fill="black"/>
<mask id="mask0_474_119" style="mask-type:alpha" maskUnits="userSpaceOnUse" x="167" y="270" width="41" height="41">
<rect width="40" height="40" transform="matrix(1 0 0 -1 167.5 310.5)" fill="#D9D9D9"/>
</mask>
<g mask="url(#mask0_474_119)">
<path d="M197.654 293.847L174.584 282.439C174.291 282.294 173.978 282.275 173.646 282.382C173.313 282.489 173.071 282.696 172.92 283.002C172.769 283.308 172.748 283.623 172.858 283.949C172.969 284.275 173.177 284.514 173.483 284.665L196.553 296.073L186.771 299.382C186.435 299.496 186.192 299.704 186.042 300.008C185.892 300.312 185.874 300.632 185.987 300.967C186.101 301.303 186.309 301.546 186.613 301.696C186.916 301.846 187.236 301.864 187.572 301.75L199.959 297.56C200.363 297.424 200.656 297.172 200.837 296.806C201.018 296.44 201.04 296.055 200.903 295.65L196.713 283.263C196.6 282.928 196.391 282.685 196.087 282.535C195.783 282.385 195.464 282.366 195.128 282.48C194.793 282.593 194.55 282.802 194.4 283.105C194.25 283.409 194.232 283.729 194.345 284.064L197.654 293.847Z" fill="url(#paint0_linear_474_119)"/>
</g>
<rect x="138" y="330.5" width="91" height="30" rx="15" fill="#E1FBF0"/>
<path d="M154.75 349.5H153.341V341.705H153.29L151.094 343.14V341.807L153.379 340.309H154.75V349.5ZM157.207 349.589C157.046 349.589 156.894 349.549 156.75 349.468C156.611 349.388 156.501 349.278 156.42 349.138C156.34 348.999 156.302 348.848 156.306 348.688C156.302 348.527 156.34 348.376 156.42 348.237C156.501 348.097 156.611 347.987 156.75 347.907C156.894 347.826 157.046 347.786 157.207 347.786C157.364 347.786 157.512 347.826 157.652 347.907C157.791 347.987 157.901 348.097 157.982 348.237C158.066 348.376 158.109 348.527 158.109 348.688C158.109 348.848 158.066 348.999 157.982 349.138C157.901 349.278 157.791 349.388 157.652 349.468C157.512 349.549 157.364 349.589 157.207 349.589ZM162.406 349.627C161.78 349.627 161.217 349.521 160.718 349.31C160.223 349.098 159.831 348.802 159.543 348.421C159.26 348.036 159.11 347.596 159.093 347.101H160.515C160.532 347.367 160.623 347.6 160.788 347.799C160.957 347.998 161.181 348.152 161.46 348.262C161.74 348.368 162.051 348.421 162.394 348.421C162.757 348.421 163.085 348.357 163.377 348.23C163.669 348.104 163.898 347.928 164.063 347.704C164.228 347.475 164.311 347.215 164.311 346.923C164.311 346.622 164.228 346.354 164.063 346.117C163.898 345.88 163.659 345.696 163.346 345.564C163.037 345.429 162.669 345.361 162.241 345.361H161.454V344.219H162.241C162.584 344.219 162.891 344.157 163.162 344.035C163.432 343.912 163.642 343.741 163.79 343.521C163.942 343.3 164.019 343.047 164.019 342.759C164.019 342.479 163.953 342.234 163.822 342.022C163.691 341.811 163.504 341.646 163.263 341.527C163.022 341.409 162.741 341.35 162.419 341.35C162.106 341.35 161.816 341.405 161.549 341.515C161.283 341.625 161.067 341.781 160.902 341.984C160.741 342.188 160.654 342.424 160.642 342.695H159.296C159.309 342.209 159.455 341.775 159.734 341.394C160.017 341.009 160.396 340.711 160.87 340.499C161.344 340.287 161.865 340.182 162.432 340.182C163.016 340.182 163.53 340.294 163.974 340.518C164.423 340.742 164.768 341.047 165.009 341.432C165.25 341.813 165.368 342.23 165.364 342.683C165.368 343.199 165.222 343.639 164.926 344.003C164.634 344.363 164.239 344.604 163.739 344.727V344.79C164.361 344.879 164.846 345.118 165.193 345.507C165.544 345.897 165.72 346.385 165.72 346.974C165.72 347.477 165.576 347.932 165.288 348.338C165 348.74 164.605 349.056 164.101 349.284C163.597 349.513 163.033 349.627 162.406 349.627ZM168.126 342.975H170.297V340.258H171.414V347.773H166.983V340.258H168.126V342.975ZM170.297 346.796V343.927H168.126V346.796H170.297ZM176.39 350.579H175.235V344.65H173.826V350.021H172.683V339.42H173.826V343.66H175.235V339.204H176.39V350.579ZM189.759 341.616H191.105V342.606H189.759V345.171H188.591V339.204H189.759V341.616ZM181.748 341.235H182.891V339.737H183.881V344.625H180.758V339.737H181.748V341.235ZM182.891 343.686V342.162H181.748V343.686H182.891ZM185.532 341.235H186.661V339.737H187.664V344.625H184.529V339.737H185.532V341.235ZM186.661 343.686V342.162H185.532V343.686H186.661ZM189.759 348.421H183.399V349.5H190.165V350.465H182.205V347.532H188.578V346.58H182.193V345.628H189.759V348.421ZM200.328 343.647H202.156V344.663H200.328V350.604H199.135V339.204H200.328V343.647ZM197.116 344.409H193.13V346.872C194.184 346.868 195.093 346.84 195.859 346.79C196.63 346.735 197.408 346.635 198.195 346.491L198.31 347.469C197.467 347.625 196.636 347.733 195.815 347.792C194.998 347.847 194.014 347.879 192.863 347.888H191.937V343.432H195.923V341.21H191.911V340.232H197.116V344.409ZM212.852 349.157H202.442V348.154H204.93V345.184C204.456 344.921 204.088 344.589 203.826 344.187C203.564 343.785 203.432 343.334 203.432 342.835C203.432 342.247 203.61 341.728 203.966 341.28C204.325 340.831 204.823 340.484 205.457 340.239C206.092 339.989 206.814 339.864 207.622 339.864C208.434 339.864 209.158 339.989 209.793 340.239C210.432 340.484 210.929 340.831 211.284 341.28C211.644 341.728 211.824 342.247 211.824 342.835C211.824 343.33 211.697 343.777 211.443 344.174C211.189 344.568 210.83 344.896 210.364 345.158V348.154H212.852V349.157ZM207.622 340.829C207.029 340.829 206.505 340.912 206.048 341.077C205.591 341.237 205.235 341.47 204.981 341.775C204.727 342.075 204.6 342.429 204.6 342.835C204.6 343.237 204.727 343.59 204.981 343.895C205.235 344.2 205.591 344.437 206.048 344.606C206.505 344.771 207.029 344.854 207.622 344.854C208.21 344.854 208.733 344.771 209.19 344.606C209.651 344.437 210.011 344.2 210.269 343.895C210.527 343.59 210.656 343.237 210.656 342.835C210.656 342.433 210.527 342.08 210.269 341.775C210.015 341.47 209.657 341.237 209.196 341.077C208.739 340.912 208.214 340.829 207.622 340.829ZM209.145 348.154V345.622C208.684 345.736 208.176 345.793 207.622 345.793C207.089 345.793 206.589 345.738 206.124 345.628V348.154H209.145ZM215.398 346.847H214.141L214.027 340.309H215.512L215.398 346.847ZM214.776 349.589C214.615 349.589 214.463 349.549 214.319 349.468C214.179 349.388 214.069 349.278 213.989 349.138C213.908 348.999 213.87 348.848 213.875 348.688C213.87 348.527 213.908 348.376 213.989 348.237C214.069 348.097 214.179 347.987 214.319 347.907C214.463 347.826 214.615 347.786 214.776 347.786C214.932 347.786 215.081 347.826 215.22 347.907C215.36 347.987 215.47 348.097 215.55 348.237C215.635 348.376 215.677 348.527 215.677 348.688C215.677 348.848 215.635 348.999 215.55 349.138C215.47 349.278 215.36 349.388 215.22 349.468C215.081 349.549 214.932 349.589 214.776 349.589Z" fill="#0F6643"/>
<path d="M235.543 344.639C236.198 345.026 236.198 345.974 235.543 346.361L226 352L226 339L235.543 344.639Z" fill="#E1FBF0"/>
<path d="M244.682 274.072V272.855L249.057 266.102H250.916V272.801H252.27V274.072H250.916V276H249.494V274.072H244.682ZM246.268 272.801H249.494V267.893H249.385L246.268 272.719V272.801ZM257.581 268.029C257.568 270.271 258.921 272.514 260.822 273.361L260.042 274.387C258.634 273.717 257.52 272.343 256.953 270.668C256.378 272.459 255.25 273.942 253.781 274.66L252.988 273.566C254.915 272.705 256.269 270.367 256.269 268.029V265.938H257.581V268.029ZM263.228 264.912V277.189H261.929V264.912H263.228ZM274.528 264.912V268.535H276.305V269.615H274.528V273.812H273.216V264.912H274.528ZM271.206 265.842C271.206 269.055 269.018 271.393 265.436 272.473L264.889 271.434C267.754 270.572 269.538 268.945 269.798 266.922H265.409V265.842H271.206ZM275.034 275.85V276.902H266.749V272.896H268.061V275.85H275.034ZM280.066 274.072V272.855L284.441 266.102H286.3V272.801H287.654V274.072H286.3V276H284.878V274.072H280.066ZM281.652 272.801H284.878V267.893H284.769L281.652 272.719V272.801ZM292.514 266.102V276H290.997V267.605H290.942L288.577 269.15V267.715L291.038 266.102H292.514ZM305.523 271.324V272.363H300.656V274.619H299.371V272.363H294.312V271.324H305.523ZM304.279 275.85V276.902H295.707V273.553H296.992V275.85H304.279ZM297.074 265.295V266.785H302.748V265.295H304.047V270.244H295.789V265.295H297.074ZM297.074 269.205H302.748V267.756H297.074V269.205Z" fill="black"/>
<g filter="url(#filter0_i_474_119)">
<rect x="247" y="288" width="56" height="109" rx="12" fill="url(#paint1_linear_474_119)"/>
</g>
<g filter="url(#filter1_ii_474_119)">
<path d="M288.887 349.221L285.593 346.28L279.24 349.457V345.104L270.534 349.457V345.11L261.956 349.457V340.28L271.475 335.457V339.81L280.181 335.457V339.81L288.887 335.457V349.221Z" fill="url(#paint2_linear_474_119)"/>
</g>
<path d="M262.842 415.427H251.675V414.369H256.606V413.184C255.842 413.136 255.18 413.009 254.619 412.802C254.058 412.593 253.627 412.311 253.324 411.956C253.021 411.602 252.869 411.188 252.869 410.714C252.869 410.215 253.048 409.781 253.406 409.414C253.767 409.043 254.276 408.758 254.933 408.558C255.594 408.358 256.366 408.258 257.249 408.258C258.129 408.258 258.898 408.358 259.555 408.558C260.216 408.758 260.725 409.043 261.083 409.414C261.44 409.781 261.619 410.215 261.619 410.714C261.619 411.188 261.468 411.602 261.165 411.956C260.865 412.311 260.435 412.593 259.874 412.802C259.317 413.009 258.657 413.136 257.897 413.184V414.369H262.842V415.427ZM253.082 416.341H254.387V418.845H261.585V419.909H253.082V416.341ZM254.218 410.714C254.215 411.017 254.334 411.276 254.576 411.492C254.821 411.705 255.17 411.868 255.625 411.981C256.082 412.09 256.624 412.147 257.249 412.15C257.874 412.147 258.414 412.09 258.869 411.981C259.326 411.868 259.678 411.705 259.922 411.492C260.167 411.276 260.29 411.017 260.29 410.714C260.29 410.424 260.167 410.174 259.922 409.965C259.678 409.752 259.326 409.589 258.869 409.477C258.411 409.36 257.871 409.302 257.249 409.302C256.627 409.302 256.087 409.36 255.63 409.477C255.175 409.589 254.826 409.752 254.581 409.965C254.336 410.174 254.215 410.424 254.218 410.714ZM267.913 411.028C267.913 411.773 268.044 412.501 268.305 413.213C268.566 413.922 268.933 414.554 269.407 415.108C269.881 415.66 270.424 416.072 271.036 416.346L270.253 417.39C269.563 417.045 268.961 416.546 268.445 415.892C267.929 415.234 267.536 414.48 267.266 413.629C266.988 414.528 266.589 415.328 266.067 416.027C265.548 416.726 264.942 417.255 264.249 417.613L263.427 416.568C264.046 416.272 264.595 415.832 265.076 415.249C265.556 414.665 265.928 414.005 266.192 413.267C266.46 412.529 266.595 411.782 266.598 411.028V408.93H267.913V411.028ZM269.692 411.981H272.424V407.91H273.71V420.184H272.424V413.035H269.692V411.981ZM276.958 412.034H279.303V409.085H280.492V412.498H282.121V408.162H283.359V419.57H282.121V413.581H280.492V417.139H275.725V409.085H276.958V412.034ZM279.303 416.066V413.078H276.958V416.066H279.303ZM284.601 407.91H285.848V420.16H284.601V407.91ZM297.281 420.184H295.976V407.91H297.281V420.184ZM287.555 413.126C287.555 412.266 287.688 411.512 287.956 410.864C288.227 410.213 288.602 409.712 289.082 409.36C289.562 409.006 290.109 408.829 290.721 408.829C291.33 408.829 291.873 409.006 292.35 409.36C292.83 409.715 293.206 410.218 293.477 410.869C293.747 411.517 293.883 412.269 293.883 413.126C293.883 413.99 293.747 414.747 293.477 415.398C293.206 416.049 292.83 416.552 292.35 416.907C291.873 417.258 291.33 417.434 290.721 417.434C290.109 417.434 289.562 417.258 289.082 416.907C288.602 416.552 288.227 416.049 287.956 415.398C287.688 414.747 287.555 413.99 287.555 413.126ZM288.807 413.126C288.807 413.765 288.887 414.32 289.048 414.794C289.21 415.268 289.434 415.632 289.72 415.887C290.01 416.141 290.344 416.269 290.721 416.269C291.098 416.269 291.43 416.141 291.717 415.887C292.004 415.632 292.226 415.268 292.384 414.794C292.545 414.32 292.626 413.765 292.626 413.126C292.626 412.491 292.545 411.939 292.384 411.468C292.226 410.994 292.004 410.63 291.717 410.376C291.43 410.121 291.098 409.992 290.721 409.989C290.344 409.992 290.01 410.123 289.72 410.381C289.434 410.635 289.21 410.999 289.048 411.473C288.887 411.944 288.807 412.495 288.807 413.126Z" fill="black"/>
<g opacity="0.4">
<path d="M140.56 443.244L138.844 444.356L138.322 443.428L140.144 442.5L138.322 441.572L138.844 440.644L140.56 441.755L140.468 439.715H141.532L141.44 441.755L143.156 440.644L143.678 441.572L141.856 442.5L143.678 443.428L143.156 444.356L141.44 443.244L141.532 445.284H140.468L140.56 443.244Z" fill="black"/>
<path d="M152.624 448H151.116V439.608H151.058L148.694 441.15V439.714L151.154 438.099H152.624V448ZM158.305 448.16C157.545 448.16 156.892 447.96 156.347 447.56C155.806 447.16 155.392 446.579 155.105 445.815C154.818 445.048 154.675 444.128 154.675 443.055C154.675 441.988 154.818 441.074 155.105 440.314C155.395 439.55 155.812 438.968 156.357 438.568C156.902 438.166 157.551 437.964 158.305 437.964C159.059 437.964 159.709 438.166 160.253 438.568C160.801 438.968 161.219 439.55 161.506 440.314C161.796 441.074 161.941 441.988 161.941 443.055C161.941 444.128 161.797 445.048 161.51 445.815C161.224 446.579 160.808 447.16 160.263 447.56C159.718 447.96 159.066 448.16 158.305 448.16ZM156.173 443.055C156.173 443.87 156.257 444.563 156.425 445.133C156.592 445.701 156.836 446.131 157.155 446.424C157.477 446.717 157.86 446.864 158.305 446.864C158.753 446.864 159.137 446.717 159.456 446.424C159.775 446.131 160.018 445.701 160.186 445.133C160.357 444.563 160.442 443.87 160.442 443.055C160.442 442.242 160.357 441.551 160.186 440.981C160.015 440.41 159.77 439.978 159.451 439.685C159.132 439.392 158.75 439.245 158.305 439.245C157.864 439.245 157.483 439.392 157.164 439.685C156.845 439.978 156.6 440.41 156.43 440.981C156.259 441.551 156.173 442.242 156.173 443.055ZM166.666 448.16C165.905 448.16 165.253 447.96 164.708 447.56C164.167 447.16 163.752 446.579 163.466 445.815C163.179 445.048 163.035 444.128 163.035 443.055C163.035 441.988 163.179 441.074 163.466 440.314C163.756 439.55 164.173 438.968 164.718 438.568C165.262 438.166 165.912 437.964 166.666 437.964C167.42 437.964 168.069 438.166 168.614 438.568C169.162 438.968 169.579 439.55 169.866 440.314C170.156 441.074 170.301 441.988 170.301 443.055C170.301 444.128 170.158 445.048 169.871 445.815C169.584 446.579 169.168 447.16 168.624 447.56C168.079 447.96 167.426 448.16 166.666 448.16ZM164.534 443.055C164.534 443.87 164.618 444.563 164.785 445.133C164.953 445.701 165.196 446.131 165.515 446.424C165.838 446.717 166.221 446.864 166.666 446.864C167.114 446.864 167.497 446.717 167.816 446.424C168.135 446.131 168.379 445.701 168.546 445.133C168.717 444.563 168.803 443.87 168.803 443.055C168.803 442.242 168.717 441.551 168.546 440.981C168.376 440.41 168.131 439.978 167.812 439.685C167.493 439.392 167.111 439.245 166.666 439.245C166.224 439.245 165.844 439.392 165.525 439.685C165.206 439.978 164.961 440.41 164.79 440.981C164.619 441.551 164.534 442.242 164.534 443.055ZM181.374 444.142H180.078V442.329H177.405V443.33H171.715V437.834H177.405V438.839H180.078V436.91H181.374V444.142ZM176.134 442.281V438.873H173.001V442.281H176.134ZM173.131 446.825C173.128 446.335 173.293 445.915 173.625 445.564C173.957 445.212 174.433 444.945 175.055 444.761C175.678 444.574 176.416 444.481 177.27 444.481C178.124 444.481 178.86 444.574 179.479 444.761C180.101 444.945 180.578 445.212 180.91 445.564C181.245 445.915 181.413 446.335 181.413 446.825C181.413 447.312 181.245 447.729 180.91 448.077C180.578 448.425 180.101 448.69 179.479 448.87C178.86 449.051 178.124 449.141 177.27 449.141C176.412 449.141 175.673 449.051 175.051 448.87C174.429 448.69 173.952 448.425 173.62 448.077C173.291 447.729 173.128 447.312 173.131 446.825ZM174.417 446.825C174.414 447.096 174.525 447.33 174.751 447.526C174.977 447.723 175.304 447.873 175.732 447.976C176.161 448.079 176.673 448.131 177.27 448.131C177.863 448.131 178.372 448.079 178.797 447.976C179.226 447.873 179.555 447.723 179.783 447.526C180.012 447.33 180.127 447.096 180.127 446.825C180.127 446.542 180.012 446.3 179.783 446.1C179.558 445.9 179.231 445.749 178.802 445.646C178.377 445.543 177.866 445.489 177.27 445.486C176.67 445.489 176.156 445.543 175.727 445.646C175.302 445.749 174.977 445.9 174.751 446.1C174.525 446.3 174.414 446.542 174.417 446.825ZM180.078 441.266V439.883H177.405V441.266H180.078ZM196.331 443.214H195.036V440.072H192.454V439.018H195.036V436.91H196.331V443.214ZM186.078 442.228C186.706 442.028 187.249 441.735 187.707 441.348C188.168 440.961 188.521 440.512 188.766 439.999C189.014 439.487 189.138 438.944 189.138 438.37V437.307H190.434V438.37C190.43 438.889 190.548 439.389 190.787 439.869C191.025 440.346 191.368 440.768 191.816 441.135C192.264 441.5 192.791 441.777 193.397 441.967L192.706 442.977C192.039 442.748 191.457 442.413 190.961 441.972C190.464 441.53 190.078 441.013 189.8 440.42C189.533 441.087 189.14 441.667 188.621 442.16C188.105 442.65 187.488 443.017 186.769 443.262L186.078 442.228ZM188.321 443.794H196.331V446.835H189.621V447.966H196.752V449.006H188.345V445.858H195.046V444.819H188.321V443.794ZM209.132 444.162H204.274V446.535H202.988V444.162H197.922V443.103H209.132V444.162ZM199.319 445.375H200.614V447.845H207.89V448.909H199.319V445.375ZM199.362 437.485H207.682V441.836H199.362V437.485ZM206.401 440.811V438.51H200.634V440.811H206.401ZM223.08 449.16H221.774V436.91H223.08V449.16ZM213.015 445.878C214.62 445.114 215.838 444.184 216.669 443.088C217.504 441.989 217.986 440.715 218.115 439.265H213.609V438.23H219.439C219.433 440.128 218.977 441.812 218.071 443.282C217.169 444.751 215.712 445.966 213.701 446.927L213.015 445.878ZM234.88 438.539H231.162C231.182 438.974 231.373 439.389 231.738 439.782C232.102 440.175 232.593 440.509 233.212 440.782C233.831 441.053 234.517 441.237 235.271 441.334L234.778 442.358C234.079 442.265 233.43 442.099 232.83 441.86C232.231 441.619 231.712 441.316 231.274 440.952C230.838 440.587 230.511 440.178 230.292 439.724C230.073 440.178 229.746 440.587 229.311 440.952C228.876 441.316 228.358 441.619 227.759 441.86C227.163 442.099 226.515 442.265 225.816 442.358L225.337 441.334C226.091 441.237 226.776 441.053 227.392 440.782C228.007 440.509 228.495 440.175 228.856 439.782C229.221 439.389 229.414 438.974 229.437 438.539H225.738V437.495H234.88V438.539ZM224.699 443.146H235.91V444.205H231.051V446.574H229.765V444.205H224.699V443.146ZM226.096 445.404H227.392V447.845H234.667V448.909H226.096V445.404Z" fill="black"/>
</g>
<defs>
<filter id="filter0_i_474_119" x="247" y="288" width="56" height="113" filterUnits="userSpaceOnUse" color-interpolation-filters="sRGB">
<feFlood flood-opacity="0" result="BackgroundImageFix"/>
<feBlend mode="normal" in="SourceGraphic" in2="BackgroundImageFix" result="shape"/>
<feColorMatrix in="SourceAlpha" type="matrix" values="0 0 0 0 0 0 0 0 0 0 0 0 0 0 0 0 0 0 127 0" result="hardAlpha"/>
<feOffset dy="4"/>
<feGaussianBlur stdDeviation="10"/>
<feComposite in2="hardAlpha" operator="arithmetic" k2="-1" k3="1"/>
<feColorMatrix type="matrix" values="0 0 0 0 0.604699 0 0 0 0 1 0 0 0 0 0.96047 0 0 0 0.4 0"/>
<feBlend mode="normal" in2="shape" result="effect1_innerShadow_474_119"/>
</filter>
<filter id="filter1_ii_474_119" x="261.956" y="334.373" width="26.9316" height="15.0841" filterUnits="userSpaceOnUse" color-interpolation-filters="sRGB">
<feFlood flood-opacity="0" result="BackgroundImageFix"/>
<feBlend mode="normal" in="SourceGraphic" in2="BackgroundImageFix" result="shape"/>
<feColorMatrix in="SourceAlpha" type="matrix" values="0 0 0 0 0 0 0 0 0 0 0 0 0 0 0 0 0 0 127 0" result="hardAlpha"/>
<feOffset/>
<feGaussianBlur stdDeviation="5.42045"/>
<feComposite in2="hardAlpha" operator="arithmetic" k2="-1" k3="1"/>
<feColorMatrix type="matrix" values="0 0 0 0 1 0 0 0 0 1 0 0 0 0 1 0 0 0 1 0"/>
<feBlend mode="normal" in2="shape" result="effect1_innerShadow_474_119"/>
<feColorMatrix in="SourceAlpha" type="matrix" values="0 0 0 0 0 0 0 0 0 0 0 0 0 0 0 0 0 0 127 0" result="hardAlpha"/>
<feOffset dy="-1.08409"/>
<feGaussianBlur stdDeviation="2.16818"/>
<feComposite in2="hardAlpha" operator="arithmetic" k2="-1" k3="1"/>
<feColorMatrix type="matrix" values="0 0 0 0 1 0 0 0 0 1 0 0 0 0 1 0 0 0 0.6 0"/>
<feBlend mode="normal" in2="effect1_innerShadow_474_119" result="effect2_innerShadow_474_119"/>
</filter>
<linearGradient id="paint0_linear_474_119" x1="202.194" y1="297.386" x2="173.673" y2="283.277" gradientUnits="userSpaceOnUse">
<stop stop-color="#15C67F"/>
<stop offset="1" stop-color="#F2F2F2"/>
</linearGradient>
<linearGradient id="paint1_linear_474_119" x1="281.5" y1="397" x2="324.996" y2="158.282" gradientUnits="userSpaceOnUse">
<stop stop-color="#15C67F"/>
<stop offset="1" stop-color="#56ECD6"/>
</linearGradient>
<linearGradient id="paint2_linear_474_119" x1="275.421" y1="335.457" x2="275.507" y2="351.718" gradientUnits="userSpaceOnUse">
<stop offset="0.27185" stop-color="white"/>
<stop offset="0.597866" stop-color="#8DE7CA"/>
<stop offset="1" stop-color="white"/>
</linearGradient>
</defs>
</svg>
