<svg width="375" height="231" viewBox="0 0 375 231" fill="none" xmlns="http://www.w3.org/2000/svg">
<g clip-path="url(#clip0_474_150)">
<rect width="375" height="257" transform="matrix(1 0 0 -1 0 257)" fill="#E7F9F1"/>
<g filter="url(#filter0_d_474_150)">
<rect x="-39.513" y="63.4082" width="138" height="140" rx="4.93252" transform="rotate(-1 -39.513 63.4082)" fill="#FAFAFA"/>
<path d="M-18.8558 84.1791L-18.662 95.2792L-20.2321 95.3066L-20.4258 84.2065L-18.8558 84.1791ZM-24.8547 85.063C-23.1873 85.0339 -21.919 86.5458 -21.877 88.9557C-21.8345 91.3899 -23.0494 92.933 -24.7168 92.9621C-26.4208 92.9918 -27.6888 91.4921 -27.7191 89.0577C-27.7733 86.648 -26.5587 85.0928 -24.8547 85.063ZM-24.8303 86.4627C-25.6944 86.4778 -26.2507 87.3884 -26.2221 89.0315C-26.1932 90.6868 -25.6056 91.5653 -24.7415 91.5502C-23.9017 91.5356 -23.3451 90.6371 -23.374 88.9818C-23.4027 87.3387 -23.9905 86.448 -24.8303 86.4627ZM-7.49961 90.0927L-7.47772 91.3463L-9.76589 91.3862L-9.70067 95.1228L-11.2586 95.1499L-11.3238 91.4134L-13.7093 91.4551L-13.6441 95.1916L-15.202 95.2188L-15.2672 91.4822L-17.6163 91.5232L-17.6381 90.2696L-7.49961 90.0927ZM-11.8389 84.921C-11.8159 86.2355 -10.4271 87.6844 -7.92626 87.9695L-8.50055 89.2457C-10.4348 88.9873 -11.8748 88.0932 -12.6201 86.8948C-13.3293 88.1186 -14.7251 89.0622 -16.643 89.3878L-17.2737 88.1327C-14.7845 87.7483 -13.4467 86.2762 -13.4698 84.9495L-13.4792 84.414L-11.8482 84.3855L-11.8389 84.921ZM5.36506 89.4663L5.38631 90.6834L-4.74006 90.8602L-4.7613 89.6431L-0.477069 89.5683L-0.488966 88.8867L-3.5074 88.9394L-3.59047 84.1805L4.0895 84.0465L4.11032 85.2392L-2.01175 85.3461L-2.00091 85.9668L3.86556 85.8644L3.88511 86.9842L-1.98137 87.0866L-1.97032 87.7194L4.24912 87.6109L4.26994 88.8037L1.06894 88.8595L1.08083 89.5411L5.36506 89.4663ZM0.332049 91.283C2.77823 91.2281 4.18938 91.8609 4.22195 93.0292C4.2306 94.2221 2.84196 94.8795 0.395571 94.9222C-2.08734 94.9655 -3.49806 94.357 -3.51888 93.1643C-3.53928 91.9958 -2.15107 91.3142 0.332049 91.283ZM0.35202 92.4271C-1.2424 92.4549 -1.98122 92.6748 -1.96098 93.1371C-1.96486 93.612 -1.21881 93.8059 0.375601 93.7781C1.9335 93.7509 2.66016 93.5312 2.66404 93.0564C2.6438 92.5941 1.90992 92.3999 0.35202 92.4271ZM14.3485 83.5995L14.395 86.265L15.8921 86.2389L15.9146 87.529L14.4175 87.5551L14.4617 90.0867L12.9038 90.1139L12.7906 83.6267L14.3485 83.5995ZM8.7609 90.6124L8.77556 91.4522L12.9259 91.3797L12.9113 90.5399L14.4692 90.5127L14.5397 94.5535L7.2857 94.6802L7.21517 90.6393L8.7609 90.6124ZM8.81019 93.4361L12.9605 93.3636L12.9467 92.5725L8.79638 92.6449L8.81019 93.4361ZM12.1503 84.6119L12.1716 85.829L5.59918 85.9437L5.57794 84.7266L8.09736 84.6826L8.07909 83.6359L9.62482 83.6089L9.64309 84.6557L12.1503 84.6119ZM8.8909 86.2028C10.4975 86.1748 11.6308 86.9342 11.6514 88.1148C11.672 89.2954 10.5659 90.0939 8.95931 90.1219C7.32838 90.1504 6.19505 89.391 6.17444 88.2104C6.15383 87.0298 7.25998 86.2313 8.8909 86.2028ZM8.91087 87.3469C8.16822 87.3477 7.67452 87.6607 7.69583 88.1838C7.693 88.7196 8.19712 89.003 8.93956 88.99C9.68199 88.977 10.1881 88.676 10.1787 88.1405C10.1696 87.6171 9.6531 87.3218 8.91087 87.3469ZM28.744 91.8585L28.7663 93.1364L18.6278 93.3134L18.6055 92.0354L20.8693 91.9959L20.8219 89.2818C19.9549 88.7855 19.424 88.0095 19.4069 87.0298C19.3756 85.2406 21.1074 84.0172 23.5173 83.9752C25.915 83.9333 27.7007 85.0953 27.7441 86.8842C27.7547 87.8398 27.2632 88.6275 26.4445 89.1593L26.4923 91.8978L28.744 91.8585ZM23.5388 85.2045C21.9565 85.2321 20.9209 85.8833 20.9404 87.003C20.9593 88.0862 22.0177 88.7374 23.6 88.7097C25.17 88.6823 26.2172 87.9944 26.2105 86.911C26.1788 85.7915 25.1089 85.1771 23.5388 85.2045ZM22.4029 91.9691L24.9223 91.9252L24.8847 89.7709C24.4905 89.8569 24.0652 89.9069 23.621 89.9147C23.1768 89.9224 22.7562 89.8933 22.3652 89.8149L22.4029 91.9691ZM39.1037 84.6284L39.1256 85.882L37.6894 85.9071L37.7092 87.039L39.1454 87.0139L39.1679 88.3041L37.7317 88.3292L37.7561 89.7288L36.1982 89.756L36.0841 83.2201L37.642 83.1929L37.6675 84.6535L39.1037 84.6284ZM37.7638 90.167L37.8354 94.2687L36.2775 94.2958L36.2278 91.4478L30.3248 91.5508L30.3029 90.2972L37.7638 90.167ZM31.9809 83.9005C33.6968 83.8584 35.0191 84.9797 35.0463 86.5376C35.0741 88.132 33.7914 89.2745 32.0753 89.3045C30.347 89.3346 29.0129 88.2378 28.9851 86.6434C28.9579 85.0855 30.2524 83.9185 31.9809 83.9005ZM32.0041 85.2272C31.1278 85.2424 30.4914 85.7527 30.5187 86.6167C30.522 87.5054 31.176 88.0053 32.0523 87.99C32.9043 87.9751 33.5404 87.4527 33.5371 86.564C33.5098 85.7 32.8561 85.2123 32.0041 85.2272ZM45.9812 85.5554C46.0175 87.6367 46.8926 89.6424 48.7566 90.4134L47.8289 91.6714C46.5891 91.0904 45.7483 90.0033 45.2681 88.6481C44.8066 90.1049 43.9753 91.3065 42.7204 91.9554L41.7247 90.7066C43.6085 89.8215 44.4352 87.6643 44.4111 85.5828L44.3822 83.9275L45.9523 83.9001L45.9812 85.5554ZM51.0979 82.9581L51.2917 94.0581L49.7581 94.0849L49.647 87.7194L47.4684 87.7574L47.4465 86.5038L49.6251 86.4658L49.5644 82.9848L51.0979 82.9581ZM61.4224 82.7779L61.6162 93.8779L60.0461 93.9053L59.8524 82.8053L61.4224 82.7779ZM54.269 83.7793L54.3161 86.4813L56.7017 86.4397L56.6545 83.7377L58.1881 83.7109L58.3213 91.3422L52.8443 91.4378L52.7111 83.8065L54.269 83.7793ZM54.3803 90.157L56.7658 90.1153L56.7227 87.6446L54.3372 87.6862L54.3803 90.157ZM68.4011 84.117C68.4293 85.7358 69.8959 87.4512 72.4106 87.8334L71.7515 89.1354C69.8157 88.7857 68.3606 87.7276 67.6236 86.3099C66.912 87.7407 65.4948 88.8551 63.5847 89.278L62.8928 87.9995C65.3437 87.5185 66.7617 85.7527 66.7458 84.1459L66.7318 83.3426L68.387 83.3137L68.4011 84.117ZM72.8314 91.0159L72.8537 92.2938L62.7151 92.4708L62.6928 91.1928L72.8314 91.0159ZM-18.4982 101.175L-18.3999 106.811L-19.9456 106.838L-19.9936 104.087L-22.0749 104.123L-22.0963 102.894L-20.0151 102.858L-20.044 101.202L-18.4982 101.175ZM-18.3918 107.273L-18.3402 110.231L-24.158 110.332L-24.1461 111.014L-18.0118 110.907L-17.9906 112.124L-25.6584 112.258L-25.7113 109.227L-19.8935 109.126L-19.9045 108.493L-25.7345 108.594L-25.7553 107.402L-18.3918 107.273ZM-23.6627 102.434C-23.6517 103.761 -22.8505 105.026 -21.0765 105.518L-21.8712 106.725C-23.0646 106.363 -23.9051 105.635 -24.4026 104.687C-24.8648 105.761 -25.7264 106.616 -27.0155 107.046L-27.8403 105.831C-26.0118 105.263 -25.2199 103.898 -25.2328 102.462L-25.2468 101.659L-23.6767 101.631L-23.6627 102.434ZM-7.21396 106.457L-7.19251 107.686L-11.3672 107.759L-11.3338 109.67L-12.8674 109.697L-12.9008 107.786L-17.331 107.863L-17.3525 106.634L-7.21396 106.457ZM-8.60337 101.49L-8.5322 105.567L-16.1026 105.699L-16.1738 101.622L-8.60337 101.49ZM-14.6314 102.8L-14.6023 104.468L-10.0746 104.389L-10.1037 102.721L-14.6314 102.8ZM-8.26105 110.639L-8.23938 111.881L-16.0654 112.017L-16.1217 108.792L-14.576 108.765L-14.5413 110.749L-8.26105 110.639ZM3.24907 109.33L3.27095 110.584L-6.86758 110.761L-6.88947 109.507L-2.60523 109.433L-2.64836 106.962L-1.09046 106.935L-1.04733 109.405L3.24907 109.33ZM2.22631 101.654L2.24819 102.907L-1.1232 102.966C-0.969914 104.425 0.42911 105.758 2.81462 106.063L2.22752 107.303C0.280278 106.996 -1.17248 106.072 -1.90744 104.77C-2.58999 106.121 -3.99702 107.119 -5.90172 107.506L-6.53173 106.287C-4.23787 105.876 -2.88067 104.464 -2.77848 102.995L-6.16204 103.054L-6.18393 101.801L2.22631 101.654ZM7.48023 103.23C7.50269 105.214 8.38972 107.207 10.1816 108.028L9.26607 109.286C8.06919 108.723 7.25286 107.641 6.76699 106.311C6.3113 107.755 5.47374 108.945 4.23084 109.581L3.24744 108.344C5.10671 107.447 5.95823 105.314 5.92233 103.257L5.89344 101.602L7.45134 101.575L7.48023 103.23ZM12.098 100.641L12.1726 104.913L13.8035 104.885L13.8264 106.199L12.1955 106.228L12.2913 111.717L10.7334 111.744L10.5401 100.669L12.098 100.641Z" fill="black"/>
<rect x="-27.3311" y="148.951" width="50.9693" height="43.5706" rx="3.28834" transform="rotate(-1 -27.3311 148.951)" fill="#D7EFE5"/>
<rect x="37.6038" y="147.818" width="50.9693" height="43.5706" rx="3.28834" transform="rotate(-1 37.6038 147.818)" fill="#D7EFE5"/>
<path d="M-9.34342 182.502C-10.6907 182.525 -11.8792 182.307 -12.9089 181.847C-13.939 181.365 -14.8104 180.63 -15.5232 179.643C-16.2361 178.655 -16.779 177.437 -17.1521 175.987C-17.5256 174.515 -17.7294 172.801 -17.7635 170.846C-17.8087 168.26 -17.542 166.103 -16.9635 164.376C-16.3854 162.627 -15.4955 161.307 -14.2937 160.416C-13.092 159.526 -11.6002 159.065 -9.81827 159.034C-8.47097 159.01 -7.28229 159.24 -6.25223 159.722C-5.22255 160.182 -4.35148 160.895 -3.63903 161.861C-2.90486 162.826 -2.35122 164.034 -1.97811 165.484C-1.60501 166.933 -1.40158 168.625 -1.36782 170.559C-1.33368 172.515 -1.47756 174.235 -1.79946 175.719C-2.12135 177.202 -2.62127 178.45 -3.2992 179.462C-3.97751 180.452 -4.82297 181.206 -5.83558 181.723C-6.82685 182.219 -7.99613 182.478 -9.34342 182.502ZM-9.4786 178.494C-8.89187 178.484 -8.38386 178.322 -7.95456 178.011C-7.52525 177.699 -7.17485 177.225 -6.90336 176.59C-6.61013 175.955 -6.40686 175.147 -6.29354 174.167C-6.18061 173.165 -6.1359 171.99 -6.15941 170.643C-6.18255 169.317 -6.27852 168.178 -6.44733 167.224C-6.59478 166.249 -6.81507 165.459 -7.10818 164.856C-7.37995 164.23 -7.7358 163.769 -8.17572 163.472C-8.61564 163.176 -9.12896 163.032 -9.71569 163.043C-10.2807 163.053 -10.7778 163.213 -11.2071 163.525C-11.6364 163.837 -11.9868 164.311 -12.2583 164.946C-12.5302 165.559 -12.7339 166.345 -12.8693 167.304C-12.983 168.262 -13.0281 169.415 -13.0046 170.763C-12.9807 172.132 -12.895 173.304 -12.7475 174.279C-12.5783 175.255 -12.3579 176.055 -12.0861 176.681C-11.7926 177.306 -11.4259 177.767 -10.986 178.064C-10.5461 178.36 -10.0436 178.504 -9.4786 178.494ZM7.48471 182.208C5.81146 182.237 4.42682 181.99 3.33081 181.466C2.2348 180.941 1.40587 180.151 0.844015 179.096C0.303516 178.019 0.00874541 176.698 -0.0402954 175.134L4.06679 175.062C4.14639 175.887 4.31045 176.568 4.55897 177.108C4.80711 177.625 5.15076 178.01 5.58993 178.263C6.02871 178.495 6.54147 178.605 7.12819 178.595C7.75838 178.584 8.27764 178.445 8.68597 178.177C9.09392 177.887 9.39132 177.491 9.57817 176.987C9.76464 176.462 9.85143 175.83 9.83853 175.092C9.82526 174.331 9.69493 173.714 9.44755 173.24C9.19979 172.744 8.82373 172.37 8.31937 172.118C7.81502 171.866 7.13909 171.748 6.2916 171.763L4.04249 171.802L3.9873 168.64L6.04084 168.604C6.73622 168.592 7.31037 168.484 7.7633 168.281C8.23758 168.055 8.60093 167.701 8.85335 167.218C9.10577 166.736 9.22497 166.092 9.21093 165.288C9.19993 164.658 9.09285 164.127 8.88969 163.696C8.70788 163.243 8.43018 162.9 8.05659 162.667C7.68299 162.435 7.2137 162.323 6.6487 162.333C6.17063 162.342 5.74897 162.468 5.38372 162.714C5.01848 162.959 4.72089 163.345 4.49095 163.871C4.28275 164.396 4.15345 165.083 4.10305 165.932L0.0285661 166.003C0.0222279 164.394 0.281588 163.064 0.806645 162.011C1.33132 160.937 2.08892 160.13 3.07942 159.591C4.09165 159.052 5.30401 158.77 6.7165 158.745C8.10726 158.721 9.32816 158.928 10.3792 159.366C11.4302 159.804 12.2569 160.464 12.8592 161.344C13.4828 162.203 13.8056 163.263 13.8276 164.523C13.8504 165.827 13.5653 166.929 12.9724 167.831C12.3791 168.711 11.5432 169.388 10.4646 169.864C9.40777 170.339 8.14052 170.589 6.66284 170.615L4.90266 170.646L4.88616 169.7L7.20047 169.66C8.83026 169.631 10.1926 169.847 11.2875 170.306C12.382 170.743 13.1978 171.403 13.7348 172.285C14.2937 173.166 14.5844 174.259 14.6072 175.563C14.6307 176.91 14.3685 178.078 13.8206 179.065C13.2723 180.031 12.4596 180.795 11.3826 181.358C10.3269 181.898 9.02758 182.181 7.48471 182.208Z" fill="url(#paint0_linear_474_150)"/>
<path d="M55.7553 181.366C54.169 181.393 52.8169 181.145 51.6992 180.621C50.5814 180.097 49.731 179.319 49.1478 178.286C48.5859 177.23 48.2809 175.942 48.2326 174.421L52.3722 174.349C52.4511 175.13 52.6146 175.78 52.8627 176.297C53.1105 176.793 53.4429 177.156 53.86 177.388C54.2766 177.598 54.7783 177.698 55.3651 177.688C56.0387 177.676 56.5793 177.515 56.9869 177.203C57.4162 176.891 57.7233 176.429 57.9083 175.818C58.0932 175.206 58.1779 174.454 58.1624 173.563C58.1461 172.629 58.0135 171.881 57.7646 171.321C57.537 170.738 57.1817 170.309 56.6987 170.035C56.2375 169.76 55.6809 169.629 55.0289 169.64C54.5074 169.649 53.9881 169.789 53.4712 170.059C52.9538 170.307 52.4833 170.75 52.0597 171.387L48.6371 171.447L49.3537 158.327L61.0882 158.122L61.1571 162.066L52.454 162.218L53.4121 159.202L52.7702 169.125L50.8773 169.028C51.2151 168.457 51.6305 167.971 52.1235 167.572C52.6382 167.171 53.2198 166.868 53.8683 166.661C54.5386 166.453 55.254 166.343 56.0145 166.33C57.4705 166.304 58.7032 166.565 59.7127 167.113C60.7221 167.661 61.4863 168.473 62.005 169.551C62.5455 170.628 62.8294 171.949 62.8567 173.514C62.8867 175.231 62.6401 176.67 62.117 177.831C61.5934 178.97 60.8044 179.843 59.7498 180.448C58.6949 181.032 57.3634 181.338 55.7553 181.366ZM64.1479 180.893L64.0927 177.731L69.4819 170.79C70.1831 169.865 70.7667 169.05 71.2326 168.347C71.6981 167.621 72.0341 166.941 72.2404 166.307C72.468 165.651 72.5758 164.976 72.5637 164.28C72.5527 163.65 72.4563 163.108 72.2744 162.655C72.0926 162.202 71.8149 161.859 71.4413 161.626C71.0891 161.371 70.6305 161.249 70.0655 161.259C69.6091 161.267 69.1879 161.415 68.8016 161.705C68.4372 161.994 68.1411 162.466 67.9134 163.122C67.6854 163.757 67.5589 164.607 67.5341 165.672L63.3292 165.746C63.3404 163.898 63.6183 162.382 64.1628 161.199C64.7069 159.994 65.4958 159.111 66.5294 158.549C67.5626 157.966 68.8072 157.662 70.2631 157.636C71.7408 157.61 73.0055 157.838 74.0573 158.32C75.1087 158.78 75.9034 159.472 76.4412 160.398C77.0008 161.323 77.2925 162.47 77.3164 163.839C77.3312 164.686 77.2158 165.547 76.9702 166.42C76.7242 167.273 76.3271 168.182 75.7788 169.148C75.2305 170.114 74.4877 171.148 73.5506 172.251L67.7376 179.2L68.0872 176.814L78.1919 176.637L78.2619 180.647L64.1479 180.893Z" fill="#15C67F"/>
<path d="M55.7553 181.366C54.169 181.393 52.8169 181.145 51.6992 180.621C50.5814 180.097 49.731 179.319 49.1478 178.286C48.5859 177.23 48.2809 175.942 48.2326 174.421L52.3722 174.349C52.4511 175.13 52.6146 175.78 52.8627 176.297C53.1105 176.793 53.4429 177.156 53.86 177.388C54.2766 177.598 54.7783 177.698 55.3651 177.688C56.0387 177.676 56.5793 177.515 56.9869 177.203C57.4162 176.891 57.7233 176.429 57.9083 175.818C58.0932 175.206 58.1779 174.454 58.1624 173.563C58.1461 172.629 58.0135 171.881 57.7646 171.321C57.537 170.738 57.1817 170.309 56.6987 170.035C56.2375 169.76 55.6809 169.629 55.0289 169.64C54.5074 169.649 53.9881 169.789 53.4712 170.059C52.9538 170.307 52.4833 170.75 52.0597 171.387L48.6371 171.447L49.3537 158.327L61.0882 158.122L61.1571 162.066L52.454 162.218L53.4121 159.202L52.7702 169.125L50.8773 169.028C51.2151 168.457 51.6305 167.971 52.1235 167.572C52.6382 167.171 53.2198 166.868 53.8683 166.661C54.5386 166.453 55.254 166.343 56.0145 166.33C57.4705 166.304 58.7032 166.565 59.7127 167.113C60.7221 167.661 61.4863 168.473 62.005 169.551C62.5455 170.628 62.8294 171.949 62.8567 173.514C62.8867 175.231 62.6401 176.67 62.117 177.831C61.5934 178.97 60.8044 179.843 59.7498 180.448C58.6949 181.032 57.3634 181.338 55.7553 181.366ZM64.1479 180.893L64.0927 177.731L69.4819 170.79C70.1831 169.865 70.7667 169.05 71.2326 168.347C71.6981 167.621 72.0341 166.941 72.2404 166.307C72.468 165.651 72.5758 164.976 72.5637 164.28C72.5527 163.65 72.4563 163.108 72.2744 162.655C72.0926 162.202 71.8149 161.859 71.4413 161.626C71.0891 161.371 70.6305 161.249 70.0655 161.259C69.6091 161.267 69.1879 161.415 68.8016 161.705C68.4372 161.994 68.1411 162.466 67.9134 163.122C67.6854 163.757 67.5589 164.607 67.5341 165.672L63.3292 165.746C63.3404 163.898 63.6183 162.382 64.1628 161.199C64.7069 159.994 65.4958 159.111 66.5294 158.549C67.5626 157.966 68.8072 157.662 70.2631 157.636C71.7408 157.61 73.0055 157.838 74.0573 158.32C75.1087 158.78 75.9034 159.472 76.4412 160.398C77.0008 161.323 77.2925 162.47 77.3164 163.839C77.3312 164.686 77.2158 165.547 76.9702 166.42C76.7242 167.273 76.3271 168.182 75.7788 169.148C75.2305 170.114 74.4877 171.148 73.5506 172.251L67.7376 179.2L68.0872 176.814L78.1919 176.637L78.2619 180.647L64.1479 180.893Z" fill="url(#paint1_linear_474_150)"/>
<path d="M30.9473 175.963C29.86 175.982 28.947 175.112 28.9406 174.025C28.9094 172.963 29.7918 172.075 30.8789 172.043C31.9284 172.038 32.8412 172.894 32.8598 173.956C32.8788 175.044 31.9966 175.944 30.9473 175.963ZM28.7694 164.214C28.7382 163.152 29.6206 162.264 30.7076 162.233C31.7572 162.227 32.67 163.084 32.6885 164.146C32.7075 165.233 31.8253 166.134 30.776 166.152C29.6888 166.171 28.7757 165.302 28.7694 164.214Z" fill="black"/>
<path d="M-19.7366 132.891L-19.6549 137.567L-20.6185 137.584L-20.6592 135.251L-22.5762 135.285L-22.5898 134.504L-20.6728 134.47L-20.7001 132.908L-19.7366 132.891ZM-27.2746 136.97C-25.8626 136.494 -25.0354 135.348 -25.0526 134.07L-25.0664 133.279L-24.113 133.262L-24.0992 134.053C-24.079 135.209 -23.2286 136.27 -21.8517 136.682L-22.3457 137.442C-23.3508 137.114 -24.1184 136.443 -24.5341 135.583C-24.9126 136.568 -25.6753 137.343 -26.7439 137.731L-27.2746 136.97ZM-25.5778 138.858L-25.5911 138.097L-19.6475 137.993L-19.608 140.255L-24.588 140.342L-24.5733 141.184L-19.2789 141.091L-19.2655 141.862L-25.5032 141.971L-25.5441 139.628L-20.5742 139.541L-20.5876 138.77L-25.5778 138.858ZM-10.2615 137.322L-10.2478 138.103L-13.8586 138.166L-13.8278 139.931L-14.7812 139.947L-14.812 138.183L-18.5648 138.248L-18.5784 137.467L-10.2615 137.322ZM-17.4688 141.75L-17.5145 139.133L-16.5509 139.116L-16.5189 140.952L-11.123 140.858L-11.1094 141.639L-17.4688 141.75ZM-17.5299 136.505L-17.5862 133.28L-11.4094 133.172L-11.3531 136.398L-17.5299 136.505ZM-16.5999 135.728L-12.3197 135.653L-12.3495 133.95L-16.6297 134.024L-16.5999 135.728ZM-4.99391 133.04C-3.66523 133.017 -2.71937 133.731 -2.69028 134.816C-2.68432 135.739 -3.37238 136.426 -4.42429 136.611L-4.41013 137.423C-3.60966 137.363 -2.79958 137.273 -2.05097 137.148L-1.96758 137.857C-3.86837 138.235 -6.00784 138.308 -7.56989 138.33L-7.68494 137.551C-7.0053 137.544 -6.2092 137.525 -5.37296 137.48L-5.38766 136.638C-6.47557 136.505 -7.21272 135.833 -7.22402 134.895C-7.24804 133.81 -6.32767 133.063 -4.99391 133.04ZM-6.32655 141.555L-6.37099 139.009L-5.40744 138.993L-5.37681 140.747L-0.143236 140.656L-0.129427 141.447L-6.32655 141.555ZM-6.32133 134.879C-6.32023 135.523 -5.7449 135.934 -4.94364 135.92C-4.1373 135.906 -3.59187 135.476 -3.60312 134.832C-3.61462 134.172 -4.17465 133.766 -4.98099 133.78C-5.78226 133.794 -6.34298 134.22 -6.32133 134.879ZM-1.45135 139.532L-1.57262 132.585L-0.609076 132.568L-0.556672 135.57L0.741579 135.547L0.755743 136.359L-0.542509 136.381L-0.487804 139.515L-1.45135 139.532ZM9.34728 139.577L9.36144 140.388L1.04452 140.534L1.03035 139.722L3.30229 139.683L3.27432 138.08L2.01664 138.102L1.96618 135.211L7.30119 135.118L7.27906 133.85L1.92377 133.944L1.90996 133.153L8.21865 133.043L8.26822 135.883L2.93322 135.976L2.95624 137.294L8.50423 137.197L8.51804 137.989L7.13865 138.013L7.16662 139.615L9.34728 139.577ZM4.23541 139.666L6.22336 139.632L6.19539 138.029L4.20744 138.064L4.23541 139.666ZM15.1708 134.595C15.1896 136.254 16.2229 137.91 17.6436 138.509L17.0788 139.28C16.0254 138.801 15.181 137.796 14.7333 136.561C14.3357 137.902 13.5181 139.012 12.437 139.564L11.8346 138.763C13.2536 138.104 14.2274 136.347 14.1971 134.612L14.17 133.061L15.1437 133.044L15.1708 134.595ZM18.5148 141.335L18.3558 132.227L19.3193 132.21L19.4783 141.318L18.5148 141.335ZM27.5985 132.065L27.6454 134.753L28.964 134.73L28.978 135.531L27.6594 135.554L27.7138 138.668L26.7401 138.685L26.6248 132.082L27.5985 132.065ZM20.5324 137.028C22.6512 136.352 23.9486 135.117 24.1101 133.617L20.8594 133.674L20.8454 132.873L25.1459 132.798C25.1875 135.181 23.5949 136.939 20.9516 137.792L20.5324 137.028ZM21.9826 141.061L21.9308 138.089L22.9045 138.072L22.9427 140.263L28.1154 140.173L28.1291 140.954L21.9826 141.061Z" fill="black"/>
<path d="M-22.8411 170.662L19.4899 169.923" stroke="#D7EFE5" stroke-width="1.15092"/>
<path d="M42.0938 169.528L84.4248 168.789" stroke="#D7EFE5" stroke-width="1.15092"/>
</g>
<g filter="url(#filter1_d_474_150)">
<rect x="119.795" y="61" width="138" height="140" rx="4.93252" transform="rotate(2 119.795 61)" fill="#FAFAFA"/>
<path d="M145.712 78.2184L143.839 76.4254L140.045 78.1593L140.134 75.6042L134.936 77.9808L135.025 75.4297L129.902 77.8051L130.09 72.4197L135.775 69.7844L135.686 72.3385L140.885 69.9629L140.795 72.517L145.994 70.1413L145.712 78.2184Z" fill="#E1E5E5"/>
<path d="M139.617 82.8334L139.23 93.904L137.734 93.8518L137.931 88.2191L136.921 88.1839L136.741 93.3299L135.293 93.2793L135.653 82.9873L137.101 83.0378L136.964 86.943L137.974 86.9782L138.121 82.7811L139.617 82.8334ZM134.837 84.0307C134.717 87.1203 133.704 89.6184 130.526 91.3223L129.663 90.2203C131.966 88.9731 132.99 87.3828 133.285 85.2189L130.402 85.1182L130.445 83.8773L134.837 84.0307ZM149.729 83.1987L149.452 91.155L147.894 91.1006L148.172 83.1443L149.729 83.1987ZM149.685 92.8318L149.642 94.0727L141.929 93.8034L142.059 90.0929L143.628 90.1477L143.542 92.6173L149.685 92.8318ZM143.634 83.6923C145.337 83.7518 146.623 84.966 146.566 86.584C146.508 88.2385 145.142 89.3479 143.439 89.2885C141.736 89.229 140.45 88.027 140.508 86.3724C140.564 84.7544 141.931 83.6328 143.634 83.6923ZM143.587 85.0427C142.724 85.0004 142.048 85.5249 142.028 86.4255C141.984 87.3497 142.622 87.9079 143.486 87.9381C144.325 87.9674 145.001 87.4551 145.033 86.5305C145.065 85.6302 144.427 85.0598 143.587 85.0427ZM163.243 90.2236L163.198 91.4889L158.88 91.338L158.766 94.5862L157.233 94.5327L157.347 91.2845L153.065 91.135L153.109 89.8697L163.243 90.2236ZM162.231 88.1542L162.188 89.3829L154.414 89.1114L154.599 83.8073L162.251 84.0745L162.209 85.291L156.078 85.0769L156.049 85.9042L161.949 86.1102L161.907 87.3024L156.007 87.0964L155.978 87.9358L162.231 88.1542ZM167.725 86.8357C167.654 88.5263 168.486 90.5042 170.281 91.4073L169.375 92.5937C168.16 91.9849 167.318 90.8227 166.878 89.4736C166.328 90.9221 165.378 92.1313 164.073 92.6887L163.216 91.4286C165.095 90.6294 166.092 88.6057 166.168 86.7813L166.192 86.1L163.844 86.018L163.888 84.7528L170.019 84.9669L169.975 86.2321L167.749 86.1544L167.725 86.8357ZM172.478 83.9809L172.33 88.2023L173.96 88.2593L173.915 89.561L172.285 89.5041L172.091 95.0515L170.534 94.9972L170.92 83.9265L172.478 83.9809ZM178.118 87.1986C178.046 88.8892 178.879 90.8671 180.674 91.7702L179.768 92.9566C178.553 92.3478 177.71 91.1856 177.27 89.8365C176.72 91.285 175.771 92.4943 174.466 93.0516L173.609 91.7915C175.488 90.9923 176.485 88.9686 176.561 87.1442L176.584 86.4629L174.236 86.3809L174.281 85.1157L180.412 85.3298L180.368 86.5951L178.141 86.5173L178.118 87.1986ZM182.87 84.3438L182.723 88.5653L184.353 88.6222L184.308 89.9239L182.677 89.867L182.484 95.4145L180.927 95.3601L181.313 84.2894L182.87 84.3438ZM196.6 84.8233L196.213 95.8939L194.741 95.8425L194.935 90.2829L193.865 90.2455L193.689 95.2698L192.266 95.2201L192.628 84.8673L194.051 84.917L193.908 89.0046L194.979 89.042L195.128 84.7719L196.6 84.8233ZM191.421 85.9214L191.378 87.1744L188.811 87.0848L188.646 91.805C189.717 91.8363 190.667 91.8147 191.745 91.6574L191.81 92.9265C190.451 93.1348 189.269 93.1301 187.809 93.0913L187.043 93.0645L187.297 85.7774L191.421 85.9214ZM201.397 86.7326C201.35 88.0708 202.083 89.3875 203.816 89.9961L202.947 91.1716C201.786 90.7413 200.992 89.9584 200.551 88.9686C200.031 90.071 199.143 90.917 197.863 91.2986L197.066 90.0528C198.937 89.4969 199.779 88.0525 199.844 86.5322L199.88 85.5225L201.437 85.5768L201.397 86.7326ZM206.202 85.1586L206.111 87.7498L207.608 87.8021L207.563 89.0916L206.066 89.0394L205.972 91.728L204.415 91.6736L204.645 85.1042L206.202 85.1586ZM202.339 91.8204C204.627 91.9002 206.047 92.7415 206 94.0919C205.952 95.4545 204.477 96.1825 202.19 96.1026C199.854 96.0211 198.421 95.1915 198.469 93.8289C198.516 92.4786 200.004 91.7388 202.339 91.8204ZM202.297 93.0369C200.837 92.9859 200.035 93.2746 200.026 93.8833C199.992 94.5155 200.773 94.8351 202.232 94.8861C203.668 94.9362 204.445 94.671 204.467 94.0384C204.488 93.4301 203.733 93.087 202.297 93.0369ZM139.366 106.4L139.322 107.665L135.003 107.515L134.89 110.763L133.357 110.709L133.471 107.461L129.188 107.312L129.232 106.046L139.366 106.4ZM138.355 104.331L138.312 105.559L130.538 105.288L130.723 99.9838L138.375 100.251L138.333 101.468L132.201 101.253L132.172 102.081L138.073 102.287L138.031 103.479L132.131 103.273L132.102 104.112L138.355 104.331ZM143.849 103.012C143.777 104.703 144.61 106.681 146.405 107.584L145.499 108.77C144.284 108.161 143.442 106.999 143.001 105.65C142.451 107.099 141.502 108.308 140.197 108.865L139.34 107.605C141.219 106.806 142.216 104.782 142.292 102.958L142.315 102.277L139.967 102.195L140.012 100.929L146.143 101.144L146.099 102.409L143.872 102.331L143.849 103.012ZM148.601 100.157L148.454 104.379L150.084 104.436L150.039 105.738L148.408 105.681L148.215 111.228L146.658 111.174L147.044 100.103L148.601 100.157ZM161.613 100.624L161.502 103.787L162.913 103.836L162.869 105.114L161.458 105.064L161.35 108.142L159.793 108.088L160.055 100.57L161.613 100.624ZM152.422 106.405C153.231 106.434 154.155 106.466 155.111 106.475L155.133 105.855C153.934 105.642 153.2 105.032 153.242 104.181C153.266 103.158 154.371 102.564 156.013 102.621C157.643 102.678 158.692 103.348 158.668 104.37C158.626 105.221 157.87 105.774 156.678 105.896L156.658 106.468C157.572 106.463 158.481 106.422 159.342 106.343L159.414 107.417C157.064 107.749 154.496 107.684 152.538 107.615L152.422 106.405ZM161.334 108.592L161.226 111.683L159.669 111.628L159.736 109.73L153.726 109.52L153.767 108.328L161.334 108.592ZM159.237 101.345L159.197 102.476L152.859 102.255L152.898 101.124L155.295 101.207L155.326 100.307L156.871 100.361L156.84 101.261L159.237 101.345ZM155.977 103.655C155.186 103.627 154.729 103.806 154.727 104.233C154.7 104.634 155.142 104.88 155.933 104.908C156.712 104.935 157.158 104.719 157.184 104.318C157.187 103.892 156.756 103.682 155.977 103.655ZM172.419 101.001L172.137 109.079L170.58 109.025L170.862 100.947L172.419 101.001ZM172.375 110.635L172.332 111.875L164.619 111.606L164.743 108.042L166.313 108.096L166.231 110.42L172.375 110.635ZM167.336 102.505C167.273 103.964 168.001 105.427 169.806 106.075L168.973 107.264C167.74 106.806 166.905 105.949 166.449 104.873C165.917 105.994 164.997 106.875 163.686 107.274L162.926 106.017C164.809 105.462 165.666 103.945 165.718 102.448L165.755 101.378L167.373 101.434L167.336 102.505ZM182.396 106.295L182.353 107.524L179.141 107.412L179.059 109.772L183.378 109.923L183.334 111.188L173.2 110.834L173.244 109.569L177.514 109.718L177.596 107.358L174.519 107.25L174.707 101.849L182.457 102.119L182.413 103.36L176.221 103.144L176.119 106.076L182.396 106.295ZM195.763 101.804L195.567 107.437L194.022 107.383L194.118 104.634L192.037 104.561L192.08 103.332L194.16 103.405L194.218 101.75L195.763 101.804ZM195.55 107.899L195.447 110.856L189.632 110.653L189.608 111.334L195.74 111.548L195.697 112.764L188.033 112.497L188.139 109.468L193.954 109.671L193.976 109.038L188.149 108.835L188.19 107.642L195.55 107.899ZM190.54 102.791C190.481 104.117 191.215 105.422 192.961 106.006L192.104 107.17C190.932 106.745 190.13 105.974 189.683 105.003C189.165 106.05 188.26 106.859 186.95 107.221L186.19 105.965C188.046 105.494 188.908 104.172 188.971 102.737L188.999 101.934L190.568 101.988L190.54 102.791ZM206.756 107.669L206.713 108.898L202.54 108.752L202.473 110.662L200.94 110.609L201.007 108.699L196.579 108.544L196.622 107.316L206.756 107.669ZM205.628 102.636L205.486 106.712L197.919 106.447L198.061 102.372L205.628 102.636ZM199.54 103.629L199.482 105.296L204.007 105.454L204.065 103.787L199.54 103.629ZM205.491 111.791L205.448 113.032L197.625 112.759L197.738 109.535L199.283 109.589L199.214 111.572L205.491 111.791Z" fill="black"/>
<rect x="127.483" y="147.063" width="50.9693" height="43.5706" rx="3.28834" transform="rotate(2 127.483 147.063)" fill="#D7EFE5"/>
<rect x="192.38" y="149.587" width="50.9693" height="43.5706" rx="3.28834" transform="rotate(2 192.38 149.587)" fill="#D7EFE5"/>
<path d="M144.69 181.544C143.343 181.497 142.168 181.217 141.164 180.703C140.16 180.168 139.328 179.389 138.668 178.365C138.008 177.342 137.53 176.096 137.233 174.629C136.937 173.14 136.823 171.418 136.891 169.463C136.982 166.878 137.361 164.738 138.029 163.044C138.698 161.327 139.656 160.056 140.902 159.23C142.149 158.403 143.663 158.021 145.444 158.083C146.791 158.13 147.966 158.422 148.969 158.957C149.973 159.47 150.806 160.228 151.467 161.23C152.149 162.232 152.639 163.467 152.936 164.934C153.233 166.402 153.347 168.102 153.28 170.035C153.211 171.99 152.978 173.7 152.579 175.165C152.18 176.63 151.615 177.85 150.885 178.824C150.156 179.778 149.272 180.486 148.234 180.95C147.218 181.393 146.037 181.591 144.69 181.544ZM144.765 177.534C145.351 177.555 145.867 177.421 146.312 177.132C146.757 176.843 147.132 176.388 147.436 175.768C147.762 175.149 148.007 174.353 148.172 173.38C148.337 172.385 148.443 171.215 148.49 169.868C148.537 168.543 148.5 167.4 148.382 166.439C148.285 165.457 148.107 164.657 147.846 164.039C147.607 163.4 147.276 162.921 146.852 162.602C146.428 162.282 145.923 162.112 145.337 162.092C144.772 162.072 144.267 162.207 143.822 162.496C143.377 162.785 143.002 163.239 142.698 163.859C142.394 164.458 142.15 165.232 141.964 166.182C141.801 167.133 141.695 168.282 141.648 169.629C141.6 170.997 141.625 172.173 141.721 173.155C141.839 174.137 142.017 174.948 142.256 175.587C142.516 176.227 142.858 176.707 143.282 177.026C143.706 177.345 144.2 177.515 144.765 177.534ZM158.231 181.691L158.863 163.608L154.535 166.099L154.685 161.799L159.875 158.914L163.719 159.048L162.923 181.854L158.231 181.691Z" fill="url(#paint2_linear_474_150)"/>
<path d="M208.51 183.773C207.163 183.726 205.987 183.446 204.983 182.932C203.98 182.397 203.148 181.618 202.488 180.594C201.828 179.571 201.349 178.325 201.053 176.858C200.757 175.369 200.643 173.647 200.711 171.692C200.801 169.107 201.18 166.967 201.849 165.273C202.517 163.556 203.475 162.285 204.722 161.459C205.969 160.632 207.482 160.25 209.264 160.312C210.61 160.359 211.785 160.651 212.789 161.186C213.793 161.699 214.625 162.457 215.286 163.459C215.969 164.461 216.459 165.696 216.755 167.163C217.052 168.631 217.167 170.331 217.099 172.264C217.031 174.219 216.797 175.929 216.398 177.394C215.999 178.859 215.435 180.079 214.705 181.053C213.975 182.007 213.092 182.715 212.053 183.179C211.037 183.622 209.856 183.82 208.51 183.773ZM208.584 179.763C209.171 179.784 209.687 179.65 210.132 179.361C210.577 179.072 210.951 178.617 211.256 177.997C211.582 177.378 211.827 176.582 211.991 175.609C212.157 174.614 212.263 173.444 212.31 172.097C212.356 170.772 212.32 169.629 212.201 168.668C212.105 167.686 211.926 166.886 211.665 166.268C211.427 165.629 211.095 165.15 210.672 164.831C210.248 164.511 209.743 164.341 209.156 164.321C208.591 164.301 208.087 164.436 207.642 164.725C207.197 165.014 206.822 165.468 206.517 166.088C206.214 166.687 205.969 167.461 205.784 168.411C205.62 169.362 205.515 170.511 205.468 171.858C205.42 173.226 205.444 174.402 205.54 175.384C205.658 176.366 205.837 177.177 206.075 177.816C206.336 178.456 206.678 178.936 207.102 179.255C207.525 179.574 208.02 179.744 208.584 179.763ZM226.177 184.39C224.83 184.343 223.655 184.063 222.651 183.549C221.647 183.014 220.816 182.235 220.155 181.211C219.495 180.188 219.017 178.942 218.72 177.475C218.424 175.986 218.31 174.264 218.379 172.309C218.469 169.724 218.848 167.584 219.516 165.89C220.185 164.173 221.143 162.902 222.389 162.076C223.636 161.249 225.15 160.867 226.931 160.929C228.278 160.976 229.453 161.268 230.456 161.803C231.46 162.316 232.293 163.074 232.954 164.076C233.637 165.078 234.126 166.313 234.423 167.78C234.72 169.248 234.834 170.948 234.767 172.881C234.699 174.836 234.465 176.546 234.066 178.011C233.667 179.476 233.102 180.696 232.372 181.67C231.643 182.624 230.759 183.332 229.721 183.796C228.705 184.239 227.524 184.437 226.177 184.39ZM226.252 180.38C226.838 180.401 227.354 180.266 227.799 179.978C228.244 179.689 228.619 179.234 228.923 178.614C229.249 177.995 229.495 177.199 229.659 176.226C229.824 175.231 229.93 174.061 229.977 172.714C230.024 171.389 229.987 170.246 229.869 169.285C229.773 168.303 229.594 167.503 229.333 166.885C229.094 166.246 228.763 165.767 228.339 165.448C227.915 165.128 227.41 164.958 226.824 164.938C226.259 164.918 225.754 165.053 225.309 165.342C224.864 165.631 224.489 166.085 224.185 166.705C223.881 167.304 223.637 168.078 223.451 169.028C223.288 169.979 223.182 171.128 223.135 172.475C223.088 173.843 223.112 175.019 223.208 176.001C223.326 176.983 223.504 177.794 223.743 178.433C224.003 179.073 224.345 179.552 224.769 179.872C225.193 180.191 225.687 180.36 226.252 180.38Z" fill="#15C67F"/>
<path d="M208.51 183.773C207.163 183.726 205.987 183.446 204.983 182.932C203.98 182.397 203.148 181.618 202.488 180.594C201.828 179.571 201.349 178.325 201.053 176.858C200.757 175.369 200.643 173.647 200.711 171.692C200.801 169.107 201.18 166.967 201.849 165.273C202.517 163.556 203.475 162.285 204.722 161.459C205.969 160.632 207.482 160.25 209.264 160.312C210.61 160.359 211.785 160.651 212.789 161.186C213.793 161.699 214.625 162.457 215.286 163.459C215.969 164.461 216.459 165.696 216.755 167.163C217.052 168.631 217.167 170.331 217.099 172.264C217.031 174.219 216.797 175.929 216.398 177.394C215.999 178.859 215.435 180.079 214.705 181.053C213.975 182.007 213.092 182.715 212.053 183.179C211.037 183.622 209.856 183.82 208.51 183.773ZM208.584 179.763C209.171 179.784 209.687 179.65 210.132 179.361C210.577 179.072 210.951 178.617 211.256 177.997C211.582 177.378 211.827 176.582 211.991 175.609C212.157 174.614 212.263 173.444 212.31 172.097C212.356 170.772 212.32 169.629 212.201 168.668C212.105 167.686 211.926 166.886 211.665 166.268C211.427 165.629 211.095 165.15 210.672 164.831C210.248 164.511 209.743 164.341 209.156 164.321C208.591 164.301 208.087 164.436 207.642 164.725C207.197 165.014 206.822 165.468 206.517 166.088C206.214 166.687 205.969 167.461 205.784 168.411C205.62 169.362 205.515 170.511 205.468 171.858C205.42 173.226 205.444 174.402 205.54 175.384C205.658 176.366 205.837 177.177 206.075 177.816C206.336 178.456 206.678 178.936 207.102 179.255C207.525 179.574 208.02 179.744 208.584 179.763ZM226.177 184.39C224.83 184.343 223.655 184.063 222.651 183.549C221.647 183.014 220.816 182.235 220.155 181.211C219.495 180.188 219.017 178.942 218.72 177.475C218.424 175.986 218.31 174.264 218.379 172.309C218.469 169.724 218.848 167.584 219.516 165.89C220.185 164.173 221.143 162.902 222.389 162.076C223.636 161.249 225.15 160.867 226.931 160.929C228.278 160.976 229.453 161.268 230.456 161.803C231.46 162.316 232.293 163.074 232.954 164.076C233.637 165.078 234.126 166.313 234.423 167.78C234.72 169.248 234.834 170.948 234.767 172.881C234.699 174.836 234.465 176.546 234.066 178.011C233.667 179.476 233.102 180.696 232.372 181.67C231.643 182.624 230.759 183.332 229.721 183.796C228.705 184.239 227.524 184.437 226.177 184.39ZM226.252 180.38C226.838 180.401 227.354 180.266 227.799 179.978C228.244 179.689 228.619 179.234 228.923 178.614C229.249 177.995 229.495 177.199 229.659 176.226C229.824 175.231 229.93 174.061 229.977 172.714C230.024 171.389 229.987 170.246 229.869 169.285C229.773 168.303 229.594 167.503 229.333 166.885C229.094 166.246 228.763 165.767 228.339 165.448C227.915 165.128 227.41 164.958 226.824 164.938C226.259 164.918 225.754 165.053 225.309 165.342C224.864 165.631 224.489 166.085 224.185 166.705C223.881 167.304 223.637 168.078 223.451 169.028C223.288 169.979 223.182 171.128 223.135 172.475C223.088 173.843 223.112 175.019 223.208 176.001C223.326 176.983 223.504 177.794 223.743 178.433C224.003 179.073 224.345 179.552 224.769 179.872C225.193 180.191 225.687 180.36 226.252 180.38Z" fill="url(#paint3_linear_474_150)"/>
<path d="M184.268 177.088C183.182 177.05 182.315 176.134 182.366 175.047C182.39 173.986 183.318 173.145 184.405 173.17C185.454 173.22 186.32 174.123 186.283 175.184C186.245 176.271 185.317 177.124 184.268 177.088ZM182.708 165.241C182.733 164.179 183.66 163.339 184.748 163.364C185.796 163.413 186.663 164.317 186.626 165.378C186.588 166.465 185.66 167.318 184.611 167.282C183.524 167.244 182.658 166.328 182.708 165.241Z" fill="black"/>
<path d="M135.908 131.423L135.745 136.097L134.782 136.063L134.863 133.731L132.947 133.664L132.974 132.884L134.89 132.951L134.945 131.389L135.908 131.423ZM128.167 135.101C129.602 134.7 130.488 133.599 130.538 132.322L130.565 131.531L131.518 131.564L131.491 132.355C131.45 133.511 132.244 134.614 133.597 135.098L133.064 135.83C132.078 135.451 131.346 134.74 130.976 133.859C130.547 134.824 129.745 135.557 128.657 135.89L128.167 135.101ZM129.763 137.075L129.789 136.315L135.73 136.522L135.651 138.783L130.673 138.609L130.644 139.451L135.936 139.636L135.909 140.406L129.674 140.188L129.756 137.847L134.724 138.02L134.751 137.25L129.763 137.075ZM145.138 136.343L145.111 137.124L141.502 136.998L141.44 138.762L140.487 138.729L140.549 136.965L136.798 136.834L136.825 136.053L145.138 136.343ZM137.709 140.388L137.8 137.772L138.764 137.806L138.7 139.641L144.093 139.829L144.066 140.61L137.709 140.388ZM137.923 135.148L138.035 131.924L144.209 132.139L144.097 135.363L137.923 135.148ZM138.892 134.42L143.17 134.569L143.23 132.866L138.951 132.717L138.892 134.42ZM150.623 132.343C151.951 132.389 152.858 133.152 152.83 134.237C152.788 135.159 152.065 135.809 151.005 135.939L150.976 136.75C151.779 136.733 152.593 136.685 153.347 136.6L153.393 137.312C151.475 137.59 149.335 137.551 147.773 137.491L147.699 136.707C148.378 136.736 149.174 136.758 150.012 136.757L150.041 135.916C148.962 135.726 148.261 135.016 148.299 134.079C148.331 132.994 149.29 132.296 150.623 132.343ZM148.846 140.777L148.935 138.232L149.898 138.266L149.837 140.02L155.068 140.202L155.041 140.993L148.846 140.777ZM149.201 134.11C149.168 134.754 149.721 135.194 150.522 135.222C151.328 135.25 151.895 134.849 151.918 134.205C151.941 133.546 151.403 133.111 150.597 133.083C149.796 133.055 149.214 133.451 149.201 134.11ZM153.821 139.012L154.063 132.067L155.026 132.101L154.922 135.102L156.219 135.147L156.191 135.958L154.893 135.913L154.784 139.045L153.821 139.012ZM164.602 139.622L164.574 140.433L156.261 140.142L156.289 139.331L158.56 139.411L158.616 137.809L157.359 137.765L157.46 134.876L162.792 135.062L162.837 133.795L157.484 133.608L157.511 132.817L163.817 133.037L163.718 135.876L158.385 135.69L158.339 137.007L163.885 137.201L163.857 137.992L162.478 137.944L162.423 139.546L164.602 139.622ZM159.493 139.443L161.48 139.513L161.536 137.911L159.549 137.841L159.493 139.443ZM170.678 134.952C170.61 136.609 171.556 138.317 172.943 138.989L172.339 139.729C171.312 139.196 170.521 138.148 170.139 136.892C169.671 138.21 168.797 139.276 167.688 139.77L167.129 138.938C168.58 138.355 169.645 136.651 169.705 134.918L169.759 133.366L170.733 133.4L170.678 134.952ZM173.665 141.857L173.983 132.753L174.946 132.786L174.628 141.89L173.665 141.857ZM183.222 133.075L183.128 135.762L184.446 135.808L184.418 136.609L183.1 136.563L182.991 139.675L182.018 139.641L182.248 133.041L183.222 133.075ZM175.905 137.661C178.057 137.097 179.417 135.932 179.657 134.443L176.407 134.329L176.435 133.529L180.734 133.679C180.651 136.061 178.968 137.733 176.284 138.446L175.905 137.661ZM177.143 141.765L177.246 138.794L178.22 138.828L178.143 141.018L183.313 141.199L183.286 141.979L177.143 141.765Z" fill="black"/>
<path d="M130.831 168.979L173.143 170.456" stroke="#D7EFE5" stroke-width="1.15092"/>
<path d="M195.72 171.717L238.031 173.195" stroke="#D7EFE5" stroke-width="1.15092"/>
</g>
<g filter="url(#filter2_d_474_150)">
<rect x="271.711" y="65.8159" width="138" height="140" rx="4.93252" transform="rotate(-2 271.711 65.8159)" fill="#FAFAFA"/>
<path d="M298.766 81.1844L296.772 79.5264L293.109 81.5207L293.02 78.9656L288 81.6991L287.911 79.1479L282.966 81.8749L282.778 76.4895L288.265 73.4641L288.354 76.0182L293.374 73.2857L293.464 75.8398L298.484 73.1073L298.766 81.1844Z" fill="#E1E5E5"/>
<path d="M293.032 86.2129L293.419 97.2836L291.946 97.335L291.752 91.7753L290.682 91.8127L290.857 96.8371L289.434 96.8868L289.072 86.5339L290.496 86.4842L290.638 90.5718L291.709 90.5344L291.56 86.2643L293.032 86.2129ZM287.943 87.6696L287.986 88.9226L285.419 89.0123L285.584 93.7325C286.655 93.689 287.602 93.6012 288.665 93.3691L288.819 94.6305C287.478 94.9331 286.299 95.0108 284.839 95.074L284.073 95.1008L283.819 87.8136L287.943 87.6696ZM304.088 90.5528L304.128 91.6842L299.87 91.8329L299.894 92.5263L302.948 92.4197L303.042 95.1204L296.874 95.3358L296.895 95.9441L303.355 95.7185L303.395 96.8621L295.415 97.1408L295.317 94.3427L301.473 94.1277L301.453 93.5803L295.286 93.7957L295.247 92.6886L298.349 92.5803L298.325 91.8868L294.079 92.0351L294.04 90.9037L304.088 90.5528ZM299.653 85.9695L299.684 86.8454L303.005 86.7295L303.045 87.873L299.918 87.9822C300.245 88.6164 301.395 89.1061 303.636 89.1191L303.226 90.2784C301.167 90.2529 299.725 89.7795 298.99 88.9647C298.32 89.8285 296.909 90.4016 294.844 90.5711L294.378 89.4424C296.595 89.2736 297.702 88.7052 297.996 88.0493L294.894 88.1577L294.854 87.0141L298.151 86.899L298.12 86.0231L299.653 85.9695ZM309.297 85.8033C311.84 85.7145 313.335 86.3322 313.39 87.5483C313.421 88.7774 311.972 89.498 309.43 89.5867C306.875 89.676 305.367 89.0587 305.324 87.83C305.282 86.6134 306.743 85.8925 309.297 85.8033ZM309.337 86.9347C307.707 86.9916 306.925 87.2868 306.954 87.773C306.961 88.3209 307.759 88.5001 309.39 88.4432C311.032 88.3858 311.803 88.1518 311.784 87.6044C311.767 87.1178 310.979 86.8773 309.337 86.9347ZM314.497 89.9336L314.539 91.1623L304.442 91.5149L304.399 90.2862L314.497 89.9336ZM313.333 91.85L313.432 94.6724L307.264 94.8878L307.287 95.5569L313.747 95.3313L313.788 96.4992L305.807 96.7779L305.705 93.8581L311.861 93.6432L311.84 93.0349L305.672 93.2503L305.632 92.1189L313.333 91.85ZM325.917 85.0645L326.005 87.5828L327.501 87.5306L327.546 88.8079L326.049 88.8602L326.142 91.5245L324.585 91.5788L324.36 85.1189L325.917 85.0645ZM319.029 85.9506L319.079 87.3618L321.341 87.2828L321.292 85.8716L322.849 85.8172L323.033 91.0849L317.668 91.2723L317.484 86.0046L319.029 85.9506ZM319.171 90.0018L321.434 89.9227L321.383 88.4872L319.121 88.5662L319.171 90.0018ZM326.221 92.0211L326.264 93.2498L320.509 93.4508L320.562 94.9715L326.524 94.7633L326.566 95.9799L319.06 96.242L318.921 92.276L326.221 92.0211ZM330.534 85.6829C332.225 85.6238 333.495 87.1142 333.591 89.5225C333.664 91.9561 332.501 93.5193 330.81 93.5783C329.119 93.6374 327.825 92.16 327.752 89.7265C327.655 87.3181 328.843 85.7419 330.534 85.6829ZM330.583 87.0819C329.731 87.1116 329.191 88.0319 329.248 89.6742C329.306 91.3287 329.909 92.1968 330.76 92.1671C331.624 92.1369 332.153 91.2293 332.107 89.5744C332.038 87.9324 331.446 87.0517 330.583 87.0819ZM336.261 84.7033L336.407 88.8761L338.037 88.8192L338.082 90.1087L336.452 90.1657L336.648 95.774L335.09 95.8284L334.704 84.7577L336.261 84.7033ZM340.755 84.9483L340.794 86.0554L345.234 85.9003L345.196 84.7933L346.741 84.7393L346.899 89.2649L343.906 89.3694L343.939 90.3062L348.221 90.1566L348.264 91.3975L338.167 91.7501L338.124 90.5092L342.382 90.3605L342.349 89.4238L339.381 89.5274L339.222 85.0019L340.755 84.9483ZM340.87 88.233L345.31 88.078L345.276 87.0926L340.836 87.2476L340.87 88.233ZM347.209 93.9679L347.253 95.2088L339.515 95.4789L339.406 92.3402L340.963 92.2859L341.029 94.1837L347.209 93.9679ZM360.14 83.8816L360.363 90.2564L358.818 90.3103L358.78 89.2276L356.286 89.3147L356.243 88.0738L358.737 87.9867L358.7 86.9283L356.315 87.0116C355.689 88.7874 354.162 90.0466 351.746 90.8009L351.095 89.5934C353.62 88.8353 354.825 87.5752 354.991 86.0469L351.572 86.1662L351.529 84.9253L356.638 84.7469C356.651 85.1058 356.639 85.4534 356.601 85.7835L358.657 85.7117L358.595 83.9356L360.14 83.8816ZM356.682 90.5189C358.932 90.4403 360.471 91.2514 360.531 92.6257C360.567 94.013 359.089 94.9416 356.839 95.0202C354.564 95.0996 353.013 94.2768 352.976 92.8895C352.916 91.5152 354.407 90.5984 356.682 90.5189ZM356.724 91.7355C355.325 91.7722 354.497 92.1543 354.521 92.8355C354.545 93.5168 355.397 93.8403 356.796 93.7914C358.171 93.7434 358.998 93.3613 358.974 92.68C358.95 91.9988 358.098 91.6753 356.724 91.7355ZM370.533 83.5065L370.766 90.1976L369.221 90.2515L369.145 88.0739L367.71 88.124L367.666 86.8588L369.101 86.8087L368.988 83.5605L370.533 83.5065ZM370.783 90.672L370.915 94.4555L363.47 94.7155L363.338 90.932L370.783 90.672ZM364.937 92.0942L364.984 93.4203L369.351 93.2677L369.305 91.9417L364.937 92.0942ZM367.78 84.5649L367.824 85.8058L361.303 86.0335L361.26 84.7926L363.766 84.7051L363.729 83.6467L365.262 83.5932L365.299 84.6516L367.78 84.5649ZM364.588 86.2842C366.146 86.2298 367.269 87.0188 367.31 88.1745C367.352 89.3789 366.285 90.2201 364.728 90.2745C363.183 90.3284 362.035 89.5646 361.993 88.3602C361.953 87.2045 363.043 86.3381 364.588 86.2842ZM364.629 87.4521C363.911 87.4771 363.459 87.7852 363.49 88.3079C363.497 88.868 363.97 89.156 364.688 89.1309C365.393 89.1063 365.845 88.786 365.825 88.2264C365.807 87.7033 365.335 87.4274 364.629 87.4521ZM381.193 83.1343L381.58 94.2049L380.096 94.2567L379.709 83.1861L381.193 83.1343ZM378.887 83.3731L379.251 93.7747L377.791 93.8256L377.608 88.5945L376.72 88.6255C376.65 90.8082 375.771 92.1544 374.409 92.202C372.949 92.2529 371.946 90.7532 371.859 88.2593C371.773 85.7775 372.668 84.2237 374.128 84.1727C375.46 84.1262 376.416 85.3352 376.665 87.3972L377.565 87.3657L377.427 83.4241L378.887 83.3731ZM374.179 85.6326C373.559 85.6542 373.224 86.5186 373.295 88.2091C373.342 89.9127 373.736 90.7394 374.356 90.7056C374.989 90.6957 375.337 89.8431 375.278 88.1399C375.219 86.4489 374.812 85.6105 374.179 85.6326ZM293.625 103.203L294.012 114.273L292.54 114.325L292.346 108.765L291.275 108.802L291.451 113.827L290.027 113.876L289.666 103.524L291.089 103.474L291.232 107.561L292.302 107.524L292.153 103.254L293.625 103.203ZM288.536 104.659L288.58 105.912L286.013 106.002L286.178 110.722C287.248 110.679 288.195 110.591 289.259 110.359L289.412 111.62C288.071 111.923 286.892 112 285.433 112.064L284.666 112.09L284.412 104.803L288.536 104.659ZM303.228 102.879L303.346 106.274L304.843 106.221L304.887 107.487L303.39 107.539L303.516 111.14L301.959 111.194L301.67 102.934L303.228 102.879ZM301.054 104.112L301.097 105.341L294.527 105.571L294.484 104.342L297.003 104.254L296.962 103.074L298.507 103.02L298.548 104.2L301.054 104.112ZM297.826 105.845C299.432 105.789 300.581 106.614 300.626 107.891C300.67 109.169 299.58 110.047 297.974 110.103C296.356 110.16 295.196 109.36 295.151 108.082C295.106 106.805 296.208 105.902 297.826 105.845ZM297.867 107.025C297.125 107.063 296.638 107.421 296.672 108.029C296.681 108.638 297.191 108.949 297.933 108.923C298.675 108.897 299.175 108.551 299.154 107.943C299.132 107.334 298.609 107.011 297.867 107.025ZM303.965 112.488L304.008 113.729L296.429 113.994L296.316 110.758L297.861 110.704L297.931 112.699L303.965 112.488ZM316.665 102.398L316.862 108.031L315.316 108.085L315.22 105.335L313.14 105.408L313.097 104.179L315.178 104.106L315.12 102.452L316.665 102.398ZM316.878 108.493L316.981 111.449L311.166 111.652L311.19 112.334L317.321 112.119L317.363 113.336L309.699 113.604L309.593 110.574L315.409 110.371L315.386 109.739L309.559 109.942L309.517 108.75L316.878 108.493ZM311.523 103.747C311.557 105.073 312.38 106.324 314.163 106.785L313.389 108.006C312.19 107.664 311.337 106.951 310.823 106.013C310.379 107.094 309.533 107.964 308.251 108.417L307.405 107.216C309.224 106.616 309.992 105.238 309.954 103.802L309.926 102.999L311.495 102.944L311.523 103.747ZM328.04 107.482L328.082 108.711L323.91 108.856L323.976 110.766L322.443 110.82L322.377 108.91L317.949 109.065L317.906 107.836L328.04 107.482ZM326.564 102.54L326.706 106.615L319.139 106.879L318.997 102.804L326.564 102.54ZM320.559 103.955L320.618 105.622L325.143 105.464L325.085 103.797L320.559 103.955ZM327.066 111.682L327.109 112.923L319.286 113.196L319.174 109.972L320.719 109.918L320.788 111.901L327.066 111.682ZM341.048 110.085L341.092 111.338L330.958 111.692L330.915 110.439L335.197 110.289L335.111 107.82L336.668 107.765L336.754 110.235L341.048 110.085ZM339.892 102.427L339.936 103.68L336.566 103.798C336.745 105.253 338.167 106.562 340.557 106.826L339.992 108.076C338.039 107.803 336.571 106.904 335.813 105.615C335.154 106.978 333.765 108.001 331.867 108.42L331.216 107.213C333.502 106.761 334.835 105.326 334.911 103.856L331.529 103.974L331.485 102.721L339.892 102.427ZM345.173 103.912C345.23 105.895 346.151 107.873 347.957 108.662L347.064 109.936C345.857 109.393 345.022 108.326 344.513 107.004C344.083 108.456 343.266 109.66 342.034 110.318L341.03 109.099C342.873 108.17 343.687 106.022 343.615 103.966L343.558 102.312L345.115 102.257L345.173 103.912ZM349.744 101.243L349.894 105.513L351.524 105.456L351.57 106.77L349.939 106.827L350.131 112.313L348.574 112.368L348.187 101.297L349.744 101.243Z" fill="black"/>
<rect x="285.384" y="151.133" width="50.9693" height="43.5706" rx="3.28834" transform="rotate(-2 285.384 151.133)" fill="#D7EFE5"/>
<rect x="350.289" y="148.867" width="50.9693" height="43.5706" rx="3.28834" transform="rotate(-2 350.289 148.867)" fill="#D7EFE5"/>
<path d="M304.954 184.33C303.607 184.377 302.415 184.179 301.378 183.737C300.339 183.273 299.455 182.554 298.725 181.579C297.995 180.604 297.431 179.395 297.033 177.952C296.634 176.487 296.4 174.777 296.332 172.822C296.241 170.238 296.47 168.077 297.019 166.339C297.566 164.58 298.433 163.245 299.619 162.334C300.805 161.423 302.289 160.936 304.07 160.874C305.416 160.827 306.609 161.035 307.647 161.499C308.685 161.941 309.568 162.639 310.297 163.592C311.048 164.545 311.623 165.742 312.021 167.186C312.42 168.629 312.652 170.317 312.72 172.25C312.788 174.205 312.674 175.927 312.378 177.416C312.082 178.905 311.604 180.161 310.944 181.185C310.283 182.187 309.451 182.955 308.448 183.49C307.465 184.003 306.301 184.283 304.954 184.33ZM304.749 180.325C305.335 180.304 305.84 180.134 306.264 179.815C306.688 179.496 307.03 179.016 307.291 178.377C307.573 177.736 307.762 176.925 307.858 175.943C307.953 174.939 307.978 173.764 307.931 172.417C307.884 171.092 307.768 169.955 307.583 169.004C307.419 168.031 307.185 167.246 306.881 166.647C306.598 166.027 306.234 165.572 305.789 165.283C305.344 164.994 304.829 164.86 304.242 164.88C303.677 164.9 303.183 165.069 302.759 165.389C302.336 165.708 301.994 166.187 301.733 166.827C301.472 167.445 301.282 168.235 301.163 169.196C301.066 170.156 301.042 171.309 301.089 172.656C301.136 174.025 301.242 175.195 301.407 176.168C301.593 177.14 301.828 177.937 302.11 178.557C302.415 179.178 302.789 179.632 303.234 179.921C303.679 180.21 304.184 180.344 304.749 180.325ZM314.465 183.672L314.355 180.511L319.622 173.477C320.307 172.54 320.876 171.715 321.33 171.003C321.782 170.27 322.106 169.584 322.302 168.947C322.518 168.287 322.614 167.609 322.589 166.914C322.567 166.284 322.462 165.744 322.272 165.294C322.082 164.844 321.799 164.506 321.421 164.28C321.064 164.032 320.604 163.917 320.039 163.937C319.583 163.953 319.164 164.109 318.783 164.405C318.424 164.7 318.136 165.178 317.92 165.838C317.703 166.476 317.591 167.328 317.585 168.394L313.382 168.541C313.361 166.693 313.612 165.173 314.136 163.98C314.659 162.766 315.432 161.869 316.456 161.289C317.479 160.688 318.718 160.362 320.173 160.311C321.65 160.26 322.919 160.466 323.979 160.929C325.038 161.37 325.845 162.049 326.399 162.965C326.974 163.88 327.286 165.021 327.334 166.39C327.363 167.237 327.263 168.099 327.033 168.977C326.802 169.834 326.42 170.749 325.889 171.725C325.358 172.7 324.633 173.748 323.715 174.867L318.025 181.916L318.332 179.524L328.433 179.171L328.573 183.179L314.465 183.672Z" fill="url(#paint4_linear_474_150)"/>
<path d="M369.024 182.092C367.438 182.148 366.082 181.923 364.955 181.419C363.828 180.915 362.964 180.151 362.363 179.128C361.783 178.083 361.456 176.8 361.381 175.281L365.519 175.136C365.611 175.916 365.786 176.562 366.043 177.075C366.299 177.566 366.638 177.924 367.059 178.149C367.479 178.351 367.983 178.443 368.569 178.422C369.243 178.399 369.78 178.228 370.182 177.909C370.606 177.59 370.905 177.123 371.079 176.508C371.254 175.893 371.325 175.14 371.294 174.249C371.262 173.315 371.116 172.57 370.857 172.014C370.62 171.435 370.257 171.013 369.769 170.747C369.303 170.481 368.744 170.359 368.093 170.381C367.571 170.4 367.055 170.548 366.542 170.827C366.03 171.084 365.567 171.535 365.154 172.18L361.733 172.3L362.221 159.169L373.95 158.76L374.088 162.702L365.389 163.006L366.294 159.973L365.825 169.906L363.931 169.842C364.259 169.265 364.666 168.772 365.152 168.364C365.659 167.955 366.236 167.641 366.88 167.423C367.547 167.204 368.26 167.081 369.02 167.054C370.476 167.004 371.713 167.243 372.732 167.773C373.751 168.303 374.529 169.102 375.066 170.171C375.625 171.238 375.932 172.554 375.987 174.118C376.047 175.834 375.825 177.277 375.323 178.447C374.819 179.596 374.045 180.482 373.002 181.105C371.957 181.707 370.631 182.036 369.024 182.092ZM385.617 181.187L385.462 176.756L376.763 177.059L376.649 173.801L384.006 158.408L389.252 158.225L389.766 172.952L392.796 172.846L392.926 176.56L390.059 176.66L390.211 181.026L385.617 181.187ZM380.213 174.949L379.445 173.508L385.7 173.29L385.278 161.202L386.033 161.339L380.213 174.949Z" fill="#15C67F"/>
<path d="M369.024 182.092C367.438 182.148 366.082 181.923 364.955 181.419C363.828 180.915 362.964 180.151 362.363 179.128C361.783 178.083 361.456 176.8 361.381 175.281L365.519 175.136C365.611 175.916 365.786 176.562 366.043 177.075C366.299 177.566 366.638 177.924 367.059 178.149C367.479 178.351 367.983 178.443 368.569 178.422C369.243 178.399 369.78 178.228 370.182 177.909C370.606 177.59 370.905 177.123 371.079 176.508C371.254 175.893 371.325 175.14 371.294 174.249C371.262 173.315 371.116 172.57 370.857 172.014C370.62 171.435 370.257 171.013 369.769 170.747C369.303 170.481 368.744 170.359 368.093 170.381C367.571 170.4 367.055 170.548 366.542 170.827C366.03 171.084 365.567 171.535 365.154 172.18L361.733 172.3L362.221 159.169L373.95 158.76L374.088 162.702L365.389 163.006L366.294 159.973L365.825 169.906L363.931 169.842C364.259 169.265 364.666 168.772 365.152 168.364C365.659 167.955 366.236 167.641 366.88 167.423C367.547 167.204 368.26 167.081 369.02 167.054C370.476 167.004 371.713 167.243 372.732 167.773C373.751 168.303 374.529 169.102 375.066 170.171C375.625 171.238 375.932 172.554 375.987 174.118C376.047 175.834 375.825 177.277 375.323 178.447C374.819 179.596 374.045 180.482 373.002 181.105C371.957 181.707 370.631 182.036 369.024 182.092ZM385.617 181.187L385.462 176.756L376.763 177.059L376.649 173.801L384.006 158.408L389.252 158.225L389.766 172.952L392.796 172.846L392.926 176.56L390.059 176.66L390.211 181.026L385.617 181.187ZM380.213 174.949L379.445 173.508L385.7 173.29L385.278 161.202L386.033 161.339L380.213 174.949Z" fill="url(#paint5_linear_474_150)"/>
<path d="M344.125 177.123C343.038 177.161 342.11 176.308 342.085 175.221C342.035 174.16 342.902 173.256 343.988 173.206C345.038 173.182 345.965 174.022 346.002 175.084C346.04 176.171 345.174 177.087 344.125 177.123ZM341.742 165.415C341.693 164.354 342.56 163.45 343.646 163.4C344.695 163.376 345.623 164.216 345.66 165.278C345.698 166.365 344.831 167.281 343.783 167.317C342.696 167.355 341.768 166.502 341.742 165.415Z" fill="black"/>
<path d="M292.697 134.944L292.86 139.617L291.897 139.651L291.816 137.319L289.9 137.386L289.873 136.605L291.789 136.538L291.734 134.977L292.697 134.944ZM285.232 139.153C286.635 138.652 287.442 137.492 287.403 136.214L287.375 135.424L288.328 135.39L288.356 136.181C288.396 137.337 289.265 138.383 290.649 138.771L290.168 139.539C289.157 139.229 288.378 138.571 287.947 137.718C287.586 138.71 286.837 139.498 285.775 139.905L285.232 139.153ZM286.961 141.011L286.934 140.25L292.875 140.043L292.954 142.304L287.977 142.478L288.006 143.319L293.298 143.134L293.325 143.905L287.09 144.122L287.008 141.78L291.976 141.607L291.949 140.837L286.961 141.011ZM302.248 139.208L302.275 139.989L298.666 140.115L298.728 141.879L297.775 141.912L297.713 140.148L293.962 140.279L293.935 139.498L302.248 139.208ZM295.119 143.761L295.028 141.145L295.991 141.112L296.055 142.947L301.449 142.758L301.476 143.539L295.119 143.761ZM294.967 138.518L294.854 135.295L301.028 135.079L301.141 138.303L294.967 138.518ZM295.883 137.725L300.161 137.576L300.102 135.873L295.823 136.022L295.883 137.725ZM307.44 134.835C308.768 134.788 309.727 135.486 309.775 136.57C309.797 137.493 309.121 138.192 308.072 138.396L308.1 139.207C308.9 139.133 309.708 139.029 310.454 138.891L310.55 139.598C308.656 140.009 306.518 140.12 304.957 140.169L304.828 139.392C305.508 139.373 306.303 139.341 307.139 139.281L307.109 138.439C306.019 138.325 305.271 137.666 305.243 136.728C305.2 135.644 306.107 134.881 307.44 134.835ZM306.256 143.372L306.168 140.827L307.131 140.794L307.192 142.547L312.423 142.365L312.451 143.156L306.256 143.372ZM306.145 136.697C306.157 137.341 306.74 137.742 307.541 137.714C308.347 137.686 308.885 137.246 308.862 136.602C308.839 135.943 308.272 135.547 307.466 135.575C306.665 135.603 306.112 136.038 306.145 136.697ZM311.096 141.264L310.853 134.32L311.816 134.286L311.921 137.287L313.219 137.242L313.247 138.053L311.949 138.098L312.059 141.231L311.096 141.264ZM321.893 141.121L321.922 141.932L313.609 142.222L313.58 141.411L315.851 141.332L315.795 139.73L314.538 139.774L314.437 136.884L319.77 136.698L319.725 135.431L314.373 135.618L314.345 134.827L320.651 134.607L320.75 137.445L315.417 137.632L315.463 138.95L321.009 138.756L321.037 139.547L319.658 139.595L319.714 141.197L321.893 141.121ZM316.784 141.299L318.771 141.23L318.715 139.628L316.728 139.697L316.784 141.299ZM327.629 136.038C327.677 137.696 328.739 139.334 330.17 139.908L329.618 140.688C328.557 140.228 327.695 139.238 327.226 138.011C326.852 139.359 326.054 140.483 324.982 141.053L324.366 140.263C325.773 139.579 326.716 137.806 326.656 136.072L326.602 134.521L327.575 134.487L327.629 136.038ZM331.09 142.718L330.772 133.614L331.735 133.58L332.053 142.684L331.09 142.718ZM340.011 133.291L340.105 135.978L341.422 135.932L341.45 136.733L340.132 136.779L340.241 139.891L339.268 139.925L339.037 133.325L340.011 133.291ZM333.032 138.377C335.139 137.664 336.415 136.406 336.55 134.904L333.301 135.018L333.273 134.217L337.571 134.067C337.654 136.449 336.093 138.234 333.465 139.133L333.032 138.377ZM334.553 142.384L334.449 139.413L335.422 139.379L335.499 141.569L340.669 141.389L340.696 142.169L334.553 142.384Z" fill="black"/>
<path d="M290.252 172.762L332.564 171.284" stroke="#D7EFE5" stroke-width="1.15092"/>
<path d="M355.158 170.495L397.469 169.018" stroke="#D7EFE5" stroke-width="1.15092"/>
</g>
<path d="M68.7622 30.2656V33.3125H70.7309V34.75H68.7622V37.375H67.0278V30.2656H68.7622ZM58.1059 37V31.1719H64.7934V37H58.1059ZM58.9653 44V38.5781H60.6684V42.5859C61.4731 42.5391 62.3091 42.4219 63.1216 42.1562L63.3716 43.5156C62.1216 43.9531 60.9184 44.0078 59.7153 44H58.9653ZM59.8091 35.6406H63.0903V32.5312H59.8091V35.6406ZM62.8872 39.9844V38.7344H65.6059V37.625H67.3091V38.7344H69.9966V39.9844H62.8872ZM63.7466 42.3906C63.7309 41.1562 64.8325 40.4062 66.4341 40.4062C68.02 40.4062 69.1294 41.1562 69.1372 42.3906C69.1294 43.6016 68.02 44.3594 66.4341 44.3594C64.8247 44.3594 63.7309 43.6016 63.7466 42.3906ZM65.2934 42.3906C65.2856 42.8984 65.77 43.1875 66.4341 43.1875C67.0981 43.1875 67.5747 42.8984 67.5747 42.3906C67.5747 41.875 67.0981 41.5938 66.4341 41.5938C65.77 41.5938 65.2856 41.875 65.2934 42.3906ZM84.0047 37.5625V38.9531H71.1297V37.5625H84.0047ZM72.4578 33.5781C72.4578 31.7891 74.4656 30.7109 77.5516 30.7188C80.6297 30.7109 82.6375 31.7891 82.6453 33.5781C82.6375 35.375 80.6297 36.4688 77.5516 36.4688C74.4656 36.4688 72.4578 35.375 72.4578 33.5781ZM72.7234 44.1094V40H74.4578V42.7031H82.5516V44.1094H72.7234ZM74.2703 33.5781C74.2547 34.5391 75.4969 35.0547 77.5516 35.0469C79.6141 35.0547 80.8484 34.5391 80.8484 33.5781C80.8484 32.6484 79.6141 32.1094 77.5516 32.1094C75.4969 32.1094 74.2547 32.6484 74.2703 33.5781ZM99.9428 30.2656V37.5H98.2084V33.9219H95.3959V32.5312H98.2084V30.2656H99.9428ZM88.0366 36.1875C90.31 35.5 91.4897 33.7578 91.4897 31.8594V30.7344H93.2397V31.8594C93.2319 33.6016 94.3725 35.25 96.5678 35.9219L95.6459 37.2656C94.1147 36.7578 93.0053 35.7578 92.3803 34.4766C91.7709 35.9062 90.6069 37.0312 88.9428 37.5781L88.0366 36.1875ZM90.6459 39.4688V38.1094H99.9428V41.7656H92.3647V42.8438H100.396V44.2188H90.6616V40.4688H98.2241V39.4688H90.6459ZM114.513 37.3281V38.7188H109.06V41.3125H107.342V38.7188H101.607V37.3281H114.513ZM103.17 44.1094V40.0156H104.904V42.7031H113.092V44.1094H103.17ZM103.248 36.0156V30.9062H112.857V36.0156H103.248ZM104.935 34.6562H111.138V32.2656H104.935V34.6562ZM126.881 30.2656V44.4062H125.131V30.2656H126.881ZM115.584 36.2812C115.576 33.2344 117.131 31.2969 119.272 31.2969C121.389 31.2969 122.951 33.2344 122.959 36.2812C122.951 39.3516 121.389 41.2812 119.272 41.2812C117.131 41.2812 115.576 39.3516 115.584 36.2812ZM117.256 36.2812C117.256 38.4531 118.076 39.7109 119.272 39.7188C120.459 39.7109 121.272 38.4531 121.272 36.2812C121.272 34.125 120.459 32.8594 119.272 32.8594C118.076 32.8594 117.256 34.125 117.256 36.2812ZM144.991 37.625V39.0312H132.116V37.625H137.663V36.375C135.077 36.1875 133.444 35.1562 133.444 33.5156C133.444 31.7422 135.452 30.6562 138.538 30.6562C141.616 30.6562 143.624 31.7422 143.632 33.5156C143.624 35.1562 141.991 36.1875 139.413 36.375V37.625H144.991ZM133.71 44.1094V40H135.444V42.7031H143.538V44.1094H133.71ZM135.257 33.5156C135.241 34.4922 136.483 35.0078 138.538 35C140.6 35.0078 141.835 34.4922 141.835 33.5156C141.835 32.5859 140.6 32.0391 138.538 32.0312C136.483 32.0391 135.241 32.5859 135.257 33.5156ZM150.843 33.6562C150.835 36.2812 152.093 38.8594 154.343 39.8438L153.296 41.2344C151.702 40.4531 150.577 38.9531 149.976 37.1016C149.358 39.0547 148.202 40.6797 146.577 41.5L145.483 40.0938C147.788 39.0156 149.069 36.2969 149.077 33.6562V31.4062H150.843V33.6562ZM152.78 36.2344V34.8281H155.749V30.2656H157.468V44.4062H155.749V36.2344H152.78ZM161.21 31.5938V34.9219H163.538V31.5938H165.117V35.4844H166.757V30.5312H168.413V43.7344H166.757V36.9219H165.117V40.9688H159.57V31.5938H161.21ZM161.21 39.5469H163.538V36.3125H161.21V39.5469ZM169.648 44.3906V30.2656H171.32V44.3906H169.648ZM184.39 30.2656V44.4062H182.64V30.2656H184.39ZM173.093 36.2812C173.086 33.2344 174.64 31.2969 176.781 31.2969C178.898 31.2969 180.461 33.2344 180.468 36.2812C180.461 39.3516 178.898 41.2812 176.781 41.2812C174.64 41.2812 173.086 39.3516 173.093 36.2812ZM174.765 36.2812C174.765 38.4531 175.586 39.7109 176.781 39.7188C177.968 39.7109 178.781 38.4531 178.781 36.2812C178.781 34.125 177.968 32.8594 176.781 32.8594C175.586 32.8594 174.765 34.125 174.765 36.2812ZM198.336 30.2656V44.3906H196.664V30.2656H198.336ZM186.289 36.375C186.289 33.2656 187.492 31.3359 189.336 31.3438C191.047 31.3359 192.211 32.9375 192.414 35.5781H193.773V30.5156H195.43V43.7031H193.773V36.9844H192.43C192.266 39.7422 191.086 41.4297 189.336 41.4219C187.492 41.4297 186.289 39.4922 186.289 36.375ZM187.898 36.375C187.891 38.5859 188.438 39.7734 189.336 39.7656C190.273 39.7734 190.828 38.5859 190.836 36.375C190.828 34.1719 190.273 32.9766 189.336 32.9844C188.438 32.9766 187.891 34.1719 187.898 36.375ZM204.875 33.6562C204.868 36.2812 206.125 38.8594 208.375 39.8438L207.328 41.2344C205.735 40.4531 204.61 38.9531 204.008 37.1016C203.391 39.0547 202.235 40.6797 200.61 41.5L199.516 40.0938C201.821 39.0156 203.102 36.2969 203.11 33.6562V31.4062H204.875V33.6562ZM206.813 36.2344V34.8281H209.782V30.2656H211.5V44.4062H209.782V36.2344H206.813ZM228.22 30.2656V35.5781H229.798V37.0469H228.22V44.3906H226.501V30.2656H228.22ZM216.813 41.0625V31.5625H218.251V34.9531H219.438V31.5625H220.876V41.0625H216.813ZM218.251 39.6406H219.438V36.3281H218.251V39.6406ZM221.517 41.0625V31.5625H222.923V34.9531H224.11V31.5625H225.548V41.0625H221.517ZM222.923 39.6406H224.11V36.3281H222.923V39.6406ZM243.056 41.2969V42.7188H230.15V41.2969H243.056ZM231.65 32.6719V31.2656H241.525V35.8125H233.415V37.6562H241.853V39.0312H231.681V34.4219H239.806V32.6719H231.65ZM255.845 30.2656V44.3906H254.189V30.2656H255.845ZM243.548 40.1719C246.47 38.4453 247.814 36.2344 248.08 33.3906H244.267V31.9844H249.798C249.798 33.3516 249.627 34.6328 249.244 35.8281H251.205V30.6094H252.845V43.7188H251.205V37.2188H248.673C247.853 38.8359 246.525 40.25 244.533 41.4062L243.548 40.1719ZM273.518 35.5625V36.9375H260.643V35.5625H264.229C264.658 34.1016 264.768 33 264.799 32.1719H261.846V30.7812H266.518V31.3906C266.51 32.2344 266.51 33.6562 266.002 35.5625H269.846C270.229 34.1172 270.299 33.0469 270.323 32.1719H267.377V30.7812H272.018V31.5938C272.01 32.5469 272.01 33.8516 271.588 35.5625H273.518ZM262.221 44.2188V38.0938H271.987V39.4062H263.971V40.5H271.643V41.7344H263.971V42.8906H272.08V44.2188H262.221ZM285.292 30.2812V33.4062H287.276V34.8438H285.292V38.0938H283.557V30.2812H285.292ZM274.62 42.9688C276.44 42.3281 277.338 40.8516 277.338 39.4688V38.6719H279.01V39.4688C279.003 40.6484 279.518 41.9062 280.745 42.6953C281.987 41.8516 282.526 40.5391 282.542 39.4688V38.6719H284.229V39.4688C284.237 40.9609 285.104 42.3594 286.963 42.9688L286.104 44.25C284.729 43.7734 283.838 42.8594 283.362 41.7188C282.909 42.8359 282.081 43.8438 280.776 44.375C279.44 43.8672 278.604 42.9062 278.167 41.7734C277.667 42.8672 276.792 43.7656 275.51 44.25L274.62 42.9688ZM274.76 37.3438V31.1094H276.51V35.9141C278.315 35.8828 280.229 35.7266 282.292 35.3438L282.495 36.75C280.151 37.2109 277.979 37.3594 275.932 37.3438H274.76ZM291.518 31.2969C293.425 31.2969 294.839 32.8906 295.089 35.4688H297.784V30.2656H299.503V44.4062H297.784V36.875H295.104C294.917 39.6016 293.479 41.2812 291.518 41.2812C289.393 41.2812 287.886 39.3516 287.893 36.2812C287.886 33.2344 289.393 31.2969 291.518 31.2969ZM289.565 36.2812C289.558 38.4531 290.354 39.7109 291.518 39.7188C292.69 39.7109 293.479 38.4531 293.487 36.2812C293.479 34.125 292.69 32.8594 291.518 32.8594C290.354 32.8594 289.558 34.125 289.565 36.2812ZM314.073 41.25V42.6719H301.167V41.25H304.152V37.6797C303.027 37.0312 302.347 36.0156 302.355 34.7656C302.347 32.5156 304.55 31.0312 307.589 31.0312C310.644 31.0312 312.863 32.5156 312.855 34.7656C312.863 36 312.198 36.9922 311.105 37.6406V41.25H314.073ZM304.058 34.7656C304.05 36.2109 305.48 37.1328 307.589 37.125C309.691 37.1328 311.152 36.2109 311.152 34.7656C311.152 33.2969 309.691 32.3984 307.589 32.4062C305.48 32.3984 304.05 33.2969 304.058 34.7656ZM305.87 41.25H309.339V38.3047C308.8 38.4219 308.214 38.4844 307.589 38.4844C306.98 38.4844 306.402 38.4219 305.87 38.3125V41.25ZM317.582 31.6875L317.41 39.6719H315.644L315.457 31.6875H317.582ZM315.316 41.9062C315.308 41.25 315.863 40.7109 316.535 40.7031C317.183 40.7109 317.738 41.25 317.738 41.9062C317.738 42.5781 317.183 43.125 316.535 43.125C315.863 43.125 315.308 42.5781 315.316 41.9062Z" fill="#06301F"/>
<rect opacity="0.3" y="46" width="62" height="166" fill="url(#paint6_linear_474_150)"/>
<rect opacity="0.3" x="375" y="203" width="62" height="166" transform="rotate(-180 375 203)" fill="url(#paint7_linear_474_150)"/>
</g>
<defs>
<filter id="filter0_d_474_150" x="-81.0634" y="19.4496" width="223.523" height="225.487" filterUnits="userSpaceOnUse" color-interpolation-filters="sRGB">
<feFlood flood-opacity="0" result="BackgroundImageFix"/>
<feColorMatrix in="SourceAlpha" type="matrix" values="0 0 0 0 0 0 0 0 0 0 0 0 0 0 0 0 0 0 127 0" result="hardAlpha"/>
<feOffset/>
<feGaussianBlur stdDeviation="20.7752"/>
<feComposite in2="hardAlpha" operator="out"/>
<feColorMatrix type="matrix" values="0 0 0 0 0.334189 0 0 0 0 0.735295 0 0 0 0 0.557026 0 0 0 0.2 0"/>
<feBlend mode="normal" in2="BackgroundImageFix" result="effect1_dropShadow_474_150"/>
<feBlend mode="normal" in="SourceGraphic" in2="effect1_dropShadow_474_150" result="shape"/>
</filter>
<filter id="filter1_d_474_150" x="73.3589" y="19.4496" width="225.903" height="227.832" filterUnits="userSpaceOnUse" color-interpolation-filters="sRGB">
<feFlood flood-opacity="0" result="BackgroundImageFix"/>
<feColorMatrix in="SourceAlpha" type="matrix" values="0 0 0 0 0 0 0 0 0 0 0 0 0 0 0 0 0 0 127 0" result="hardAlpha"/>
<feOffset/>
<feGaussianBlur stdDeviation="20.7752"/>
<feComposite in2="hardAlpha" operator="out"/>
<feColorMatrix type="matrix" values="0 0 0 0 0.334189 0 0 0 0 0.735295 0 0 0 0 0.557026 0 0 0 0.2 0"/>
<feBlend mode="normal" in2="BackgroundImageFix" result="effect1_dropShadow_474_150"/>
<feBlend mode="normal" in="SourceGraphic" in2="effect1_dropShadow_474_150" result="shape"/>
</filter>
<filter id="filter2_d_474_150" x="230.161" y="19.4496" width="225.903" height="227.831" filterUnits="userSpaceOnUse" color-interpolation-filters="sRGB">
<feFlood flood-opacity="0" result="BackgroundImageFix"/>
<feColorMatrix in="SourceAlpha" type="matrix" values="0 0 0 0 0 0 0 0 0 0 0 0 0 0 0 0 0 0 127 0" result="hardAlpha"/>
<feOffset/>
<feGaussianBlur stdDeviation="20.7752"/>
<feComposite in2="hardAlpha" operator="out"/>
<feColorMatrix type="matrix" values="0 0 0 0 0.334189 0 0 0 0 0.735295 0 0 0 0 0.557026 0 0 0 0.2 0"/>
<feBlend mode="normal" in2="BackgroundImageFix" result="effect1_dropShadow_474_150"/>
<feBlend mode="normal" in="SourceGraphic" in2="effect1_dropShadow_474_150" result="shape"/>
</filter>
<linearGradient id="paint0_linear_474_150" x1="-1.59854" y1="159.591" x2="-1.03227" y2="192.032" gradientUnits="userSpaceOnUse">
<stop stop-color="#15C67F"/>
<stop offset="0.656895" stop-color="#11A76B"/>
</linearGradient>
<linearGradient id="paint1_linear_474_150" x1="62.7501" y1="158.468" x2="63.3164" y2="190.909" gradientUnits="userSpaceOnUse">
<stop stop-color="#15C67F"/>
<stop offset="0.656895" stop-color="#11A76B"/>
</linearGradient>
<linearGradient id="paint2_linear_474_150" x1="151.125" y1="158.982" x2="149.992" y2="191.409" gradientUnits="userSpaceOnUse">
<stop stop-color="#15C67F"/>
<stop offset="0.656895" stop-color="#11A76B"/>
</linearGradient>
<linearGradient id="paint3_linear_474_150" x1="218.442" y1="161.334" x2="217.31" y2="193.76" gradientUnits="userSpaceOnUse">
<stop stop-color="#15C67F"/>
<stop offset="0.656895" stop-color="#11A76B"/>
</linearGradient>
<linearGradient id="paint4_linear_474_150" x1="311.798" y1="161.305" x2="312.931" y2="193.731" gradientUnits="userSpaceOnUse">
<stop stop-color="#15C67F"/>
<stop offset="0.656895" stop-color="#11A76B"/>
</linearGradient>
<linearGradient id="paint5_linear_474_150" x1="376.617" y1="159.041" x2="377.75" y2="191.468" gradientUnits="userSpaceOnUse">
<stop stop-color="#15C67F"/>
<stop offset="0.656895" stop-color="#11A76B"/>
</linearGradient>
<linearGradient id="paint6_linear_474_150" x1="0" y1="129" x2="62" y2="129" gradientUnits="userSpaceOnUse">
<stop stop-color="#E7F9F1"/>
<stop offset="1" stop-color="#E7F9F1" stop-opacity="0"/>
</linearGradient>
<linearGradient id="paint7_linear_474_150" x1="375" y1="286" x2="437" y2="286" gradientUnits="userSpaceOnUse">
<stop stop-color="#E7F9F1"/>
<stop offset="1" stop-color="#E7F9F1" stop-opacity="0"/>
</linearGradient>
<clipPath id="clip0_474_150">
<rect width="375" height="231" fill="white"/>
</clipPath>
</defs>
</svg>
