<svg width="375" height="485" viewBox="0 0 375 485" fill="none" xmlns="http://www.w3.org/2000/svg">
<rect width="375" height="485" fill="white"/>
<path opacity="0.87" d="M145.372 76.9102V81.6526H147.335V82.7307H145.372V89.1844H144.071V76.9102H145.372ZM136.346 86.1436V78.0898H142.075V79.1436H137.642V85.0608C139.696 85.0511 141.239 84.9641 142.993 84.645L143.148 85.7521C141.234 86.0856 139.605 86.1485 137.332 86.1436H136.346ZM152.144 80.0283C152.135 82.2666 153.484 84.5193 155.383 85.3557L154.6 86.3902C153.194 85.7182 152.082 84.3405 151.506 82.663C150.941 84.4565 149.814 85.9406 148.35 86.6512L147.547 85.5684C149.476 84.7079 150.83 82.3681 150.839 80.0283V77.9302H152.144V80.0283ZM156.49 89.1844V76.9102H157.796V89.1844H156.49ZM168.813 77.9883V83.712H163.075V77.9883H168.813ZM164.347 82.6775H167.542V79.0373H164.347V82.6775ZM164.467 88.9088V85.0124H165.758V87.8453H172.753V88.9088H164.467ZM170.931 85.8729V76.9054H172.231V80.5698H174.005V81.6526H172.231V85.8729H170.931ZM185.607 81.933V82.9724H174.426V81.933H185.607ZM175.755 84.9351V83.9344H184.177V86.9026H177.051V88H184.529V89.0297H175.779V85.9454H182.9V84.9351H175.755ZM175.881 81.0387V77.2728H184.157V78.3122H177.177V79.9945H184.273V81.0387H175.881ZM199.56 76.9102V83.2479H198.259V76.9102H199.56ZM189.586 81.8267C190.055 81.8267 190.553 81.8218 191.075 81.8122V78.7376H189.92V77.7224H196.567V78.7376H195.397V81.6381C195.992 81.5946 196.572 81.5414 197.123 81.4738L197.181 82.4164C194.74 82.7887 191.888 82.8757 189.736 82.8709L189.586 81.8267ZM191.433 84.8239V83.8087H199.56V86.8398H192.748V88H199.985V89.0442H191.467V85.8923H198.274V84.8239H191.433ZM192.323 81.788C192.922 81.7686 193.536 81.7493 194.15 81.7155V78.7376H192.323V81.788ZM212.414 86.5594V87.6326H201.203V86.5594H203.886V83.3543C202.876 82.8032 202.262 81.9233 202.262 80.826C202.262 78.8971 204.152 77.6305 206.777 77.6209C209.412 77.6305 211.307 78.8971 211.307 80.826C211.307 81.9088 210.712 82.7742 209.726 83.3301V86.5594H212.414ZM203.523 80.826C203.523 82.136 204.858 82.9917 206.777 82.9917C208.686 82.9917 210.04 82.136 210.04 80.826C210.04 79.5014 208.686 78.6602 206.777 78.6699C204.858 78.6602 203.523 79.5014 203.523 80.826ZM205.162 86.5594H208.416V83.828C207.913 83.9441 207.362 84.0069 206.777 84.0069C206.197 84.0069 205.655 83.9441 205.162 83.8329V86.5594ZM218.766 84.0891V85.5104H220.69V84.0891H221.889V89.0055H217.553V84.0891H218.766ZM216.339 80.2652C216.33 78.5877 217.674 77.4275 219.545 77.4275C221.159 77.4275 222.406 78.3363 222.682 79.7093H225.075V76.9102H226.371V83.3978H225.075V80.7825H222.687C222.431 82.1844 221.174 83.1126 219.545 83.1126C217.674 83.1126 216.33 81.9523 216.339 80.2652ZM217.572 80.2652C217.572 81.3191 218.389 82.0442 219.545 82.0539C220.681 82.0442 221.493 81.3191 221.493 80.2652C221.493 79.2162 220.681 78.5055 219.545 78.5055C218.389 78.5055 217.572 79.2162 217.572 80.2652ZM218.766 88H220.69V86.4917H218.766V88ZM221.952 88.1257C223.426 87.5166 224.152 86.2258 224.161 85.0124V84.0021H225.447V85.0124C225.438 86.2935 226.158 87.5891 227.666 88.1257L226.994 89.1022C225.887 88.6816 225.172 87.8791 224.79 86.9075C224.388 87.8598 223.668 88.6671 222.614 89.1022L221.952 88.1257ZM238.127 76.9102V89.1844H236.822V76.9102H238.127ZM228.401 82.1264C228.401 79.5014 229.721 77.8336 231.567 77.8287C233.395 77.8336 234.729 79.5014 234.729 82.1264C234.729 84.7659 233.395 86.4337 231.567 86.4337C229.721 86.4337 228.401 84.7659 228.401 82.1264ZM229.653 82.1264C229.653 84.0698 230.436 85.2686 231.567 85.2686C232.698 85.2686 233.472 84.0698 233.472 82.1264C233.472 80.1975 232.698 78.9986 231.567 78.989C230.436 78.9986 229.653 80.1975 229.653 82.1264Z" fill="black"/>
<path d="M105.629 109.667V111.644H87.1212V109.667H95.0948V107.803H88.8956V105.781H91.5684V102.3H88.7833V100.301H103.922V102.3H101.137V105.781H103.81V107.803H97.588V109.667H105.629ZM89.2999 119.752V113.238H103.383V119.752H89.2999ZM91.7706 117.73H100.957V115.192H91.7706V117.73ZM94.0616 105.781H98.6212V102.3H94.0616V105.781ZM127.99 99.7168V112.093H125.475V99.7168H127.99ZM112.11 102.974V100.93H121.477V106.882H114.603V109.061C118.074 109.049 120.556 108.937 123.453 108.499L123.768 110.498C120.567 111.026 117.815 111.116 113.885 111.104H112.155V105.018H119.006V102.974H112.11ZM114.222 116.226C114.21 113.822 116.838 112.452 121.162 112.452C125.463 112.452 128.103 113.822 128.103 116.226C128.103 118.584 125.463 119.977 121.162 119.977C116.838 119.977 114.21 118.584 114.222 116.226ZM116.692 116.226C116.692 117.394 118.287 118.011 121.162 118.022C124.015 118.011 125.598 117.394 125.609 116.226C125.598 115.046 124.015 114.406 121.162 114.406C118.287 114.406 116.692 115.046 116.692 116.226ZM146.729 101.581V104.007C146.729 106.96 146.729 109.746 145.83 114.047L143.337 113.822C143.753 112.048 143.977 110.487 144.112 109.049L132.152 109.667L131.815 107.646L144.225 107.174C144.269 106.084 144.281 105.04 144.281 104.007V103.603H132.421V101.581H146.729ZM130.265 117.416V115.372H148.773V117.416H130.265ZM159.763 101.446V111.037H150.149V101.446H159.763ZM152.463 119.595V113.081H154.956V117.573H166.276V119.595H152.463ZM152.598 109.061H157.314V103.445H152.598V109.061ZM162.974 114.519V99.6943H165.468V105.646H168.298V107.735H165.468V114.519H162.974ZM190.322 99.6943V110.588H187.806V99.6943H190.322ZM173.768 105.354C173.768 102.536 176.104 100.582 179.249 100.593C182.382 100.582 184.718 102.536 184.707 105.354C184.718 108.128 182.382 110.083 179.249 110.071C176.104 110.083 173.768 108.128 173.768 105.354ZM176.217 105.354C176.205 106.983 177.474 108.016 179.249 108.027C180.989 108.016 182.259 106.983 182.259 105.354C182.259 103.726 180.989 102.67 179.249 102.682C177.474 102.67 176.205 103.726 176.217 105.354ZM176.89 119.752V111.531H179.361V113.62H187.829V111.531H190.322V119.752H176.89ZM179.361 117.73H187.829V115.574H179.361V117.73ZM202.3 100.907V107.017H195.899V109.51C199.167 109.51 201.02 109.42 203.176 109.016L203.423 111.037C200.997 111.453 198.897 111.509 194.91 111.509H193.428V105.152H199.807V102.884H193.383V100.907H202.3ZM195.719 115.17V113.171H209.6V119.999H207.107V115.17H195.719ZM203.513 108.858V106.859H207.107V104.591H203.513V102.592H207.107V99.7168H209.6V112.205H207.107V108.858H203.513ZM221.69 102.929V104.928H211.74V102.929H215.513V100.278H217.984V102.929H221.69ZM212.324 110.723C212.301 107.96 214.177 105.995 216.749 106.006C219.332 105.995 221.173 107.96 221.173 110.723C221.173 113.542 219.332 115.507 216.749 115.507C214.177 115.507 212.301 113.542 212.324 110.723ZM214.525 110.723C214.514 112.362 215.435 113.384 216.749 113.373C218.051 113.384 218.972 112.362 218.972 110.723C218.972 109.128 218.051 108.072 216.749 108.072C215.435 108.072 214.514 109.128 214.525 110.723ZM222.544 119.078V100.121H224.879V108.05H226.856V99.6943H229.237V119.999H226.856V110.071H224.879V119.078H222.544ZM249.48 111.015V113.036H241.417V119.977H238.946V113.036H230.973V111.015H249.48ZM231.939 107.69C235.925 107.185 238.598 105.04 238.778 102.816H232.68V100.84H247.773V102.816H241.675C241.844 105.04 244.494 107.185 248.515 107.69L247.616 109.645C244.157 109.15 241.462 107.567 240.227 105.377C238.98 107.567 236.307 109.15 232.882 109.645L231.939 107.69ZM256.495 105.018C256.506 108.297 257.629 111.711 260.38 113.44L259.01 115.35C257.18 114.249 255.989 112.362 255.315 110.15C254.585 112.587 253.283 114.653 251.374 115.821L249.824 113.957C252.777 112.171 254.08 108.589 254.091 105.13V101.491H256.495V105.018ZM258.202 108.746V106.68H261.099V100.054H263.458V119.011H261.099V108.746H258.202ZM265.277 119.999V99.6943H267.68V119.999H265.277ZM287.901 115.484V117.528H269.349V115.484H273.639V110.352C272.021 109.42 271.044 107.96 271.056 106.163C271.044 102.929 274.211 100.795 278.58 100.795C282.971 100.795 286.161 102.929 286.149 106.163C286.161 107.938 285.206 109.364 283.634 110.296V115.484H287.901ZM273.504 106.163C273.493 108.241 275.548 109.566 278.58 109.555C281.601 109.566 283.701 108.241 283.701 106.163C283.701 104.052 281.601 102.76 278.58 102.771C275.548 102.76 273.493 104.052 273.504 106.163ZM276.109 115.484H281.096V111.25C280.321 111.419 279.478 111.509 278.58 111.509C277.704 111.509 276.873 111.419 276.109 111.262V115.484ZM103.043 136.533V138.577H100.033V148.954H97.5399V128.694H100.033V136.533H103.043ZM84.8495 143.945V130.671H87.3202V141.879C90.0267 141.834 92.9017 141.598 95.9676 140.958L96.2372 143.069C92.8119 143.754 89.5663 143.934 86.5565 143.945H84.8495ZM113.651 130.581V135.859H117.873V128.694H120.344V149.021H117.873V137.881H113.651V143.99H104.082V130.581H113.651ZM106.575 142.014H111.202V132.535H106.575V142.014ZM130.166 134.467C130.166 137.791 132.12 141.295 135.399 142.665L134.029 144.642C131.626 143.597 129.874 141.475 128.942 138.892C128.01 141.677 126.224 144.013 123.854 145.136L122.417 143.182C125.617 141.699 127.616 137.915 127.628 134.467V132.76H123.158V130.693H134.613V132.76H130.166V134.467ZM136.882 148.999V128.694H139.397V148.999H136.882ZM158.136 134.444V136.421H144.075V129.436H146.546V134.444H158.136ZM141.672 140.756V138.779H160.225V140.756H141.672ZM143.896 148.527V142.553H146.389V146.506H158.271V148.527H143.896ZM182.676 128.694V149.021H180.183V137.926H176.274V135.882H180.183V128.694H182.676ZM165.381 143.182C168.627 141.643 170.547 137.802 170.569 134.085V132.737H166.212V130.693H177.465V132.737H173.107V134.085C173.107 137.6 175.005 141.306 178.273 142.732L176.791 144.731C174.433 143.608 172.748 141.351 171.861 138.667C170.974 141.531 169.244 143.945 166.886 145.136L165.381 143.182ZM201.751 128.694V148.999H199.258V128.694H201.751ZM184.928 143.227C188.735 143.249 193.71 143.249 198.068 142.688L198.248 144.507C193.71 145.315 188.971 145.327 185.288 145.315L184.928 143.227ZM185.355 133.231V131.255H190.274V128.919H192.79V131.255H197.708V133.231H185.355ZM186.59 137.993C186.579 135.646 188.623 134.141 191.554 134.152C194.485 134.141 196.496 135.646 196.518 137.993C196.496 140.284 194.485 141.845 191.554 141.834C188.623 141.845 186.579 140.284 186.59 137.993ZM188.949 137.993C188.938 139.195 190.004 139.914 191.554 139.925C193.07 139.914 194.126 139.195 194.115 137.993C194.126 136.803 193.07 136.05 191.554 136.062C190.004 136.05 188.938 136.803 188.949 137.993ZM219.929 128.694V136.623H222.938V138.712H219.929V148.954H217.435V128.694H219.929ZM203.914 143.406C208.855 140.936 211.528 137.499 212.022 132.872H205.015V130.806H214.56C214.549 136.769 212.079 142.014 205.329 145.338L203.914 143.406ZM243.997 128.649V133.231H246.849V135.253H243.997V139.723H241.504V128.649H243.997ZM228.005 132.243V130.334H232.789V128.537H235.282V130.334H240.044V132.243H228.005ZM229.038 136.196C229.038 134.175 231.026 132.883 234.024 132.872C237.034 132.883 238.977 134.175 238.988 136.196C238.977 138.274 237.034 139.521 234.024 139.521C231.026 139.521 229.038 138.274 229.038 136.196ZM230.722 142.44V140.621H243.997V145.518H233.216V146.955H244.626V148.819H230.745V143.788H241.504V142.44H230.722ZM231.464 136.196C231.452 137.196 232.452 137.712 234.024 137.724C235.596 137.712 236.607 137.196 236.607 136.196C236.607 135.23 235.596 134.658 234.024 134.669C232.452 134.658 231.452 135.23 231.464 136.196ZM264.69 128.694V148.999H262.309V128.694H264.69ZM247.013 142.935C251.213 140.453 253.145 137.274 253.527 133.187H248.046V131.165H255.997C255.997 133.13 255.75 134.972 255.2 136.69H258.019V129.188H260.377V148.033H258.019V138.689H254.38C253.201 141.014 251.292 143.047 248.428 144.709L247.013 142.935ZM284.911 144.484V146.528H266.358V144.484H270.648V139.352C269.031 138.42 268.054 136.96 268.065 135.163C268.054 131.929 271.221 129.795 275.59 129.795C279.981 129.795 283.17 131.929 283.159 135.163C283.17 136.938 282.216 138.364 280.643 139.296V144.484H284.911ZM270.513 135.163C270.502 137.241 272.557 138.566 275.59 138.555C278.611 138.566 280.711 137.241 280.711 135.163C280.711 133.052 278.611 131.76 275.59 131.771C272.557 131.76 270.502 133.052 270.513 135.163ZM273.119 144.484H278.105V140.25C277.33 140.419 276.488 140.509 275.59 140.509C274.714 140.509 273.883 140.419 273.119 140.262V144.484ZM289.724 130.738L289.477 142.216H286.939L286.669 130.738H289.724ZM286.467 145.428C286.456 144.484 287.253 143.709 288.219 143.698C289.151 143.709 289.948 144.484 289.948 145.428C289.948 146.394 289.151 147.18 288.219 147.18C287.253 147.18 286.456 146.394 286.467 145.428Z" fill="black"/>
<rect x="16" y="185" width="343" height="148" rx="8" fill="#FAFCFC"/>
<rect width="54" height="54" transform="translate(52.5 209)" fill="#FAFCFC"/>
<g filter="url(#filter0_iiii_474_612)">
<path d="M92.147 228.348C92.147 227.248 93.0429 226.345 94.1294 226.519C98.3335 227.192 103.547 230.026 104.574 236.597C105.944 245.368 99.7932 252.157 92.147 252.157C87.8665 252.157 83.0109 252.335 80.7415 252.146C77.304 251.86 74.4278 250.617 72.4629 248.249C70.5411 245.934 69.8441 242.965 69.8441 239.912V236.312C69.8441 235.211 70.7362 234.319 71.8366 234.319H73.974C75.0744 234.319 75.9665 235.211 75.9665 236.312V239.912C75.9665 242.107 76.4721 243.493 77.1742 244.339C77.8331 245.133 79.0022 245.858 81.2497 246.045C83.193 246.207 87.3315 246.034 92.147 246.034C95.8708 246.034 99.3406 242.765 98.5247 237.542C98.1056 234.86 96.1784 233.333 94.1143 232.752C93.055 232.454 92.147 231.586 92.147 230.485V228.348Z" fill="#1AC985"/>
</g>
<g filter="url(#filter1_iiii_474_612)">
<path d="M77.7688 220.234C85.9381 220.234 90.0693 226.052 89.7949 230.607V234.86C89.7949 235.96 88.9028 236.852 87.8024 236.852H85.665C84.5646 236.852 83.6725 235.96 83.6725 234.86V230.384L83.6832 230.257C83.7391 229.587 82.7986 226.357 77.7688 226.357H66.3987C65.2173 226.357 63.7532 226.742 62.6047 227.603C61.5488 228.395 60.6413 229.666 60.4874 231.823C60.2633 234.96 61.2372 236.599 62.3912 237.549C63.3182 238.311 64.6156 238.833 66.1625 239.07C67.2502 239.237 68.148 240.107 68.148 241.207V243.345C68.148 244.445 67.2537 245.349 66.1589 245.238C63.4772 244.966 60.7228 244.104 58.5019 242.277C55.5787 239.872 54.0383 236.176 54.3804 231.386C54.6637 227.42 56.4891 224.537 58.9316 222.705C61.2816 220.943 64.0815 220.234 66.3987 220.234H77.7688Z" fill="#1AC985"/>
</g>
<path d="M60.7631 284.554H58.7928V268.68H60.7631V284.554ZM47.605 280.184C48.9806 279.53 50.1222 278.794 51.0297 277.978C51.9413 277.157 52.6416 276.248 53.1305 275.249C53.6195 274.247 53.9219 273.134 54.038 271.912H48.413V270.364H56.0269C56.0228 272.017 55.7824 273.538 55.3059 274.926C54.8335 276.31 54.0504 277.58 52.9565 278.736C51.8667 279.892 50.4247 280.897 48.6305 281.751L47.605 280.184ZM75.8727 270.961H71.2609C71.323 271.474 71.5716 271.963 72.0067 272.427C72.4459 272.892 73.0468 273.287 73.8092 273.615C74.5758 273.942 75.4563 274.162 76.4508 274.273L75.7236 275.84C74.783 275.72 73.9252 275.506 73.1504 275.2C72.3796 274.893 71.7187 274.51 71.1676 274.05C70.6207 273.59 70.2042 273.072 69.9183 272.496C69.6324 273.072 69.216 273.59 68.669 274.05C68.1262 274.51 67.4694 274.893 66.6987 275.2C65.928 275.506 65.0744 275.72 64.1379 275.84L63.4231 274.273C64.4135 274.162 65.2878 273.942 66.0461 273.615C66.8085 273.287 67.4073 272.892 67.8423 272.427C68.2816 271.959 68.5323 271.47 68.5944 270.961H64.0198V269.388H75.8727V270.961ZM62.6959 277.052H68.9487V274.696H70.8879V277.052H77.1904V278.637H62.6959V277.052ZM64.4798 279.706H66.4439V282.671H75.5371V284.256H64.4798V279.706ZM95.1114 276.803H93.1597V272.794H89.996V271.228H93.1597V268.68H95.1114V276.803ZM81.717 275.343C82.5458 275.09 83.2502 274.719 83.8303 274.23C84.4146 273.737 84.8559 273.167 85.1542 272.521C85.4525 271.874 85.6038 271.189 85.6079 270.463V269.195H87.572V270.463C87.5679 271.126 87.7088 271.76 87.9947 272.365C88.2806 272.966 88.7032 273.501 89.2626 273.969C89.8262 274.433 90.5078 274.787 91.3075 275.032L90.2695 276.548C89.4242 276.267 88.6908 275.856 88.0693 275.318C87.4477 274.779 86.9608 274.143 86.6086 273.41C86.2523 274.234 85.7467 274.947 85.092 275.548C84.4415 276.144 83.6583 276.594 82.7426 276.896L81.717 275.343ZM84.6445 277.506H95.1114V281.602H86.59V282.82H95.6086V284.367H84.6694V280.16H93.1722V279.028H84.6445V277.506ZM111.508 278.189H105.373V281.092H103.44V278.189H96.9821V276.617H111.508V278.189ZM98.741 279.65H100.693V282.671H109.904V284.256H98.741V279.65ZM98.8218 269.401H109.637V275.15H98.8218V269.401ZM107.71 273.615V270.93H100.73V273.615H107.71ZM60.7258 300.382H58.7679V290.692H60.7258V300.382ZM48.3073 291.649H55.6353V296.305H50.2527V298.008C51.703 297.999 52.9523 297.964 54.0007 297.902C55.049 297.84 56.1119 297.724 57.1892 297.554L57.4378 299.133C56.2569 299.323 55.0884 299.452 53.9323 299.518C52.7804 299.58 51.3674 299.611 49.6934 299.611H48.3384V294.831H53.7023V293.24H48.3073V291.649ZM49.9544 303.602C49.9544 302.98 50.1699 302.45 50.6008 302.01C51.0359 301.571 51.6595 301.238 52.4717 301.01C53.288 300.778 54.2597 300.662 55.3867 300.662C56.5097 300.662 57.4793 300.778 58.2956 301.01C59.1119 301.238 59.7376 301.573 60.1726 302.017C60.6077 302.456 60.8253 302.984 60.8253 303.602C60.8253 304.215 60.6056 304.741 60.1664 305.18C59.7313 305.624 59.1056 305.961 58.2893 306.193C57.473 306.425 56.5055 306.541 55.3867 306.541C54.2638 306.541 53.2942 306.425 52.4779 306.193C51.6657 305.965 51.0421 305.63 50.607 305.186C50.1719 304.743 49.9544 304.215 49.9544 303.602ZM51.8936 303.602C51.8936 304.061 52.1899 304.412 52.7824 304.652C53.375 304.888 54.2286 305.006 55.3432 305.006C56.4827 305.006 57.355 304.888 57.9599 304.652C58.5649 304.416 58.8695 304.066 58.8736 303.602C58.8695 303.142 58.567 302.791 57.9661 302.551C57.3695 302.311 56.5097 302.191 55.3867 302.191C54.2597 302.191 53.3957 302.311 52.7949 302.551C52.194 302.791 51.8936 303.142 51.8936 303.602ZM75.5806 294.042C75.5765 295.074 75.562 295.938 75.5371 296.634C75.5164 297.33 75.4542 298.122 75.3506 299.008C75.2512 299.895 75.0917 300.863 74.872 301.911L72.9204 301.737C73.2063 300.502 73.4093 299.259 73.5295 298.008L64.169 298.474L63.9142 296.895L73.6227 296.535C73.6434 296.05 73.658 295.337 73.6662 294.396V294.042V293.731H64.3803V292.146H75.5806V294.042ZM62.6959 302.936H77.1718V304.54H62.6959V302.936ZM95.0306 299.207H93.0727V290.68H95.0306V299.207ZM82.09 295.105C82.09 294.38 82.2744 293.735 82.6431 293.172C83.0119 292.604 83.5216 292.163 84.1722 291.848C84.8268 291.533 85.5603 291.376 86.3724 291.376C87.1804 291.376 87.9097 291.533 88.5603 291.848C89.2108 292.163 89.7205 292.604 90.0893 293.172C90.4622 293.735 90.6487 294.38 90.6487 295.105C90.6487 295.814 90.4622 296.45 90.0893 297.013C89.7205 297.577 89.2108 298.016 88.5603 298.331C87.9097 298.642 87.1804 298.797 86.3724 298.797C85.5603 298.797 84.8289 298.64 84.1784 298.325C83.5278 298.01 83.0161 297.573 82.6431 297.013C82.2744 296.45 82.09 295.814 82.09 295.105ZM83.9981 295.105C83.9981 295.523 84.0976 295.89 84.2965 296.205C84.4995 296.52 84.7813 296.762 85.1418 296.932C85.5023 297.102 85.9125 297.187 86.3724 297.187C86.8241 297.187 87.2281 297.102 87.5844 296.932C87.9449 296.762 88.2246 296.52 88.4235 296.205C88.6266 295.89 88.7281 295.523 88.7281 295.105C88.7281 294.686 88.6266 294.32 88.4235 294.005C88.2205 293.686 87.9408 293.441 87.5844 293.271C87.2281 293.097 86.8241 293.01 86.3724 293.01C85.9125 293.01 85.5023 293.097 85.1418 293.271C84.7813 293.441 84.4995 293.686 84.2965 294.005C84.0976 294.32 83.9981 294.686 83.9981 295.105ZM84.5326 299.941H86.4532V301.563H93.0851V299.941H95.0306V306.367H84.5326V299.941ZM93.0851 304.782V303.092H86.4532V304.782H93.0851ZM104.584 296.41H99.5739V298.362C100.921 298.358 102.006 298.331 102.831 298.281C103.655 298.227 104.474 298.124 105.286 297.97L105.466 299.549C104.571 299.702 103.657 299.804 102.725 299.854C101.793 299.899 100.49 299.924 98.8156 299.928H97.6409V294.95H102.638V293.166H97.616V291.618H104.584V296.41ZM99.4434 301.215H110.308V306.566H108.356V302.787H99.4434V301.215ZM105.547 296.286H108.356V294.502H105.547V292.948H108.356V290.692H110.308V300.463H108.356V297.852H105.547V296.286Z" fill="black"/>
<path d="M138.5 258.134C139.167 258.519 139.167 259.481 138.5 259.866L131.75 263.763C131.083 264.148 130.25 263.667 130.25 262.897L130.25 255.103C130.25 254.333 131.083 253.852 131.75 254.237L138.5 258.134Z" fill="#D4DDDD"/>
<rect width="54" height="54" transform="translate(160.5 209)" fill="#FAFCFC"/>
<g filter="url(#filter2_iiii_474_612)">
<rect x="170.47" y="218.832" width="35.0202" height="37.7849" rx="1.84317" fill="#1AC985"/>
</g>
<mask id="mask0_474_612" style="mask-type:alpha" maskUnits="userSpaceOnUse" x="170" y="218" width="36" height="37">
<rect x="170.01" y="218.617" width="35.0202" height="36.1568" rx="1.84317" fill="#1AC985"/>
</mask>
<g mask="url(#mask0_474_612)">
<g opacity="0.6" filter="url(#filter3_f_474_612)">
<path d="M164.48 217.227H208.255L164.48 253.036V217.227Z" fill="url(#paint0_linear_474_612)"/>
</g>
</g>
<path d="M178.304 229.676H196.735" stroke="white" stroke-width="2.76475" stroke-linecap="round"/>
<path d="M178.304 237.051H196.735" stroke="white" stroke-width="2.76475" stroke-linecap="round"/>
<path d="M178.304 244.422H188.902" stroke="white" stroke-width="2.76475" stroke-linecap="round"/>
<path d="M171.931 278.537H157.455V276.959H163.702V275.554C162.732 275.483 161.891 275.309 161.178 275.032C160.465 274.754 159.916 274.385 159.531 273.925C159.15 273.465 158.959 272.931 158.959 272.322C158.959 271.667 159.193 271.099 159.662 270.619C160.13 270.134 160.795 269.761 161.657 269.5C162.523 269.239 163.532 269.108 164.684 269.108C165.831 269.108 166.836 269.239 167.698 269.5C168.56 269.761 169.225 270.134 169.693 270.619C170.166 271.099 170.402 271.667 170.402 272.322C170.402 272.931 170.209 273.465 169.824 273.925C169.438 274.385 168.889 274.754 168.177 275.032C167.468 275.309 166.629 275.483 165.659 275.554V276.959H171.931V278.537ZM159.239 279.619H161.203V282.671H170.296V284.256H159.239V279.619ZM160.985 272.322C160.981 272.686 161.126 272.995 161.421 273.248C161.715 273.497 162.137 273.685 162.688 273.814C163.244 273.942 163.909 274.006 164.684 274.006C165.856 274.006 166.768 273.863 167.418 273.577C168.069 273.287 168.394 272.869 168.394 272.322C168.394 271.978 168.245 271.682 167.947 271.433C167.653 271.184 167.226 270.996 166.666 270.867C166.111 270.735 165.45 270.669 164.684 270.669C163.917 270.669 163.254 270.735 162.695 270.867C162.139 270.996 161.715 271.184 161.421 271.433C161.126 271.682 160.981 271.978 160.985 272.322ZM178.519 272.496C178.519 273.49 178.672 274.452 178.979 275.38C179.29 276.304 179.741 277.124 180.334 277.841C180.931 278.554 181.641 279.093 182.466 279.457L181.279 281.017C180.4 280.586 179.644 279.971 179.01 279.171C178.38 278.372 177.889 277.439 177.537 276.374C177.181 277.501 176.679 278.494 176.033 279.352C175.386 280.209 174.618 280.862 173.727 281.309L172.496 279.724C173.333 279.335 174.054 278.763 174.659 278.009C175.268 277.251 175.732 276.393 176.052 275.436C176.371 274.474 176.532 273.494 176.536 272.496V269.954H178.519V272.496ZM180.707 273.814H184.032V268.68H185.971V284.591H184.032V275.392H180.707V273.814ZM190.185 273.913H192.802V270.165H194.586V274.553H196.432V268.978H198.29V283.82H196.432V276.163H194.586V280.719H188.339V270.165H190.185V273.913ZM192.802 279.109V275.467H190.185V279.109H192.802ZM199.676 268.68H201.553V284.554H199.676V268.68ZM216.265 284.591H214.295V268.68H216.265V284.591ZM203.555 275.442C203.555 274.319 203.731 273.335 204.083 272.49C204.439 271.64 204.93 270.985 205.556 270.526C206.186 270.061 206.903 269.829 207.707 269.829C208.498 269.829 209.207 270.061 209.832 270.526C210.462 270.985 210.953 271.64 211.305 272.49C211.662 273.335 211.84 274.319 211.84 275.442C211.84 276.573 211.662 277.566 211.305 278.419C210.953 279.269 210.462 279.923 209.832 280.383C209.207 280.839 208.498 281.067 207.707 281.067C206.903 281.067 206.186 280.839 205.556 280.383C204.926 279.923 204.435 279.269 204.083 278.419C203.731 277.566 203.555 276.573 203.555 275.442ZM205.438 275.442C205.438 276.242 205.531 276.934 205.718 277.518C205.908 278.098 206.173 278.541 206.513 278.848C206.857 279.151 207.255 279.302 207.707 279.302C208.15 279.302 208.539 279.148 208.875 278.842C209.215 278.535 209.478 278.092 209.664 277.512C209.855 276.932 209.95 276.242 209.95 275.442C209.95 274.646 209.855 273.961 209.664 273.385C209.478 272.805 209.215 272.361 208.875 272.055C208.539 271.748 208.15 271.595 207.707 271.595C207.255 271.595 206.857 271.748 206.513 272.055C206.173 272.361 205.908 272.805 205.718 273.385C205.531 273.961 205.438 274.646 205.438 275.442ZM168.807 298.803H166.855V294.794H163.691V293.228H166.855V290.68H168.807V298.803ZM155.412 297.343C156.241 297.09 156.945 296.719 157.526 296.23C158.11 295.737 158.551 295.167 158.849 294.521C159.148 293.874 159.299 293.189 159.303 292.463V291.195H161.267V292.463C161.263 293.126 161.404 293.76 161.69 294.365C161.976 294.966 162.398 295.501 162.958 295.969C163.521 296.433 164.203 296.787 165.003 297.032L163.965 298.548C163.119 298.267 162.386 297.856 161.764 297.318C161.143 296.779 160.656 296.143 160.304 295.41C159.947 296.234 159.442 296.947 158.787 297.548C158.137 298.144 157.354 298.594 156.438 298.896L155.412 297.343ZM158.34 299.506H168.807V303.602H160.285V304.82H169.304V306.367H158.365V302.16H166.867V301.028H158.34V299.506ZM185.203 300.189H179.068V303.092H177.135V300.189H170.677V298.617H185.203V300.189ZM172.436 301.65H174.388V304.671H183.599V306.256H172.436V301.65ZM172.517 291.401H183.332V297.15H172.517V291.401ZM181.405 295.615V292.93H174.425V295.615H181.405ZM203.111 302.414H201.16V298.418H197.965V299.841H190.519V291.736H192.483V294.297H196.032V291.736H197.965V293.433H201.16V290.692H203.111V302.414ZM196.032 298.287V295.801H192.483V298.287H196.032ZM192.638 301.258H194.615V304.671H203.459V306.256H192.638V301.258ZM201.16 296.839V295.018H197.965V296.839H201.16ZM217.593 296.006H219.738V297.622H217.593V303.079H215.635V290.68H217.593V296.006ZM204.858 299.91C206.291 299.91 207.626 299.891 208.861 299.854V298.84C208.272 298.766 207.76 298.623 207.325 298.412C206.894 298.2 206.563 297.931 206.331 297.604C206.099 297.272 205.985 296.895 205.989 296.472C205.985 295.963 206.14 295.521 206.455 295.148C206.774 294.776 207.222 294.492 207.798 294.297C208.378 294.102 209.051 294.005 209.818 294.005C210.588 294.005 211.262 294.102 211.838 294.297C212.414 294.492 212.859 294.776 213.174 295.148C213.493 295.521 213.655 295.963 213.659 296.472C213.655 296.891 213.537 297.264 213.305 297.591C213.073 297.919 212.743 298.19 212.316 298.405C211.894 298.617 211.392 298.762 210.812 298.84V299.76C212.316 299.669 213.651 299.537 214.815 299.363L214.958 300.724C213.926 300.919 212.838 301.068 211.695 301.171C210.551 301.271 209.478 301.337 208.475 301.37C207.477 301.403 206.341 301.426 205.069 301.439L204.858 299.91ZM205.268 292.059H208.861V290.63H210.812V292.059H214.392V293.483H205.268V292.059ZM207.139 302.253H209.103V304.671H218.153V306.256H207.139V302.253ZM207.86 296.472C207.852 296.816 208.021 297.086 208.369 297.28C208.718 297.471 209.2 297.566 209.818 297.566C210.431 297.566 210.912 297.471 211.26 297.28C211.608 297.086 211.782 296.816 211.782 296.472C211.782 296.104 211.61 295.822 211.266 295.627C210.922 295.428 210.439 295.327 209.818 295.323C209.192 295.327 208.707 295.428 208.363 295.627C208.023 295.822 207.856 296.104 207.86 296.472Z" fill="black"/>
<path d="M246.5 258.134C247.167 258.519 247.167 259.481 246.5 259.866L239.75 263.763C239.083 264.148 238.25 263.667 238.25 262.897L238.25 255.103C238.25 254.333 239.083 253.852 239.75 254.237L246.5 258.134Z" fill="#D4DDDD"/>
<g clip-path="url(#clip0_474_612)">
<rect width="54" height="54" transform="translate(268.5 210)" fill="#FAFCFC"/>
<g filter="url(#filter4_iiii_474_612)">
<rect x="275.657" y="222.828" width="40.2234" height="29.0502" rx="2.23463" fill="#1AC985"/>
</g>
<rect x="275.657" y="227.297" width="40.2234" height="17.8771" fill="url(#paint1_linear_474_612)"/>
<rect opacity="0.65" x="275.657" y="227.297" width="40.2234" height="12.2905" fill="url(#paint2_linear_474_612)"/>
<g opacity="0.5">
<mask id="mask1_474_612" style="mask-type:alpha" maskUnits="userSpaceOnUse" x="275" y="222" width="41" height="30">
<rect x="275.657" y="222.828" width="40.2234" height="29.0502" rx="2.23463" fill="#1AC985"/>
</mask>
<g mask="url(#mask1_474_612)">
<path d="M275.098 252.995L294.651 235.677L275.098 225.062V252.995Z" fill="url(#paint3_linear_474_612)"/>
<path d="M316.439 252.995L296.886 235.677L316.439 225.062V252.995Z" fill="url(#paint4_linear_474_612)"/>
</g>
</g>
<g filter="url(#filter5_i_474_612)">
<path d="M313.646 222.828H277.892C276.104 222.828 275.657 224.318 275.657 225.063V228.415L291.535 236.354C292.85 237.011 294.299 237.353 295.769 237.353C297.238 237.353 298.688 237.011 300.002 236.354L315.88 228.415V225.063C315.88 223.722 314.763 222.828 313.646 222.828Z" fill="#1BD68E"/>
</g>
<g opacity="0.4" filter="url(#filter6_f_474_612)">
<path d="M275.199 236.494V222.751L318.26 222.293L275.199 236.494Z" fill="url(#paint5_linear_474_612)"/>
</g>
<mask id="mask2_474_612" style="mask-type:alpha" maskUnits="userSpaceOnUse" x="275" y="222" width="41" height="16">
<path d="M313.646 222.828H277.892C276.104 222.828 275.657 224.318 275.657 225.063V228.415L291.535 236.354C292.85 237.011 294.299 237.353 295.769 237.353C297.238 237.353 298.688 237.011 300.002 236.354L315.88 228.415V225.063C315.88 223.722 314.763 222.828 313.646 222.828Z" fill="#1BD68E"/>
</mask>
<g mask="url(#mask2_474_612)">
</g>
<rect x="304.975" y="215.879" width="14.6592" height="14.6592" rx="7.32959" fill="#141A16"/>
<path d="M314.802 220.233V226.711H313.764L310.695 222.282H310.641V226.711H309.478V220.233H310.534L313.585 224.662H313.648V220.233H314.802Z" fill="white"/>
</g>
<path d="M260.894 280.34L265.388 276.008C265.877 275.519 266.254 275.117 266.519 274.802C266.788 274.488 266.994 274.179 267.134 273.876C267.279 273.57 267.352 273.244 267.352 272.901C267.352 272.511 267.257 272.169 267.066 271.875C266.875 271.581 266.612 271.355 266.277 271.198C265.945 271.04 265.572 270.961 265.158 270.961C264.727 270.961 264.348 271.048 264.021 271.222C263.697 271.392 263.449 271.637 263.275 271.956C263.101 272.275 263.014 272.648 263.014 273.075H260.838C260.834 272.283 261.016 271.587 261.385 270.986C261.754 270.385 262.268 269.921 262.927 269.594C263.59 269.262 264.344 269.097 265.189 269.097C266.038 269.097 266.793 269.256 267.451 269.575C268.11 269.89 268.622 270.327 268.987 270.887C269.355 271.446 269.54 272.078 269.54 272.782C269.536 273.28 269.44 273.756 269.254 274.212C269.067 274.664 268.744 275.169 268.284 275.729C267.829 276.284 267.18 276.957 266.339 277.749L264.083 279.992V280.086H269.733V282H260.9L260.894 280.34ZM270.862 277.805L276.363 269.271H279.222V277.749H280.894V279.632H279.222V282H277.041V279.632H270.862V277.805ZM277.065 277.749V271.869H276.935L273.212 277.649V277.749H277.065ZM287.834 271.496C287.829 272.47 287.991 273.421 288.318 274.349C288.65 275.273 289.126 276.095 289.748 276.816C290.369 277.533 291.099 278.072 291.936 278.432L290.773 279.999C289.878 279.584 289.097 278.979 288.43 278.184C287.767 277.384 287.247 276.454 286.87 275.393C286.501 276.541 285.975 277.548 285.291 278.414C284.608 279.276 283.796 279.926 282.855 280.365L281.662 278.737C282.519 278.364 283.263 277.805 283.893 277.059C284.527 276.313 285.012 275.457 285.347 274.492C285.683 273.522 285.853 272.523 285.857 271.496V268.954H287.834V271.496ZM293.079 267.68H295.05V283.591H293.079V267.68ZM309.563 272.248H311.782V273.87H309.563V279.135H307.58V267.68H309.563V272.248ZM296.964 275.94C298.17 275.592 299.212 275.146 300.09 274.604C300.969 274.057 301.661 273.435 302.166 272.739C302.676 272.043 302.987 271.291 303.099 270.483H297.641V268.879H305.243C305.243 270.276 304.949 271.539 304.36 272.671C303.772 273.798 302.92 274.769 301.806 275.586C300.695 276.398 299.355 277.034 297.784 277.494L296.964 275.94ZM299.357 277.966H301.327V281.671H310.159V283.256H299.357V277.966ZM329.777 283.554H327.894V275.523H326.135V282.765H324.301V267.978H326.135V273.926H327.894V267.68H329.777V283.554ZM316.824 269.494H318.782V277.885C320.348 277.856 321.861 277.701 323.319 277.419L323.524 279.116C322.509 279.294 321.54 279.421 320.616 279.495C319.696 279.57 318.784 279.605 317.881 279.601H316.824V269.494ZM268.298 290.363C269.064 290.363 269.748 290.498 270.349 290.767C270.954 291.032 271.426 291.407 271.766 291.892C272.106 292.377 272.278 292.932 272.282 293.558C272.278 294.08 272.151 294.557 271.903 294.988C271.658 295.414 271.312 295.773 270.865 296.063C270.417 296.349 269.899 296.546 269.311 296.653V297.94C270.79 297.849 272.087 297.722 273.202 297.561L273.351 298.99C271.921 299.243 270.417 299.415 268.838 299.506C267.264 299.597 265.644 299.643 263.978 299.643H263.673L263.468 298.077H264.177C265.296 298.077 266.352 298.06 267.347 298.027V296.666C266.742 296.562 266.211 296.367 265.756 296.081C265.3 295.791 264.945 295.431 264.693 295C264.444 294.565 264.322 294.084 264.326 293.558C264.322 292.932 264.488 292.377 264.823 291.892C265.163 291.407 265.633 291.032 266.234 290.767C266.839 290.498 267.527 290.363 268.298 290.363ZM265.637 300.756H267.602V303.652H276.651V305.237H265.637V300.756ZM266.147 293.558C266.143 293.898 266.23 294.196 266.408 294.453C266.59 294.71 266.845 294.909 267.173 295.05C267.5 295.186 267.875 295.257 268.298 295.261C268.72 295.257 269.093 295.186 269.416 295.05C269.74 294.909 269.99 294.712 270.168 294.459C270.347 294.202 270.438 293.902 270.442 293.558C270.438 293.206 270.347 292.901 270.168 292.644C269.99 292.387 269.74 292.191 269.416 292.054C269.093 291.913 268.72 291.843 268.298 291.843C267.875 291.847 267.5 291.917 267.173 292.054C266.845 292.191 266.59 292.39 266.408 292.651C266.23 292.907 266.143 293.21 266.147 293.558ZM274.134 289.692H276.092V294.814H278.236V296.448H276.092V301.825H274.134V289.692ZM293.221 303.72H278.696V302.104H282.537V299.488H280.418V294.298H289.567V292.34H280.393V290.761H291.5V295.864H282.369V297.896H291.867V299.488H289.542V302.104H293.221V303.72ZM287.621 302.104V299.488H284.439V302.104H287.621ZM304.535 295.528H306.388V289.953H308.246V304.796H306.388V297.113H304.535V301.47H298.295V291.395H304.535V295.528ZM302.702 299.929V292.936H300.129V299.929H302.702ZM309.632 289.68H311.509V305.554H309.632V289.68ZM317.507 290.183C318.302 290.183 319.019 290.338 319.657 290.649C320.296 290.956 320.797 291.383 321.162 291.93C321.526 292.472 321.709 293.088 321.709 293.776C321.709 294.463 321.526 295.079 321.162 295.622C320.797 296.164 320.296 296.589 319.657 296.896C319.019 297.202 318.302 297.356 317.507 297.356C316.703 297.356 315.98 297.202 315.338 296.896C314.695 296.589 314.192 296.164 313.827 295.622C313.467 295.079 313.287 294.463 313.287 293.776C313.287 293.088 313.467 292.472 313.827 291.93C314.192 291.383 314.695 290.956 315.338 290.649C315.984 290.338 316.707 290.183 317.507 290.183ZM315.189 293.776C315.184 294.177 315.282 294.53 315.481 294.832C315.68 295.131 315.955 295.363 316.307 295.528C316.66 295.69 317.059 295.771 317.507 295.771C317.95 295.771 318.346 295.69 318.694 295.528C319.046 295.363 319.32 295.131 319.515 294.832C319.713 294.53 319.813 294.177 319.813 293.776C319.813 293.378 319.713 293.03 319.515 292.731C319.316 292.433 319.042 292.203 318.694 292.041C318.346 291.88 317.95 291.799 317.507 291.799C317.059 291.799 316.66 291.88 316.307 292.041C315.955 292.203 315.68 292.433 315.481 292.731C315.282 293.03 315.184 293.378 315.189 293.776ZM315.68 298.394H326.227V302.546H317.631V303.82H326.706V305.367H315.729V301.104H324.282V299.916H315.68V298.394ZM324.269 289.68H326.227V297.698H324.269V289.68Z" fill="black"/>
<path d="M98.095 353.266V367.391H96.345V353.266H98.095ZM93.8763 354.766C93.8763 358.969 92.2513 362.547 87.2981 364.891L86.3919 363.5C90.0872 361.742 91.8059 359.352 92.1106 356.141H87.1106V354.766H93.8763ZM111.525 353.906V355.297H107.431C107.58 356.656 109.314 357.938 112.041 358.25L111.384 359.641C108.853 359.312 106.986 358.188 106.228 356.656C105.47 358.188 103.619 359.312 101.088 359.641L100.447 358.25C103.173 357.938 104.877 356.641 105.041 355.297H100.978V353.906H111.525ZM111.228 365.703V367.109H101.4V363.078H103.134V365.703H111.228ZM112.681 360.703V362.125H99.8063V360.703H105.369V358.625H107.088V360.703H112.681ZM125.502 353.266V367.391H123.83V353.266H125.502ZM122.596 353.516V366.703H120.939V359.984H119.596C119.432 362.734 118.252 364.438 116.502 364.422C114.658 364.438 113.455 362.484 113.455 359.375C113.455 356.266 114.658 354.344 116.502 354.344C118.213 354.344 119.377 355.938 119.58 358.578H120.939V353.516H122.596ZM116.502 355.984C115.611 355.969 115.049 357.172 115.064 359.375C115.049 361.578 115.611 362.781 116.502 362.766C117.439 362.781 118.002 361.578 118.002 359.375C118.002 357.172 117.439 355.969 116.502 355.984ZM135.362 355.719C135.362 357.453 136.487 359.172 138.706 359.906L137.831 361.25C136.253 360.727 135.128 359.664 134.518 358.344C133.885 359.789 132.713 360.938 131.065 361.5L130.143 360.156C132.424 359.406 133.612 357.578 133.612 355.719V355.547H130.628V354.156H138.299V355.547H135.362V355.719ZM141.44 353.266V356.797H143.409V358.25H141.44V361.781H139.706V353.266H141.44ZM141.44 362.438V367.391H139.706V363.828H132.034V362.438H141.44ZM148.979 355.297C148.964 357.219 150.089 358.969 152.308 359.672L151.37 361.031C149.831 360.492 148.753 359.469 148.151 358.125C147.526 359.664 146.347 360.875 144.636 361.469L143.714 360.062C146.058 359.297 147.229 357.406 147.229 355.375V354.031H148.979V355.297ZM155.636 353.266V361.578H153.901V357.422H151.089V356H153.901V353.266H155.636ZM150.854 361.953C153.854 361.953 155.683 362.953 155.683 364.672C155.683 366.391 153.854 367.375 150.854 367.375C147.87 367.375 146.042 366.391 146.058 364.672C146.042 362.953 147.87 361.953 150.854 361.953ZM150.854 363.297C148.886 363.297 147.776 363.781 147.776 364.672C147.776 365.531 148.886 366.016 150.854 366.016C152.823 366.016 153.948 365.531 153.948 364.672C153.948 363.781 152.823 363.297 150.854 363.297ZM168.456 353.281V357.719H170.425V359.156H168.456V363.828H166.722V353.281H168.456ZM165.706 354.844V356.234H157.331V354.844H160.659V353.266H162.394V354.844H165.706ZM161.519 356.812C163.55 356.812 164.956 357.891 164.972 359.516C164.956 361.125 163.55 362.188 161.519 362.188C159.472 362.188 158.05 361.125 158.05 359.516C158.05 357.891 159.472 356.812 161.519 356.812ZM161.519 358.156C160.441 358.156 159.738 358.656 159.738 359.516C159.738 360.359 160.441 360.859 161.519 360.844C162.597 360.859 163.316 360.359 163.316 359.516C163.316 358.656 162.597 358.156 161.519 358.156ZM169.019 365.703V367.109H159.409V363H161.144V365.703H169.019ZM187.176 360.203V361.578H174.301V360.203H179.848V358.906H175.535V357.5H177.394V355.078H175.457V353.688H185.988V355.078H184.051V357.5H185.91V358.906H181.582V360.203H187.176ZM185.613 362.688V367.219H175.816V362.688H185.613ZM177.535 364.047V365.812H183.926V364.047H177.535ZM179.129 357.5H182.301V355.078H179.129V357.5ZM203.051 353.281V361.891H201.301V353.281H203.051ZM198.52 354.125V358.266H193.739V359.781C196.161 359.773 197.872 359.695 199.895 359.391L200.114 360.781C197.879 361.141 195.973 361.203 193.239 361.203H192.036V356.969H196.801V355.547H192.004V354.125H198.52ZM198.301 362.141C201.301 362.141 203.129 363.094 203.129 364.766C203.129 366.406 201.301 367.375 198.301 367.375C195.286 367.375 193.473 366.406 193.473 364.766C193.473 363.094 195.286 362.141 198.301 362.141ZM198.301 363.5C196.301 363.5 195.192 363.938 195.192 364.766C195.192 365.578 196.301 366.016 198.301 366.016C200.286 366.016 201.395 365.578 201.395 364.766C201.395 363.938 200.286 363.5 198.301 363.5ZM216.247 354.578V356.266C216.247 358.312 216.247 360.266 215.622 363.25L213.888 363.094C214.177 361.859 214.341 360.773 214.434 359.766L206.106 360.203L205.872 358.797L214.513 358.469C214.544 357.711 214.544 356.984 214.544 356.266V355.984H206.294V354.578H216.247ZM217.669 364.172V365.594H204.794V364.172H217.669ZM231.193 359.672V360.984H218.286V359.672H231.193ZM229.63 361.828V365.047H221.536V366.031H230.052V367.234H219.802V363.922H227.911V363.047H219.786V361.828H229.63ZM229.599 353.578V356.766H221.646V357.688H229.849V358.875H219.927V355.641H227.864V354.781H219.88V353.578H229.599ZM247.053 353.266V360.844H245.303V353.266H247.053ZM239.428 361.5V362.953H245.318V361.5H247.053V367.219H237.709V361.5H239.428ZM239.428 365.812H245.318V364.312H239.428V365.812ZM239.349 353.891C241.521 353.875 243.146 355.234 243.146 357.203C243.146 359.125 241.521 360.484 239.349 360.484C237.162 360.484 235.537 359.125 235.537 357.203C235.537 355.234 237.162 353.875 239.349 353.891ZM239.349 355.344C238.115 355.344 237.224 356.062 237.24 357.203C237.224 358.328 238.115 359.047 239.349 359.062C240.568 359.047 241.443 358.328 241.443 357.203C241.443 356.062 240.568 355.344 239.349 355.344ZM255.545 354.109V358.359H251.092V360.094C253.357 360.102 254.662 360.031 256.154 359.75L256.326 361.156C254.639 361.438 253.17 361.484 250.404 361.484H249.373V357.062H253.811V355.484H249.342V354.109H255.545ZM260.623 353.281V361.969H258.889V359.641H256.389V358.25H258.889V356.672H256.389V355.281H258.889V353.281H260.623ZM260.623 362.641V367.391H258.889V364.031H250.967V362.641H260.623ZM273.366 353.266V358.891H275.538V360.328H273.366V367.391H271.647V353.266H273.366ZM270.553 355.438V356.828H262.225V355.438H265.569V353.469H267.303V355.438H270.553ZM266.444 357.75C268.475 357.75 269.991 359.125 269.991 361.078C269.991 363.031 268.475 364.391 266.444 364.391C264.381 364.391 262.866 363.031 262.881 361.078C262.866 359.125 264.381 357.75 266.444 357.75ZM266.444 359.172C265.334 359.172 264.538 359.922 264.538 361.078C264.538 362.234 265.334 362.969 266.444 362.953C267.522 362.969 268.319 362.234 268.334 361.078C268.319 359.922 267.522 359.172 266.444 359.172ZM283.061 354.453V355.578H285.905V353.281H287.639V363.562H285.905V360H283.061V361.219H276.421V354.453H283.061ZM278.155 355.828V359.859H281.342V355.828H278.155ZM287.952 365.703V367.109H278.327V362.609H280.092V365.703H287.952ZM283.061 358.609H285.905V357H283.061V358.609ZM66.7153 388V386.531L70.7153 382.672C71.8559 381.531 72.4497 380.859 72.4497 379.906C72.4497 378.859 71.6216 378.188 70.5122 378.188C69.3403 378.188 68.5903 378.922 68.6059 380.062H66.6684C66.6528 377.922 68.2622 376.531 70.5278 376.531C72.8403 376.531 74.4028 377.906 74.4028 379.812C74.4028 381.094 73.7778 382.125 71.5591 384.219L69.5434 386.219V386.297H74.5747V388H66.7153ZM75.5828 385.891V384.266L80.4734 376.688H83.0047V384.219H84.4891V385.891H83.0047V388H81.0672V385.891H75.5828ZM77.6609 384.219H81.0984V379H80.9734L77.6609 384.141V384.219ZM90.6691 378.656C90.6534 381.25 92.0128 383.844 94.3097 384.828L93.2784 386.219C91.6534 385.469 90.4581 383.969 89.8097 382.125C89.1612 384.117 87.9503 385.742 86.2316 386.547L85.1691 385.094C87.5284 384.078 88.9034 381.375 88.9034 378.656V376.406H90.6691V378.656ZM97.0753 375.266V389.406H95.3253V375.266H97.0753ZM109.974 375.266V379.328H111.943V380.781H109.974V385.453H108.208V375.266H109.974ZM106.13 376.344C106.13 380.094 103.693 382.766 99.5053 383.984L98.7866 382.609C102.013 381.68 103.935 379.922 104.24 377.766H99.3803V376.344H106.13ZM110.505 387.703V389.109H100.896V384.406H102.662V387.703H110.505ZM127.943 375.266V389.391H126.272V382.25H124.709V388.672H123.084V375.531H124.709V380.828H126.272V375.266H127.943ZM118.178 376.891V384.344C119.397 384.32 120.732 384.219 122.209 383.922L122.381 385.438C120.475 385.781 118.865 385.875 117.365 385.875H116.428V376.891H118.178ZM144.632 375.266V382.5H142.897V378.922H140.085V377.531H142.897V375.266H144.632ZM144.632 383.109V386.766H137.053V387.844H145.085V389.219H135.35V385.469H142.913V384.469H135.335V383.109H144.632ZM137.928 376.859C137.928 378.594 139.069 380.25 141.257 380.922L140.335 382.266C138.803 381.75 137.694 380.758 137.085 379.469C136.46 380.914 135.303 382.031 133.632 382.578L132.725 381.188C134.991 380.5 136.178 378.766 136.178 376.859V375.734H137.928V376.859ZM159.202 382.328V383.719H153.749V386.312H152.03V383.719H146.296V382.328H159.202ZM157.546 375.906V381.016H147.937V375.906H157.546ZM149.624 377.266V379.656H155.827V377.266H149.624ZM157.78 387.703V389.109H147.858V385.016H149.593V387.703H157.78ZM167.562 375.875C169.625 375.875 171.093 377.016 171.109 378.719C171.093 380.117 170.039 381.172 168.468 381.469V382.609C169.64 382.547 170.82 382.438 171.922 382.281L172.062 383.547C169.125 384.078 165.843 384.125 163.453 384.125L163.265 382.734C164.281 382.742 165.468 382.734 166.718 382.688V381.469C165.101 381.203 164.015 380.141 164.031 378.719C164.015 377.016 165.484 375.875 167.562 375.875ZM167.562 377.203C166.437 377.203 165.64 377.766 165.656 378.719C165.64 379.641 166.437 380.219 167.562 380.234C168.687 380.219 169.453 379.641 169.468 378.719C169.453 377.766 168.687 377.203 167.562 377.203ZM174.484 375.281V379.844H176.39V381.281H174.484V386.062H172.75V375.281H174.484ZM174.984 387.688V389.094H165.203V385.109H166.937V387.688H174.984ZM189.711 386.312V387.75H176.805V386.312H180.227V383.984H178.336V379.375H186.461V377.641H178.305V376.234H188.18V380.766H180.07V382.578H188.508V383.984H186.445V386.312H189.711ZM181.914 386.312H184.742V383.984H181.914V386.312ZM199.774 376.797V380.469H201.415V375.516H203.071V388.703H201.415V381.875H199.774V385.75H194.227V376.797H199.774ZM195.852 378.172V384.375H198.149V378.172H195.852ZM205.977 375.266V389.391H204.305V375.266H205.977ZM211.298 375.719C213.438 375.719 215.032 377.047 215.048 378.906C215.032 380.781 213.438 382.094 211.298 382.094C209.142 382.094 207.548 380.781 207.548 378.906C207.548 377.047 209.142 375.719 211.298 375.719ZM211.298 377.156C210.11 377.156 209.235 377.828 209.235 378.906C209.235 380 210.11 380.688 211.298 380.688C212.485 380.688 213.36 380 213.36 378.906C213.36 377.828 212.485 377.156 211.298 377.156ZM219.063 375.266V382.406H217.313V375.266H219.063ZM219.063 383.016V386.703H211.423V387.844H219.485V389.219H209.72V385.422H217.329V384.375H209.688V383.016H219.063ZM227.228 375.484C230.447 375.484 232.306 376.344 232.322 377.906C232.306 379.484 230.447 380.328 227.228 380.344C224.009 380.328 222.134 379.484 222.134 377.906C222.134 376.344 224.009 375.484 227.228 375.484ZM227.228 376.766C225.072 376.766 223.947 377.172 223.962 377.906C223.947 378.688 225.072 379.047 227.228 379.047C229.415 379.047 230.525 378.688 230.525 377.906C230.525 377.172 229.415 376.766 227.228 376.766ZM233.681 381.094V382.484H220.806V381.094H233.681ZM232.072 383.438V386.891H224.04V387.938H232.462V389.266H222.337V385.656H230.368V384.719H222.322V383.438H232.072ZM239.994 375.891V377.688H243.291V375.891H245.01V382.047H238.275V375.891H239.994ZM239.994 380.672H243.291V379H239.994V380.672ZM248.932 375.266V378.125H250.9V379.531H248.932V382.5H247.197V375.266H248.932ZM248.932 383.062V386.766H241.432V387.891H249.369V389.266H239.713V385.5H247.197V384.422H239.697V383.062H248.932ZM258.58 380.25V382.094H264.174V383.484H251.299V382.094H256.862V380.25H258.58ZM258.596 376.031C258.596 377.75 260.487 379.312 263.44 379.688L262.768 381.047C260.448 380.688 258.604 379.641 257.705 378.156C256.799 379.641 254.955 380.688 252.627 381.047L252.002 379.688C254.908 379.312 256.83 377.719 256.83 376.031V375.5H258.596V376.031ZM257.721 384.406C260.783 384.406 262.596 385.297 262.612 386.891C262.596 388.484 260.783 389.375 257.721 389.375C254.643 389.375 252.799 388.484 252.799 386.891C252.799 385.297 254.643 384.406 257.721 384.406ZM257.721 385.734C255.643 385.734 254.549 386.109 254.565 386.891C254.549 387.672 255.643 388.062 257.721 388.062C259.752 388.062 260.862 387.672 260.877 386.891C260.862 386.109 259.752 385.734 257.721 385.734ZM271.698 377.516V378.906H264.776V377.516H267.401V375.672H269.12V377.516H271.698ZM268.26 379.656C270.057 379.656 271.338 381.016 271.338 382.938C271.338 384.891 270.057 386.266 268.26 386.266C266.479 386.266 265.167 384.891 265.182 382.938C265.167 381.016 266.479 379.656 268.26 379.656ZM268.26 381.094C267.338 381.094 266.698 381.828 266.713 382.938C266.698 384.078 267.338 384.797 268.26 384.781C269.167 384.797 269.807 384.078 269.807 382.938C269.807 381.828 269.167 381.094 268.26 381.094ZM276.948 375.266V389.391H275.292V382.484H273.917V388.75H272.292V375.562H273.917V381.078H275.292V375.266H276.948ZM283.768 377.656C283.768 378.797 284.956 379.859 287.081 380.203L286.393 381.531C284.745 381.234 283.55 380.5 282.909 379.516C282.268 380.586 281.042 381.383 279.284 381.719L278.581 380.375C280.8 380 281.987 378.875 281.987 377.656V377.594H279.128V376.219H286.643V377.594H283.768V377.656ZM290.237 375.281V389.375H288.472V386.219H285.472V384.891H288.472V375.281H290.237ZM278.253 382.641C280.862 382.641 284.409 382.609 287.472 382.188L287.581 383.469C286.3 383.695 284.972 383.844 283.675 383.922V388.953H281.925V384.016C280.69 384.062 279.511 384.07 278.472 384.078L278.253 382.641ZM304.73 386.25V387.672H291.823V386.25H294.808V382.672C293.683 382.031 293.003 381.023 293.011 379.766C292.995 377.516 295.214 376.031 298.245 376.031C301.292 376.031 303.511 377.516 303.511 379.766C303.511 381 302.855 381.992 301.761 382.641V386.25H304.73ZM298.245 377.406C296.136 377.406 294.698 378.297 294.714 379.766C294.698 381.219 296.136 382.125 298.245 382.125C300.355 382.125 301.808 381.219 301.808 379.766C301.808 378.297 300.355 377.406 298.245 377.406ZM296.527 386.25H299.995V383.297C299.456 383.422 298.87 383.484 298.245 383.484C297.636 383.484 297.058 383.422 296.527 383.312V386.25ZM307.05 388.125C306.378 388.125 305.832 387.578 305.832 386.906C305.832 386.25 306.378 385.703 307.05 385.703C307.691 385.703 308.253 386.25 308.253 386.906C308.253 387.578 307.691 388.125 307.05 388.125Z" fill="#929797"/>
<defs>
<filter id="filter0_iiii_474_612" x="69.8441" y="224.748" width="34.9216" height="29.3397" filterUnits="userSpaceOnUse" color-interpolation-filters="sRGB">
<feFlood flood-opacity="0" result="BackgroundImageFix"/>
<feBlend mode="normal" in="SourceGraphic" in2="BackgroundImageFix" result="shape"/>
<feColorMatrix in="SourceAlpha" type="matrix" values="0 0 0 0 0 0 0 0 0 0 0 0 0 0 0 0 0 0 127 0" result="hardAlpha"/>
<feOffset dy="1.74925"/>
<feGaussianBlur stdDeviation="0.874623"/>
<feComposite in2="hardAlpha" operator="arithmetic" k2="-1" k3="1"/>
<feColorMatrix type="matrix" values="0 0 0 0 0.731483 0 0 0 0 1 0 0 0 0 0.982099 0 0 0 0.25 0"/>
<feBlend mode="normal" in2="shape" result="effect1_innerShadow_474_612"/>
<feColorMatrix in="SourceAlpha" type="matrix" values="0 0 0 0 0 0 0 0 0 0 0 0 0 0 0 0 0 0 127 0" result="hardAlpha"/>
<feOffset dy="-1.74925"/>
<feGaussianBlur stdDeviation="0.874623"/>
<feComposite in2="hardAlpha" operator="arithmetic" k2="-1" k3="1"/>
<feColorMatrix type="matrix" values="0 0 0 0 0 0 0 0 0 0.454872 0 0 0 0 0.250179 0 0 0 0.25 0"/>
<feBlend mode="normal" in2="effect1_innerShadow_474_612" result="effect2_innerShadow_474_612"/>
<feColorMatrix in="SourceAlpha" type="matrix" values="0 0 0 0 0 0 0 0 0 0 0 0 0 0 0 0 0 0 127 0" result="hardAlpha"/>
<feOffset dy="1.85507"/>
<feGaussianBlur stdDeviation="1.85507"/>
<feComposite in2="hardAlpha" operator="arithmetic" k2="-1" k3="1"/>
<feColorMatrix type="matrix" values="0 0 0 0 1 0 0 0 0 1 0 0 0 0 1 0 0 0 0.7 0"/>
<feBlend mode="normal" in2="effect2_innerShadow_474_612" result="effect3_innerShadow_474_612"/>
<feColorMatrix in="SourceAlpha" type="matrix" values="0 0 0 0 0 0 0 0 0 0 0 0 0 0 0 0 0 0 127 0" result="hardAlpha"/>
<feOffset dy="-0.463767"/>
<feGaussianBlur stdDeviation="1.85507"/>
<feComposite in2="hardAlpha" operator="arithmetic" k2="-1" k3="1"/>
<feColorMatrix type="matrix" values="0 0 0 0 0.0645636 0 0 0 0 0.597581 0 0 0 0 0.385741 0 0 0 0.4 0"/>
<feBlend mode="normal" in2="effect3_innerShadow_474_612" result="effect4_innerShadow_474_612"/>
</filter>
<filter id="filter1_iiii_474_612" x="54.3334" y="218.485" width="35.4743" height="28.617" filterUnits="userSpaceOnUse" color-interpolation-filters="sRGB">
<feFlood flood-opacity="0" result="BackgroundImageFix"/>
<feBlend mode="normal" in="SourceGraphic" in2="BackgroundImageFix" result="shape"/>
<feColorMatrix in="SourceAlpha" type="matrix" values="0 0 0 0 0 0 0 0 0 0 0 0 0 0 0 0 0 0 127 0" result="hardAlpha"/>
<feOffset dy="1.74925"/>
<feGaussianBlur stdDeviation="0.874623"/>
<feComposite in2="hardAlpha" operator="arithmetic" k2="-1" k3="1"/>
<feColorMatrix type="matrix" values="0 0 0 0 0.731483 0 0 0 0 1 0 0 0 0 0.982099 0 0 0 0.25 0"/>
<feBlend mode="normal" in2="shape" result="effect1_innerShadow_474_612"/>
<feColorMatrix in="SourceAlpha" type="matrix" values="0 0 0 0 0 0 0 0 0 0 0 0 0 0 0 0 0 0 127 0" result="hardAlpha"/>
<feOffset dy="-1.74925"/>
<feGaussianBlur stdDeviation="0.874623"/>
<feComposite in2="hardAlpha" operator="arithmetic" k2="-1" k3="1"/>
<feColorMatrix type="matrix" values="0 0 0 0 0 0 0 0 0 0.454872 0 0 0 0 0.250179 0 0 0 0.25 0"/>
<feBlend mode="normal" in2="effect1_innerShadow_474_612" result="effect2_innerShadow_474_612"/>
<feColorMatrix in="SourceAlpha" type="matrix" values="0 0 0 0 0 0 0 0 0 0 0 0 0 0 0 0 0 0 127 0" result="hardAlpha"/>
<feOffset dy="1.85507"/>
<feGaussianBlur stdDeviation="1.85507"/>
<feComposite in2="hardAlpha" operator="arithmetic" k2="-1" k3="1"/>
<feColorMatrix type="matrix" values="0 0 0 0 1 0 0 0 0 1 0 0 0 0 1 0 0 0 0.7 0"/>
<feBlend mode="normal" in2="effect2_innerShadow_474_612" result="effect3_innerShadow_474_612"/>
<feColorMatrix in="SourceAlpha" type="matrix" values="0 0 0 0 0 0 0 0 0 0 0 0 0 0 0 0 0 0 127 0" result="hardAlpha"/>
<feOffset dy="-0.463767"/>
<feGaussianBlur stdDeviation="1.85507"/>
<feComposite in2="hardAlpha" operator="arithmetic" k2="-1" k3="1"/>
<feColorMatrix type="matrix" values="0 0 0 0 0.0645636 0 0 0 0 0.597581 0 0 0 0 0.385741 0 0 0 0.4 0"/>
<feBlend mode="normal" in2="effect3_innerShadow_474_612" result="effect4_innerShadow_474_612"/>
</filter>
<filter id="filter2_iiii_474_612" x="170.47" y="217.214" width="35.0202" height="41.1189" filterUnits="userSpaceOnUse" color-interpolation-filters="sRGB">
<feFlood flood-opacity="0" result="BackgroundImageFix"/>
<feBlend mode="normal" in="SourceGraphic" in2="BackgroundImageFix" result="shape"/>
<feColorMatrix in="SourceAlpha" type="matrix" values="0 0 0 0 0 0 0 0 0 0 0 0 0 0 0 0 0 0 127 0" result="hardAlpha"/>
<feOffset dy="1.61816"/>
<feGaussianBlur stdDeviation="0.809078"/>
<feComposite in2="hardAlpha" operator="arithmetic" k2="-1" k3="1"/>
<feColorMatrix type="matrix" values="0 0 0 0 0.731483 0 0 0 0 1 0 0 0 0 0.982099 0 0 0 0.25 0"/>
<feBlend mode="normal" in2="shape" result="effect1_innerShadow_474_612"/>
<feColorMatrix in="SourceAlpha" type="matrix" values="0 0 0 0 0 0 0 0 0 0 0 0 0 0 0 0 0 0 127 0" result="hardAlpha"/>
<feOffset dy="-1.61816"/>
<feGaussianBlur stdDeviation="0.809078"/>
<feComposite in2="hardAlpha" operator="arithmetic" k2="-1" k3="1"/>
<feColorMatrix type="matrix" values="0 0 0 0 0 0 0 0 0 0.454872 0 0 0 0 0.250179 0 0 0 0.25 0"/>
<feBlend mode="normal" in2="effect1_innerShadow_474_612" result="effect2_innerShadow_474_612"/>
<feColorMatrix in="SourceAlpha" type="matrix" values="0 0 0 0 0 0 0 0 0 0 0 0 0 0 0 0 0 0 127 0" result="hardAlpha"/>
<feOffset dy="1.71605"/>
<feGaussianBlur stdDeviation="1.71605"/>
<feComposite in2="hardAlpha" operator="arithmetic" k2="-1" k3="1"/>
<feColorMatrix type="matrix" values="0 0 0 0 1 0 0 0 0 1 0 0 0 0 1 0 0 0 0.7 0"/>
<feBlend mode="normal" in2="effect2_innerShadow_474_612" result="effect3_innerShadow_474_612"/>
<feColorMatrix in="SourceAlpha" type="matrix" values="0 0 0 0 0 0 0 0 0 0 0 0 0 0 0 0 0 0 127 0" result="hardAlpha"/>
<feOffset dy="-0.429013"/>
<feGaussianBlur stdDeviation="1.71605"/>
<feComposite in2="hardAlpha" operator="arithmetic" k2="-1" k3="1"/>
<feColorMatrix type="matrix" values="0 0 0 0 0.0645636 0 0 0 0 0.597581 0 0 0 0 0.385741 0 0 0 0.4 0"/>
<feBlend mode="normal" in2="effect3_innerShadow_474_612" result="effect4_innerShadow_474_612"/>
</filter>
<filter id="filter3_f_474_612" x="155.264" y="208.011" width="62.2069" height="54.2407" filterUnits="userSpaceOnUse" color-interpolation-filters="sRGB">
<feFlood flood-opacity="0" result="BackgroundImageFix"/>
<feBlend mode="normal" in="SourceGraphic" in2="BackgroundImageFix" result="shape"/>
<feGaussianBlur stdDeviation="4.60792" result="effect1_foregroundBlur_474_612"/>
</filter>
<filter id="filter4_iiii_474_612" x="275.657" y="220.866" width="40.2234" height="33.0926" filterUnits="userSpaceOnUse" color-interpolation-filters="sRGB">
<feFlood flood-opacity="0" result="BackgroundImageFix"/>
<feBlend mode="normal" in="SourceGraphic" in2="BackgroundImageFix" result="shape"/>
<feColorMatrix in="SourceAlpha" type="matrix" values="0 0 0 0 0 0 0 0 0 0 0 0 0 0 0 0 0 0 127 0" result="hardAlpha"/>
<feOffset dy="1.96183"/>
<feGaussianBlur stdDeviation="0.980917"/>
<feComposite in2="hardAlpha" operator="arithmetic" k2="-1" k3="1"/>
<feColorMatrix type="matrix" values="0 0 0 0 0.731483 0 0 0 0 1 0 0 0 0 0.982099 0 0 0 0.25 0"/>
<feBlend mode="normal" in2="shape" result="effect1_innerShadow_474_612"/>
<feColorMatrix in="SourceAlpha" type="matrix" values="0 0 0 0 0 0 0 0 0 0 0 0 0 0 0 0 0 0 127 0" result="hardAlpha"/>
<feOffset dy="-1.96183"/>
<feGaussianBlur stdDeviation="0.980917"/>
<feComposite in2="hardAlpha" operator="arithmetic" k2="-1" k3="1"/>
<feColorMatrix type="matrix" values="0 0 0 0 0 0 0 0 0 0.454872 0 0 0 0 0.250179 0 0 0 0.25 0"/>
<feBlend mode="normal" in2="effect1_innerShadow_474_612" result="effect2_innerShadow_474_612"/>
<feColorMatrix in="SourceAlpha" type="matrix" values="0 0 0 0 0 0 0 0 0 0 0 0 0 0 0 0 0 0 127 0" result="hardAlpha"/>
<feOffset dy="2.08052"/>
<feGaussianBlur stdDeviation="2.08052"/>
<feComposite in2="hardAlpha" operator="arithmetic" k2="-1" k3="1"/>
<feColorMatrix type="matrix" values="0 0 0 0 1 0 0 0 0 1 0 0 0 0 1 0 0 0 0.7 0"/>
<feBlend mode="normal" in2="effect2_innerShadow_474_612" result="effect3_innerShadow_474_612"/>
<feColorMatrix in="SourceAlpha" type="matrix" values="0 0 0 0 0 0 0 0 0 0 0 0 0 0 0 0 0 0 127 0" result="hardAlpha"/>
<feOffset dy="-0.52013"/>
<feGaussianBlur stdDeviation="2.08052"/>
<feComposite in2="hardAlpha" operator="arithmetic" k2="-1" k3="1"/>
<feColorMatrix type="matrix" values="0 0 0 0 0.0645636 0 0 0 0 0.597581 0 0 0 0 0.385741 0 0 0 0.4 0"/>
<feBlend mode="normal" in2="effect3_innerShadow_474_612" result="effect4_innerShadow_474_612"/>
</filter>
<filter id="filter5_i_474_612" x="275.657" y="222.828" width="40.2234" height="16.6054" filterUnits="userSpaceOnUse" color-interpolation-filters="sRGB">
<feFlood flood-opacity="0" result="BackgroundImageFix"/>
<feBlend mode="normal" in="SourceGraphic" in2="BackgroundImageFix" result="shape"/>
<feColorMatrix in="SourceAlpha" type="matrix" values="0 0 0 0 0 0 0 0 0 0 0 0 0 0 0 0 0 0 127 0" result="hardAlpha"/>
<feOffset dy="2.08052"/>
<feGaussianBlur stdDeviation="2.08052"/>
<feComposite in2="hardAlpha" operator="arithmetic" k2="-1" k3="1"/>
<feColorMatrix type="matrix" values="0 0 0 0 1 0 0 0 0 1 0 0 0 0 1 0 0 0 0.7 0"/>
<feBlend mode="normal" in2="shape" result="effect1_innerShadow_474_612"/>
</filter>
<filter id="filter6_f_474_612" x="266.037" y="213.131" width="61.3854" height="32.5252" filterUnits="userSpaceOnUse" color-interpolation-filters="sRGB">
<feFlood flood-opacity="0" result="BackgroundImageFix"/>
<feBlend mode="normal" in="SourceGraphic" in2="BackgroundImageFix" result="shape"/>
<feGaussianBlur stdDeviation="4.581" result="effect1_foregroundBlur_474_612"/>
</filter>
<linearGradient id="paint0_linear_474_612" x1="186.368" y1="217.227" x2="186.368" y2="253.036" gradientUnits="userSpaceOnUse">
<stop stop-color="white"/>
<stop offset="1" stop-color="white" stop-opacity="0"/>
</linearGradient>
<linearGradient id="paint1_linear_474_612" x1="295.769" y1="227.297" x2="295.769" y2="245.174" gradientUnits="userSpaceOnUse">
<stop stop-color="#17B677"/>
<stop offset="1" stop-color="#17B677" stop-opacity="0"/>
</linearGradient>
<linearGradient id="paint2_linear_474_612" x1="295.769" y1="227.297" x2="295.769" y2="239.587" gradientUnits="userSpaceOnUse">
<stop stop-color="#169F69"/>
<stop offset="1" stop-color="#17B677" stop-opacity="0"/>
</linearGradient>
<linearGradient id="paint3_linear_474_612" x1="282.361" y1="232.325" x2="287.389" y2="242.381" gradientUnits="userSpaceOnUse">
<stop stop-color="#1FC685"/>
<stop offset="1" stop-color="#18BA7A"/>
</linearGradient>
<linearGradient id="paint4_linear_474_612" x1="309.176" y1="232.325" x2="304.149" y2="242.381" gradientUnits="userSpaceOnUse">
<stop stop-color="#1FC685"/>
<stop offset="1" stop-color="#18BA7A"/>
</linearGradient>
<linearGradient id="paint5_linear_474_612" x1="275.657" y1="223.667" x2="318.26" y2="229.394" gradientUnits="userSpaceOnUse">
<stop stop-color="white"/>
<stop offset="1" stop-color="white" stop-opacity="0"/>
</linearGradient>
<clipPath id="clip0_474_612">
<rect width="54" height="54" fill="white" transform="translate(268.5 210)"/>
</clipPath>
</defs>
</svg>
