<svg width="24" height="26" viewBox="0 0 24 26" fill="none" xmlns="http://www.w3.org/2000/svg">
<path fill-rule="evenodd" clip-rule="evenodd" d="M13.8151 12.9999L19.4661 6.87799C19.5775 6.75728 19.666 6.61395 19.7264 6.45621C19.7867 6.29847 19.8178 6.12939 19.8179 5.95862C19.8179 5.78786 19.7869 5.61876 19.7266 5.46097C19.6664 5.3032 19.578 5.15982 19.4666 5.03904C19.3551 4.91824 19.2228 4.82242 19.0772 4.75703C18.9316 4.69163 18.7755 4.65795 18.6179 4.6579C18.4603 4.65785 18.3042 4.69144 18.1585 4.75673C18.0129 4.82203 17.8805 4.91778 17.7691 5.03849L12.1181 11.1615L6.46605 5.03849C6.23841 4.80815 5.93706 4.68263 5.62561 4.68844C5.31416 4.69423 5.01698 4.83091 4.79678 5.0696C4.57658 5.30828 4.4506 5.63031 4.44543 5.96771C4.44026 6.30513 4.5563 6.63151 4.76905 6.87799L10.4211 12.9999L4.76905 19.1218C4.60201 19.304 4.48843 19.5357 4.4426 19.7876C4.39677 20.0396 4.42073 20.3007 4.51147 20.5379C4.60221 20.7752 4.75568 20.978 4.95258 21.121C5.14947 21.264 5.381 21.3408 5.61805 21.3415C5.92505 21.3415 6.23205 21.2148 6.46605 20.9613L12.1181 14.8383L17.7691 20.9613C17.8803 21.0823 18.0126 21.1783 18.1582 21.2437C18.3038 21.3092 18.4599 21.3429 18.6176 21.3429C18.7752 21.3429 18.9313 21.3092 19.0769 21.2437C19.2225 21.1783 19.3548 21.0823 19.4661 20.9613C19.5776 20.8406 19.6661 20.6972 19.7265 20.5394C19.7869 20.3816 19.818 20.2124 19.818 20.0415C19.818 19.8707 19.7869 19.7016 19.7265 19.5437C19.6661 19.3859 19.5776 19.2426 19.4661 19.1218L13.8151 12.9999Z" fill="white"/>
</svg>
