<svg width="54" height="54" viewBox="0 0 54 54" fill="none" xmlns="http://www.w3.org/2000/svg">
<rect width="54" height="54" rx="27" fill="#04CB98"/>
<path fill-rule="evenodd" clip-rule="evenodd" d="M35.6 26.2H28.6V19.2C28.6 18.8817 28.4735 18.5765 28.2485 18.3515C28.0235 18.1264 27.7182 18 27.4 18C27.0817 18 26.7765 18.1264 26.5514 18.3515C26.3264 18.5765 26.2 18.8817 26.2 19.2V26.2H19.2C18.8817 26.2 18.5765 26.3264 18.3514 26.5515C18.1264 26.7765 18 27.0817 18 27.4C18 27.7183 18.1264 28.0235 18.3514 28.2485C18.5765 28.4736 18.8817 28.6 19.2 28.6H26.2V35.6C26.2 35.9183 26.3264 36.2235 26.5514 36.4485C26.7765 36.6736 27.0817 36.8 27.4 36.8C27.7182 36.8 28.0235 36.6736 28.2485 36.4485C28.4735 36.2235 28.6 35.9183 28.6 35.6V28.6H35.6C35.9182 28.6 36.2235 28.4736 36.4485 28.2485C36.6735 28.0235 36.8 27.7183 36.8 27.4C36.8 27.0817 36.6735 26.7765 36.4485 26.5515C36.2235 26.3264 35.9182 26.2 35.6 26.2Z" fill="white"/>
</svg>
