<svg width="24" height="26" viewBox="0 0 24 26" fill="none" xmlns="http://www.w3.org/2000/svg">
<path d="M8.39999 23.4C6.49999 23.4 4.49999 22.6417 3.09999 21.0167C0.199988 17.875 0.199988 12.675 3.09999 9.42499L7.59999 4.54999C7.99999 4.11666 8.69999 4.11666 9.19999 4.54999C9.59999 4.98333 9.59999 5.74166 9.19999 6.28333L4.69999 11.1583C2.59999 13.4333 2.59999 17.1167 4.69999 19.2833C6.79999 21.5583 10.2 21.5583 12.2 19.2833L20 10.8333C21.2 9.53333 21.2 7.25833 20 5.95833C18.8 4.65833 16.7 4.65833 15.5 5.95833L8.39999 13.65C7.99999 14.0833 7.99999 14.8417 8.39999 15.275C8.79999 15.7083 9.49999 15.7083 9.89999 15.275L14.7 10.075C15.1 9.64166 15.8 9.64166 16.3 10.075C16.7 10.5083 16.7 11.2667 16.3 11.8083L11.5 17.0083C10.1 18.4167 7.99999 18.4167 6.79999 17.0083C5.49999 15.6 5.49999 13.4333 6.79999 12.025L13.9 4.33333C16 2.05833 19.4 2.05833 21.5 4.33333C23.6 6.60833 23.6 10.2917 21.5 12.5667L13.7 21.0167C12.3 22.5333 10.4 23.4 8.39999 23.4Z" fill="#04CB98"/>
</svg>
